<?xml version="1.0" encoding="UTF-8" standalone="no"?>
<svg height="800.0pt" stroke-miterlimit="10" style="fill-rule:nonzero;clip-rule:evenodd;stroke-linecap:round;stroke-linejoin:round;" version="1.1" viewBox="0 0 800 800" width="800.0pt" xml:space="preserve" xmlns="http://www.w3.org/2000/svg" xmlns:xlink="http://www.w3.org/1999/xlink">
<defs/>
<g id="Untitled">
<path d="M7.10513 475.194L117.129 423.1L227.152 475.194L117.129 527.289L7.10513 475.194Z" fill="#ff0000" fill-rule="nonzero" opacity="1" stroke="none"/>
<path d="M7.10513 475.194L117.129 527.289L117.129 631.479L7.10513 579.384L7.10513 475.194Z" fill="#fd59ff" fill-rule="nonzero" opacity="1" stroke="none"/>
<path d="M117.129 527.289L227.152 475.194L227.152 579.384L170.49 606.215L117.129 631.479L117.129 527.289Z" fill="#8e00cb" fill-rule="nonzero" opacity="1" stroke="none"/>
<path d="M7.10513 371.005L117.129 318.91L227.152 371.005L117.129 423.1L7.10513 371.005Z" fill="#ff0000" fill-rule="nonzero" opacity="1" stroke="none"/>
<path d="M7.10513 371.005L117.129 423.1L117.129 527.289L7.10513 475.194L7.10513 371.005Z" fill="#fd59ff" fill-rule="nonzero" opacity="1" stroke="none"/>
<path d="M117.129 423.1L227.152 371.005L227.152 475.194L117.129 527.289L117.129 423.1Z" fill="#8e00cb" fill-rule="nonzero" opacity="1" stroke="none"/>
<path d="M7.10513 266.815L117.129 214.72L227.152 266.815L117.129 318.91L7.10513 266.815Z" fill="#ff0000" fill-rule="nonzero" opacity="1" stroke="none"/>
<path d="M7.10513 266.815L117.129 318.91L117.129 423.1L7.10513 371.005L7.10513 266.815Z" fill="#fd59ff" fill-rule="nonzero" opacity="1" stroke="none"/>
<path d="M117.129 318.91L227.152 266.815L227.152 371.005L117.129 423.1L117.129 318.91Z" fill="#8e00cb" fill-rule="nonzero" opacity="1" stroke="none"/>
<path d="M7.10513 162.626L117.129 110.531L227.152 162.626L117.129 214.72L7.10513 162.626Z" fill="#ff0000" fill-rule="nonzero" opacity="1" stroke="none"/>
<path d="M7.10513 162.626L117.129 214.72L117.129 318.91L7.10513 266.815L7.10513 162.626Z" fill="#fd59ff" fill-rule="nonzero" opacity="1" stroke="none"/>
<path d="M117.129 214.72L227.152 162.626L227.152 266.815L117.129 318.91L117.129 214.72Z" fill="#8e00cb" fill-rule="nonzero" opacity="1" stroke="none"/>
<path d="M7.10513 58.4361L117.129 6.3413L227.152 58.4361L117.129 110.531L7.10513 58.4361Z" fill="#3e68ff" fill-rule="nonzero" opacity="1" stroke="none"/>
<path d="M7.10513 58.4361L117.129 110.531L117.129 214.72L7.10513 162.626L7.10513 58.4361Z" fill="#fd59ff" fill-rule="nonzero" opacity="1" stroke="none"/>
<path d="M117.129 110.531L227.152 58.4361L227.152 162.626L117.129 214.72L117.129 110.531Z" fill="#8e00cb" fill-rule="nonzero" opacity="1" stroke="none"/>
<path d="M117.129 110.531L227.152 58.4361L337.176 110.531L227.152 162.626L117.129 110.531Z" fill="#3e68ff" fill-rule="nonzero" opacity="1" stroke="none"/>
<path d="M117.129 110.531L227.152 162.626L227.152 266.815L117.129 214.72L117.129 110.531Z" fill="#fd59ff" fill-rule="nonzero" opacity="1" stroke="none"/>
<path d="M227.152 162.626L337.176 110.531L337.176 214.72L227.152 266.815L227.152 162.626Z" fill="#8e00cb" fill-rule="nonzero" opacity="1" stroke="none"/>
<path d="M227.152 162.626L337.176 110.531L447.2 162.626L337.176 214.72C337.176 214.72 227.152 162.626 227.152 162.626Z" fill="#3e68ff" fill-rule="nonzero" opacity="1" stroke="none"/>
<path d="M227.152 162.626L337.176 214.72L337.176 318.91L227.152 266.815L227.152 162.626Z" fill="#fd59ff" fill-rule="nonzero" opacity="1" stroke="none"/>
<path d="M337.176 214.72L447.2 162.626L447.2 266.815L337.176 318.91C337.176 318.91 337.176 214.72 337.176 214.72Z" fill="#8e00cb" fill-rule="nonzero" opacity="1" stroke="none"/>
<path d="M117.129 527.289L227.152 475.194L337.176 527.289L227.152 579.384L117.129 527.289Z" fill="#3e68ff" fill-rule="nonzero" opacity="1" stroke="none"/>
<path d="M117.129 527.289L227.152 579.384L227.152 683.574L117.129 631.479L117.129 527.289Z" fill="#fd59ff" fill-rule="nonzero" opacity="1" stroke="none"/>
<path d="M227.152 579.384L337.176 527.289L337.176 631.479L227.152 683.574L227.152 579.384Z" fill="#8e00cb" fill-rule="nonzero" opacity="1" stroke="none"/>
<path d="M227.152 579.384L337.176 527.289L447.2 579.384L337.176 631.479C337.176 631.479 227.152 579.384 227.152 579.384Z" fill="#3e68ff" fill-rule="nonzero" opacity="1" stroke="none"/>
<path d="M227.152 579.384L337.176 631.479L337.176 735.668L227.152 683.574L227.152 579.384Z" fill="#fd59ff" fill-rule="nonzero" opacity="1" stroke="none"/>
<path d="M337.176 631.479L447.2 579.384L447.2 683.574L337.176 735.668C337.176 735.668 337.176 631.479 337.176 631.479Z" fill="#8e00cb" fill-rule="nonzero" opacity="1" stroke="none"/>
<path d="M354.071 641.748L464.095 589.653L574.119 641.748L464.095 693.843C464.095 693.843 354.071 641.748 354.071 641.748Z" fill="#ff0000" fill-rule="nonzero" opacity="1" stroke="none"/>
<path d="M354.071 641.748L464.095 693.843L464.095 798.032L354.071 745.937C354.071 745.937 354.071 641.748 354.071 641.748Z" fill="#f876ff" fill-rule="nonzero" opacity="1" stroke="none"/>
<path d="M464.095 693.843L574.119 641.748L574.119 745.937L464.095 798.032L464.095 693.843Z" fill="#8e00aa" fill-rule="nonzero" opacity="1" stroke="none"/>
<path d="M574.119 537.558L684.142 485.463L794.166 537.558L684.142 589.653L574.119 537.558Z" fill="#3e68ff" fill-rule="nonzero" opacity="1" stroke="none"/>
<path d="M574.119 537.558L684.142 589.653L684.142 693.843L574.119 641.748L574.119 537.558Z" fill="#f876ff" fill-rule="nonzero" opacity="1" stroke="none"/>
<path d="M684.142 589.653L794.166 537.558L794.166 641.748L684.142 693.843L684.142 589.653Z" fill="#8e00aa" fill-rule="nonzero" opacity="1" stroke="none"/>
<path d="M464.095 589.653L574.119 537.558L684.142 589.653L574.119 641.748L464.095 589.653Z" fill="#3e68ff" fill-rule="nonzero" opacity="1" stroke="none"/>
<path d="M464.095 589.653L574.119 641.748L574.119 745.937L464.095 693.843L464.095 589.653Z" fill="#f876ff" fill-rule="nonzero" opacity="1" stroke="none"/>
<path d="M574.119 641.748L684.142 589.653L684.142 693.843L574.119 745.937L574.119 641.748Z" fill="#8e00aa" fill-rule="nonzero" opacity="1" stroke="none"/>
<path d="M354.071 641.748L464.095 589.653L574.119 641.748L464.095 693.843C464.095 693.843 354.071 641.748 354.071 641.748Z" fill="#ff0000" fill-rule="nonzero" opacity="1" stroke="none"/>
<path d="M354.071 641.748L464.095 693.843L464.095 798.032L354.071 745.937C354.071 745.937 354.071 641.748 354.071 641.748Z" fill="#f876ff" fill-rule="nonzero" opacity="1" stroke="none"/>
<path d="M464.095 693.843L574.119 641.748L574.119 745.937L464.095 798.032L464.095 693.843Z" fill="#8e00aa" fill-rule="nonzero" opacity="1" stroke="none"/>
<path d="M354.071 537.558L464.095 485.463L574.119 537.558L464.095 589.653C464.095 589.653 354.071 537.558 354.071 537.558Z" fill="#ff0000" fill-rule="nonzero" opacity="1" stroke="none"/>
<path d="M354.071 537.558L464.095 589.653L464.095 693.843L354.071 641.748C354.071 641.748 354.071 537.558 354.071 537.558Z" fill="#f876ff" fill-rule="nonzero" opacity="1" stroke="none"/>
<path d="M464.095 589.653L574.119 537.558L574.119 641.748L464.095 693.843L464.095 589.653Z" fill="#8e00aa" fill-rule="nonzero" opacity="1" stroke="none"/>
<path d="M354.071 433.369L464.095 381.274L574.119 433.369L464.095 485.463C464.095 485.463 354.071 433.369 354.071 433.369Z" fill="#ff0000" fill-rule="nonzero" opacity="1" stroke="none"/>
<path d="M354.071 433.369L464.095 485.463L464.095 589.653L354.071 537.558C354.071 537.558 354.071 433.369 354.071 433.369Z" fill="#f876ff" fill-rule="nonzero" opacity="1" stroke="none"/>
<path d="M464.095 485.463L574.119 433.369L574.119 537.558L464.095 589.653L464.095 485.463Z" fill="#8e00aa" fill-rule="nonzero" opacity="1" stroke="none"/>
<path d="M354.071 329.179L464.095 277.084L574.119 329.179L464.095 381.274C464.095 381.274 354.071 329.179 354.071 329.179Z" fill="#ff0000" fill-rule="nonzero" opacity="1" stroke="none"/>
<path d="M354.071 329.179L464.095 381.274L464.095 485.463L354.071 433.369C354.071 433.369 354.071 329.179 354.071 329.179Z" fill="#f876ff" fill-rule="nonzero" opacity="1" stroke="none"/>
<path d="M464.095 381.274L574.119 329.179L574.119 433.369L464.095 485.463L464.095 381.274Z" fill="#8e00aa" fill-rule="nonzero" opacity="1" stroke="none"/>
<path d="M354.071 224.989L464.095 172.895L574.119 224.989L464.095 277.084C464.095 277.084 354.071 224.989 354.071 224.989Z" fill="#3e68ff" fill-rule="nonzero" opacity="1" stroke="none"/>
<path d="M354.071 224.989L464.095 277.084L464.095 381.274L354.071 329.179C354.071 329.179 354.071 224.989 354.071 224.989Z" fill="#f876ff" fill-rule="nonzero" opacity="1" stroke="none"/>
<path d="M464.095 277.084L574.119 224.989L574.119 329.179L464.095 381.274L464.095 277.084Z" fill="#8e00aa" fill-rule="nonzero" opacity="1" stroke="none"/>
</g>
</svg>
