<svg xmlns="http://www.w3.org/2000/svg" width="1706.667" height="1706.667" version="1.0" viewBox="0 0 1280 1280">
    <path d="M842 122c0 .5.5 1 1 1 .6 0 1-.5 1-1 0-.6-.4-1-1-1-.5 0-1 .4-1 1zM364.8 148.8c-.9.2-1.9 1-2.2 1.8-.6 1.6 1 1.9 1.9.3.4-.6 1.3-.8 1.9-.6.7.3 1.8.2 2.5-.3 1.5-.9-1.4-1.8-4.1-1.2zM259.2 156.6c-2.7 1.8-2.9 3.4-.4 3.4 2.1 0 4.2-1.8 4.2-3.7 0-1.7-1.1-1.6-3.8.3zM479.8 185.9c-1 1.5-2.3 1.9-4.5 1.6-3.1-.4-5.4 1.7-3.3 3 .6.4.7 1.7.4 3.1-.3 1.3-.2 2.4.4 2.4.5 0 1.3-1.1 1.6-2.5.5-1.8 1.5-2.7 3.6-3.2 2.1-.4 3.2-1.3 3.6-3 .8-3.2-.1-3.9-1.8-1.4zM438 223.1c0 .5.5.7 1 .4.6-.3 1-.8 1-1.1 0-.2-.4-.4-1-.4-.5 0-1 .5-1 1.1zM1012 224.5c0 .8.7 1.5 1.5 1.5s1.5-.7 1.5-1.5-.7-1.5-1.5-1.5-1.5.7-1.5 1.5zM840 226c0 .5.5 1 1 1 .6 0 1-.5 1-1 0-.6-.4-1-1-1-.5 0-1 .4-1 1zM932.5 263c-.3.5-.2 1 .4 1 .5 0 1.3-.5 1.6-1 .3-.6.2-1-.4-1-.5 0-1.3.4-1.6 1zM553 281c0 .5.5 1 1 1 .6 0 1-.5 1-1 0-.6-.4-1-1-1-.5 0-1 .4-1 1zM814 350c-1.1 1.1-2 2.6-2 3.3 0 .8-3 4.2-6.7 7.6-3.8 3.4-8.7 7.9-11.1 10.1-2.3 2.2-6 4.9-8.2 6-2.2 1.1-4 2.5-4 3 0 1.4.8 1.3 7.7-1 6.8-2.4 9.5-4.5 12.2-9.8 3.1-6.1 9-11.1 12.9-11 5.7.2 9.2-5.1 5.6-8.6-2.1-2.1-4-2-6.4.4zM634.5 350c-.3.5.1 1 1 1s1.3-.5 1-1c-.3-.6-.8-1-1-1-.2 0-.7.4-1 1zM783 353c0 .5.5 1 1 1 .6 0 1-.5 1-1 0-.6-.4-1-1-1-.5 0-1 .4-1 1zM1030.5 381c.4.6 1.1.8 1.6.5 1.4-.9 1.1-1.5-.7-1.5-.8 0-1.2.5-.9 1zM767.7 388.7c-1 .9-.9 2.3.2 2.3.5 0 1.1-.7 1.5-1.5.5-1.5-.5-2-1.7-.8zM653.3 390.2c-2.8 1.4-3 2.8-.3 2.1 2.6-.7 2.7 1.8.1 4.1-2.3 2.1-4 2.2-13.7 1.1-5-.5-7.3-.4-7.8.4-.4.6-1.4 1.1-2.3 1.1-.8 0-2.9.6-4.6 1.4-1.8.8-4.3 1.7-5.7 2-1.4.4-5 1.4-8 2.2-3.8 1.1-11.4 1.7-24.4 2-17.8.4-19.1.3-20.8-1.6-1-1-1.8-2.8-1.8-3.9 0-2.4-1.8-3.1-5-1.9-3.8 1.4-6.9 4.7-10.1 10.8-3.6 7-4.4 7.9-10.3 12.4-5.5 4.2-8 7-9.1 10.4-.4 1.3-2.9 4.9-5.7 7.9-4.2 4.6-4.9 6-4.3 8.2.3 1.4.8 4.2.9 6.1.2 1.9.4 3.7.5 4 0 .4 1.6 1.1 3.4 1.8 1.8.7 4.3 2.5 5.5 4.2 2.1 2.8 2.1 3.2.7 5.3-.8 1.3-2.6 2.9-4 3.5-1.4.6-2.5 1.6-2.5 2.2 0 .6-.6 1-1.2.8-2.5-.4-5.6 1.3-6.2 3.5l-.6 2.2-1.4-2.1c-1.3-1.8-2.9-2.2-9.6-2.7-5.4-.3-8.7-1.1-9.9-2.1-1-.9-2.3-1.6-2.9-1.6-2 0-5.5-2.3-8.5-5.5-2.7-2.9-2.8-2.9-3.4-.7-.7 2.8-2.6 1.5-4.9-3.4-.9-1.9-2-3.4-2.5-3.4s-.9-1-.9-2.1c0-1.2-1.7-3.9-3.9-6-3.9-3.9-5.6-4.7-6.3-2.9-.1.5-2 1.1-4.1 1.3-4.5.4-9.2 4.5-10.7 9.3-2.8 8.4-1.6 15.4 3.7 21.9 1.3 1.6 4.2 5.4 6.4 8.3 4.1 5.4 17.4 16.7 21.6 18.3 1.3.5 2.3 1.3 2.3 1.9 0 .5.7 1 1.5 1 1.2 0 7.8 2.6 9.4 3.7.3.2-1.3 2.1-3.4 4.3-3.7 3.7-4.4 5.8-4.8 13.4-.2 2.8 0 3 3.6 3.1 2.2.1 4.2.6 4.5 1.2.4.5 1.5 1.3 2.6 1.6 1.5.6 1.6 1 .5 2.3-2.7 3.2-4.6 3.5-7 1-3-3.1-3.9-2.5-3.9 2.4 0 3.9-.1 4-8 8.6-4.4 2.5-8.2 4.9-8.5 5.4-1 1.6 5.4-.8 8.7-3.3 7.9-5.9 11.2-6.3 15.3-1.7 2.7 3 6.1 4.6 11.5 5.4 2.4.4 5.3 1.5 6.4 2.4 1.8 1.6 1.9 1.6 1.3 0-1.1-3.1 6.4-4.6 10.3-2.1 2.5 1.6 2.5 1.6.8-.4-1-1.1-1.8-2.8-1.8-3.9 0-1.4 1.4-.4 5.3 3.8 2.9 3.2 5.8 5.8 6.3 5.8.6 0 2.9 2.3 5.2 5.2 4.1 4.9 4.2 5.2 2.5 7.1-1.6 1.8-1.6 2-.1 1.4 1.5-.5 1.5-.2.4 3.6-1.6 5.5-4.7 7-14 6.8-8.3-.2-8.2 1.7.1 2.2 4.9.3 8.3 1.9 8.3 3.8 0 .5-1.2.9-2.7 1-2.7 0-2.8 0-.5 1 1.3.5 2.1 1.2 1.8 1.7-.2.4 1.7.7 4.2.6 2.6 0 5.5.3 6.5.8 1.6.8 1.6 1.1-.3 4.8-2.3 4.5-2.4 5-1 5 .6 0 1-.8 1-1.8 0-.9.9-2.8 2-4.2 2.3-3 2.6-2.3 3.3 7.6.7 8.7 2.7 13.7 7.5 18.7 3.5 3.6 3.9 3.8 8.2 3.2 5.5-.8 7-2 7-5.4 0-4.2 2.4-6.6 9.1-9.1 8.2-3.1 14.1-8.8 15.9-15.5 1.6-6.1 2.8-7.6 4.1-5.3 1.6 2.9 2.9 2 2.3-1.5-.6-2.8-.5-3 .7-1.6 1.7 2 9.4 6.9 10.9 6.9 2.4 0 11.5 11.4 10.4 13.1-.4.8-.3.9.4.5 1.4-.8 6.9 5 7.8 8.1.3 1.3 1.1 2.3 1.8 2.3 1.3 0 5.6 8.6 5.6 11.1 0 1.9 2.7 4.5 3.6 3.6.7-.7.3-1.7-2.4-6.2-2.1-3.5-3.3-6.5-2.6-6.5.2 0 2 1.5 3.8 3.2 7.3 7.2 10.9 10.1 5.9 4.8-9-9.5-5.9-9 5.9.8 6.4 5.4 13.1 13.2 11.3 13.2-.8 0-5-4.4-5-5.2 0-.3-.4-1-.9-1.5s-.6-.3-.2.4c1.1 2-.5 1.5-3.1-.9-3.6-3.4-2.7-.6 2.2 6.5 6 8.8 6.1 11.5.2 5.9l-3-2.7 1.8 2.7c.9 1.6 2.1 2.8 2.4 2.8.4 0 1.4 1.1 2.1 2.5 1.2 2.2 1.4 2.3 2.5.8.7-.9 1.7-1.3 2.4-.8 1 .6 1 .2 0-1.6-.7-1.3-1.2-2.5-1.1-2.6.1-.2-.1-1-.5-1.8-1.2-3.3.6-2.5 3.3 1.4 1.6 2.2 3.3 4.1 3.9 4.1.5 0 .4-.5-.3-1.2-1.7-1.7-1.5-3.3.2-1.9.8.6 1.8 1.1 2.2.9 1.1-.3 5.7 2.2 6.6 3.6 1.6 2.4.6 2.6-2.4.5l-3.3-2.2 3.4 3.6c4.3 4.5 2.6 5-1.8.5-4.9-5-3.6-1.9 1.4 3.5 4 4.2 4.4 5 3.3 6.6-2.7 3.7-17.6 16-20.2 16.7-3.9.9-6.2 4.8-4.8 7.9 2.3 5 9.2 1.8 9.2-4.2 0-1.2 1.5-3.7 3.4-5.5 1.8-1.8 6.5-6.3 10.3-10l6.9-6.8 7.5-.6c8-.7 10.7-1.7 12.7-4.6 1.9-2.6 4.4-2.2 7.7 1.2 3.3 3.4 3.8 3.6 5.9 1.5 1.8-1.9 3.9-1.1 5.7 2.1.7 1.4 2.6 3.7 4.2 5 3 2.6 7.2 9.9 8.2 14.5.4 1.6 2.5 4.4 4.8 6.5 2.3 2 7.1 6.5 10.7 9.9 3.6 3.4 7.2 6.5 8 7 1.7.9-6.4-7.8-12.2-13.3-2.1-1.9-3.8-3.8-3.8-4.4 0-.5-.5-1.4-1-2.1-.6-.7-3.1-4.3-5.5-8.2-3.6-5.5-4.3-7.2-3.3-8.2 1.6-1.5 6.8-1.8 12.5-.8 3.5.6 4.4.4 4.9-.9s1.4-.6 4 3.1c1.8 2.6 6 6.4 9.1 8.5 7.7 5.1 20.7 18.6 26.7 27.8 2.7 4.1 7.2 10.4 9.9 13.9 6.3 8.2 10.7 17.4 11.3 23.1.4 4.7 3.8 9 7.1 9 .9 0 2.5.7 3.5 1.7 1.1 1 1.8 1.2 1.8.4 0-.6-.6-1.4-1.4-1.7-1.1-.4-1-1.1.3-4 .8-1.8 2.1-3.4 2.8-3.4.7 0 2.4 1.8 3.8 4 3.2 5.1 4.4 5.3 1.4.2-3.3-5.4-10-14.2-11-14.2-.4 0-1.1.4-1.4 1-.3.5-1.6 1-2.8.9-1.6 0-3.5-2-7-7.2-12.6-19.1-20.9-30.3-28.4-38.3-5.1-5.6-7.7-9.1-7-9.5.7-.4 3.4-1 6-1.3 4.3-.7 5.2-.4 8.5 2.1 2 1.5 5.3 3.9 7.3 5.3 2.1 1.4 6.1 4.3 9.1 6.6 2.9 2.2 7.3 5 9.8 6.2 6.7 3.2 16 10.9 16 13.2 0 1 1.8 3.4 4 5.2 2.3 1.7 5 4.7 6.2 6.6 2.4 3.9 10.1 9.8 18.7 14.3 4.2 2.2 8 5.4 12.3 10.3 3.4 3.9 7.9 8.7 10 10.6 2 1.9 5.2 6.2 6.9 9.5 4.1 7.8 8.3 12.3 13.8 14.6 2.4 1.1 5.8 3.1 7.5 4.6 4.3 3.6 9.4 5.6 14.1 5.4 3.6-.1 4.6.4 8.5 4.5 2.5 2.5 6.9 5.6 9.8 6.9 3.2 1.5 5.2 3 5.2 4 0 .9.6 1.5 1.3 1.2 2.2-.8 6.6 2.2 9.1 6.2 1.4 2.1 4.1 4.6 6.3 5.6 2.1 1 6.1 4.1 9 7 4 4.1 6.2 5.5 9.2 6 5 .8 12.1-.3 12.1-1.9 0-.6-2.2-3.4-4.9-6-4.9-4.9-5-4.9-11.9-5-6.4-.1-7.2-.4-9.1-2.8-2.2-2.8-7.3-5.8-9.8-5.8-.8 0-2.1-.6-2.8-1.3-.8-.6-3.2-2.6-5.5-4.2-2.3-1.7-5-4.7-6.1-6.7-1-2-2.9-4-4.1-4.3-5.1-1.5-10.7-4.9-11.9-7.2-.7-1.3-2.7-3.1-4.4-3.9-4.7-2.2-14.1-10.9-16.6-15.3-1.2-2.1-4.2-5.1-6.7-6.7-7.6-4.8-9.2-6.7-9.9-12-.3-2.6-1.8-6.8-3.3-9.3-1.5-2.5-3.1-5.7-3.5-7-1.8-5.9-6.2-10.5-17-17.8-10.5-7-15.1-8.6-24.1-8.3-3.2 0-5.2-.7-9.4-3.6-2.9-2-7.3-4.5-9.6-5.6-2.4-1-4.6-2.2-4.8-2.7-.3-.5-1.8-1.2-3.3-1.6-2.9-.7-12.4-6.6-15.8-9.8-1.1-1-3.1-2.5-4.5-3.2-1.4-.7-3.8-2.7-5.4-4.4-2.7-2.8-2.9-3.4-1.9-6.6.6-1.9.9-4.5.5-5.7-1.4-5.5-10.6-15.8-15.8-17.8-1.3-.5-4-1-5.9-1.2-2-.1-3.8-.5-4.1-.9-.2-.4-2.3-.1-4.6.6-3.7 1-4.3 1.6-4.6 4.1-.5 6-1.2 7.4-3.4 7.4-1.2 0-2.9-.6-3.7-1.4-1.7-1.5-7.5-4.9-13.2-7.7-1.9-1-4.1-2.5-4.9-3.3-.7-.9-1.9-1.6-2.7-1.6-.7 0-5.8-4.3-11.1-9.5-12.4-12.1-13.6-13.2-15-12.7-.7.2-1.5-.3-1.8-1.2-.3-.9-1.2-1.6-1.9-1.6s-1.9-.7-2.6-1.7c-.8-.9-3.6-3.3-6.4-5.3-2.7-2.1-6.2-4.9-7.6-6.2-1.5-1.4-3.4-2.3-4.3-2.2-.9.1-1.6-.2-1.6-.7 0-.5-.8-1.3-1.7-1.6-.9-.4-3.4-2.3-5.5-4.4-3.4-3.3-3.6-3.8-2.1-5 1.3-1.1 1.7-1.1 2-.2.3.7 1.2 1.3 2 1.3 1 0 1.3-.6.9-1.6-.7-1.8 1.9-4.3 4.6-4.4.9 0 2-.5 2.4-1.1.5-.8-.2-1-2.2-.6-1.9.3-3.2 0-4.2-1.1-1.1-1.5-1.2-1.4-.3.4 1.4 2.8-.9 4.9-6.6 6.2-3.6.8-4.4.7-6-1-1-1.1-3.1-2.7-4.7-3.5-5-2.6-11.6-9.4-11.6-11.9 0-3.1 1.4-3 2.8.2.8 1.7 1.8 2.4 3 2 1.8-.6 6 2 4.9 3-.4.4-1.3.1-2.2-.6-.9-.7-1.8-1.1-2-.8-.3.2.9 1.5 2.7 2.8 1.7 1.2 2.7 1.7 2.3 1-.4-.7-.2-1.6.6-2.1 1.1-.6.8-1.3-1.5-3.1-1.6-1.3-4.1-3.4-5.5-4.7-2.5-2.3-2.5-2.4-.3-1.8 1.4.3 2.2.1 2.2-.7 0-.7-1.3-1.3-2.9-1.3-5.8 0-7.6-4.7-4.2-11 1.5-2.8 1.4-3.3-.4-3.3-.9 0-1.5-.9-1.5-2.5 0-2.9.6-3.1 2.7-1 .8.8 1.9 1.3 2.4.9.6-.3 1.6 0 2.4.6 1.2 1 1.6.9 2.1-.5.4-.9 1-1.3 1.3-.8.3.5 2.5 1.5 4.9 2.1 2.3.7 4 1.7 3.7 2.2-.4.6.3 1 1.4 1 1.1 0 3.6.9 5.6 2 2 1.1 4.6 2 6 2 1.5 0 4.7 2.2 9.2 6.5 3.7 3.6 7 6.5 7.1 6.5.2 0-1-1.8-2.7-3.9-1.7-2.1-3.1-4.4-3.1-5 0-.6-.6-1.1-1.4-1.1-.7 0-1.9-.7-2.7-1.6-1.1-1.4-.9-1.5 2.4-1 2 .3 5.3.8 7.2 1.1 1.9.3 3.5.9 3.5 1.3s2.1.8 4.8.8c2.6.1 7 1.2 9.7 2.4 2.8 1.2 5.9 2.4 7 2.6 2 .3 14.6 3.6 19.5 5 1.4.4 4.1 1.7 6 2.8 5.2 3.1 1.2 3.3-5.2.3-2.9-1.3-7.8-2.7-10.8-3.1-12.2-1.6-15.7-2.3-20.2-4.4-2.7-1.3-6-2.7-7.5-3.3-2.7-1-2.7-1-.9 1 1 1.1 2.8 2.3 4 2.7 1.1.4 5.4 2.9 9.4 5.5 4 2.7 7.5 4.9 7.9 4.9.3 0 1.4.6 2.2 1.4 1.5 1.3 6.7 4 22.6 11.7 8.8 4.3 22.8 11.9 23.5 12.8.3.4 2.5 1.9 5 3.3 2.5 1.5 5.8 4.1 7.4 5.9 1.7 1.7 4.8 4 7 5 2.3 1 9.1 5 15.1 8.8 11.8 7.4 24.5 14.4 20.7 11.3-1.3-1-4-2.7-6-3.7-9.5-4.9-24.9-16-35-25.2-1.3-1.2-4.6-2.9-7.3-3.8-2.7-.9-5.1-2.1-5.5-2.6-.3-.5-2.2-1.7-4.2-2.7-2-1-7.3-3.8-11.7-6.2-4.4-2.4-12.9-6.9-18.9-9.9-6-3.1-11.2-6.3-11.4-7-.3-.9.2-1.1 1.7-.6 1.2.4 5.7.8 9.9 1 9.4.3 13.7 1.8 12.7 4.3-.6 1.6-.5 1.6 1.1.1 2-2 8.9-1.5 11.7.9 2.1 1.9 3.5.9 1.7-1.3-.7-.8-2.5-1.5-4-1.5-4.3 0-9-1.2-9-2.2 0-.6 2.2-.7 5.6-.3 6.4.7 8.4 1.3 8.4 2.6 0 .5.8.9 1.8.9 1.8 0 15 3.1 23.7 5.5 2.8.8 6.6 1.7 8.5 2.1 1.9.3 4 1 4.5 1.4.6.4 2.6 1.1 4.5 1.5 1.9.4 5.3 2 7.5 3.5 3.2 2.2 5.5 2.9 11.5 3.3 4.1.3 8.6.8 10 1.1 4.6.9 16.4 2.7 21.2 3.3 2.6.3 5.3 1.2 5.9 1.9 1.5 1.8 4.3 1.8 10.5-.1 5-1.5 10.4-6 9.7-8.2-.2-.6.8-2.5 2.2-4.2 1.5-1.7 2.5-3.6 2.3-4.3-.3-.7-1.9.9-3.7 3.5-1.7 2.6-3.6 4.7-4 4.7-1.3 0-7-3-7.6-4.1-.4-.5-1.1-.9-1.7-.9-2 0 1.6 3.2 5.4 4.7 4.4 1.8 4.7 2.5 1.5 4.2-1.9 1-4.7.9-14.8-.4-6.8-.9-14.2-1.9-16.4-2.1-12.2-1.2-16.8-2.3-18.7-4.7-1.4-1.8-2.8-2.2-8.3-2.4-7.9-.2-14.6-1.2-16.1-2.4-.7-.6-2.5-1.1-4-1.3-6-.8-18.6-4.6-21.2-6.4-1.5-1-6.1-2.4-10.2-3.1-4.8-.8-8.1-1.9-9.2-3.1-1-1-4-3-6.7-4.4-3.9-1.9-4.9-2.1-4.4-.9.5 1.3.2 1.5-1.8 1-1.3-.4-3-.7-3.8-.7-.8 0-1.1-.6-.7-1.5.6-1.7-1.9-2.1-3-.4-.8 1.4-5.2.6-17.9-3.3-12.6-3.8-27.4-7.4-34.4-8.3-3.6-.5-6.1-1.5-7.5-3-1.2-1.2-2.8-2.5-3.6-2.8-1.1-.4-1-.6.5-.7 1.8-.1 1.8-.2-.5-1.5-1.4-.8-3.2-1.5-4-1.5-.8 0-2.6-1-3.9-2-1.9-1.6-2.1-2.3-1.1-3.5 1-1.2.5-1.7-2.7-3.2-2.1-1-4-1.8-4.2-2-.2-.1-.1-.9.3-1.8.3-1 1.1-1.3 1.8-.9 1.4.9 2.1 1 14.8 2.3 5.2.5 11 1.3 12.8 1.6 4.8 1.1 3.9 0-3-3.3-6.4-3.1-8.6-3.7-21-5.7-3.8-.6-4.8-1.1-4.8-2.6 0-1.1-.7-1.9-1.6-1.9-1 0-1.4.6-1 1.5.4 1.2-.3 1.5-3.2 1.5-2 0-4.4.4-5.2 1-.9.6-1.7.5-2.2-.3-1.6-2.4-.8-3.7 2.5-3.8 2-.1 2.5-.3 1.3-.6-1.8-.5-1.8-.6.5-2.4 1.3-1 1.9-1.9 1.2-1.9-.6 0-1.5.4-1.8 1-1 1.5-2.3 1.2-2.8-.8-.4-1.6-.5-1.6-.6 0 0 1-.4 1.8-.7 1.8-1.3 0-10.4-5.4-10.4-6.1 0-.7 5.3-2 8.5-2.1 6.2-.2 9.5.5 12.5 2.7l3.3 2.4-2.6 1c-3.3 1.3-3.5 2.1-.4 1.3 1.2-.3 2.7-1.2 3.3-2 1-1.3 1.7-1.2 5.8.8 5.3 2.5 7.5 1.8 5.1-1.7-1.4-2-6.1-4.1-4.9-2.2.3.5-.1.9-.8.9-1.5-.1-5-2.5-4.4-3.1.5-.5-5.4-1.1-13.2-1.3-4.1-.1-6.2-.5-6.2-1.3 0-.9-1.4-.6-4.6.7-2.5 1.1-4.7 2-4.9 2-.2 0-.3-1.4-.3-3 .1-2.9.2-3 5.7-3.2 3.1-.1 6.7-.1 8.1 0 1.3.1 2.7-.3 3.1-.9.5-.8 1.2-.8 2.6 0 2 1 3.3.6 3.3-1.1 0-.5-.4-.7-.9-.4-.5.4-.7-.2-.4-1.3.5-2 4-3.1 9.7-3.1 6.4 0 33.2 4.8 47.9 8.7.9.2 1.7.1 1.7-.4 0-.9-7-2.7-14.7-3.9-5.1-.8-5.3-1.5-1.3-3.2 1.7-.8 3-2 3-2.8 0-.8 1-1.5 2.3-1.5 7.4-.5 10.2-1 14.2-2.8 2.5-1.1 6.6-2.3 9.2-2.7 4.4-.7 4.6-.8 2-1.5-2-.5-4.8 0-9.7 1.7-3.8 1.3-9.2 2.4-11.9 2.4-2.7 0-6.1.4-7.6 1-6.5 2.5-13.9 1.5-15-1.9-.3-1-1.5-2.1-2.6-2.4-1.3-.4-1.8-1-1.4-1.7.6-.9 3.3-1 10-.5 7.5.5 9.9.4 12.3-.9 1.7-.9 5-1.7 7.4-1.7l4.3-.1-3.9-.8c-2.1-.4-4.7-.5-5.8-.3-3.5 1-1.7-.6 3.6-3 4.6-2.1 6-2.3 9.7-1.6 2.4.6 6.1 1.1 8.1 1.3 2.1.2 4.5.9 5.3 1.6 1.3 1.1 1.6 1.1 1.3-.1-.3-1.5 6.4-2.6 17.5-2.8l5.7-.1v3.3c0 1.8-.7 4.2-1.5 5.3-2 2.6-2 2.6 2.5 5.4 4.5 2.8 4.9 4.6 2 8.2-3.8 4.9-10.4 7.1-22 7.2-5.8 0-13.2-.2-16.5-.6-4.7-.6-5.4-.6-3 .3 1.7.5 8.4 1.3 15.1 1.6 14 .7 19.8-.7 25.7-6 5.4-4.9 5.6-6.9.7-10.8-2.8-2.3-3.9-3.8-3.4-4.8.4-.9 1-3.4 1.3-5.6l.6-4 8.1.1c7.6.1 8.5.3 14.4 4 5.7 3.5 7 3.9 13.1 3.9s7.1-.3 9.8-2.9c3.7-3.5 3.8-5.5.9-10.1-4.6-7.1-13.6-8.6-20.6-3.5-4.9 3.7-9.5 4.4-17.7 2.7-4.9-1-6.1-1.7-6.3-3.4-.4-2.7-6.3-7.3-9.3-7.3-1.2 0-3.1.8-4.1 1.7-1.6 1.5-2.4 1.5-6.1.5-5.8-1.7-16.9-3.4-18.4-2.8-2.8 1.1-1 2.6 3.1 2.6 5.4 0 14.7 2 14.1 3.1-.3.4.4.5 1.6.2 1.7-.5 2-.2 1.7 1.8-.1 1.3-1.5 3-3 3.8-2.2 1.3-3 1.3-5.1.2-1.4-.7-6.7-1.4-12.3-1.6-15.6-.5-28.8-1.6-29.8-2.6-.6-.5.7-.9 3.4-.9 6.3 0 4.5-.8-2.5-1.1-3.6-.2-6.7-.9-7.9-1.8-2-1.8-10.5-1.8-18.2-.1-4.7 1.1-12.4.4-12.4-1.1 0-.9 2.2-1.3 4.9-1 .7.2 1-.3.6-.9-.4-.6-1.5-.8-2.6-.5-3.7 1.2-1.8-1 2.4-2.7 3.2-1.4 5-1.6 7.5-.9 2.5.8 3.2.7 2.9-.2-.2-.7-.9-1.3-1.5-1.3-.7-.1-1.3-.3-1.4-.4-1-1-5.5-.6-6.4.5-1.7 2.2-6 2.9-6.7 1.1-.5-1.3.1-1.6 2.6-1.6 2.2 0 2.8-.3 1.8-.9-2.4-1.5 6.4-2.4 10.2-1 2 .7 4.9.9 7 .5 5.9-1.1 5.1-2.3-1.3-1.9-3.3.2-6 .1-6-.3 0-1 4.3-4.3 8.3-6.4 2-1.1 3.7-2.6 3.7-3.3 0-.7 2.7-3.5 6.1-6.2 12.4-10.1 13-10.8 11.9-14.6-.7-2.4-.6-3.5.3-4.2.8-.6.3-.7-1.3-.3-1.4.3-2.8.6-3.2.6-.4 0-.5 1.3-.2 2.8.5 2.4-.2 3.7-4.6 8.5-5.3 5.8-7 6.8-7 4.3 0-1.1-.7-1-3.6.5-2 1-4.4 2.5-5.3 3.3-1.5 1.4-10.2 3.7-13.5 3.6-.6 0 .5-1.4 2.4-3s3-3 2.3-3c-.6 0-2.5 1.1-4.1 2.5-3.8 3.2-4.4 3.1-3.1-.1.8-2.4.8-2.5-.6-1.4-.8.7-1.5 2.3-1.5 3.5 0 1.8-.7 2.3-3.7 2.8-2.1.2-4.4.6-5.2.8-1.6.5-4.9-4.7-5-7.7-.1-2.4 2.2-4.6 10.2-9.8 3.2-2.1 6.1-4.5 6.4-5.4 1.6-5.2 2.7-7.2 5.9-10.5 2-2.1 5.6-4.3 8.5-5.2 2.7-.9 5.4-2.6 6-3.6 1.7-3.3.7-6.2-2.5-7-3.2-.9-5.2-.1-10.6 4.1-1.9 1.5-4.9 3.1-6.7 3.4-3.5.8-8.1 4.6-7.6 6.2.5 1.5-3.6 6.4-5.3 6.4-1.2 0-1.3-.4-.3-2.3.7-1.3-.1-.8-2 1.3-1.6 1.9-2.8 4.1-2.6 4.8.3.7.1 1.1-.4.7-.5-.3-2.8 1.6-5 4.2-3.2 3.5-4.4 4.4-5.3 3.5-.9-.9-.8-2 .5-4.7.9-2 1.7-4.2 1.7-5 0-1.7 8.6-7.5 11.2-7.5.9 0 2-.5 2.3-1 .9-1.4-4.2-.2-7.2 1.6-4.1 2.5-2.6-.6 2.5-5.2 2.6-2.4 6.1-4.6 7.7-5 1.7-.3 5.6-2 8.7-3.6 8.8-4.7 12.4-13.2 8.3-19.8-.8-1.3-4.3-1.2-7.2.2zm-26.6 27.2c.3.3-.5 1.9-1.7 3.6-1.7 2.3-2 3.4-1.1 3.9.9.6.8 1.1-.4 2.1-1.3 1.1-1.4 1-.9-.5.6-1.5.5-1.6-1.5-.4-2.3 1.5-4.6.7-6.5-2.4-.8-1.3-.4-2.3 1.9-4.7 2.5-2.7 3.5-3.1 6.4-2.6 1.8.3 3.6.7 3.8 1zm27.3 5.1c0 2.4-5.9 7.8-7.7 7.1-1-.4-1.5-.4-1.1-.1.9.9-4.6 9.4-7.2 11.2-3.5 2.4-3.6.6-.2-3.6 1.8-2.2 3.2-4.3 3.2-4.7 0-.4 2.6-3.3 5.7-6.5 5.4-5.5 7.3-6.4 7.3-3.4zm-32 11c-.9 1.1-1.6 1.3-2.3.6-.7-.7-.6-1.5.3-2.6.9-1.1 1.6-1.3 2.3-.6.7.7.6 1.5-.3 2.6zm-15.3 5.9c-.3.8-2.5 2.5-4.8 3.7-3.3 1.6-4.9 1.9-7.2 1.2-4.4-1.2-4.5-3.1-.3-3.9 2-.3 5.3-1.5 7.3-2.5 3.9-2 6.1-1.3 5 1.5zm23.4-.1c-1.3 1.2-2 1.5-1.6.7 1.4-2.6 2.8-4.1 3.3-3.5.3.3-.5 1.6-1.7 2.8zm61.9.2c0 .8-.9 1.9-2 2.5-2.3 1.2-2.5.7-1-2.1 1.3-2.2 3-2.5 3-.4zm-59 3c-.7 1.4-2 2.5-2.7 2.5-1.5 0-1-1.3 1.5-4.3 2.1-2.4 2.8-1.3 1.2 1.8zm-37.5 7.4c.3.5 0 2.1-.6 3.5-1.3 2.7-2.7 3-8.4 1.7l-3-.7 3-1.5c1.7-.8 2.9-2.1 2.8-2.7-.3-1.4 5.3-1.7 6.2-.3zm36.8-.2c-.7.2-1.9.2-2.5 0-.7-.3-.2-.5 1.2-.5s1.9.2 1.3.5zm43.9 1.8c0 .6-1.4 1.5-3.1 2-1.6.6-4.1 2.1-5.4 3.3-2.4 2.2-5.7 3-5.7 1.3 0-1.6 4.1-4 5.8-3.4 1 .4 1.3.2.8-.5-.4-.7.6-1.7 2.6-2.6 3.6-1.6 4.9-1.6 5-.1zm-21 6.8c-1.7 1.7-2.4 1.9-3.4.9-1.5-1.5-.2-2.7 3.3-2.9l2.2-.2-2.1 2.2zm-8.9.4c-.7.3-1.3.9-1.3 1.5s.8.4 1.8-.5c2.3-2.1 4.9-.3 3.1 2-.9 1-.5 1.2 2 .7 3.9-.8 3.9.5 0 3.2-3.1 2.2-6.9 2.2-6.9-.1 0-.7-.9-2.4-2.1-3.9-2.1-2.7-2.1-2.6 2.1-3.9 1.8-.5 3 .4 1.3 1zm-106 17.1c-1.9 5-6.2 10.4-6.3 8 0-1.4-.7-1.7-4-1.4-2.4.3-4.3-.1-5-.9-.6-.7-2.1-1.1-3.3-.8-1.2.2.7-.8 4.3-2.3 3.6-1.5 7.3-3.4 8.3-4.2.9-.8 1.7-1.2 1.7-.9 0 .4 1 .2 2.3-.3 3.5-1.4 3.6-1.2 2 2.8zM531 487c0 .5-.5 1-1.1 1-.5 0-.7-.5-.4-1 .3-.6.8-1 1.1-1 .2 0 .4.4.4 1zm151.6-.1c.5.3 1 1.2 1.2 2 .2 1-.4 1.2-2.5.7-3.9-1-9.3-.7-11.2.5-1.2.8-.8.9 1.7.6 5.7-.7 27.9 4.1 25.6 5.5-2.1 1.3-12.1 1.9-14.7.9-1.5-.6-7.6-1.3-13.5-1.6-9.4-.4-10.9-.8-12.5-2.6-3.9-4.8.4-6.8 14.4-6.7 5.8 0 11 .3 11.5.7zm6.4 4c0 .5-.9.7-2 .4-1.1-.3-2-.7-2-.9 0-.2.9-.4 2-.4s2 .4 2 .9zm-23 7.1c0 1.3-1.1 1.3-3 0-1.2-.8-1.1-1 .8-1 1.2 0 2.2.4 2.2 1zm30.8 1.7c-1 .2-2.8.2-4 0-1.3-.2-.5-.4 1.7-.4 2.2-.1 3.2.1 2.3.4zm-32.3 2.4c1 1.5.5 1.6-4.2 1.1-2.4-.2-4-.8-3.7-1.3.7-1.3 7.1-1.1 7.9.2zm-4.8 3.7c1.6 1 1.5 1.2-1.2 2.2-1.6.6-3.3 1.6-3.6 2.2-.4.6-2.4 1.1-4.4 1.2-3.3.1-3.9-.3-4.8-2.7-1.1-3.3-.8-3.7 3.5-4.6 3.4-.8 7.2-.1 10.5 1.7zm11.7 3.6c1.8.7 5.6 1.7 8.5 2.1 2.9.4 5 1 4.6 1.3-.9.9-13.3.3-19.5-1l-5.5-1.1 3.5-1.3c4.6-1.6 4.5-1.6 8.4 0zm-56 7.8c.9 1.2 1.6 2.5 1.6 2.9 0 1.2-5 .6-6.1-.7-1.4-1.7.2-1.9 1.9-.2.9.9 1.2.9 1.2.1 0-.7-.4-1.5-1-1.8-.5-.3-1-1-1-1.6 0-1.6 1.8-1 3.4 1.3zm9.9 4.4c1.7.6 2.4 3.4.9 3.4-.5 0-1.9-1.2-3.3-2.6-1.3-1.5-1.7-2.4-.9-2 .8.3 2.3.9 3.3 1.2zm-4.2 2.1 2.4 2.7-2.4-1.5c-1.4-.9-2.7-2.1-2.9-2.7-.6-1.9.3-1.4 2.9 1.5zm-91.3 6.5c-.6 1.8-2.8 2.1-2.8.4 0-.9.7-1.6 1.6-1.6.9 0 1.4.5 1.2 1.2zm-35.8.7c0 1.2-2 2.5-2.7 1.8-.7-.7.6-2.7 1.8-2.7.5 0 .9.4.9.9zm38 2.6c-2.8 3-1.3 3.4 1.8.5 1.8-1.7 2.6-1.9 4.2-1 2.7 1.4 2.5 2.8-.6 6.1-1.6 1.7-2.2 2.9-1.5 3.3.6.4 1.1.1 1.1-.7 0-.8.7-2 1.5-2.7 2.1-1.7 2 .3-.1 3.5-2.3 3.5-5.7 3.2-8.4-.5-1.6-2.3-1.9-3.4-1.1-4.4.6-.7.8-1.6.4-1.9-.3-.4.5-1.5 1.8-2.6 3.3-2.8 3.7-2.6.9.4zm107.5.8c2.5 1.9.7 2.6-3.4 1.5-2.6-.7-3.1-1.2-2-1.9 2-1.2 3.2-1.1 5.4.4zm-89.9 9.2c1.7 4.1 1.8 7.5.3 7.5-.6 0-2.6-1.2-4.5-2.6-2.9-2.3-3.2-2.9-2.2-4.2 1.1-1.3 1-1.5-.4-.9-2.2.8-2.2.3-.2-2.8 1.3-2 1.9-2.3 3.6-1.4 1.1.6 2.6 2.6 3.4 4.4zm-47.7-1.1c.8 1 2.3 1.3 4.7.9 5.1-.8 4.1.8-2.6 4.4-6.8 3.7-9.5 3.5-8.5-.6.7-2.6 3.2-6.1 4.5-6.1.4 0 1.3.6 1.9 1.4zm166.7 2c3.9.7 7.9 1.8 9 2.4 3.4 1.9-10.8.1-14.6-1.9-4.3-2.2-3.5-2.3 5.6-.5zM494 546c0 .5-.5 1-1.1 1-.5 0-.7-.5-.4-1 .3-.6.8-1 1.1-1 .2 0 .4.4.4 1zm21.7.6c.5 1.6-5.1 5.5-9.2 6.4-2.3.5-4 .3-5.2-.5-1.5-1.1-1.1-1.6 4.2-4.4 6-3.1 9.5-3.6 10.2-1.5zm138.3 1c0 .8-.4 1.2-1 .9-.5-.3-1-1-1-1.6 0-.5.5-.9 1-.9.6 0 1 .7 1 1.6zm-122.1 6.8c-.3.3-1.1-.5-1.8-1.7-1.3-2.1-1.2-2.1.5-.5 1 1 1.6 2 1.3 2.2zm119.2 2.3c1.6 1 2.9 2.1 2.9 2.5 0 .8-5.2-1.1-8.7-3.1-1.6-.9-1.5-1 .5-1.1 1.3 0 3.7.8 5.3 1.7zm-5.1 2.8c1.2 1.4 1 1.5-1.5 1.1-4-.7-5.6-2.6-2.3-2.6 1.4 0 3.1.7 3.8 1.5zm14.6 1.5c.8 0 1.4.5 1.4 1.1 0 1.2-4 .2-5.5-1.4-.7-.7-.4-.8.8-.3 1 .3 2.5.6 3.3.6zm-33.5 42.1c1.9 2.3 3.6 4.5 3.7 5 .2.5 1.2.9 2.1.9 1.9 0 2.8.9 15.1 14.5 7.3 8 11.4 11.4 7.1 5.9-3.6-4.7-12.1-14.3-19-21.6-3.5-3.8-6.1-7.1-5.7-7.5.3-.4 1.2-.1 1.8.5.7.7 1.8 1.2 2.5 1.2.8 0 2.6.8 4.1 1.9 4.4 3 14.5 9.5 17.4 11.1 2.7 1.5 10.8 10.8 10.8 12.3 0 .5 1.4 2.5 3.1 4.5 1.7 2 3.8 5 4.5 6.8 1.4 3.4 1.9 9.6.8 10.7-1.6 1.5-11.7-5.3-20.4-13.7-8.6-8.3-20-16.6-22.9-16.6-.6 0-1.1-.6-1.2-1.3-.2-4.7-1.1-7.3-3-9.1l-2.1-2.1 1.1 2.1c.9 2 .6 3.4-.8 3.4-.3 0-1.2-1.3-1.9-2.9-.7-1.6-2.4-4.1-3.7-5.5-3.2-3.5-3.1-4.6.4-4.6 2.1 0 3.7 1 6.2 4.1zm12.2 21.4c3.1 1.6 4.9 3.5 3.2 3.5-1.3 0-8.5-4.3-8.5-5.2 0-.5.3-.8.8-.6.4.2 2.4 1.2 4.5 2.3zm33.9 26.1c2.7 1.1 5.1 2.8 5.7 4.2 1.5 3.1 1.5 3.1-2.4 1.8-3.9-1.4-6.8-3.8-9.8-8.1-1.9-2.8-1.9-2.9-.1-1.4 1 .9 4 2.4 6.6 3.5zm55.4 10.5c3.3 1.7 8.4 4.5 11.6 6.1 3.1 1.6 6.4 3.8 7.3 4.8 1.9 2.1 2.6 1.8-7.9 4l-4.9 1.1-6.1-5.3c-3.3-2.9-6.9-6.1-7.9-7.1-1.1-1.1-2.6-1.6-3.7-1.2-2.6.8-3.5-1.3-1.4-3.6 2.5-2.7 6.3-2.4 13 1.2zm158.7 93.5c2.3 2.7 3.9 6.9 2.9 7.8-1 1.1-9.2-5.1-9.2-6.9 0-1.3 2-3.5 3.2-3.5.5 0 1.8 1.2 3.1 2.6z"/>
    <path d="M623.5 604c.3.5.8 1 1.1 1 .2 0 .4-.5.4-1 0-.6-.5-1-1.1-1-.5 0-.7.4-.4 1zM640 607.9c0 1.3 2.4 3.7 6 6.1 3.4 2.2 3.4 2.2 1.3.1-5.2-5.1-7.3-7-7.3-6.2zM661.5 632c2.1 2.2 4.1 4 4.4 4 .3 0-1.3-1.8-3.4-4-2.1-2.2-4.1-4-4.4-4-.3 0 1.3 1.8 3.4 4zM484.7 390.7c-1.2 1.2-.7 2.2.8 1.7.8-.4 1.5-1 1.5-1.5 0-1.1-1.4-1.2-2.3-.2zM688.5 406c-.8 1.3.4 3.2 1.6 2.5 1.2-.8 1.2-3.5 0-3.5-.6 0-1.3.4-1.6 1zM744.3 410.7c-1.5.5-1.7 2.3-.4 2.3.5 0 1.1-.7 1.5-1.5.3-.8.4-1.5.3-1.4-.1 0-.8.3-1.4.6zM697.3 429c-3 1.2-2.9 1.8.1 1.6 1.3 0 2.2-.4 2-.8-.2-.3.2-.9.8-1.1.7-.3.9-.5.3-.6-.5 0-2 .4-3.2.9zM904.5 441.9c-7 2.6-12.5 5.6-12.5 6.7 0 .8 1.2 1.7 2.8 2 1.5.4 4.5 1.5 6.7 2.5 5.2 2.4 8.7 2.4 13.5-.1 4.8-2.4 5.1-4.6 1.2-8.4-3-2.8-8.2-4-11.7-2.7zM656.7 444.9c-.4 1.7-.3 2.1.5 1.3.5-.5.8-1.6.6-2.3-.3-.8-.7-.3-1.1 1zM787.8 456.6c-.4.3-3.9.7-8 1-15.8.9-15.6.8-23.6 9.1-6.8 6.9-6.7 8 .3 2.8 1.7-1.2 4.5-2.5 6.4-2.9 1.9-.3 5.8-1.7 8.6-3.1 4.7-2.2 5.5-2.3 9-1.1 2.2.8 5.4 3 7.2 4.9 4.3 4.7 6.3 5.7 11.7 5.7 3.3 0 5.2-.6 7.2-2.4l2.8-2.3-3.7-4.3c-2-2.4-4.9-5.2-6.5-6.2-2.5-1.7-10.2-2.5-11.4-1.2zM681.5 464c-1.9.8-1.9.9.3.9 1.2.1 2.2-.4 2.2-.9 0-.6-.1-1-.2-.9-.2 0-1.2.4-2.3.9zM684 470c-1.3.9-1.3 1 0 1 .8 0 2.6.3 4 .6 2.4.5 2.4.5.6-1-2.3-1.9-2.6-1.9-4.6-.6zM666 475c0 .5.5 1 1.1 1 .5 0 .7-.5.4-1-.3-.6-.8-1-1.1-1-.2 0-.4.4-.4 1zM659 476.1c0 .5.5.7 1 .4.6-.3 1-.8 1-1.1 0-.2-.4-.4-1-.4-.5 0-1 .5-1 1.1zM850 477c-1.4.9-5.8 2.3-16 5-2.5.7-7.1 1.2-10.4 1.1-3.2-.1-6.3.2-7 .7-.6.5-2.8 1.2-4.8 1.6-5.1.9-4.9 3.2.2 4 2.2.3 5.8.9 7.9 1.2 3.4.5 4.3.2 7.8-2.9 2.8-2.6 6-4.1 11.4-5.6 7.3-2 16.7-6.1 13.9-6.1-.8 0-2.2.5-3 1zM710 483c0 .5.5 1 1.1 1 .5 0 .7-.5.4-1-.3-.6-.8-1-1.1-1-.2 0-.4.4-.4 1zM946.2 496.9c.2.7.7 1.2 1.1 1.2 1.2-.1.9-1.5-.3-2-.7-.2-1.1.2-.8.8zM714.5 499c2.8.4 6.1 1.2 7.4 1.7 3.3 1.3 7.1.4 7.1-1.6 0-1.3-.2-1.3-.9-.2-.6 1-1.9 1.2-4.2.7-1.9-.4-5.9-.9-8.9-1.1l-5.5-.4 5 .9zM473.5 514.6c-2.2.8-4.4 1.9-4.9 2.4-.4.4.9.2 3-.5 2.2-.8 4.7-1.4 5.6-1.5.9 0 2-.5 2.3-1 .8-1.4-1.2-1.2-6 .6zM1007.8 523.7c-2.7.7-2.1 2.3.7 2.3 1.4 0 2.5-.4 2.5-.9 0-1.3-1.2-1.8-3.2-1.4zM693.5 525c.3.5 1 1 1.6 1 .5 0 .9-.5.9-1 0-.6-.7-1-1.6-1-.8 0-1.2.4-.9 1zM730.8 526.7c-2.7.7-2.2 2.3.7 2.3 1.6 0 2.5-.6 2.5-1.5 0-1.5-.2-1.6-3.2-.8zM640.5 528c.3.5.8 1 1.1 1 .2 0 .4-.5.4-1 0-.6-.5-1-1.1-1-.5 0-.7.4-.4 1zM461.5 530.8c-1.6.8-3.2 1.8-3.5 2.2-.3.4-2 1.5-3.7 2.4-4.4 2.2-4.2 2.7.5 1 2-.7 4.5-1.3 5.4-1.4 1.6 0 5.6-4.7 4.7-5.4-.2-.1-1.7.4-3.4 1.2zM748.1 530.5c.8.7 7.8.9 8.5.2.4-.4-1.4-.7-4.1-.7-2.7 0-4.6.2-4.4.5zM658 534l-2.3 2h2.7c1.6 0 2.5-.4 2.1-1-.3-.6-.1-1 .4-1 .6 0 1.1.4 1.1.8 0 .9 7.1 3.4 7.8 2.8.1-.2-1.2-.9-2.9-1.5-1.8-.6-4-1.8-4.9-2.6-1.5-1.4-1.9-1.3-4 .5zM720 536.1c0 1.2 9 5.3 13.8 6.4 1.8.3 3 1 2.8 1.4-.3.4.4.7 1.5.7 2.9 0 2.2-.9-2.4-3.1-6.9-3.3-4.2-4.6 6.1-2.9 2 .3 3.2.1 2.8-.4-1.2-2-24.6-3.9-24.6-2.1zM474 547.6c0 .8.5 1.2 1 .9.6-.4.8-1.1.5-1.6-.9-1.4-1.5-1.1-1.5.7zM387 548.4c0 .2.9.6 2 .9 1.1.3 1.8.1 1.4-.4-.5-.9-3.4-1.3-3.4-.5zM710 550.5c-.5 1.4-2.1 3-3.6 3.5-1.7.7-2.4 1.5-2 2.5.3.8.9 2.2 1.3 3.1.7 1.8-.9 1.7-11.2-.6-2.7-.6-8.1-1.5-11.8-2-4.1-.5-7.6-1.5-8.8-2.6-1.3-1.1-1.9-1.3-1.9-.4s-1.1 1.1-3.7.7l-3.8-.6 3.6 1.2c2 .7 4.4 1.8 5.3 2.6 1.1.9 1.6 1 1.6.2 0-.7.3-1 .8-.8.4.3 3.6.8 7.2 1.2 3.6.4 10.1 1.5 14.5 2.6 4.4 1 9.8 1.9 12 1.9 4.6 0 3.8 1.2-2 3-2.2.7-3.4 1.5-2.7 1.8 1.6.5 6.8-1.5 10.2-4 2.7-1.9 5-2.1 14.3-1.2 3.8.4 5.7.2 5.7-.5 0-.6-.9-1.1-1.9-1.1-3 0-9.2-3.8-13.1-8-1.9-2.1-4.7-4.1-6.3-4.4-2.3-.5-2.9-.2-3.7 1.9zM759.5 551c-.3.5-.1 1 .4 1 .6 0 1.1-.5 1.1-1 0-.6-.2-1-.4-1-.3 0-.8.4-1.1 1zM767.6 553.1c.3.5 1.2.9 2 .9s3.2 1.8 5.4 4 4.7 4 5.6 4c1.8 0 10.5 3.8 11.4 5 .6.8 17 11.4 20.1 13 3.8 2 1.6.2-5.5-4.5-6.7-4.4-15.9-11.4-22.6-17.2-2.7-2.4-5.6-3.7-10.3-4.7-3.7-.7-6.4-1-6.1-.5zM463.5 561c-.3.5-.2 1 .4 1 .5 0 1.3-.5 1.6-1 .3-.6.2-1-.4-1-.5 0-1.3.4-1.6 1zM674.8 563.1c-.9.6-.7.9.8.9 1.1 0 2.5.5 3.1 1.1.6.6 1.7.9 2.6.7.8-.2.1-.9-1.9-1.9-1.9-.9-3.8-1.3-4.6-.8zM462 565.1c0 .5.5.7 1 .4.6-.3 1-.8 1-1.1 0-.2-.4-.4-1-.4-.5 0-1 .5-1 1.1zM655 567.2c0 1.8 1.8 3.4 2.8 2.4.3-.4-.2-1.4-1.1-2.3-1.6-1.6-1.7-1.6-1.7-.1zM757.9 568.1c1.3 1.1 3.3 1.9 4.5 1.9 1.1 0 3.3.7 4.9 1.4 2.8 1.5 3.6.9 1.5-1.2-.9-.9.1-1.2 4.8-1.3 5.9-.2 5.9-.2-2.1-1-4.4-.4-9.8-1-12-1.2l-3.9-.5 2.3 1.9zM647 570c-.9.6-1 1-.3 1 .6 0 1.5-.5 1.8-1 .8-1.2.4-1.2-1.5 0zM789.8 569.7c.7.3 1.6.2 1.9-.1.4-.3-.2-.6-1.3-.5-1.1 0-1.4.3-.6.6zM468.5 574c-.3.5-.1 1 .4 1 .6 0 1.1-.5 1.1-1 0-.6-.2-1-.4-1-.3 0-.8.4-1.1 1zM647.4 573.8c.6 1 11 2.9 11.2 2.1 0-.2.8.2 1.7.9.9.8 3.1 1.2 4.9 1 2.1-.2 3.3.2 3.4.9.3 2.6.5 2.8 1.5 1.1.7-1.2.6-2.3-.2-3.6-1-1.7-2.3-1.9-8.3-1.8-3.9 0-8.8-.3-10.9-.7-2.5-.5-3.7-.5-3.3.1zM427.5 583.5c-1.4 1.3-2.5 3-2.5 3.7 0 .7.7.3 1.5-.9.8-1.1 2.6-2.4 4-2.7 1.4-.4 2.3-1.1 2-1.6-1-1.6-2.4-1.2-5 1.5zM815.1 581.4c.8.8 15.8 8.6 16.6 8.6 1.3 0-3.4-3-9.6-6-5.4-2.7-8.1-3.7-7-2.6zM651.4 583.8c.9 1.5 4.8 2.3 4.3.9-.2-.7-1.4-1.4-2.6-1.5-1.3-.2-2.1.1-1.7.6zM845 586c2.7 2.1 4 2.5 4 1.2 0-.4-1.5-1.3-3.2-2l-3.3-1.2 2.5 2zM663 586.4c0 .2 1.4 1.4 3 2.6 1.7 1.2 3 1.9 3 1.6 0-.2-1.3-1.4-3-2.6-1.6-1.2-3-1.9-3-1.6zM337.3 587.7c-2 .8-1.5 2.3.7 2.3 1.1 0 2-.7 2-1.5 0-1.5-.6-1.7-2.7-.8zM322 591.1c-4.2 2.5-8.2 6.8-7.7 8.3.6 1.7 7 .7 8.7-1.2.8-1 3.2-2.8 5.3-4.1 4.5-2.7 4.6-3.2.7-2.4-2.5.5-2.9.3-2.4-1.1.8-2.1-.4-2-4.6.5zM658.8 590.8c-1 .2-1.8 1.1-1.8 2 0 1.2.3 1.3.8.5s2-1 3.7-.7c1.6.3 2.7.4 2.5.2-2.8-2-3.7-2.4-5.2-2zM700.9 594.5c1.6 3 5.9 8 6.5 7.5.2-.3-1.4-2.5-3.6-5s-3.5-3.6-2.9-2.5zM668.7 598.1c.7.7 1.5 1 1.8.7.3-.3-.2-.9-1.2-1.2-1.4-.6-1.5-.5-.6.5zM709 603.4c0 .2.8 1 1.8 1.7 1.5 1.3 1.6 1.2.3-.4s-2.1-2.1-2.1-1.3zM797.5 607c-.3.5-.1 1 .4 1 .6 0 1.1-.5 1.1-1 0-.6-.2-1-.4-1-.3 0-.8.4-1.1 1zM672.2 608.2c.5 1.4 4.8 3.1 4.8 1.8 0-.6-.7-1-1.5-1s-1.5-.5-1.5-1c0-.6-.5-1-1.1-1-.6 0-.9.5-.7 1.2zM801 607.8c0 1.2 1.9 2.6 2.6 1.9.2-.2-.2-1-1.1-1.7-.9-.8-1.5-.8-1.5-.2zM714.1 608.2c.2.2 1.8 1.4 3.4 2.8l3 2.5-2.4-2.8c-1.4-1.5-2.9-2.7-3.4-2.7-.6 0-.8.1-.6.2zM531.5 612.2c-1.1 1.8-2.8 4.8-3.9 6.7-1 2-2.5 4.4-3.4 5.4-.8.9-1.3 1.9-1 2.2.9.9 8.8-8.4 8.8-10.3 0-1 .7-2.7 1.5-3.8 1.6-2.1 1.9-3.4.8-3.4-.5 0-1.7 1.4-2.8 3.2zM678.5 610c.3.5 1 1 1.6 1 .5 0 .9-.5.9-1 0-.6-.7-1-1.6-1-.8 0-1.2.4-.9 1zM684.9 615.4c1.4 1.4 2.9 2.6 3.4 2.6.6 0 1.9.7 2.9 1.7 1 .9 2 1.4 2.3 1.1.4-.4-7.9-6.9-10-7.7-.5-.2.1.8 1.4 2.3zM620.6 617.6c-1.1.7-1.7 1.7-1.3 2 .3.4 1.4-.1 2.3-1 2.1-2.2 1.5-2.8-1-1zM878 623c0 .5.5 1 1.1 1 .5 0 .7-.5.4-1-.3-.6-.8-1-1.1-1-.2 0-.4.4-.4 1zM697.1 623.3c.2.1 1.3.9 2.4 1.7 1.9 1.4 1.9 1.4.6-.3-.7-.9-1.8-1.7-2.4-1.7-.6 0-.8.1-.6.3zM631.7 629.7c-1.2 1.3-2.1 1.3-4.6.5-1.7-.6-3.3-.7-3.6-.3-.8 1.4.7 2.1 5.1 2.1 5.6 0 6.5 1.6 2.5 4.7-3.1 2.5-3.9 4.7-2.1 5.8.5.3.7 0 .4-.9-.3-.8.9-2.7 3-4.7 3.9-3.5 4.4-5.2 2.2-7.4-1.1-1.1-1.6-1.1-2.9.2zM402.7 631.5c-2.7 1.3-6.4 3.6-8.3 5.3-1.8 1.6-3.9 3.2-4.6 3.6-.7.3-3.1 2-5.3 3.6-2.2 1.7-5.1 3.8-6.5 4.8-1.4.9-6.5 4.8-11.5 8.7-8.7 6.8-17.5 12.9-22.3 15.4-4.1 2.1-4.6.6-.8-2.3 2.1-1.5 6.4-5.4 9.7-8.7 5.5-5.5 7.1-7.9 5-7.9-1.1 0-12.2 6.2-16.2 9.1-1.6 1.1-6 3.6-9.6 5.5-3.7 1.9-8.7 5.2-11.2 7.3-7.6 6.3-14.3 9.5-22.3 10.5-7.4 1-17.7 7.8-22.4 15-5.6 8.3-10.4 12.4-18.5 15.6-5.4 2.2-8.6 4.2-10.2 6.3-1.4 1.8-3.6 4.3-4.9 5.7-3.4 3.4-9.1 13.7-8.3 15 1.1 1.8 6.5 1.1 11.4-1.5 2.5-1.3 7.1-3.6 10.1-5 6.8-3.2 7.7-3.8 17.1-10.2 4.2-2.9 12.8-7.7 19-10.7 8.7-4.3 12.4-6.7 15.7-10.3 2.3-2.6 4.2-5.1 4.2-5.5 0-1.2 7.6-7.9 12.4-10.9 2.2-1.5 5.5-4.3 7.3-6.3 1.7-2 4.1-3.6 5.2-3.6 3.4 0 13.9-6 19.1-11 .9-.8 3.2-2.6 5.3-4 2-1.4 3.7-2.8 3.7-3.2 0-.3 2.1-1.8 4.8-3.4 2.6-1.5 5.4-3.3 6.2-4 .8-.8 4.4-3.4 8-5.8 6.1-4.2 10.2-6.8 21-13.5 4.3-2.6 6.6-6.2 3.8-6-.7 0-3.5 1.1-6.1 2.4zM888.1 634.6c0 1.1.3 1.4.6.6.3-.7.2-1.6-.1-1.9-.3-.4-.6.2-.5 1.3zM635.3 636.2c-1.5 2-2.5 3.8-2 3.8.3 0 1.2-1.1 2.1-2.5 1.7-2.6 1.6-3.5-.1-1.3zM715 636c0 1.3 4.9 6 6.2 6 2.1 0 2-3.4-.1-5.2-2.5-2-6.1-2.4-6.1-.8zM740 639c0 .5.5 1 1.1 1 .5 0 .7-.5.4-1-.3-.6-.8-1-1.1-1-.2 0-.4.4-.4 1zM908 640.8c0 2.3 17.5 11.2 21.9 11.2 2.7 0 5.4 1.2 22.4 10.2 3.7 1.9 6.7 3.2 6.7 2.9 0-.4-2.1-1.8-4.7-3.1-2.7-1.4-6.6-3.6-8.8-5-2.2-1.4-6.5-3.9-9.5-5.4-3-1.6-6.2-3.5-7-4.1-1.9-1.6-8.3-4.3-13-5.5-1.9-.5-4.5-1.2-5.7-1.5-1.4-.5-2.3-.3-2.3.3zM316.2 644.2c.6 1.8 2.8 2.1 2.8.4 0-.9-.7-1.6-1.6-1.6-.9 0-1.4.5-1.2 1.2zM766.9 652.3c1.9 2 3.7 3.7 3.9 3.7 1.1 0-2.7-4.5-4.9-5.9-1.8-1.1-1.6-.6 1 2.2zM788.2 654.1c.2.6 1.4 1.6 2.7 2 2.7 1.1 1.9-.6-1.1-2.2-1.6-.8-1.9-.8-1.6.2zM738 659c0 .5.5 1 1.1 1 .5 0 .7-.5.4-1-.3-.6-.8-1-1.1-1-.2 0-.4.4-.4 1zM832.5 660c1.7 1.1 3.5 2 4 2 .6 0-.5-.9-2.3-2-4.2-2.6-5.6-2.6-1.7 0zM439.7 661.7c-1.3 1.2-.7 3.3.8 3.3.8 0 1.5-.9 1.5-2 0-2-1.1-2.6-2.3-1.3zM579 663c0 .5.5 1 1 1 .6 0 1-.5 1-1 0-.6-.4-1-1-1-.5 0-1 .4-1 1zM838 662.6c0 .8 6.3 3.5 7.6 3.2.8-.2-.5-1-3-1.9-2.5-.9-4.6-1.5-4.6-1.3zM976.5 675c.3.5.8 1 1.1 1 .2 0 .4-.5.4-1 0-.6-.5-1-1.1-1-.5 0-.7.4-.4 1zM926 679c0 .5.5 1 1.1 1 .5 0 .7-.5.4-1-.3-.6-.8-1-1.1-1-.2 0-.4.4-.4 1zM837 684c2.7 2.1 4 2.5 4 1.2 0-.9-4.4-3.2-5.8-3.2-.4 0 .4.9 1.8 2zM687 690c0 1.9 1.1 2.6 2.3 1.4.8-.8-.3-3.4-1.4-3.4-.5 0-.9.9-.9 2zM698 693.6c2.9 3.3 7.8 8 11.1 10.9 1.6 1.4 1.4.9-.6-1.5-6.6-7.7-9.1-10.2-11-11.2-1.7-.9-1.6-.6.5 1.8zM714.8 692.2c.6.6 2.2 1.3 3.4 1.5 2.2.4 2.2.3.3-1.1-2.5-1.9-5.5-2.2-3.7-.4zM933.5 700c1 1.1 2 2 2.2 2 .2 0-.1-.9-.7-2s-1.6-2-2.2-2c-.6 0-.3.9.7 2zM727 701.7c0 .5 1 1.9 2.1 3.3l2 2.5-1.6-3.3c-1.5-3-2.5-4.1-2.5-2.5zM470.5 706c-.3.5-.1 1 .4 1 .6 0 1.1-.5 1.1-1 0-.6-.2-1-.4-1-.3 0-.8.4-1.1 1zM713.5 709c1 1.1 2 2 2.3 2 .3 0-.3-.9-1.3-2s-2-2-2.3-2c-.3 0 .3.9 1.3 2zM876 708c0 .5.5 1 1.1 1 .5 0 .7-.5.4-1-.3-.6-.8-1-1.1-1-.2 0-.4.4-.4 1zM732.5 712c.9 1.6 1.8 3 2.1 3 .2 0-.2-1.4-1.1-3-.9-1.7-1.8-3-2.1-3-.2 0 .2 1.3 1.1 3zM753 716c0 .5.5 1 1 1 .6 0 1-.5 1-1 0-.6-.4-1-1-1-.5 0-1 .4-1 1zM735 716.3c0 .3 1.2 2.8 2.6 5.4 2 3.6 2.5 4.1 2 1.9-.6-2.6-4.6-8.9-4.6-7.3zM765 717.9c.5 1.1 1.5 2.3 2.1 2.7.6.3.3-.5-.6-2-2-3-3-3.5-1.5-.7zM769 722.4c0 .2.8 1 1.8 1.7 1.5 1.3 1.6 1.2.3-.4s-2.1-2.1-2.1-1.3zM1008 729c0 .5.5 1 1.1 1 .5 0 .7-.5.4-1-.3-.6-.8-1-1.1-1-.2 0-.4.4-.4 1zM778.1 732.5c2 2.2 4.9 5.6 6.5 7.5 5.6 6.6 15.3 16.4 15.8 15.9.3-.3-2.7-3.9-6.7-8-4-4.2-8.3-8.9-9.8-10.5-1.4-1.6-4.1-4.2-6-5.9l-3.4-3 3.6 4zM745 732.9c0 1.1.4 2.2.9 2.5.4.3.6-.6.3-1.9-.5-3-1.2-3.3-1.2-.6zM458 733.5c0 .8.5 1.5 1 1.5.6 0 1-.7 1-1.5s-.4-1.5-1-1.5c-.5 0-1 .7-1 1.5zM861 793.5c0 .8.7 1.5 1.5 1.5s1.5-.7 1.5-1.5-.7-1.5-1.5-1.5-1.5.7-1.5 1.5zM1003.6 800.8c-.3.6-.1 1.4.5 1.7 1.5 1 2.5-.3 1.2-1.6-.7-.7-1.3-.7-1.7-.1zM587 808.1c0 .5.5.7 1 .4.6-.3 1-.8 1-1.1 0-.2-.4-.4-1-.4-.5 0-1 .5-1 1.1zM829.5 835c.3.5.8 1 1.1 1 .2 0 .4-.5.4-1 0-.6-.5-1-1.1-1-.5 0-.7.4-.4 1zM853 864c0 .5.5 1 1 1 .6 0 1-.5 1-1 0-.6-.4-1-1-1-.5 0-1 .4-1 1zM948 882.3c0 1.8 4.7 7.3 5.5 6.5.7-.7-3.6-7.8-4.7-7.8-.5 0-.8.6-.8 1.3zM963.4 886.2c.3.7.9 2.1 1.2 3 .4 1 1.3 1.8 2 1.8 2.3 0 1.6-2.7-1.2-4.5-1.8-1.2-2.4-1.3-2-.3z"/>
</svg>