<svg xmlns="http://www.w3.org/2000/svg" width="1706.667" height="1706.667" version="1.0" viewBox="0 0 1280 1280"><path d="M586 117.5c-1.2 1.9-2.5 6.1-3 9.2-.5 3.2-1.5 7.6-2.3 9.9-.8 2.3-1.6 8.3-1.7 13.5-.3 12.7-.3 13.5.5 17.6 1.1 6.2 3.4 2 4.4-8.3.7-7.3 1.6-10.7 5.5-19.3 4.5-10.1 5.5-15.3 3.7-18.9-.5-.9-1.4-2.9-2-4.5-1.4-3.6-2.5-3.4-5.1.8zM553.4 122.5c-.7 4 1 11.5 2.7 11.5.5 0 1.7-1.6 2.6-3.5 2.2-4.6.9-10.8-2.4-11.3-1.8-.3-2.3.3-2.9 3.3zM515.5 129c.3.5.8 1 1.1 1 .2 0 .4-.5.4-1 0-.6-.5-1-1.1-1-.5 0-.7.4-.4 1zM499.7 175.6c-.4.4-.7 1.5-.7 2.4 0 .9-1.1 2.7-2.5 4-1.4 1.3-3.2 4.7-4.1 7.5-1.6 4.9-1.6 5.3.4 9.2 2.3 4.3 7.9 8.9 21.7 17.4 7.6 4.7 8.3 5 13.5 4.5 3-.2 6.9-.7 8.6-1.1 1.8-.4 3.4-.3 3.6.2.3.4.2 3.6-.1 7.1-.8 7.1.3 11.3 4.3 17.1 1.9 2.8 2.6 5 2.6 8.7 0 2.7.4 7.5 1 10.6.8 5.2 2.3 25.1 2.2 28.8-.1.8.3 5.2.9 9.7 1.6 13.7 1.4 23.6-.6 26.7-1.9 2.8-1.9 2.8-1.3 25.1.3 7.7 0 16.4-.6 19.3l-1 5.2-5.9-5.7c-7.1-6.9-6.1-4.4 1.7 4.6 5.6 6.4 6 7.2 5.6 12.3-.2 3 1.7 7.1 2.9 6.4.9-.6 2.8 1.5 4.9 5.3 1.2 2 1.1 2.6-.6 4.5-1.9 1.9-1.9 2.4-.6 5.5 1.5 3.5 1.2 5.1-1.1 5.1-2.5 0-3.8 3.8-2.6 7.2.6 1.7 1 3.2.9 3.4-.2.1-1.9-.3-3.9-1-3.1-1.1-4.2-1-7.3.3-2.3 1-3.6 2.2-3.6 3.5 0 1-1.9 3.9-4.1 6.4-4.2 4.4-4.2 4.4-3.5 10.6.3 3.3.9 7.4 1.2 9 .4 2.2.2 2.7-1 2.3-.8-.3-1.7.1-2 .8-.6 1.7-3.5.6-10.3-3.8-2.4-1.5-5.1-2.7-6-2.6-1.3 0-1.1.3.7 1 1.3.6 4 2.2 6 3.7 1.9 1.5 3.8 2.7 4.3 2.7.4 0 .7.3.7.7v1.8c0 .6-1.3.4-3-.5-4-2.1-4.7-1.9-1.9.5 2.3 1.8 2.3 1.9.4 2.1-3.8.3-7 .6-10.9 1-3.1.3-4 0-4.2-1.4-.1-.9.2-1.9.7-2.3 1.6-.9 1-2-1.8-3.3-2.6-1.2-2.7-1.2-1.2.6.9 1 1.5 3.1 1.4 4.8-.1 2.5-.8 3.2-4.1 4.3-2.1.7-4.9 1.1-6.1.9-1.4-.3-2.3.1-2.3.8 0 .9-1.7 1.3-5.5 1.3-3-.1-6 .4-6.7 1-2.2 1.7-11.7 4.5-13.8 3.9-1-.3-2.1 0-2.3.6-.2.6-3 1.4-6.3 1.8-7.5.9-22.2 3.6-29.8 5.5-3.3.9-12.3 1.7-20.9 2-8.2.2-15.5.9-16.2 1.4-.7.6-3.2 1.7-5.6 2.5-4.3 1.4-4.3 1.4-.7.8 2.4-.3 4.4 0 5.8 1 1.6 1.1 3 1.3 5.3.6 4.5-1.3 17.2-4 23.7-4.9 12.3-1.9 41.7-7 45-8 5.7-1.6 16.2-3.8 21.2-4.5 4.3-.6 4.6-.5 4.1 1.4-.3 1.2-2.2 3.6-4.3 5.5-3.7 3.3-3.9 3.4-10.6 2.9l-6.9-.5 3 2.1c1.7 1.2 3.5 2.1 4 2.1.6 0 .3-.5-.5-1.1-1.2-.9-1.2-1-.1-.7 2.5.7 2.4 2.7-.3 4-2 .9-3.7.9-7.4-.1-8.3-2.1-9.9-2.1-3.4 0 3.4 1.1 6.2 2.5 6.2 2.9 0 .9-2.9 2.7-9 5.6-1.9.9-3.7 1.9-4 2.3-2 2.6-12.1 9.5-18 12.2-2.5 1.1-6.1 3-8 4.2-1.9 1.2-6.4 2.9-10 3.9-3.6.9-9 2.5-12 3.6-4.4 1.6-18.8 6.1-24.5 7.7-1.8.5-13.9 9.2-15.9 11.4-1.1 1.2-2.7 2.1-3.6 2.1-.9 0-2 .4-2.6 1-.9.9-4.1 2.7-14.4 8-2.5 1.3-5.2 2.7-6 3.2-.8.4-2.4 1.2-3.5 1.7-7.3 3.2-32.8 16.3-36.1 18.5-2.1 1.4-4.3 2.6-4.8 2.6s-3.1 1.9-5.7 4.2c-2.7 2.4-6.2 5.4-7.8 6.8-1.7 1.4-3.6 3.8-4.2 5.3-1.5 3.6-5.2 5.4-11 5.4-5.3.1-9.9 2.2-12.8 5.9-2.5 3.2-7.5 4.3-20.1 4.3-9.3 0-23.7-2.9-25.1-5.1-1.4-2-.6-4.1 1.9-5.4 4.4-2.2 6.2-4.5 5.1-6.5-.5-1.1-2-1.9-3.3-1.9-2.3 0-5.6 2.8-5.6 4.7 0 .6-.9 2.2-2.1 3.7-4.2 5.4.1 13.9 7.8 15.7 3.4.7 5.2.5 9.3-1.1 5.8-2.3 16.8-2.6 31.3-1 10.8 1.3 13.8.2 21.3-7.3 2.9-2.8 6.6-6.4 8.3-7.8 2.3-2 3.1-3.5 3.1-5.9 0-3.5 2.4-6.2 7.8-8.6 1.7-.8 3.2-1.8 3.2-2.2 0-1.4 11.6-9.1 19.8-13.2 16.5-8.3 29.3-14 31.1-14 1.1 0 2.3-.4 2.6-1 .7-1.1 5.7-3.6 10-4.9 7-2.2 13.4-5 17.1-7.5 2.2-1.4 5.3-2.6 7.1-2.6 1.8 0 4.3-1 6-2.3 1.5-1.3 6.2-3.1 10.3-4.2 4.1-1 10.7-3.5 14.5-5.4 3.9-2 9.3-4.7 12-5.9 5.2-2.3 11.4-5.7 20-11 2.8-1.8 6.6-3.9 8.6-4.7 2-.9 4.1-2.7 4.8-4.1.6-1.3 1.8-2.7 2.8-3.1.9-.4 5.1-3.1 9.2-6.1 8.7-6.2 11.3-7.4 12.3-5.8.5.7.8.6.8-.4 0-1.1.2-1.2.8-.3.5.8 1.9.9 4.4.4 2-.5 3.9-.6 4.2-.4.2.3 1 .2 1.7-.3.9-.5.7-.9-.7-1.5-1.2-.4-.4-.6 2.3-.5 2.4 0 4.3.5 4.3 1 0 .4.7.5 1.6.2 1-.4 1.4-.1 1.2.6-.3.7-1.5 1.5-2.9 1.6-1.3.2-2.8.8-3.4 1.4-.7.6 0 .7 2 .3l3-.6-3 1.4c-1.6.8-4.8 1.8-7 2.2-2.2.5-4.2.9-4.5 1-.3.1-2.3.7-4.5 1.3-2.2.7-5.3 1.2-7 1.2-1.6 0-3.7.5-4.5 1.1-1.1.8-.6.9 2.2.5 2.1-.2 4-.1 4.3.4.3.5 1.3.7 2.3.4.9-.4.4.3-1.3 1.5l-3 2.1 2.5.1c1.4.1 3.7 0 5.3-.1 3.2-.2 3.6 1.6.6 2.5-1.1.4-1.8 1.3-1.6 2 .3.7 0 1.8-.6 2.5-.9 1-.9 1.1.2.5.8-.4 2.8-.9 4.5-1.1 1.7-.2 4.1-.6 5.4-.9 1.2-.3 2.2-.1 2.2.4 0 2.2-2.4 6.1-4.2 6.6-1 .4-1.8 1.1-1.8 1.7 0 .5.7.7 1.6.4 1-.4 1.4-.1 1.1.6-.2.7-1.1 1.2-2 1.2-.9-.1-1.4.3-1.1.8.3.5-.3 1.6-1.4 2.4-1.2.8-1.9 2.1-1.6 2.8.5 1.3-4.4 11.6-5.5 11.6-.4 0-1.8-3.2-3.2-7-1.8-4.6-2.3-7.1-1.5-7.4.6-.2.3-.5-.6-.5-1-.1-1.8-.5-1.8-1s-1.2-1.6-2.6-2.6c-2.5-1.6-2.8-1.6-3.6-.1-.5.9-1.5 1.6-2.3 1.6-.8 0-1.7.5-2.1 1.1-.4.7 0 .9 1.4.5 2.9-.9 3.5 1.4 3.3 12.9-.1 8.8-.4 10.4-2.6 13.7-1.4 2.1-2.9 3.7-3.3 3.7-2-.3-2.1.3-.2 2.3 2.1 2.3 2.7 4.4 1 3.3-.5-.3-1 .1-1 .9s-2.1 3.1-4.6 5.1c-5 3.7-5.2 4.9-.3 1.5 1.5-1.2 4.2-2.6 5.9-3.1 1.6-.6 2.8-1.4 2.5-1.9-.7-1.2 1.8-2.8 4-2.5 8 .9 12.4 1.9 14.6 3.5 1.5 1.1 2.9 1.6 3.3 1.3 1.3-1.4.5-5.8-1.6-8-1.2-1.2-2.2-3.1-2.3-4-.1-1-.7-3.1-1.4-4.6-1.6-3.9-1.4-4.5 2.2-10.7 2.2-3.7 4.6-6.2 7.1-7.5 2.2-1.1 5.3-3.2 7-4.8 1.7-1.5 4.2-2.7 5.6-2.8 1.4 0 1.9-.3 1.3-.6-1.9-.7-1.6-2.3.5-2.3.9 0 3-1.6 4.5-3.5s3.7-3.5 4.7-3.5c2.4 0 2.6 1.5.5 2.4-.8.3-1.5 1.1-1.5 1.8s-1.4 2.2-3 3.3c-1.6 1.1-3 2.5-3 3.1 0 .7-1 1.4-2.3 1.8-1.3.3-5 2.3-8.2 4.5-3.2 2.2-6.3 3.7-6.8 3.4-.6-.3-.7-.1-.3.5.4.6 1.4.8 2.3.5 1.2-.5 1.4-.3.8.7-.5.9-.4 1.1.4.6.6-.4.9-1.1.7-1.5-.6-.9 6.1-5.4 8.3-5.6 1-.1 3-.9 4.5-1.8 3.2-2.1 5.2-1.4 3.4 1.2-1.6 2.2-11.5 10.8-16.2 14.1-1.9 1.4-3.6 2.9-3.6 3.4s.8.2 1.8-.6c3.2-3 11.4-7 12.8-6.4 1 .4 2.5-.6 4.1-2.4 3.7-4.4 6.7-4 9.5 1.2 1.2 2.4 2.1 4.7 1.9 5.3-.5 1.9 4.1-3 5-5.3.5-1.2 1.3-2.2 1.9-2.2 1.3 0 .5 15.3-1 18-.7 1.3-.3 2.3 1.5 4 1.4 1.3 2.7 3.1 3 4.1.4 1.2 2.6 2.4 5.7 3.4 2.8.8 5.8 2.1 6.7 2.9 4.1 3.5 12.2 2.2 20.7-3.2 6.1-3.9 7.7-7 6.9-13.7-1.1-8.1.9-6.8 2.5 1.7.8 3.9 1.6 6.6 1.8 6 .2-.7-.3-4.2-1.1-7.9-2.5-11.7-1-24.2 1.9-15.3.7 2.1.8 4.5.3 6.5-1.3 4.6-1.1 8.1.7 9.6 1.6 1.3 6.4 11.2 6.4 13.3 0 .6.7 2.4 1.6 4.1 2.4 4.6 6.5 14.6 7.6 18.5.5 1.9 1.4 5.3 1.9 7.4.5 2.2 2.3 5.6 3.9 7.7 1.7 2 3 4.3 3 5 0 .8.5 2.1 1.1 2.9.8 1.2.9.8.6-1.5-.3-1.6.1-4.5.9-6.3.9-2.2 1-3.7.4-4.5-5.2-6.2-9-11.8-9.5-14-.4-1.5-1.1-3-1.6-3.2-.4-.3-.6-1.3-.3-2.3.5-1.4.4-1.4-.4-.2-.9 1.2-1.3.9-2.1-1.3-1.7-4.3-2.4-7.7-1.7-7.7.4 0 1.1 1 1.6 2.2.8 2.1.9 2.1.9.3 0-1.1-.6-2.8-1.4-3.9-2.1-2.7-.5-4.9 4.9-6.5 2.9-.8 4.6-1.9 4.6-2.9 0-1.3-.2-1.3-1.8.1-1 1-2.6 1.7-3.6 1.7-1.7 0-2-.5-3-5.3-.5-2-1.2-2.7-3-2.7-2.4 0-8.6-4.9-8.6-6.9 0-.6 1.4-2 3-3.3 3.3-2.4 3.7-4.3 1.6-7.3-2.8-4.2-3-6.7-.5-8.6 2.1-1.6 2.3-2.1 1.2-4.8-.6-1.7-.7-3.3-.3-3.6.5-.3.7-1.3.3-2.3-.7-2.2 3.8 3 8.2 9.5 4.7 7 6.1 7.6 2.8 1.2-1.5-2.8-3.3-5.3-4-5.6-2.7-1.1-7.3-9.1-7.3-12.7 0-5 1.4-4.8 5.5.9 1.5 2 1.5 2 .8 0-.7-1.9-.6-2 2-.2 1.5.9 2.7 1.3 2.7.8s-1.5-1.6-3.4-2.5c-3.4-1.6-5.1-4-4-5.7 1.6-2.7 8.5 2.2 11.8 8.5 2.1 3.9 1.3 6.3-1 3.2-.7-1.1-1.6-1.8-1.8-1.5-.8.8 6.5 8.9 8 8.9 2.1 0 1.7-1.8-.6-3-2.2-1.2-2.7-4-.7-4 .6 0 2.8 1.7 4.8 3.8 1.9 2.1 4.1 3.6 4.7 3.4 1.6-.5 1.5-2.2 0-2.2-1.6 0-8.8-7.5-8.8-9.1 0-.7-1.6-3.2-3.6-5.6-2.8-3.4-3.4-4.7-2.4-5.3.7-.5 2-.6 2.8-.2 1.1.4 1.3.1.7-.8-.5-.9-.4-1.1.4-.6.6.4.9 1.1.6 1.6-.3.4.2 1 1 1.4.8.3 1.5 1.4 1.5 2.5 0 1.3.5 1.8 1.3 1.5.7-.2 2.1.4 3.1 1.5s2.4 1.7 3.2 1.4c1.1-.4.7-1.1-1.6-2.4-3.8-2.4-6.7-8.4-5-10.5 1-1.1 1.6-1.1 3.6.3 1.3.8 2.7 2.6 3 3.9.3 1.3 1.2 2.4 1.9 2.4 1.5 0 12.5 11.6 12.5 13.2 0 .6.3.8.6.5.4-.4-.4-2.1-1.8-3.9-1.3-1.8-3.6-5.4-5.1-8.1-1.6-2.6-3.3-4.7-3.9-4.7-.6 0-.9-.3-.5-.6 1.3-1.3 9.9 4 12.2 7.5 3.2 5 6.2 8.1 9.2 9.2 3.2 1.2 4.1.6 4.9-3.7l.7-3.6 7.3.5c4 .3 8.1 1 9.2 1.6 1.1.6 4.2 1.2 6.8 1.5 6.4.6 17.5 2.5 18.7 3.3 4.7 2.9 11.7 1.3 11.7-2.7 0-2.8-1.5-3.2-3.6-.9-1.5 1.6-2.6 1.9-5.9 1.4-8.6-1.3-14.1-2.8-16-4.5-3-2.6-6.1-4-9-4-2.1 0-4.9-2.3-12.5-10-9-9.2-12-11.5-12-9.1 0 1.5 12.2 13.6 13.5 13.4.6-.2 2.7 1.3 4.5 3.2 4.4 4.5 3.1 5.6-6 5.3-5.9-.3-6.5-.5-6.8-2.6-.4-2.4 1.6-3 3.6-1 .6.6 1.4.9 1.8.5.3-.3-2-1.9-5.2-3.5-3.3-1.7-6.4-3.9-7.1-5-.7-1.1-3.7-3.7-6.7-5.7-3.1-2-5.4-4-5.3-4.3.4-1.2-.7-1.4-3.5-.7-1.7.5-3.5.1-5.3-1.1-2.5-1.6-2.6-1.9-.9-2.5 1.6-.6 1.7-.8.4-1.3-2-.8-2.6-7.6-.8-7.6 1 0 1-.2.1-.8-1.7-1 10.1-14.1 12.5-13.7.9.1 1.1 0 .4-.2-.8-.3-1.1-1.1-.6-2.1.3-1 .9-2.8 1.2-4.2.7-3.6 4-8 6.8-9 1.2-.5 2.8-1.8 3.3-2.9.9-1.6.6-2.3-1.6-4.1-2.7-2.1-2.7-2.2-1-5.1 1.6-2.9 1.6-3-.1-2.5-2.9.9-5.3-5-4.1-10 .4-2.2.9-6.2.9-8.9 0-3.1.7-6.2 1.9-8.2 1.1-1.7 2.5-5.9 3.2-9.2 1.3-6.6 1.6-7.1 6.3-8 2.3-.5 3.6-1.6 4.8-4.2 3.5-7.1 8.2-30.9 6.1-30.9-.6 0-1.3 3.5-1.6 7.7-.9 11.2-3.8 18.7-8.9 23.5l-4.3 3.9-.8-3.3c-.4-1.8-.8-4.7-.8-6.3-.1-5.4-2.1.1-2.7 7.2-.2 3.5-.9 6.6-1.4 6.9-2.1 1.3-7.5-6.2-9.7-13.6-1.3-4.1-2.9-8.3-3.7-9.4-.8-1.1-1.4-3.1-1.4-4.3 0-3.6 6.9-9.9 15.3-13.9 9.1-4.3 14.2-9.2 20.7-20.1 3.1-5 5.4-7.8 6.6-7.8.9 0 1.9-.6 2.2-1.3.2-.7-.2-1-1.2-.6-.9.3-1.6.1-1.6-.5s.5-1.1 1-1.1c.6 0 1-.7 1-1.5 0-1.3-.4-1.2-2.2.5-3.3 3-3.4 1.5-.2-2.4 3.4-4.1 4-4.3 4.7-1.6.4 1.7 1.2 2 4.1 1.8 4.1-.2 4.2-.4 2-2.5-1.5-1.5-1.4-1.7.3-2.7 2.2-1.4 2.8-3.6.9-3.6-.8 0-1.7-.3-2-.8-.2-.4 2-.7 4.9-.7 4.8.1 5.4-.1 6-2.2.3-1.4 1.3-2.3 2.5-2.3 2.2 0 2.7-1.6.8-2.3-1-.4-1-.6 0-.6 1.7-.1 1.5-2.1-.3-2.1-.8 0-1.5.4-1.5 1 0 .5-1.1 1-2.5 1s-2.4.5-2.3 1.1c.2.6-.3 1.4-.9 1.6-2.1.8-1.5-2.1 1.2-5.7 2-2.7 2.5-4.6 2.5-9.1 0-3.2-.4-6-.8-6.3-.5-.3-2.6 1.2-4.6 3.3-3.6 3.7-3.8 4.2-3.6 9.8.4 7.9.2 10.3-1 10.3-.5 0-1.5-1.2-2.3-2.6-1.3-2.4-1.5-2.5-3-.9-1.6 1.6-3.7 1.3-3.7-.5 0-.5.6-1.5 1.4-2.2.7-.8 1.7-2.5 2.1-3.8.4-1.3 1.4-3.1 2.2-3.8 1.1-1.1 1.2-1.7.2-2.2-.6-.4-.8-1.3-.5-1.9.4-.6.2-1.1-.5-1.1-.8 0-.8-.4.1-1.5 1-1.2 1.5-1.3 2.1-.3.5.8 1 .3 1.4-1.5.4-1.5 1.1-2.4 1.6-2.1.5.3.8-.8.7-2.3-.2-4-.8-4.7-2.3-2.6-1.1 1.5-1.5 1.6-3.1.3-1.1-.9-1.5-1-1-.3.4.8.1 1.3-.8 1.3s-1.6.7-1.6 1.5c0 1.7-2.5 2-3.5.5-1.1-1.8-2.7-1.1-2.2 1 .7 2.6-.7 3.4-2.6 1.5-.9-.8-2.6-1.6-3.9-1.7-1.8-.2-2.3.2-2.2 1.9 0 1.4-.5 2.3-1.4 2.3-1 0-1.2-.7-.8-2.5.6-2.3.4-2.4-2.6-1.8-1.8.3-3.6 1.1-3.9 1.6-1.6 2.4-2.9-.7-2.4-6.1.5-5.9.1-5.5-1 1.1-.4 2.2-1.3 4.1-2.3 4.4-.9.4-2.5 1.5-3.4 2.6-1 1.1-1.8 1.5-1.8.9 0-.7-.7-1.2-1.5-1.2-2.5 0-9.5 3.9-9.5 5.3 0 2 2.2 3.7 4.8 3.7 1.3 0 2 .4 1.7 1-.4.6.7 1 2.4 1 3.3 0 4.3 2.2 1.7 3.7-.7.4-1.9 1.9-2.6 3.2-1.1 2.2-1 2.3.6 1.9 1.1-.3 2.7-.9 3.7-1.3 1.4-.6 1.7-.2 1.7 2.1 0 1.6-.4 4.5-1 6.4-.9 3.2-.8 3.4.6 1.5.8-1.1 1.8-3.1 2.1-4.3.5-2.1 4.7-7.2 5.8-7.2 1.1 0-.2 4-1.8 5.8-.9 1-1.7 3.1-1.7 4.5 0 1.6-1 3.6-2.4 4.8-1.4 1.2-2.2 2.7-2 3.3.6 1.6-3.3 6.5-6 7.6-1.2.4-2.3 1.8-2.4 3.1-.5 4.1-.8 5.3-2 8.3-1.6 3.7-1.2 4 2.9 2.2 1.9-.8 5.6-2 8.2-2.7 4-1 4.7-1.5 4.5-3.3-.3-1.7.3-2.2 3.2-2.4 3.1-.3 7-2.2 4.4-2.2-.5 0-1-.8-1-1.8s.8-1.8 1.7-1.8c1 0 1.6.3 1.4.6-.2.3 0 1.2.6 2 .7 1.2.9 1.2.9-.3 0-1 .7-2 1.5-2.3.8-.4 1.5-1.6 1.5-2.7 0-2 0-2 1.4-.1 1 1.3 1.1 2.3.4 3.1-.6.7-.8 2.3-.4 3.6 1.1 4.4-8.3 15.9-15.8 19.4-5.7 2.6-10.5 5.8-15 10.1l-4.5 4.3.4-3.8c.6-4.8-1-33-2.1-36.3-.4-1.4-.8-10.2-.8-19.7l-.1-17.2-5.7-5.1c-5.1-4.6-5.9-5.7-8.3-13.5-1.4-4.7-2.8-11.3-2.9-14.8-.6-11.3-1.8-21.2-2.7-22.1-2.2-2.3-.8-6.8 3.6-12.3 2.5-3.1 4.3-5.8 3.9-6.2-.4-.3-.9 0-1.1.6-.3.7-2.2 3.4-4.4 6l-4 4.8.6 16c.5 12.7 1.2 17.7 3.1 24.1 3.9 13.3 3.3 14.8-5.6 14.2-5.7-.3-7.4 1.9-6.5 8.5 1.1 8.9-3.2 10.3-9.1 2.9-2.1-2.6-4.7-5.6-5.7-6.7-2.1-2.3-8.1-14.4-10.8-22-1.1-3.1-1.8-7.8-1.9-12.3 0-4-.5-8.2-1-9.2-.6-1.1-4.2-4.7-8.1-8l-7-6.1-10.5.4c-11 .3-16.1-.9-20.7-5.1-1.1-.9-3.8-2.6-6.1-3.7-4-2-4.1-2.1-4.6-8-.3-3.4-1.3-7.3-2.3-8.9-1.8-2.6-1.8-2.8.4-7.2 1.3-2.9 1.8-4.9 1.2-5.5-.5-.5-1.2-.6-1.6-.3zm58.4 72.1c.6 1.6 1.3 4.6 1.6 6.8.8 7.4 1.3 8.5 7.1 14.8 3.1 3.5 7.4 8.9 9.5 11.9 4.2 6.2 9.7 20.6 9.7 25.8 0 3.4 1.3 8.4 7.1 27 3 9.8 5.4 27.4 5.3 38.5 0 4.6-.6 7.1-2.7 10.8-3.2 5.6-3.2 5.7-1.1 5.7.9 0 1.4.7 1.2 1.7-.4 2.4-2.8 2.8-3.4.7-.6-2.3-6.6-6.4-9.3-6.4-2 0-5.1 3.9-5.1 6.4 0 1.7-3 3-3.1 1.3-.1-.7-.2-1.7-.4-2.2-.1-.6-.3-1.8-.3-2.8-.1-.9-.8-1.7-1.6-1.7-.9 0-2.6-3.3-4.5-8.3-1.6-4.5-3-7.6-3-6.8-.1 1.6 5.3 18 7.5 22.8.8 1.7 1.4 4.2 1.5 5.5 0 2.1.1 2.2.8.3.8-1.9.9-1.8 2.1.7 1.5 3.2.6 7.2-1.1 4.8-.8-1.1-.9-.6-.5 2l.6 3.5-2-2.4c-1.1-1.3-2-3.3-2-4.5 0-1.7-.2-1.8-1-.6-.8 1.2-1 1.2-1.6-.3-.3-1-1.6-2.3-2.8-2.9l-2.1-1.1 2 2.4c4.9 5.6 5 6 1.7 4.3-3.9-1.9-5.1-5.2-2.7-7.1 1.7-1.1 1.7-1.7.5-5.3-1.1-3.4-2.2-4.5-5.9-6.3-4.2-2-4.6-2.6-4.9-6-.2-2.5.2-4.5 1.2-5.6 1.4-1.6 1.4-2.4-.5-9.2-2.2-7.8-3.4-21.5-1.9-22.4.5-.3 1.4 1.3 2.1 3.5 1.7 5.5 2.3 4.4.7-1.3-1-4-.9-5.1.7-8.7 1.6-3.5 1.7-4.5.6-6.2-1.8-2.8-4-15.9-5.1-29.3-.5-6.1-1.6-17.7-2.5-25.8-2.3-22.1-2.4-27.6 0-29.3 3.2-2.3 6.4-1.8 7.6 1.3zm29.4 38.3c.8 1.4-.4 9-1.5 9-.7 0-4-7.6-4-9.3 0-1.1 4.8-.8 5.5.3zm77 11.9c-.3.6-1.1 1.1-1.7 1.1-.6 0-.6-.6.2-1.5 1.4-1.7 2.6-1.3 1.5.4zm9.5 1.7c0 .2-.9.4-2.1.4-1.1 0-1.8-.4-1.4-1 .5-.8 3.5-.3 3.5.6zm-10.6 2.9c-.4.8-.8 1.5-1 1.5-.2 0-.4-.7-.4-1.5s.4-1.5 1-1.5c.5 0 .7.7.4 1.5zm7.6 0c1.2 1.5.6 3.5-1.2 3.5-.5 0-.8-.6-.5-1.4.3-.7 0-1.9-.6-2.5-.8-.8-.8-1.1 0-1.1.6 0 1.6.7 2.3 1.5zm-13 14.6c-.7 1.1-1.4 1.9-1.6 1.6-.7-.7.7-3.7 1.7-3.7.6 0 .5.9-.1 2.1zm-102.5 51.2c.5 2.5.2 4.9-.8 7-.8 1.8-1.7 3.9-2.1 4.7-.3.8-.3-.5 0-3s.6-7 .5-10c-.2-6.1 1.3-5.4 2.4 1.3zM613 376c0 .5-.4 1-1 1-.5 0-1-.5-1-1 0-.6.5-1 1-1 .6 0 1 .4 1 1zm1 3c0 .5-.4 1-1 1-.5 0-1-.5-1-1 0-.6.5-1 1-1 .6 0 1 .4 1 1zm4.8 5.3c-.2 1.7-.8 3.2-1.4 3.4-1.5.5-2.3-2.7-1.7-6.1.4-2.2.8-2.4 2-1.5.8.7 1.3 2.5 1.1 4.2zm-56.2 12.5c-.3.3-1.2-.1-2-.7-1-.8-1.6-.9-2.1-.1-1 1.7-2.5 1.2-3.4-1.3-1.3-3.4.8-3.9 4.6-1 1.8 1.4 3.1 2.8 2.9 3.1zm-.7 1.1c.8.6 1.1 1.6.6 3.1-.5 1.5-.4 2 .4 1.6.6-.4 1.1-.2 1.1.3 0 2.4-4.3-.1-5.3-3.1-.9-2.6.6-3.5 3.2-1.9zm-3.4 23.2c2 3.7 1.4 4.6-2 3.1-1.7-.8-2.5-2-2.5-3.7 0-3.5 2.6-3.2 4.5.6zM507.4 481c1.5 1.5.5 1.9-6.6 2.3l-6.7.3 3.2-2.3c3.2-2.5 7.8-2.6 10.1-.3zm-14.9 4c-.3.5-1.2 1-1.8 1-.7 0-.6-.4.3-1 1.9-1.2 2.3-1.2 1.5 0zm128.3.7c.6 1.9-2.5 1.6-3.2-.3-.4-1.1-.1-1.4 1.1-1.2.9.2 1.8.9 2.1 1.5zM501 497c0 .5-1 1-2.1 1-1.2 0-2.7.7-3.3 1.5-.7 1-3.3 1.8-7.1 2.1-4.9.4-5.5.2-3.5-.6 1.9-.9 2.1-1.3 1.1-2-1-.6-.7-.8 1-.9 1.3 0 4.4-.4 6.9-.9 6.3-1.3 7-1.3 7-.2zm9.8 15c-.7 1.1-1.8 2-2.4 2-.7 0-2.2 1.1-3.5 2.5-1.3 1.3-3 2.5-3.8 2.5-1.9 0 2.3-4.6 6.4-7.1 3.9-2.4 4.8-2.4 3.3.1zm17.2 9.5c1 1.2 1 1.8 0 3-.7.9-1.4 2.6-1.5 3.9-.2 1.3-.6 3.4-1 4.6-1.1 3.4-3.2.7-2.9-4 .1-2.8-.2-4-1.2-4-.8 0-1.4-.5-1.4-1 0-.6.9-1 2-1s2.3-.7 2.6-1.5c.4-.8 1-1.5 1.4-1.5.4 0 1.3.7 2 1.5zm-10 3.5c0 .6-1.2 1.5-2.6 2-3.7 1.4-4 1.2-1.8-.9 2.1-2.2 4.4-2.7 4.4-1.1zm52 5c0 .5.7 1 1.5 1 .9 0 1.5 1 1.5 2.6s-.4 2.3-1.1 1.8c-.8-.5-1 0-.6 1.7 1 3.9-.7 5.5-2.6 2.5-1.7-2.6-2.2-6.2-1.1-9 .7-1.8 2.4-2.2 2.4-.6zm18.1 25.3c.6 1 .6 2.4.1 3.3-.7 1.3-1 1.3-1.5.3-.3-.8-1.3-3.2-2.2-5.4l-1.7-4 2.2 2c1.2 1.1 2.6 2.8 3.1 3.8z"/><path d="M557.7 279.6c-1.5 1.5-.7 4.5 1.1 4.2.9-.2 1.7-1.2 1.7-2.2 0-2-1.6-3.1-2.8-2zM559.6 356.5c2.1 6.7 3.8 10.8 4.1 9.9.2-.6-.8-3.6-2.2-6.5-1.4-3-2.3-4.5-1.9-3.4zM557 361.1c0 .5.5.7 1 .4.6-.3 1-.8 1-1.1 0-.2-.4-.4-1-.4-.5 0-1 .5-1 1.1zM591 188c0 .5.5 1 1 1 .6 0 1-.5 1-1 0-.6-.4-1-1-1-.5 0-1 .4-1 1zM438.2 189.7c.5 2.5 2.8 2.8 2.8.4 0-1.2-.6-2.1-1.6-2.1-.9 0-1.4.7-1.2 1.7zM442.7 205.7c-1.3 1.2-.7 3.3.8 3.3.8 0 1.5-.9 1.5-2 0-2-1.1-2.6-2.3-1.3zM759 215.1c0 .5.5.7 1 .4.6-.3 1-.8 1-1.1 0-.2-.4-.4-1-.4-.5 0-1 .5-1 1.1zM637.3 221.5c-4.7 3.3-3.1 14.1 2.4 16.1 2.5.8 2.7 1.3 2.6 6.4l-.1 5.5.7-5.5c.4-3 1.4-7.3 2.1-9.5 1.6-4.9 1.4-9.2-.6-12.2-1.7-2.7-4.1-2.9-7.1-.8zM641.3 254c0 2.5.2 3.5.4 2.2.2-1.2.2-3.2 0-4.5-.2-1.2-.4-.2-.4 2.3zM501 256.9c0 1.1.4 2.2.9 2.5.4.3.6-.6.3-1.9-.5-3-1.2-3.3-1.2-.6zM502.1 262.5c-.1.5.3 2.6.9 4.5.5 1.9 1.2 5.5 1.5 8 .2 2.5.9 7 1.5 10 2.5 13.7 3.4 25.1 2.2 28.4-1.6 4.5-1.5 6 .7 8 1 .9 3.2 4.6 4.7 8.1 1.6 3.6 3.3 6.5 3.8 6.5.4 0 .5-.8.1-1.8-.5-.9-1.3-3.7-2-6.1-1.1-4.2-1-5.7 1.1-15.1.7-3.2.6-3.4-1-2.1-2.9 2.4-3.7 0-4.8-13-.6-7.8-1.8-15-3.4-19.8-1.3-4.2-2.4-8.3-2.4-9.1-.1-1.8-2.8-7.9-2.9-6.5zM679 265c0 .5.5 1 1.1 1 .5 0 .7-.5.4-1-.3-.6-.8-1-1.1-1-.2 0-.4.4-.4 1zM656.5 266c-.3.5.1 1 .9 1 .9 0 1.6-.5 1.6-1 0-.6-.4-1-.9-1-.6 0-1.3.4-1.6 1zM685 267.5c0 .8 1.4 2.2 3.1 3.1l3.2 1.6-2.2-3.1c-2.4-3.3-4.1-4-4.1-1.6zM690.7 273.7c-.4.3-.7 1.1-.7 1.7 0 .6.5.5 1.2-.2.6-.6.9-1.4.7-1.7-.3-.3-.9-.2-1.2.2zM471 279.8c0 .5.9 1.7 2 2.7 2.2 2 2.6 1.4 1-1.6-1.1-1.9-3-2.6-3-1.1zM621 288c0 .5.5 1 1.1 1 .5 0 .7-.5.4-1-.3-.6-.8-1-1.1-1-.2 0-.4.4-.4 1zM632 294c0 .5.5 1 1 1 .6 0 1-.5 1-1 0-.6-.4-1-1-1-.5 0-1 .4-1 1zM684 294.9c0 .6.5 1.3 1 1.6.6.3 1-.1 1-.9 0-.9-.4-1.6-1-1.6-.5 0-1 .4-1 .9zM479.5 298.5c.4 1.1 1 3.5 1.3 5.3.2 1.8 1.3 3.7 2.3 4.3 3.1 1.6 2.4-2.5-1.2-7.4-1.8-2.3-2.8-3.3-2.4-2.2zM684.5 299c.3.5.8 1 1.1 1 .2 0 .4-.5.4-1 0-.6-.5-1-1.1-1-.5 0-.7.4-.4 1zM631.6 305.9c-.4.7-.5 1.5-.2 1.8.9.9 1.9-.4 1.4-1.8-.4-1.1-.6-1.1-1.2 0zM672 309c0 .5.5 1 1.1 1 .5 0 .7-.5.4-1-.3-.6-.8-1-1.1-1-.2 0-.4.4-.4 1zM621.8 310.5c-.8.9.3 4.5 1.3 4.5.5 0 .9-.7.9-1.5s0-1.8.1-2.2c.1-1-1.6-1.5-2.3-.8zM668 312.9c0 .6.5 1.3 1 1.6.6.3 1-.1 1-.9 0-.9-.4-1.6-1-1.6-.5 0-1 .4-1 .9zM641 322.1c0 .5 1.1.9 2.5.9s2.5-.2 2.5-.4-1.1-.6-2.5-.8c-1.4-.3-2.5-.1-2.5.3zM638.3 354.4c.1 3.5.4 6.2.7 5.9.8-.8.7-12.3-.1-12.3-.4 0-.7 2.9-.6 6.4zM531 360.4c0 .2.8 1 1.8 1.7 1.5 1.3 1.6 1.2.3-.4s-2.1-2.1-2.1-1.3zM495.5 363c.3.5 1.1 1 1.6 1 .6 0 .7-.5.4-1-.3-.6-1.1-1-1.6-1-.6 0-.7.4-.4 1zM511.1 362.3c-.1.4 1 2.5 2.4 4.7 2.8 4.4 7.9 8.1 14 10.1 2.2.8 4.5 2.1 5.2 2.9.6.8 1.4 1.3 1.7 1 .3-.3-1.5-2.8-4-5.5-2.5-2.8-5.2-6-6.1-7.3-.8-1.2-2-2.2-2.5-2.2-.6 0 .4 1.6 2.1 3.6 4 4.5 3.2 6-1.8 3.4-3.6-1.8-6.9-5.1-9.8-9.6-.6-1.1-1.2-1.6-1.2-1.1zM639.1 363.6c0 1.1.3 1.4.6.6.3-.7.2-1.6-.1-1.9-.3-.4-.6.2-.5 1.3zM647.8 365.5c.2 1.4.6 2.5.8 2.5.2 0 .4-1.1.4-2.5s-.4-2.5-.9-2.5c-.4 0-.6 1.1-.3 2.5zM218.5 388.4c1.7.9 3.8 1.5 4.7 1.6.9 0 2 .5 2.3 1 .4.7 1.1.7 1.8.2.7-.5 4.1-1.2 7.7-1.6 3.6-.3 7.9-1.1 9.5-1.6 2.4-.7 1.7-.8-3-.4-9.5.8-18.7.9-22.5.1l-3.5-.7 3 1.4zM267 390.9c0 .5 1.9 1.5 4.3 2.2 2.3.6 4.7 1.4 5.2 1.9.6.4 2.9 1 5.2 1.4 2.3.3 5 .9 6 1.2 1 .3-.2-.7-2.7-2.4-2.5-1.6-6.1-3.2-8-3.6-8.4-1.7-10-1.8-10-.7zM677.9 410c2.4.5 5 1.5 5.7 2.1.8.7 1.7.9 2.1.5 1.4-1.3-1.5-2.7-6.8-3.1l-5.4-.4 4.4.9z"/><path d="M667.7 413.7c-2.3 2.1-5.1 4.3-6.1 4.9-1.1.6-2.2 1.6-2.4 2.3-.5 1.6 7.7-4 11.2-7.8 4.1-4.3 2.4-3.9-2.7.6zM421.5 438.4c3.3 1.3 8 2.6 10.5 2.9 5.5.7 4.8.4-6.3-2.8-10.7-3.1-12.1-3.1-4.2-.1zM474.5 437c.3.5 1 1 1.6 1 .5 0 .9-.5.9-1 0-.6-.7-1-1.6-1-.8 0-1.2.4-.9 1zM482.3 442.1c-.6.6-.9 1.8-.6 2.5.6 1.7-.8 1.7-6.2.3-2.2-.6-6.2-1.1-9-1.3-2.7-.2-9.5-.6-15-1.1-5.5-.4-9.8-.5-9.5-.3.3.3 3.7.8 7.5 1.2 3.9.3 10.2 1 14 1.6 3.9.5 9.6 1.2 12.8 1.5 4.4.5 6 1.1 6.8 2.7.6 1.1 1.4 1.6 1.8 1.1.4-.6 1.9-.6 3.9-.1 2.5.7 3.2 1.3 2.8 2.5-.5 1.3-.1 1.4 2.3 1 3.8-.8 14.9 2.9 15.3 5 .3 1.5.4 1.5 1.6 0 1.1-1.3.6-1.8-4.5-3.7-8.9-3.3-15.3-7.1-18-10.7-2.7-3.5-4.2-4-6-2.2zm4.4 3.1c2.4 2.3 3 3.8 1.3 3.8-1.3 0-5-3.7-5-5 0-1.6 1.2-1.2 3.7 1.2zM438.8 442.7c.7.3 1.6.2 1.9-.1.4-.3-.2-.6-1.3-.5-1.1 0-1.4.3-.6.6zM423 446c0 1.6 3.7 3 7.7 2.9l3.8-.1-4-.9c-2.2-.5-4.4-1.4-4.9-1.9-1.3-1.3-2.6-1.3-2.6 0zM662.5 448c-6.5 2.7-18 5.1-23.4 4.9-3.4-.1-6.4.1-6.8.4-1.6 1.6 14.9.6 20.9-1.3 3.4-1.1 7-2 7.9-2 .9 0 2.2-.7 2.9-1.5 1.4-1.7 1.3-1.7-1.5-.5zM440.5 450.5c3.3.8 8.2 1.9 10.8 2.6 2.7.6 5.1.9 5.4.6.3-.4-.8-.9-2.3-1.2-1.6-.4-5-1.3-7.6-2.1-2.6-.8-6.4-1.4-8.5-1.3-3.5.1-3.3.2 2.2 1.4zM459.8 454.7c.7.3 1.6.2 1.9-.1.4-.3-.2-.6-1.3-.5-1.1 0-1.4.3-.6.6zM484.9 456.6c-1 1.2-2.5 1.5-5.6 1.1-2.4-.2-4.3-.1-4.3.3 0 .8 4.9 1.5 13.7 2.2 2.2.2 3.9 0 3.6-.5-.2-.4-1.8-.7-3.4-.7-2.6 0-2.9-.3-2.4-2 .8-2.4.2-2.6-1.6-.4zM333.3 459.2c-4.8 2.3-.8 6.5 5.1 5.4 1.7-.4 4.9-1 7-1.4 4.5-.8 5.8-2.7 2.4-3.5-5.4-1.4-12.4-1.6-14.5-.5zM396.5 459l-9 .6 7.3.2c4 .1 8.2.7 9.3 1.3 2.1 1.1 16.5 2.1 15.4 1.1-.7-.7-8.9-3.1-12-3.6-1.1-.2-6 0-11 .4zM363.8 462.7c.6.2 1.8.2 2.5 0 .6-.3.1-.5-1.3-.5-1.4 0-1.9.2-1.2.5zM340.5 467c.3.5 1.3 1 2.1 1s1.4-.5 1.4-1c0-.6-.9-1-2.1-1-1.1 0-1.7.4-1.4 1zM442 466.9c0 .5.9.7 2 .4 1.1-.3 2-.7 2-.9 0-.2-.9-.4-2-.4s-2 .4-2 .9zM487.5 468c-.3.5-.1 1 .4 1 .6 0 1.1-.5 1.1-1 0-.6-.2-1-.4-1-.3 0-.8.4-1.1 1zM387.5 469.9c-.7 1.2 1.8 1.8 10.3 2.4 3.4.3 7.4 1.3 8.8 2.2 1.9 1.2 3.9 1.5 7.7 1.1 2.9-.3 7.1-.5 9.5-.6 5.8 0 5.3-1.6-.7-1.9-2.7-.1-9.3-.6-14.7-1.2-5.5-.6-11.3-1.2-13-1.4-1.7-.1-4.1-.6-5.2-.9-1.1-.4-2.3-.2-2.7.3zM632 476.4c0 .9.5 1.6 1 1.6.6 0 1-.4 1-.9 0-.6-.4-1.3-1-1.6-.5-.3-1 .1-1 .9zM327.5 494c-.3.5.1 1 .9 1 .9 0 1.6-.5 1.6-1 0-.6-.4-1-.9-1-.6 0-1.3.4-1.6 1zM364.1 494.1c-2.4.5-4.6 1.1-4.9 1.4-1 1 4.3.4 8.3-1 4.6-1.5 3-1.7-3.4-.4zM347.6 497.6c-3.8.8-7.1 1.6-7.4 1.9-.8.8 8.6-.7 13.8-2.1 6-1.6 2.3-1.5-6.4.2zM298.3 497.7c-1.8.2-3.3.9-3.3 1.4 0 1.1 8 .1 9.5-1.2.9-.9-.1-.9-6.2-.2zM439.5 500.1c-9.2 1.8-12.2 2.6-14 3.7-3 1.7-.4 1.4 6.7-.8 8.1-2.5 9.6-2.5 10.9.2l1 2.3-.5-2.3c-.3-1.8 0-2.2 2.1-2.2 1.3 0 2.1-.4 1.8-1-.7-1.1-2.2-1.1-8 .1zM468.5 500c.3.5 1.2.7 2 .3 2.1-.7 1.9-1.3-.6-1.3-1.1 0-1.8.4-1.4 1zM468.7 502.9c-1 1.2-.7 1.3 2 .8 1.9-.4 3.5-.2 3.9.4.7 1.3-2.4 3.8-4.8 3.9-1 0-1.8.4-1.8 1 0 1.3 2.7 1.3 3.6-.1.3-.6 1.8-.8 3.3-.5 1.9.5 2.2.4 1.1-.3-1.2-.9-1.2-1.1.3-1.7 2.2-.8 2.9-.2 2.1 1.9-.3.8-2.2 2-4.2 2.6-3.7 1-3.7 1 .8.4 2.5-.3 5.3-1.1 6.3-1.8 1.6-1.1 1.6-1.3-.2-3.3-1-1.2-2.4-2.2-3-2.2-.7 0-1-.4-.7-.9 1-1.6-7.4-1.8-8.7-.2zM463.6 505.4c.3.8 1.3 1.7 2.2 2.1 1.3.5 1.3.2-.3-1.5-2.1-2.4-2.6-2.5-1.9-.6zM588 505.9c0 1 2.7 4.1 3.6 4.1.7 0-1.5-3.8-2.6-4.5-.6-.3-1-.2-1 .4zM318.7 506.7c-1.4 1.3-.6 2.2 2.6 2.9 4 .9 15 .6 18-.5 4.4-1.8-1-2.4-9.5-1.1-7.2 1-8.3 1-9.4-.4-.6-.9-1.4-1.3-1.7-.9zM593 508.4c0 .2.8 1 1.8 1.7 1.5 1.3 1.6 1.2.3-.4s-2.1-2.1-2.1-1.3zM384 510.5c-1.4.8-3.3 1.4-4.3 1.5-.9 0-2.6.5-3.6 1.2-1.4.9-3.2.8-8-.4-3.3-.8-6.1-1.1-6.1-.7 0 .4 1.7 1 3.8 1.5 4.6.9 4.1.8 7.5 1.7 2.1.6 4.1.2 7-1.2 2.3-1 5.7-2.2 7.6-2.6 2.4-.5 3-1 2-1.6-1.9-1.2-3-1.1-5.9.6zM491.5 512c-.3.5-.2 1 .4 1 .5 0 1.3-.5 1.6-1 .3-.6.2-1-.4-1-.5 0-1.3.4-1.6 1z"/><path d="M465.5 513c-5.9 1.6-9.8 3.5-13.2 6.6-1.9 1.8-6 4-9.1 5-3.1 1-5 2-4.1 2.2.9.1 3.6-.4 6-1.3s7.8-2.8 11.9-4.2c4.1-1.5 6.9-2.8 6.1-3.1-.8-.3.4-1.6 3.1-3.3 4.5-3 4.4-3.2-.7-1.9zM478.8 512.7c-1 .2-1.8 1.2-1.8 2 0 1.4.3 1.4 2-.2 1.7-1.5 2.6-2.8 1.8-2.4-.2.1-1.1.3-2 .6zM485 514c-1.3.8-1.3 1.1-.1 2.2 1 1 1.2 1 .7 0-.4-.7-.1-1.2.8-1.2.8 0 1.8-.5 2.1-1 .8-1.3-1.5-1.3-3.5 0zM449.3 516.1c1.4.8 2.2.8 3 0 .8-.8.3-1.1-1.8-1.1-2.6.1-2.8.2-1.2 1.1zM478.9 516.7c-1.3 1.7-1.3 1.7.6.3 1.1-.8 2.2-1.6 2.4-1.7.2-.2 0-.3-.6-.3s-1.7.8-2.4 1.7zM743.7 518c-.3 1.1-.2 2 .3 2 1.2 0 2.1-2.8 1.1-3.5-.5-.2-1.1.4-1.4 1.5zM717 519.9c-6.2 2.3-7.5 3.3-7.8 5.2-.4 3.2 5.8 14.6 11.2 20.6 2.4 2.6 5 6.2 5.9 8 .9 1.7 5.3 6.8 9.8 11.2 4.5 4.5 7.4 7.1 6.5 5.9-2.8-4.1-9.5-15.5-10.5-18.1-.9-2.2-.3-3.6 3.5-9.4 2.5-3.7 4.7-7.8 5.1-9.1 1-4.1-2.5-10.5-7.7-14.2-4.4-3.1-7.9-3.1-16-.1zM483.5 519c-.3.5-.1 1 .4 1 .6 0 1.1-.5 1.1-1 0-.6-.2-1-.4-1-.3 0-.8.4-1.1 1zM616.5 521c1 1.1 2 2 2.3 2 .3 0-.3-.9-1.3-2s-2-2-2.3-2c-.3 0 .3.9 1.3 2zM438 522.1c-2.6 1.1-3.3 1.7-1.8 1.4 3.6-.7 7.8-2.3 7.8-3 0-.8-1.1-.5-6 1.6zM604 521c0 .5.5 1 1.1 1 .5 0 .7-.5.4-1-.3-.6-.8-1-1.1-1-.2 0-.4.4-.4 1zM589 525.6c0 .2 2.3 1.4 5.1 2.8 3.3 1.5 4.6 1.9 3.6.9-1.4-1.5-8.7-4.5-8.7-3.7zM420.5 528.1c-2 .7-2 .8-.1.8 1.8.1 1.8.3-.5 2.8l-2.4 2.8 2.6-2.3c1.8-1.5 4.9-2.6 9.5-3.4 3.8-.5 7-1.1 7.2-1.2.6-.7-14.7-.2-16.3.5zM605.5 530c.3.5 1.1 1 1.6 1 .6 0 .7-.5.4-1-.3-.6-1.1-1-1.6-1-.6 0-.7.4-.4 1zM510.2 535.1c-.7 1.1-1.9 1.8-2.7 1.6-.7-.3-2.3.5-3.6 1.9-2.6 2.8-2.3 3 1.7.9 3.2-1.6 8.4-6.5 6.8-6.5-.5 0-1.5.9-2.2 2.1zM627 533.9c0 .6.4 1.3 1 1.6.6.3.7-.1.4-.9-.7-1.8-1.4-2.1-1.4-.7zM365 535c0 .5.7.7 1.5.4.8-.4 1.5-.8 1.5-1 0-.2-.7-.4-1.5-.4s-1.5.4-1.5 1zM413.4 536.2c-4.6 3.4-5.2 4.2-1.6 2.2 3.1-1.8 6.1-4.4 5-4.4-.3 0-1.8 1-3.4 2.2zM645.8 534.8c-2.8.3-4.1 3.2-1.5 3.2.7 0 2.9 1.1 4.7 2.5 1.9 1.4 5.2 3.1 7.2 3.7 2.6.7 6.2 3.6 11.5 9 4.2 4.4 9.7 9.4 12.2 11.1 6 4.1 11.8 10.2 14.2 15.2 1.8 3.8 12.9 18.5 12.9 17.1 0-.4-1.8-3.1-4-6.1-5.7-7.7-7.7-12.2-6.2-13.7 1.9-1.9 8.5 2.2 21.6 13.4 2.1 1.8 4.7 3.8 5.7 4.3 4.5 2.5 18.9 17 20.3 20.5 1 2.5 3 4.7 6.4 6.9 2.7 1.7 5.2 3.1 5.5 3.1.4 0 3.1 1.1 6.1 2.5 3 1.4 7.1 2.5 9 2.5 2.9 0 3.8-.5 5.1-3 3.3-6.4 1.5-12.4-5.2-16.6-3.7-2.3-11.3-11.7-11.3-13.9 0-.6-7-10.6-8.4-12-.5-.6-.3.1.6 1.5 7.6 12.3 9.8 16.2 9.8 17 0 1.5-8 3.4-14.1 3.4-5.1 0-6.1-.3-10.3-3.9-2.6-2.2-6.9-5.6-9.5-7.5-2.7-1.9-8.6-6.9-13.1-11s-9.2-8.2-10.5-9c-1.3-.8-6.7-6.1-12.1-11.7-7.3-7.5-11.8-11.2-16.9-13.9-3.8-2.1-10.4-6.1-14.6-8.9-7.7-5.3-10.3-6.3-15.1-5.7zM390.5 540c-2.3 2.5-1.8 2.5 3.6 0 4.3-1.9 4.3-2 1.3-2-1.8 0-3.8.8-4.9 2zM414.8 539.4c-1 .7-1.8 1.7-1.8 2.1 0 .4.6.2 1.4-.4.8-.7 1.6-.8 1.8-.4.3.4.3.3.2-.4-.2-.6.2-1.4.9-1.7.7-.2.8-.5.2-.5-.5 0-1.8.6-2.7 1.3zM343 540.8c0 .5 1.4.7 3 .4 1.7-.2 3-.6 3-.8 0-.2-1.3-.4-3-.4-1.6 0-3 .4-3 .8zM403.3 540.7c.9.2 2.3.2 3 0 .6-.3-.1-.5-1.8-.5-1.6 0-2.2.2-1.2.5zM404.1 544.1c-1.8.6-3.1 1.2-2.9 1.4.5.5 7.8-1.4 7.8-2 0-.6-.8-.5-4.9.6zM418.3 545c-3 1.2-2.9 3 .1 3 2.5 0 5.1-2.2 3.9-3.3-.8-.9-1.2-.8-4 .3zM612.5 547c1 1.1 2 2 2.3 2 .3 0-.3-.9-1.3-2s-2-2-2.3-2c-.3 0 .3.9 1.3 2zM318.5 548c-.8 1.3 1.5 1.3 3.5 0 1.2-.8 1.1-1-.7-1-1.2 0-2.5.4-2.8 1zM375.3 550.5c-1.8.8-3.3 1.6-3.3 1.9 0 .5 6-1.1 6.8-1.9 1.3-1.2-.5-1.2-3.5 0zM637.3 554c.3 2.3 1.2 4.7 2 5.3.8.7 3.3 4 5.6 7.4 2.3 3.5 4.4 6.3 4.8 6.3.3 0-.2-1-1.1-2.3-3.8-5.3-7-12.5-7.1-16.2-.1-3.4-.5-4.1-2.4-4.3-2.3-.4-2.4-.1-1.8 3.8zM523 553c0 .5.5 1 1 1 .6 0 1-.5 1-1 0-.6-.4-1-1-1-.5 0-1 .4-1 1zM357.2 556.7c-1.8.8-3.1 1.8-2.8 2 .5.5 6.6-2.5 6.6-3.2 0-.7-.1-.7-3.8 1.2zM394.8 558.4c-8 4.5-8.6 5.5-1.1 1.7 3.4-1.7 6.4-3.5 6.8-4.1.9-1.4.7-1.3-5.7 2.4zM645 556c0 .5.5 1 1.1 1 .5 0 .7-.5.4-1-.3-.6-.8-1-1.1-1-.2 0-.4.4-.4 1z"/><path d="M661 556c0 .5 1.1 1.7 2.4 2.6 1.4.8 3.4 3.1 4.5 5 1.9 3.1 5.1 4.7 5.1 2.5 0-3-2.4-6.3-6.3-8.5-4.8-2.8-5.7-3.1-5.7-1.6zM576 558.7c0 1-.3 2.7-.6 3.8-.3 1.2.2 2.9 1.3 4.2 1 1.2 2.3 3 3 4 1 1.5 1.1 1.1.7-2.2-.7-5.4-2.5-11.5-3.6-11.5-.4 0-.8.8-.8 1.7zM521 560.9c0 .6-.6.8-1.3.5-1.3-.5-4 5-2.9 6 1.4 1.4 3.2.4 3.2-1.8 0-2.7 2.5-5.4 3.3-3.6.3.6.4.5.3-.2-.3-1.5-2.6-2.3-2.6-.9zM435 562.5c-.6.8-.9 1.9-.5 2.5.9 1.4 4.5-.6 4.5-2.5s-2.4-1.9-4 0zM383.6 564.5c-1.1.8-1.6 1.5-1 1.5.5 0 1.8-.7 2.8-1.5 1.1-.8 1.6-1.5 1-1.5-.5 0-1.8.7-2.8 1.5zM436.8 567.4c-5 2.8-4.9 3.9.2 1.4 2.2-1.1 4-2.4 4-2.9s-.1-.9-.2-.8c-.2.1-2 1.1-4 2.3zM522.5 569c-.3.5-.1 1 .4 1 .6 0 1.1-.5 1.1-1 0-.6-.2-1-.4-1-.3 0-.8.4-1.1 1zM362.5 572c-.3.5.1 1 .9 1s1.8-.5 2.1-1c.3-.6-.1-1-.9-1s-1.8.4-2.1 1zM399.4 574c-2.3 1-4.5 2.3-4.8 2.9-.4.5-5 3.1-10.3 5.8-5.6 2.7-11.5 6.6-13.9 9-2.4 2.3-6.2 5.2-8.5 6.3-2.2 1.2-3.9 2.3-3.6 2.6.2.2 4.1-1.4 8.6-3.7 4.5-2.3 8.4-3.9 8.8-3.6.3.3-.6 2-2.1 3.7-1.9 2.3-2.4 3.8-2 5.5.8 3.1-1.3 5.9-10.8 15.2-11.6 11.4-23.3 19.8-28.6 20.6-1.2.2-3.2 1.3-4.4 2.4-1.3 1.2-5.2 3.5-8.8 5.2-6.7 3.2-6 3.2 2 .1l9-3.6c2.5-1 6.3-3.2 8.5-4.9 2.2-1.6 5.3-3.7 6.8-4.5 6.6-3.3 31.4-28.9 28.9-29.8-3.7-1.2.9-7.3 8.5-11.1 2.3-1.1 6-4.2 8.2-6.9 2.2-2.6 6.1-6 8.5-7.6 2.5-1.5 4.7-3.4 5-4.2.7-1.8.1-1.7-5 .6zM578.5 575.1c-1 1.5.3 2.5 1.6 1.2.7-.7.7-1.3.1-1.7-.6-.3-1.4-.1-1.7.5zM607.1 575.7c0 1.2-.4 3-.7 4-.5 1.7-.5 1.7.6 0 .6-1 .9-2.8.7-4-.4-2.2-.4-2.2-.6 0zM746.5 577.7c1.5 2.4 3 4.3 3.2 4.3.7 0-3.1-6.1-4.6-7.3-.8-.7-.2.7 1.4 3zM652.5 577.5c2.4 4 15.7 21.5 16.3 21.5.2 0 0-.6-.5-1.3-.6-.6-4.3-5.7-8.3-11.2-7.8-10.7-10.5-13.9-7.5-9zM238 581c-1.3.9-1.3 1 0 1 .8 0 2.2-.5 3-1 1.3-.9 1.3-1 0-1-.8 0-2.2.5-3 1zM570.3 588.5c0 2.7.2 3.8.4 2.2.2-1.5.2-3.7 0-5-.2-1.2-.4 0-.4 2.8zM443.5 585.9c-.6 1.1.9 2.3 1.9 1.4.9-.9.7-2.3-.3-2.3-.6 0-1.2.4-1.6.9zM364.3 590.7c.9.2 2.5.2 3.5 0 .9-.3.1-.5-1.8-.5-1.9 0-2.7.2-1.7.5zM426.8 595.1c-3.4 3.2-2.5 2.9 2.6-.9 1.6-1.2 2.4-2.2 1.8-2.2-.7 0-2.6 1.4-4.4 3.1zM508 593c0 .7 1.1 2.5 2.5 4.2 1.7 2 2.5 2.5 2.5 1.3 0-.8-.7-1.8-1.5-2.1-.8-.4-1.5-1.2-1.5-1.9 0-.8-.4-1.7-1-2-.5-.3-1-.1-1 .5zM200 595c-2.4 1.5-.7 1.9 2 .5 1.5-.8 1.9-1.4 1-1.4-.8-.1-2.2.3-3 .9zM231.7 594.7c-1.2 1.1-.8 4 .6 5.2 1 .8 1.8.7 3.2-.2 1.4-1.1 1.6-1.7.6-3.5-1.2-2.2-3.1-2.8-4.4-1.5zM423.9 603.7c-1.3 1.6-1.2 1.7.4.4.9-.7 1.7-1.5 1.7-1.7 0-.8-.8-.3-2.1 1.3zM391.7 610.7c-.4.3-.7 1.1-.7 1.7 0 .6.5.5 1.2-.2.6-.6.9-1.4.7-1.7-.3-.3-.9-.2-1.2.2zM620 612.7c-1.3 1.5-1.2 1.6.4 1 1-.4 2-.7 2.2-.7.2 0 .4-.5.4-1 0-1.5-1.3-1.2-3 .7zM725 616c0 .5.5 1 1.1 1 .5 0 .7-.5.4-1-.3-.6-.8-1-1.1-1-.2 0-.4.4-.4 1zM500.9 624.7c-1.8 2.7-2.6 4.2-1.6 3.5 1.6-1.4 6-8.2 5.2-8.2-.2 0-1.9 2.1-3.6 4.7zM236.3 623.1c-.6.6-1.9 1.2-2.9 1.3-1.6.2-2.4 1.7-.9 1.6 1.2-.1 7.5-3.1 7.5-3.5 0-.9-2.6-.5-3.7.6zM688 631.8c0 .6 1.4 4.1 3.2 7.6 2.9 6 3.5 6.6 8.6 8.6 3 1.1 5.7 1.9 5.9 1.6.2-.2-1.9-1.2-4.7-2.2-5.2-1.9-7.1-4-10-11.4-1.5-4-3-6-3-4.2zM758 633c0 .5.5 1 1.1 1 .5 0 .7-.5.4-1-.3-.6-.8-1-1.1-1-.2 0-.4.4-.4 1zM549.2 636c0 1.4.2 1.9.5 1.2.2-.6.2-1.8 0-2.5-.3-.6-.5-.1-.5 1.3zM417.9 637.7c-1.3 1.6-1.2 1.7.4.4.9-.7 1.7-1.5 1.7-1.7 0-.8-.8-.3-2.1 1.3zM672 642c0 .5.5 1 1.1 1 .5 0 .7-.5.4-1-.3-.6-.8-1-1.1-1-.2 0-.4.4-.4 1zM798 647c0 .5.5 1 1 1 .6 0 1-.5 1-1 0-.6-.4-1-1-1-.5 0-1 .4-1 1zM280 650c0 .5.5 1 1.1 1 .5 0 .7-.5.4-1-.3-.6-.8-1-1.1-1-.2 0-.4.4-.4 1zM342.7 651.7c-1 .9-.9 2.3.2 2.3.5 0 1.1-.7 1.5-1.5.5-1.5-.5-2-1.7-.8zM711.1 653.6c0 1.1.3 1.4.6.6.3-.7.2-1.6-.1-1.9-.3-.4-.6.2-.5 1.3zM338.1 655.3c-.8 1-.7 1.4.2 1.4.8 0 1.4-.6 1.4-1.4 0-.7-.1-1.3-.2-1.3-.2 0-.8.6-1.4 1.3zM334.8 658.7c-.9.2-1.9 1.1-2.2 1.9-.4 1.1-.1 1.1 1.9-.2 1.4-.9 2.5-1.8 2.5-2 0-.2-.1-.3-.2-.3-.2.1-1 .3-2 .6zM549.2 664.5c0 1.6.2 2.2.5 1.2.2-.9.2-2.3 0-3-.3-.6-.5.1-.5 1.8zM251 669c-.8.5-1.1 1.2-.7 1.6.4.4 1.5 0 2.4-.9 1.8-1.8.8-2.3-1.7-.7zM559.2 678c0 1.9.2 2.7.5 1.7.2-.9.2-2.5 0-3.5-.3-.9-.5-.1-.5 1.8zM753.2 680.6c1 1 2 1.5 2.4 1.2.3-.4-.5-1.2-1.8-1.8-2.2-1.2-2.2-1.2-.6.6zM503.6 688.7c-.8 2.9-6.3 27.4-7.1 31.8-.4 2.2-1.6 5.5-2.7 7.3-3 4.9-2.7 10.6.7 14.2 2.7 2.8 2.7 3.2 2.2 10.2-.3 4-1 10.9-1.6 15.3-.5 4.4-1.4 14.5-2.1 22.5-1.9 24.3-5.1 49.5-7.2 58-.6 2.5-2.2 6.7-3.5 9.5-4.5 9.8-1.8 25.5 4.4 25.5 2.1 0 8.3-6.1 10.4-10.1 2.1-4.3 2.6-14.9.9-19.4-.8-2.2-1.3-2.5-2.5-1.5-.7.6-2.4 1-3.7.8-2.1-.3-2.3-.9-2.6-6.2-.3-5.1.6-14.6 2.3-25.1.2-1.7 1.1-9.5 2-17.5.9-8 1.7-15.9 2-17.5.2-1.7.7-6.4 1-10.5 1.1-12.5 1.2-13.2 4-26.9 1.9-9.5 2.5-14.8 2.1-18.5-1.8-14.2-1.7-16.7.3-27.3C506 687.4 506 687 505 687c-.5 0-1.1.8-1.4 1.7zM557.2 694.3c-2.8 3-2.8 5.8.1 8.5 1.8 1.7 2.6 1.9 3.5 1 1.9-1.9 1.2-11.8-.7-11.8-.4 0-1.7 1-2.9 2.3zM866.5 715c-.3.5-.1 1 .4 1 .6 0 1.1-.5 1.1-1 0-.6-.2-1-.4-1-.3 0-.8.4-1.1 1z"/><path d="M504.7 749.7c-3.4 1.8-3 2.7.7 1.7 1.4-.3 2.6-1.2 2.6-2s-.1-1.4-.2-1.3c-.2.1-1.6.8-3.1 1.6zM810.7 765.7c-.4.3-.7 1.7-.7 3 0 2.7-2.6 3.1-6.8.9-9.3-4.7-9.6-1.7-.8 6.8 6.1 5.8 6.4 6.4 7.5 12.6 1.5 9.1.8 14.3-2.2 18.9-1.6 2.4-3.5 7.7-4.6 13-1.1 5-2.4 9.8-2.9 10.8s-1.2 4.3-1.6 7.5c-.3 3.1-.9 6.3-1.2 7.2-.3.9-.1 1.6.5 1.6s1.1-.7 1.1-1.6c0-.9 2-6.2 4.4-11.8 5.5-12.8 5.3-12.2 7.6-22.9 1.1-5 2-12.4 2-16.3 0-4 .5-7.6 1-7.9.6-.4 2.2-2.4 3.6-4.6 3.8-6 6.8-5.5 14.4 2.4 3.3 3.5 7.6 9 9.6 12.3 4.4 7.4 8.9 12.1 12.9 13.5 5.1 1.9 11.1 11 17.9 27.4l2.5 6 .1-6.7c0-7.3.5-6.3-12.5-27.3-1.1-1.7-3-5.2-4.5-8-1.7-3.4-4.4-6.4-8.5-9.5-3.3-2.5-10.3-8.7-15.5-13.7-5.3-5.1-11.1-10.4-13-11.8-3.2-2.4-8.8-3.4-10.3-1.8zM482 790.1c0 .5.5.7 1 .4.6-.3 1-.8 1-1.1 0-.2-.4-.4-1-.4-.5 0-1 .5-1 1.1zM682 826.4c0 .9.5 1.6 1 1.6.6 0 1-.4 1-.9 0-.6-.4-1.3-1-1.6-.5-.3-1 .1-1 .9zM682.5 835c.3.5.8 1 1.1 1 .2 0 .4-.5.4-1 0-.6-.5-1-1.1-1-.5 0-.7.4-.4 1zM784.7 886.1c-2.1 6.1-3.6 11.3-3.4 11.5.6.6 7.9-20.4 7.5-21.6-.2-.6-2 4-4.1 10.1zM710.4 888.5c-.3.8-.1 2.9.5 4.6.6 1.8 1.2 4.4 1.2 5.8.1 1.4.5-.3 1-3.8.4-3.5.6-6.8.3-7.3-.8-1.3-2.4-.9-3 .7zM778.2 904.7c-1.1 3.2-2.3 6.6-2.7 7.5-.4 1-.3 1.8.2 1.8 1 0 5.7-13.9 5-14.6-.3-.3-1.4 2.1-2.5 5.3zM712 911.1c0 1.6.4 2.8.9 2.5.8-.5.3-5.6-.5-5.6-.2 0-.4 1.4-.4 3.1zM786.4 911.6c.3.9.6 1.8.6 2 0 .2.7.4 1.5.4 1.8 0 1.9-1.2.3-2.8-1.7-1.7-3.1-1.5-2.4.4zM281.5 912c.3.5 1.1 1 1.6 1 .6 0 .7-.5.4-1-.3-.6-1.1-1-1.6-1-.6 0-.7.4-.4 1z"/></svg>