<svg xmlns="http://www.w3.org/2000/svg" width="1706.667" height="1706.667" version="1.0" viewBox="0 0 1280 1280"><path d="M970.1 171.7c-4.6 5.6-3.8 7.6.9 2.6 2.2-2.3 4-4.7 4-5.3 0-2-1.9-1-4.9 2.7zM770 170.1c0 .5.5.7 1 .4.6-.3 1-.8 1-1.1 0-.2-.4-.4-1-.4-.5 0-1 .5-1 1.1zM947.6 187.9c-.4.5-.2 1.2.3 1.5.5.4 1.2.2 1.5-.3.4-.5.2-1.2-.3-1.5-.5-.4-1.2-.2-1.5.3zM687.5 193c-.3.5-.1 1 .4 1 .6 0 1.1-.5 1.1-1 0-.6-.2-1-.4-1-.3 0-.8.4-1.1 1zM963.5 206c-.3.5-.1 1 .4 1 .6 0 1.1-.5 1.1-1 0-.6-.2-1-.4-1-.3 0-.8.4-1.1 1zM876 212.1c0 .5.5.7 1 .4.6-.3 1-.8 1-1.1 0-.2-.4-.4-1-.4-.5 0-1 .5-1 1.1zM631.1 222.6c0 1.1.3 1.4.6.6.3-.7.2-1.6-.1-1.9-.3-.4-.6.2-.5 1.3zM847.8 227.7c.7.3 1.6.2 1.9-.1.4-.3-.2-.6-1.3-.5-1.1 0-1.4.3-.6.6zM659.5 235c-.3.5-.1 1 .4 1 .6 0 1.1-.5 1.1-1 0-.6-.2-1-.4-1-.3 0-.8.4-1.1 1zM684.4 251.5c-.7 1.7.4 3.7 1.7 3 1.2-.8 1.2-4.5-.1-4.5-.6 0-1.3.7-1.6 1.5zM686.6 258.9c-.4.7-.5 1.5-.2 1.8.9.9 1.9-.4 1.4-1.8-.4-1.1-.6-1.1-1.2 0zM703.5 262c-.3.5-.1 1 .4 1 .6 0 1.1-.5 1.1-1 0-.6-.2-1-.4-1-.3 0-.8.4-1.1 1zM766.7 261.7c-.4.3-.7 1.5-.7 2.6 0 1.6.3 1.7 1.5.7.8-.7 1.5-1.9 1.5-2.6 0-1.5-1.2-1.9-2.3-.7zM801 263.5c0 .8.5 1.5 1 1.5.6 0 1-.7 1-1.5s-.4-1.5-1-1.5c-.5 0-1 .7-1 1.5zM825.5 264c.4.6 1.1.8 1.6.5 1.4-.9 1.1-1.5-.7-1.5-.8 0-1.2.5-.9 1zM719.2 266.5c-1.4 3.1-1.5 6.2-.3 7 1.4.8 5.1-4.4 5.1-7.1 0-3.3-3.3-3.2-4.8.1zM806 271c0 .5.5 1 1 1 .6 0 1-.5 1-1 0-.6-.4-1-1-1-.5 0-1 .4-1 1zM755 273c0 .5.5 1 1.1 1 .5 0 .7-.5.4-1-.3-.6-.8-1-1.1-1-.2 0-.4.4-.4 1zM871.5 273c-.3.5-.2 1 .4 1 .5 0 1.3-.5 1.6-1 .3-.6.2-1-.4-1-.5 0-1.3.4-1.6 1zM874.6 278.9c-1 1.1-2.8 2.2-4.1 2.5-2.4.6-4.1 4.4-2.5 6 .5.5 2-.4 3.7-2.1 1.5-1.7 3.8-3.6 5.1-4.2 2.4-1.3 3-4.1.9-4.1-.8 0-2.2.9-3.1 1.9zM441 282.1c0 .5.5.7 1 .4.6-.3 1-.8 1-1.1 0-.2-.4-.4-1-.4-.5 0-1 .5-1 1.1zM691.7 283.7c-1.1 1.1-.8 8.3.3 8.3.6 0 1-1.9.8-4.5-.2-2.5-.3-4.5-.4-4.5 0 0-.4.3-.7.7zM908 312c-2.1 4 1.4 5.5 4.6 1.9 1.6-1.7 1.6-2.2.4-2.9-2.3-1.5-3.8-1.2-5 1zM823 313c0 .5.7 1 1.5 1s1.5-.5 1.5-1c0-.6-.7-1-1.5-1s-1.5.4-1.5 1zM827.5 313.9c-.7 1.2 1.2 2.4 2.5 1.6 1.1-.7.4-2.5-1-2.5-.5 0-1.1.4-1.5.9zM760 315c0 .5.5 1 1 1 .6 0 1-.5 1-1 0-.6-.4-1-1-1-.5 0-1 .4-1 1zM859 316.1c0 .5.5.7 1 .4.6-.3 1-.8 1-1.1 0-.2-.4-.4-1-.4-.5 0-1 .5-1 1.1zM824.3 320.9c-3.3 2.7-7.9 5.7-10.4 6.7-4.9 1.9-8.9 5.1-8.9 7 0 .7.9 1.8 2.1 2.5 1.7.9 3.3.7 8-1 7.2-2.7 11.4-1.9 13.8 2.4.9 1.7 3.5 5.6 5.9 8.7 2.3 3.1 4.2 6.5 4.2 7.4 0 .9 1 3.3 2.1 5.4 3.2 5.6 8 6.2 11.9 1.5 1.8-2.2-.6-9.8-2.9-9-2.2.6-5.1-1.9-11-9.8-7.6-10.2-7.6-10.1-5.1-15.9 1.1-2.7 2.2-6.1 2.3-7.6.2-2.3-.2-2.7-2.9-3-2.5-.2-4.3.7-9.1 4.7zM630.6 318.9c-.4.5-.2 1.2.3 1.5.5.4 1.2.2 1.5-.3.4-.5.2-1.2-.3-1.5-.5-.4-1.2-.2-1.5.3zM913 332.1c0 .5.5.7 1 .4.6-.3 1-.8 1-1.1 0-.2-.4-.4-1-.4-.5 0-1 .5-1 1.1zM659 338c0 .5.5 1 1.1 1 .5 0 .7-.5.4-1-.3-.6-.8-1-1.1-1-.2 0-.4.4-.4 1zM382.2 340.1c-5.1 1.9-1 10.7 6.2 13.4 8.4 3.2 10-.3 3.7-8.3-4.2-5.3-6.4-6.4-9.9-5.1zM859.5 340c-.3.5-.1 1 .4 1 .6 0 1.1-.5 1.1-1 0-.6-.2-1-.4-1-.3 0-.8.4-1.1 1zM460.1 341.4c-1.8 2.1-.9 5.1 1.4 5.1 2.4 0 3.2-3.6 1.2-5.3-1.1-1-1.7-.9-2.6.2zM744 368.6c0 .8.5 1.2 1 .9.6-.3 1-1 1-1.6 0-.5-.4-.9-1-.9-.5 0-1 .7-1 1.6zM575.5 370c.3.5.8 1 1.1 1 .2 0 .4-.5.4-1 0-.6-.5-1-1.1-1-.5 0-.7.4-.4 1zM970.2 382.1c.2.6.8 1 1.3 1s1.1-.4 1.3-1c.2-.6-.4-1.1-1.3-1.1s-1.5.5-1.3 1.1zM781.7 397.7c-.4.3-.7 1.1-.7 1.7 0 .6.5.5 1.2-.2.6-.6.9-1.4.7-1.7-.3-.3-.9-.2-1.2.2zM662.7 405.7c-.4.3-.7 1.1-.7 1.7 0 .6.5.5 1.2-.2.6-.6.9-1.4.7-1.7-.3-.3-.9-.2-1.2.2zM680 407.1c0 2.5 3.3 2.2 3.8-.4.2-1.2-.3-1.7-1.7-1.7-1.5 0-2.1.6-2.1 2.1zM754.5 407c-.3.5-.1 1 .4 1 .6 0 1.1-.5 1.1-1 0-.6-.2-1-.4-1-.3 0-.8.4-1.1 1zM763 415.1c0 .5.5.7 1 .4.6-.3 1-.8 1-1.1 0-.2-.4-.4-1-.4-.5 0-1 .5-1 1.1zM795.5 419c-.3.5-.1 1 .4 1 .6 0 1.1-.5 1.1-1 0-.6-.2-1-.4-1-.3 0-.8.4-1.1 1zM668 421c0 .5.5 1 1 1 .6 0 1-.5 1-1 0-.6-.4-1-1-1-.5 0-1 .4-1 1zM689.5 426.1c-.9 1.4-.2 2 1.4 1 .8-.6.9-1.1.3-1.5-.6-.3-1.4-.1-1.7.5zM740.5 430c-.3.5-.1 1 .4 1 .6 0 1.1-.5 1.1-1 0-.6-.2-1-.4-1-.3 0-.8.4-1.1 1zM694.6 431.3c.3 1 .9 1.5 1.2 1.2.3-.3 0-1.1-.7-1.8-1-.9-1.1-.8-.5.6zM799 431.1c0 .5.5.7 1 .4.6-.3 1-.8 1-1.1 0-.2-.4-.4-1-.4-.5 0-1 .5-1 1.1zM712.5 436.1c-1 1.5.3 2.5 1.6 1.2.7-.7.7-1.3.1-1.7-.6-.3-1.4-.1-1.7.5zM919.5 450.9c-.3.5.8.9 2.5.9 2.1-.1 2.7-.4 1.8-.9-1.7-1.1-3.5-1.1-4.3 0zM920 456c0 .5.5 1 1 1 .6 0 1-.5 1-1 0-.6-.4-1-1-1-.5 0-1 .4-1 1zM658 457.1c0 .5.5.7 1 .4.6-.3 1-.8 1-1.1 0-.2-.4-.4-1-.4-.5 0-1 .5-1 1.1zM731.5 459c.3.5.8 1 1.1 1 .2 0 .4-.5.4-1 0-.6-.5-1-1.1-1-.5 0-.7.4-.4 1zM451.2 462.1c.2.7 1 1.5 1.7 1.7.8.3 1.2-.1.9-.9-.2-.7-1-1.5-1.7-1.7-.8-.3-1.2.1-.9.9zM840.5 463c-.3.5-.1 1 .4 1 .6 0 1.1-.5 1.1-1 0-.6-.2-1-.4-1-.3 0-.8.4-1.1 1zM670.5 465.9c-.3.5-.1 1.2.5 1.6.5.3 1-.1 1-.9 0-1.8-.6-2.1-1.5-.7zM850 471c0 .5.4 1 .9 1 .6 0 1.3-.5 1.6-1 .3-.6-.1-1-.9-1-.9 0-1.6.4-1.6 1zM724 471.8c-.8.3-3.6 2.4-6.2 4.7-5.3 4.8-8.5 5.5-24.7 5.5-10.3 0-26.1-3.1-28.2-5.6-1.5-1.8-5.3-1.8-6.8 0-1.6 1.9.2 3 3.5 2.2 1.4-.4 3-.3 3.7.1 3.1 1.9 14.5 5.2 20 5.8 3.4.4 6.6 1 7.2 1.3.5.3 4.4.7 8.5.8 4.1.1 10.8.5 14.8.9 5.8.6 7.7.4 9.7-.9 3.1-2 6.7-2 17.8 0 8 1.5 8.9 1.5 11.2 0 2.9-1.9 3.4-6.2.8-7-1-.3-5.4-.5-9.8-.5-9.1.1-12.7-1-15-4.5-1.7-2.6-4.1-3.6-6.5-2.8zM790.3 477.7c-1.6.6-1.7 2.9-.3 3.8 1.1.7 4-1.2 4-2.5 0-1.1-2.2-1.8-3.7-1.3zM721 490.1c0 .5.5.7 1 .4.6-.3 1-.8 1-1.1 0-.2-.4-.4-1-.4-.5 0-1 .5-1 1.1zM690.3 493.1c.9.5 1.7 2 1.7 3.3 0 2.6-16.7 23.9-18 23.1-.5-.3-1.4.4-2 1.5-.6 1.1-1.9 2-2.8 2-1 0-2.3.5-2.9 1.1-1.8 1.8-4.3.2-4.4-2.8-.1-1.5-.3-2.1-.6-1.2-.5 2.1-4.5 2.9-7 1.6-1.3-.7-1.2-.3.6 1.7 1.4 1.4 3 2.6 3.7 2.6 1 0 1.1.6.4 2.5-1.7 4.6.9 7.4 3.1 3.3l1.2-2.2 1.2 2.5c.7 1.3 1.5 5 1.8 8.1.4 4.9.3 5.6-1.2 5.1-1.2-.4-1.3-.2-.3.4.7.5 1.5 2.7 1.9 4.9.3 2.1 1.1 4.2 1.7 4.6.8.5.7 1.3-.2 2.8-1.1 1.7-.9 2.4.9 4.3 2.1 2.2 2.1 4.6.4 10.7-.4 1.4.2.8 1.4-1.4 1.1-2.1 1.8-4.3 1.5-4.7-1.2-1.9 1.3-.7 3.7 1.9 4.6 4.8 6.7 10.3 7.9 20.9.6 5.6.8 11.3.5 12.6-.7 2.5-12.1 11.4-13.2 10.3-.3-.3-1.4.5-2.5 1.7l-1.9 2.2.5-3.8c.5-3.6.4-3.7-1.7-2.5-1.4.7-1.7 1.3-.9 1.6 1.5.5 1.5 4.2-.1 6.2-1.6 2.1-6.8 6-7.8 6-1.6 0-.9-8.8 1-13.2 2.6-6.2 1.5-7.9-4.7-7.1-6 .7-7.7-1-6.9-6.5.6-3.4.5-3.5-.8-1.8-.8 1.1-1.5 2.7-1.5 3.6 0 2.2 5 7.2 6.6 6.6.8-.3 1.4.1 1.4.8 0 1.7-4.7 4.9-6 4.1-.5-.3-1.6.5-2.4 1.7-1.2 1.7-1.3 2.4-.3 3 .7.4 1.6.2 2.2-.5.6-.6 2.7-1.3 4.8-1.3l3.9-.2-2.3 2.4c-2.5 2.7-2 6.6.6 4.4 1.1-.9 1.2-1.6.5-2.5-1-1.2-.4-2.5 1.2-2.5 1.2 0 .9 7.2-.5 9.7-.7 1.2-3 4.1-5.2 6.4-5.1 5.5-17.2 20.6-17.7 22.1-.3.8-1.7.4-4.1-1.1-2.1-1.2-3.4-2.7-3.1-3.3 1-1.6 1.3-10.8.3-10.8-.5 0-.9-.7-.9-1.5 0-1.8-3.5-5.5-5.2-5.5-.8 0-1.4-1.5-1.5-3.5-.2-1.9.1-3.5.6-3.5 1.8 0 4 3 3.4 4.6-.8 2.2 2.6 4.5 4.9 3.1 1.2-.8 1.4-1.3.5-1.9-2.4-1.4.2-1.9 4.7-.7 2.6.6 4.9.9 5.2.7.3-.3-1.6-1.1-4.2-1.7-6-1.5-10.6-3.9-9.9-5.1.3-.5 1.2-.7 2-.3.8.3 1.5 0 1.5-.6s-.4-1.1-1-1.1c-.5 0-1-.8-1-1.8-.1-1.4-.4-1.3-2 .6-1.8 2.2-4.8 2.3-3.5.1.4-.5.2-.9-.4-.9-1 0-3.1 6.1-3.1 9.2 0 1-.4 1.8-1 1.8-.5 0-1 .6-1 1.3 0 .9-1.1 1.4-3.2 1.3-2.1-.1-3.2-.6-3.1-1.4.2-.6-.3-1.2-1.1-1.2s-1.3.8-1.2 1.7c0 1-1 2.1-2.7 2.7-2.4.9-3 .7-3.8-.7-.6-.9-1.7-1.7-2.6-1.7-.9 0-2.1-.7-2.7-1.6-1.1-1.4-9.6-5.8-9.6-4.9 0 .3 1.8 1.4 4 2.5 4.9 2.5 5 3 .5 2-4-.9-6.1-2.4-7.7-5.4-1-1.9-1-2 .7-.6 1.1.9.4-1-1.9-5.3-2-3.7-3.4-6.7-3.1-6.7.3 0-.9-2-2.7-4.4-1.8-2.5-4.6-6.8-6.3-9.7-1.6-2.9-5.6-8-8.7-11.3-3.2-3.3-5.8-6.8-5.8-7.9 0-1-.5-1.5-1-1.2-.6.4-2.7-.7-4.8-2.2-5.4-4.2-8.2-5.8-12.4-7.2-2.1-.7-4.5-2.2-5.3-3.4-1.8-2.5-1.9-1.8-.4 1.6.7 1.6 3.5 3.6 8.2 5.7 9.2 4.2 15.2 9.8 16.6 15.6 1.3 5.1 1.4 15.4.2 20.5-.8 3.4-.6 3.7 2.3 5.1 8.6 4.1 12.3 6 14.6 7.7 2.2 1.7 2.3 2.1 1 3.8-1.4 1.7-1.4 1.7.3.4 1.6-1.2 2-1.2 3.3.1 3.1 3.1-2.7 9.7-6.5 7.3-.6-.3-1.1-.1-1.1.4 0 .6-1.3 1.1-3 1.1-2.2 0-4-1.1-6.7-4-2.1-2.2-4.2-4-4.6-4-1.2 0 1.3 4.2 4 6.7 1.2 1.2 2.3 2.5 2.3 2.8 0 .3-2.2.4-5 .2-5.8-.5-12.2 2-15.2 5.9-1.3 1.5-2.8 2.4-3.8 2.1-1.3-.3-1.6 0-1.3 1.4.7 2.5-.9 2.4-2.4-.1-1.4-2.1-.7-5.4.9-4.4.7.4.8-.5.3-2.5-.4-1.9-.3-3.1.4-3.1.6 0 .8-.6.5-1.4-.3-.8 0-2.5.6-3.8 1.1-2.2 1-2.2-.4-.3-.8 1.1-1.9 2.4-2.3 3-.4.5-.8 1.8-.9 2.7-.3 7-.3 7.1-1.9 5.8-.9-.7-2-3.2-2.6-5.6-.6-2.4-1.5-4.4-2-4.4s-1.4-1.2-1.9-2.8c-.6-1.5-1.5-3.6-2-4.7-3.6-7.5-7.1-20-11.2-39-.5-2.8-1.5-6.1-2-7.5-.6-1.4-1.2-7-1.4-12.6-.3-8.4-.7-10.8-2.7-14.3-2.5-4.4-6.2-7.3-10.9-8.4-1.4-.4-3.3-1-4.2-1.3-1.1-.4-1.6-.1-1.6 1 0 .9.6 1.6 1.4 1.6 1.6 0 7.7 5.5 10 9.1 1.8 2.9 3.4 7.3 4.6 13.4 1.9 9.1 4 18.3 5.4 23.5 2.4 9 5.8 21.4 6.4 22.8.3.9-.7.7-3.2-.6-8.6-4.6-17.1 3-21.6 19.3-3.1 11.2-4.1 12.1-15.7 12.4-7.9.2-9.3 4.9-4.3 14.7 1.6 3.2 3 6.4 3 7 0 .6 1.2 2.1 2.6 3.5l2.6 2.4-2.6-5.8c-1.4-3.2-3.4-7.1-4.6-8.7-2.6-3.7-2.7-9.6-.1-11 1.1-.5 4.7-1 8-1 7.1 0 9.4-1.6 11.1-7.9.6-2.3 1.5-4.1 1.9-4.1.5 0 .7-.9.4-2-1.4-5.5 7-17.3 13.2-18.6 6.6-1.3 12.7 7.1 15 20.5.5 3.2 2.1 5.8 6 10.2 3.7 4.2 5.4 7 5.9 9.8.8 5.1 6.1 9.3 12.5 9.9 4.6.4 9.4 2.3 10.6 4.2.4.6 0 2.1-.9 3.3-.9 1.2-2.3 3.2-3.2 4.4-1.5 2.1-1.5 2.3 0 2.9 1 .4 3.2-.1 5-1.1 3.7-2 8.3-1.5 9.3 1 1.6 4.3-3.9 10.3-10.9 11.9-2.4.5-2.8.1-5.5-5.4-1.5-3.3-3.4-6.2-4.1-6.5-1.5-.5-9.2 5-9.2 6.6 0 1.1-5.4 0-5.8-1.3-.7-1.7-2-.7-1.5 1.2.5 1.7 0 2-3.1 2-1.9 0-5.4.8-7.8 1.7-4.1 1.6-4.2 1.6-5.7-.7-.9-1.2-4.2-5.1-7.4-8.6-4.3-4.6-5.8-6.9-5.5-8.6.4-2.9 5-3.2 8.4-.5 1.7 1.3 2.4 1.5 2.4.5 0-1.3-4.3-3.8-6.7-3.8-2.2 0-1.4-2.1 2.1-5.6 3.5-3.5 4.8-6.4 3.6-8.3-1.6-2.8-5.6 2-11.4 13.5-1.7 3.4-3.4 5.4-4.8 5.7-1.3.3-6.6 1.3-11.8 2.2-17.9 3.3-22 5.7-22 13 0 5.2 3.3 9.8 8.5 11.7 1.9.6 3.5 1.6 3.5 2.1 0 .4.4.5 1 .2 1.3-.8 9 1.3 9 2.5 0 .6-1.5 1.1-3.2 1.2-1.8.1-4.9.3-6.8.4-1.9.1-4.2-.4-5-1.1-3.1-2.5-4.4-2.7-2.3-.4 1.2 1.3 2.2 2.8 2.2 3.3-.1.5 1.8 1.9 4.2 3 2.3 1.2 4.3 2.5 4.3 3.1.1 1.2-11.6 3.6-12.9 2.6-.5-.5-2.2-1.1-3.7-1.5-3.3-.8-8.5 3.1-7.5 5.7.8 2.1 7.2 3.3 10 1.9 1.2-.6 5.1-1.3 8.7-1.6 3.6-.3 7.9-.8 9.5-1.1 2.6-.6 3.2-.2 4.8 2.3.9 1.7 1.7 3.2 1.7 3.4 0 .2-3.5.4-7.7.4-10 .2-16.3 1.3-16.3 2.8 0 .7-.9 3.1-2 5.4-1.1 2.2-2 4.6-2 5.3 0 .6-.6.9-1.2.7-.7-.3-3.1.1-5.3.8l-4 1.3 5.2-.6c4.9-.5 5.2-.4 6.6 2.3 4 7.6 12.7 11 21.6 8.4 4.2-1.2 4.6-.8 2.9 1.9-.8 1.3-1.9 1.9-3 1.5-1.4-.4-1.8 0-1.8 1.9 0 1.4.7 3 1.5 3.7.9.7 1.4 1.9 1.1 2.6-.3.8 0 1.3.7 1.1 1.3-.2 1.1 4.4-.2 5.3-.4.3-1 1.3-1.4 2.2-.7 2.1-2.7 2.4-2.7.5 0-.8-.3-.7-1 .3-.6.9-.5 1.9.2 2.8.9 1 .6 1.4-1.1 1.9-1.4.4-2 1.1-1.7 2 .3.8.6 1.7.6 1.9 0 .2.8.4 1.8.4s2.9 1.1 4.1 2.4c2.2 2.3 2.2 2.5.6 5-1 1.4-2.1 2.6-2.6 2.6s-.9.4-.9.9c0 .6 1.5.5 3.7-.1 3-.8 4.3-.6 7.9 1.1 2.3 1.2 4.7 2.8 5.4 3.6.7.8 1.7 1.2 2.3.8.5-.3 2.9-.8 5.2-.9 6.3-.6 6.8 2.6 2.2 12.8-2.2 4.9-4.7 6.4-4.7 2.8 0-1.1-.4-2-1-2-.5 0-.9 1-.7 2.3.1 1.2-.3 2.1-.9 2-.6-.1-5.3-.4-10.5-.7-9.8-.4-12.9-1.1-12.9-2.8 0-.6-.7-.8-1.5-.4-1.3.4-1.3.2-.5-1.4.7-1.2.7-2.7 0-4.5-.5-1.4-1-4-1-5.7 0-3-2.8-8.5-6.2-12.2-1.6-1.7-2.2-1.8-5.5-.8-2.1.7-5.4 1.1-7.3.9-3.4-.2-3.5-.1-3.8 3.5-.3 3 .3 4.2 3.2 7.2 2 1.9 5.4 4 7.5 4.7 4.7 1.4 5.2 2.4 5.7 10.1.4 6.4-.9 7.5-4.3 3.9-1-1-3.4-2.6-5.3-3.6s-3.8-2.2-4.1-2.7c-.4-.6-1.6-.7-2.7-.4-2.6.9-2.2 2.2 3 9.9 3.1 4.7 3.7 6.1 2.7 7.3-.6.8-1.8 1.4-2.6 1.4-1.5 0-1.4 3.4.2 9 .3.8 0 2.1-.4 2.9-.8 1.2-1.2 1.3-2.6.1-1-.8-1.9-1-2.5-.4-2.1 2.1-8 .2-12.8-4.1-4.1-3.7-4.5-4.4-3.3-5.9 1.2-1.4 1.2-1.6 0-1.1-.9.3-2.9-1-4.9-3-3.2-3.4-3.4-3.7-2.2-6.8.7-1.7 1.8-12 2.4-22.8 1.4-22.5.9-25.5-4.6-30.8-3-2.9-4-3.3-7.8-3.1-8.8.5-13.1 0-17.5-2.1-2.4-1.2-4.1-2.5-3.6-2.9.4-.4 3.5-1.1 6.8-1.4 14.9-1.6 22.4-4.8 23.6-10.2.5-2.5 4.6-10.4 5.4-10.4.1 0 2.2.8 4.6 1.9 2.4 1 6.7 2.1 9.4 2.4 3.7.4 4.4.3 2.7-.4-1.3-.5-3.9-1.1-5.7-1.3-3.4-.4-9.5-3.2-9.5-4.3 0-.3 1.5-2.9 3.3-5.7 6.2-9.5 9.7-18.1 11.4-28.6 1.6-8.9 1.6-10.2.3-11-4.2-2.6-13.2.9-17.9 7-1.5 1.9-4.5 7.5-6.6 12.5-2.1 4.9-4.1 9.4-4.5 10-.3.5-1.2 3-1.9 5.5-2.3 8.1-12.6 21-16.8 21-.7 0-4.2 1-7.9 2.2-5.3 1.7-7 1.9-8.5 1-1.5-1-1.9-1-1.7 0 .5 2-13.4 9.3-21.7 11.4-25.7 6.7-32.4 8.4-35.2 9.3-1.8.5-3.3.8-3.3.6 0-.2-1.8.2-4.1 1-2.2.8-7 1.8-10.5 2.1-9.4 1-9.8 1.6-8.9 13.9 1.1 13.3 1.1 22.4.1 31.6l-.9 7.5 5.3 4c2.8 2.1 6.3 4.9 7.7 6.2 1.4 1.3 2.7 2.1 3 1.8.3-.3-2-2.9-5.1-5.9-6.5-6.1-6.7-7.4-3.1-16.2 2.7-6.5 3.1-13.3 1.4-20-1.4-5.6-1.1-13.3.8-16.1.8-1.3 3-3.1 4.7-3.8 10.9-4.9 45.3-14.6 51.9-14.6 1.6 0 3.6-.4 4.6-.9.9-.5 4.6-1.2 8.2-1.6 3.5-.3 8.2-.8 10.4-1 4.8-.5 7 .8 14.5 8.1 3 3 7.2 7.1 9.3 9.2 4.9 4.8 7 9.6 6.2 14.2-.7 4-5.1 12-6.5 12-.6 0-1 1.1-1 2.5 0 4.4-3.7 12.5-8.3 17.8-2.4 2.9-5.4 7.2-6.7 9.7-2.5 5-10.1 16.2-13.6 20-3 3.3-5.4 9.2-5.4 13.3 0 4.5.8 5 4 2.7 3.7-2.6 6.6-2.5 8.4.2 2.1 3.2 1.4 14.8-1.4 22-1.8 5-3.2 6.6-9.2 11.3-7.5 5.8-9.9 6.6-12 3.7-1.8-2.5-4.8-3.6-4.8-1.7 0 .8-1.2 3.6-2.8 6.2-1.5 2.6-3.8 7.2-5.2 10.1-2.2 4.9-2.3 5.6-.9 8 .8 1.5 3.3 3.7 5.4 4.9 8.3 4.7 8 4.7 15.5 0 17.8-10.9 25.6-20.4 29.8-36.4 1.4-5.1 2.1-6.4 4.4-7.4 4.7-1.9 8.8-7.4 8.8-11.8 0-2.4.8-4.8 2.1-6.5 1.8-2.2 2.8-2.6 7.4-2.6 5.7 0 10.5-1.4 11.7-3.3 1.2-2 6.2.5 7.3 3.8 1.1 3.1 4.2 8.3 6.1 10 .6.5 2 2.7 3.2 4.8 1.7 3 1.9 4.3 1.1 6.3-1.1 3.1-.4 6 1.6 6.8 2.4.9 4.5-.4 5.1-3.3 1-4.1 2.1-4.8 6.3-4.5 6.6.4 8.3-.4 8-4-.3-3.6 4.3-11.2 8.5-14 3.5-2.2 5.9-6.9 4.4-8.4-.9-.9-.7-1.7.7-3.2 1.6-1.8 1.7-2 .2-1.4-1.3.5-1.7.1-1.7-1.8 0-1.8 1.3-3.1 5.5-5.6 3-1.8 6.1-4.2 6.9-5.4 1.3-1.9 1.8-2 4.5-.9 1.6.7 4.3 2.5 6 4 2.8 2.5 3.6 2.7 7.4 2 2.3-.4 4.7-.8 5.2-.9.6 0 1.6-.4 2.4-.9 1.2-.8.9-1.5-1.7-3.9-1.8-1.7-3.2-2.5-3.2-2 0 .6-.7.8-1.5.4-.8-.3-1.5-.1-1.5.4 0 2.1-2 .9-2.1-1.3-.1-2-.2-2-1.2.5-.6 1.6-1.4 2.8-1.8 2.8-.8 0-7.9-10.2-7.9-11.4 0-.6-.9-2.9-2.1-5.3-1.7-3.4-2.6-4.3-4.7-4.3h-2.6l2.7 2.7c2.1 2.3 2.6 3.9 2.9 9.2l.3 6.4-4 2.9c-5 3.5-10.5 4.8-10.5 2.4 0-.9-.6-1.7-1.2-1.8-5.1-.6-7.8-1.8-7.8-3.4 0-.8-.3-1.4-.8-1.4-.4 0-.8-1.9-.8-4.1-.1-2.3-.6-4.4-1.2-4.8-.6-.4-1.1-1.5-1.1-2.6s-.1-2.7-.2-3.5c-.1-.8.1-2.9.5-4.7l.8-3.2 8.2.4c19.8 1.2 20.4 1.3 21.7 5 .9 2.4 2 3.5 4.1 3.9 1.6.3 2.7 1 2.4 1.5-.3.4-1.7.6-3.1.3-1.4-.2-2.5 0-2.5.6 0 1.7 2.9 2.2 5.5 1 3-1.4 5.6.3 5.2 3.5-.1 1.6.4 2.3 2.1 2.5 1.2.2 2.2-.1 2.2-.7 0-.7 1.7-.9 4.8-.6 9.5 1 10.7 1.4 12.4 4.5.9 1.7 2.3 3 3 3 1 0 1-.2-.1-.9-2.7-1.7.7-4.7 8.8-7.9 4.4-1.8 8.4-3.2 8.9-3.2 1.5 0 3.5-2.9 5.3-7.4 1.4-3.4 2.2-4.2 4.8-4.6 1.8-.3 3-1 2.9-1.5-.2-.6-.7-.9-1.2-.7-.5.2-.6-.4-.3-1.3.4-.8-.3-2.3-1.4-3.4-1.5-1.4-1.7-2.1-.8-2.6 1.9-1.2 20.1-5.7 23.2-5.7 1.5-.1 2.7-.6 2.7-1.4 0-.7 2.3-2.5 5-4 2.8-1.5 5-3 5-3.4 0-.3 1.5-2.8 3.2-5.6 1.8-2.7 3.3-5.6 3.4-6.4 0-.8.2-2.2.3-3 .1-.8 1.7-2.5 3.7-3.8 3.6-2.3 4.2-5 .9-4.4-1 .2-1.4-.1-1-.7.3-.6 1.5-1.1 2.6-1.1 1.8 0 1.9-.2.5-1.5-1.4-1.4-1.8-1.3-4.5 1.7-2.5 2.7-2.9 2.9-2.5 1.1.9-3.3 4.4-6.7 5.7-5.4.6.6 1.9 1.1 2.9 1.1 1.1 0 2.3 1.1 2.8 2.5.9 2.3 1.5 2.5 7.2 2.5 6.9 0 13.8 1.5 13.8 3 0 .6.6 1 1.2 1 .7 0 4.3 1.2 8 2.6 8.2 3.3 11.2 6.2 11.1 10.8-.1 3 .6 4 6.6 8.8 7.6 6.1 9 7.7 9.1 10 0 .9 1.1 2.5 2.5 3.5 1.3 1 4.5 3.3 7 5.2 4 2.9 5.4 3.4 10.3 3.4 3.1 0 7.6-.5 9.9-1.2 4-1.1 11.3-6.8 11.3-8.8 0-.5-3.5-.9-7.7-.9-10.1 0-22-4.2-22.9-8-1.2-4.6.4-7.2 6.8-11.4 3.4-2.2 6.7-4 7.2-4 .6 0 4.5-2.1 8.6-4.5 11-6.7 15-5.8 15 3.2 0 6.1-1 8.1-4.2 9.2-4.1 1.5-7.1 1.4-6.2-.1.4-.7.3-.8-.5-.4-.6.4-1.9.2-2.7-.5-3.3-2.7-2.2.1 1.6 4.2 2.3 2.4 4.8 5.6 5.6 7.1 1.9 3.6 4.7 3.6 7.4.1 2-2.6 2.2-3.5 1.6-11.8-1.2-16.7-1.1-16.4-8.3-22.5-3.5-3-7.1-6.6-7.9-8-.9-1.4-5-5-9.1-8-4.2-3-8.5-6.6-9.7-7.8-1.2-1.3-3.3-3.5-4.8-5-2.8-2.5-4-8.2-1.7-8.2.7 0 .9-1.9.5-5.7-.3-3.1-.7-5.8-.9-5.9-.6-.6-6.7 4.1-6.7 5.2 0 .6-.8 1.8-1.9 2.8-2.2 2-3.5.8-4.5-3.9-.6-2.9-.4-3.1 4-4.5 5.4-1.8 6.1-3.3 1.9-4-2.4-.4-2.9-1-2.7-2.8.2-1.2-.2-2.2-.8-2.2-.7 0-.9-.8-.5-2 .9-2.8-1.3-5.4-3.1-3.9-1.7 1.4-1.9 4.9-.3 4.9.7 0 0 .9-1.4 2s-3 2-3.6 2c-1.7 0-1.3-6.8.4-7.8.9-.4 1.7-1.9 2-3.3.2-1.3 1.6-3.4 3-4.6 1.7-1.5 2.1-2.4 1.3-2.9-1.1-.7-4.1 2.2-5.1 4.9-.3.9-1 .7-2.3-.6-1.8-1.7-1.8-1.9-.2-2.8 1.9-1.1 1.3-3.9-.8-3.9-1 0-1.3-.7-.9-2.3.3-1.2.7-3.2.8-4.4.2-3.1 1.5-1.8 2.3 2.3.3 1.9 1.5 3.9 2.5 4.5 1.5.7 1.7.6 1.3-.6-1.1-2.8.6-6.5 3.9-8.5 3.6-2.2 3.2-2.6-.8-.8-1.9.8-3.1.8-5.1 0l-2.5-1.2 4.8-3.7c2.6-2 5.3-4.2 5.8-4.8 2.3-2.7 10.6-8.7 11.2-8.2.3.4 1.2-.1 1.9-1.1.7-.9 1.6-1.7 2.1-1.7.4 0 2.4-1 4.3-2.2 1.9-1.1 5.5-2.7 8-3.4 4.1-1.2 11.4-6.7 21.2-16.1 3.2-3.1 3.2-3.3 1.3 5.5-1.6 7.6-1.4 8.9 2.1 11.2 2.7 1.7 3.1 1 .9-1.9-2.6-3.4-1.2-15.5 2.6-22.6 2.4-4.4 2.4-5.3-.1-4-1.1.6-2.5.8-3 .5-.6-.4-1.3.2-1.7 1.2-2.7 7.6-15.3 18.3-15.3 13.1 0-1.4 14.7-15.8 16.1-15.8.5 0 .9-.7.9-1.6 0-1-2.4.7-6.6 4.5-5.1 4.6-7 5.8-8.2 5.1-1-.5-2.5-1.1-3.4-1.4-1.1-.3-1.8-1.5-1.8-3 0-2.1-.6-2.6-3.5-3.2-2.3-.4-4.1-.2-5 .6-3.2 2.7-2.4 0 1.9-6.1 9.9-14 13.6-19.9 13.6-21.5 0-1 3.4-5.2 7.5-9.5 7.2-7.4 9.2-10.9 6-10.9-.8 0-2.9 1.3-4.7 2.8-5.3 4.4-10.5 8.1-11.9 8.4-.8.2-1.8.8-2.4 1.4-.5.6-2.6 2-4.5 3-1.9 1.1-5.2 3.1-7.3 4.6-4.7 3.3-6.7 2.7-6.8-2.1-.3-10.2-.6-13-1.9-17.8-1.1-4.4-1.1-5.4 0-6.8 1.2-1.5 1.2-1.6-.4-1.3-1.3.2-2.1-.8-3.2-3.7-1.9-5.5-1.8-6.2 1.4-7.1 2.3-.6 2.4-.8.7-1.2-1.1-.2-3-1.6-4.1-3-1.5-1.9-3.1-2.6-5.5-2.7-3.1 0-3.4-.3-3.7-3.5-.2-1.9-.8-4-1.4-4.7-.5-.7-.8-2.7-.7-4.5.2-1.8-.3-5.2-1-7.6-1-3.7-1-4.7.4-6.8.8-1.3 2-2.4 2.6-2.4 2.1 0 9-6.2 11.4-10.4 1.3-2.3 4.3-5.7 6.6-7.6 8.2-6.9 8.2-7 6.6-8.8-.8-.9-1.7-2.5-2-3.5-.4-.9-1.4-1.7-2.4-1.7-1.7.1-1.7.1 0 1.1zM561.3 595c1.2 1.9 2.2 5.1 2.2 7 0 2.9.4 3.5 2.2 3.5 1.2 0 2.9.9 3.7 2 2 2.6 2 3.9 0 3.1-1.5-.6-1.5-.4-.3 1.1.8 1 2.2 2.4 3.2 3.1.9.7 1.5 1.8 1.1 2.3-.3.5 0 1.7.7 2.5 2.5 3.1-.3 2.5-6.9-1.4-7.7-4.6-9.7-6.5-8.9-8.6.3-.8 0-1.7-.8-2-.8-.3-1.6-2.8-1.9-6.3-.4-3.2-.9-7.8-1.1-10.2l-.5-4.5 2.6 2.5c1.4 1.3 3.5 3.9 4.7 5.9zm154.7-7.1c0 .6-2 3.1-4.5 5.8-3 3.1-4.3 5.3-4 6.5.9 2.6-3 9.4-11.6 20-4.4 5.4-7.9 10.3-7.9 10.9 0 .6-.7.9-1.5.5-.8-.3-1.4-.2-1.4.2.1.4 0 1-.1 1.4-.1.5-.3 1.1-.4 1.5-.5 2.3-4.6 6.9-9.6 10.8-6.3 4.8-12.2 6.8-19 6.3l-4.4-.3 8.4-6.7c4.7-3.8 9.4-6.8 10.5-6.9 1.2 0 1.5-.3.7-.6-1-.4-.4-1.6 2.1-4.2 4.6-4.7 10.2-14.7 11.1-19.7.4-2.1.9-4.7 1.2-5.7.5-1.6 19.2-14.6 21.1-14.7.5-.1 2.6-1.4 4.8-3 4.6-3.3 4.5-3.3 4.5-2.1zm-59.6 20.8c-.5 4.5-.9 4.9-2.9 3.3-.8-.7-1.5-.9-1.5-.5 0 .5-.3.6-.6.2-.9-.8 2.8-6.7 4.3-6.7.8 0 1.1 1.2.7 3.7zm25.1 3.5c-1.4 6.5-6.3 15.3-11.1 20-5.3 5.2-10.1 6.8-9.6 3.3.3-1.8.1-1.8-1.6.3-1 1.3-2.1 2-2.5 1.6-.9-1 3.3-5.5 4.4-4.8.5.3.6-.1.3-.9s1-3.1 3-5.3c2-2.2 3.6-4.6 3.6-5.4-.1-.9-.6-.5-1.5 1-1.1 1.9-1.4 2.1-1.5.8 0-2.2 5.6-7.4 11.8-11 2.6-1.5 4.8-2.8 5-2.8.2 0 .1 1.5-.3 3.2zM664 622.5c0 2.8-8.7 14.5-10.7 14.5-.7 0-1.2.4-1 .8.1.4-2.2 4.3-5.1 8.5l-5.3 7.7h-5.1c-4.8 0-5-.1-3.6-1.8.8-.9 3.8-4.6 6.7-8.1 6.7-8.1 7.7-9.2 8.5-8.4.3.4.6-.1.6-1s3-4.1 6.8-7.1c6.3-5.2 8.2-6.4 8.2-5.1zm-40.4 7.2c-1 1-1.9-.5-1-1.8.6-1.1.8-1.1 1.2 0 .2.7.1 1.5-.2 1.8zm84.7 8.4c-1 1.6-2.1 2.9-2.5 2.9-.4 0-.8.8-.8 1.7 0 1.9-8.8 9.4-15.2 13.1l-3.7 2.1 2.1-5.2c1.2-2.9 2.4-7.1 2.7-9.4.7-5 5.2-9.3 7.6-7.3.8.6 2.3.9 3.5.5 1.4-.4 2-.2 2 .9 0 .8.5 1.8 1.2 2.2.8.5.9.2.5-1.1-.9-2.2.9-4.6 2.9-3.8 1.2.4 1.1 1-.3 3.4zm-89.8.9c2.5 2.3 3.4 7.3 1.6 8.4-.4.3-1.8-.5-3-1.8-2.2-2.3-2.2-2.5-.4-3.4 1-.6 1.5-1.3 1.2-1.6-.3-.3-1.4 0-2.3.7-1.5 1.1-1.7 1.7-.7 3.5 1.5 2.8.3 2.8-4.9.2-2.2-1.1-4-2.7-4-3.5 0-.9-.6-1.2-1.6-.8-1.2.4-1.5.1-1.2-1.3.2-1 1.1-1.9 2-1.9.9 0 2-.3 2.4-.7 1.4-1.5 8.5 0 10.9 2.2zm71.1 1.4c.4 1.6-.6 5.5-2.7 11-3.1 8.2-3.6 8.9-9.7 13.4-3.6 2.6-6.9 4.6-7.4 4.4-.6-.1-1.2.6-1.5 1.7-.6 2.3-4.9 5.5-6.3 4.6-.6-.3-.7.1-.4.9.7 1.8.3 1.9-2 1-.9-.3-1.6-1.5-1.6-2.5s-.5-1.9-1.1-1.9c-.6 0 1-2.1 3.5-4.6 2.5-2.5 4.6-5.1 4.6-5.7 0-2.1 5-8.7 6.5-8.7 1 0 1.5 1 1.5 3 0 1.6.4 3 .9 3s.7-1.9.4-4.3c-.4-4-.2-4.4 4.3-7.7 2.6-1.9 5.8-4.6 7.3-5.8l2.6-2.4-2.9 2.1c-3.9 2.9-4.8 1.6-1.1-1.4 3.8-3.1 4.3-3.1 5.1-.1zm-32.6-.6c0 .5-.9 1.7-2 2.7-1.1 1-2 2.6-2 3.6 0 1.2-1.5 2.6-4 3.9-2.2 1.1-4 1.6-4 1 0-.5.5-1 1-1 .6 0 1-.7 1-1.5s1.8-3.3 4-5.5c3.8-3.8 6-5 6-3.2zm6-.4c0 .8-6.1 4.8-6.5 4.4-1-.9 2.7-4.8 4.6-4.8 1 0 1.9.2 1.9.4zm12 10.1c-1.3 1.4-2.8 2.5-3.4 2.5-1.1-.1 4-5 5.1-5 .4 0-.4 1.1-1.7 2.5zm-90.1 4.6c-1.3 2.6-2.3 1.8-1.4-1 .3-1.2 1.1-1.9 1.6-1.6.5.4.5 1.4-.2 2.6zm42.1.1c0 1.3-2.3.5-2.8-1-.2-.7.2-1 1.2-.6.9.3 1.6 1.1 1.6 1.6zm32.5-.3c-.3.5-.1 1.2.5 1.6.6.3 1.3-.1 1.6-.9.6-1.6 5.4-2.3 5.4-.9 0 2.4-10.6 11.3-13.3 11.3-.8 0-2.2 1.1-3 2.4-1.8 2.7-6.6 4-8.4 2.3-1.9-1.9-2.7-6.7-1.2-6.7 1.2 0 1.2-.2 0-.9-1.8-1.1-.7-4.3 2.1-6 1.9-1.2 5.8-1.9 15.6-3 .7 0 1.1.3.7.8zm-20.5 3.3c0 .5-.5.6-1.1.3-.6-.4-1.6.1-2.3 1.1-.7.9-1.8 1.4-2.4 1-1.8-1.1-1.4-3.4.6-3.8 2.3-.5 5.2.2 5.2 1.4zm-18 1.6c1.5-1 2.2-1 3.1-.1 1 1 .6 1.8-1.6 3.5-1.6 1.3-3.6 3-4.3 3.9-.8 1-2.3 1.4-3.4 1.1-1.7-.4-1.9-1.1-1.4-4 .4-2.5.2-3.2-.5-2.5-.6.6-1.3 3.3-1.6 6-.7 7.9-1.2 9.3-2.8 8.7-1.1-.4-1.3-.2-.9.9.3.9-.7 2.3-2.8 3.7-1.8 1.3-4 3.2-4.9 4.3-.9 1-3.6 2.9-6 4.1-3.8 1.9-4.7 2.9-6.3 7.8-1.7 4.9-2.7 6-7.1 8.7-2.8 1.7-6.1 3.1-7.2 3.1-1.2 0-3.8-1.6-5.9-3.5-2-1.9-4.3-3.5-5-3.5-2.7 0-1.3-3.3 3.1-7.7 2.5-2.4 4.5-4.8 4.5-5.3 0-.8 3.6-2.4 5-2.2.3 0 1-.4 1.7-1 .7-.5 2.5-.7 4-.4 1.9.4 3.8 0 5.8-1.4 1.7-1.1 4.1-2 5.5-2 3.6 0 6.6-2.4 7.3-5.8.3-1.6 2.5-5.9 4.8-9.6 3.4-5.3 4.8-6.6 6.8-6.6 1.4 0 3.2-.4 4-.9.9-.6 1.9-.4 2.8.5 1.1 1.1 1.8 1.1 3.3.2zm36.4 9.6c-4.6 4.2-6.2 5.2-8.3 4.8-2.5-.5-2.4-.6 1.4-2.3 2.2-1 5.8-3.6 8-5.9 2.2-2.2 4.1-3.6 4.3-3 .2.6-2.2 3.4-5.4 6.4zm-20.2 7.4c-5.8 5.2-6.2 5.5-6.2 3.8 0-2.7-2-2.8-3-.2-1.1 3-.8 2.9-4.8 1.5-3-1-3-1-1.4-3.9 1.7-2.9 6.1-4.8 8.1-3.6 1.3.8 4.5-6 3.7-7.9-.4-1 .2-1.9 1.7-2.4 2-.8 2.4-.4 3.9 4.3l1.7 5.1-3.7 3.3zm-22.2-4.3c-.7.8-1.6 1.5-2.1 1.5s-.6-.7-.3-1.5c.4-.8 1.3-1.5 2.1-1.5 1.3 0 1.3.3.3 1.5zm7.4 1.3c.2.4-.5 2.3-1.6 4-2 3.3-5.7 4.1-6.5 1.6-1-3 6.5-8.2 8.1-5.6zm27.3 4.9c-1.1 1.2-1.7 1.3-1.7.5 0-.7-.5-1-1.1-.6-.8.4-.7.9.2 1.5 1.1.7.8 1.4-1.3 3.6l-2.8 2.8v-3.2c0-3.7 5.5-9.2 7.4-7.3.7.7.5 1.5-.7 2.7zM645 676c0 .5-.4 1-1 1-.5 0-1-.5-1-1 0-.6.5-1 1-1 .6 0 1 .4 1 1zm-3 .4c0 .3-.5 1.7-1.2 3.3-.6 1.5-1 3.5-.9 4.4.1.8-1.2 3.3-2.9 5.5-5.7 7.1-10.9 8.1-10.6 2.1.1-2.7-.3-3.2-2.2-3.2-1.3 0-2.8-.9-3.4-1.9-.8-1.5-.7-1.7.8-1.2 5.7 1.6 7.7 1.8 10 .6 1.3-.8 2.4-1.9 2.4-2.6 0-1.8 4.9-7.4 6.6-7.4.8 0 1.4.2 1.4.4zm-94.4 9.9 1.3 3.6-6.6 2.2c-7.1 2.3-9.4 1.7-7.3-2 .6-1.2.9-3 .5-3.9-.3-1.1.3-2.7 1.4-3.9 1.8-1.9 2.3-2 5.7-.8 3 1 4.1 2.1 5 4.8zm102.6-3.6c-.4 2.7-6.7 10.3-8.5 10.3-.4 0-2.5 1.2-4.5 2.7-2.3 1.7-.5-.7 4.8-6.4 4.7-5 8.6-9.2 8.6-9.2.1-.1-.1 1.1-.4 2.6zm4.6-1.5c-.3.7-1.2 1.4-2.1 1.6-1.2.2-1.5-.1-1.1-1.2.7-1.9 3.8-2.2 3.2-.4zm-43.8.7c0 .5-.7 1.2-1.6 1.5-2.4.9-2.8.7-1.4-.9 1.4-1.7 3-2 3-.6zm2.3 5.8c-.9 1.6-3.1 4.1-4.8 5.6-3 2.8-3 2.8-3.3.6-.2-1.2.2-2.6 1-3 .7-.5.9-.9.5-.9-1.6 0 4.9-4.9 6.6-5 1.7 0 1.7.1 0 2.7zm41.7.1c0 2.2-3.5 5.7-4.8 4.8-.5-.3-1.5.1-2.2.9-1 1.2-.9 1.5.4 1.5 1.1 0 1.6.9 1.6 3 0 1.6.5 3 1 3 1.9 0 1 3.7-1.2 4.7-4.7 2.3-5.7 2.3-6 0-.2-1.6-.9-2.1-2.6-2-1.6.2-2.2-.2-2.2-1.7 0-2.6-1.2-2.6-2.8 0-1.3 2.1-4.2 2.8-4.2 1 0-.6.7-1 1.5-1 .7 0 1.8-.6 2.2-1.4 1.4-2.4 6.6-4.7 7.5-3.3.5.8.8.6.8-.6 0-2.1 7.7-10.7 9.6-10.7.8 0 1.4.8 1.4 1.8zM528.5 692c0 2.9-.4 3.5-2.2 3.5-2.5.1-6.3 3.2-6.3 5.1 0 .8-1.1 1.6-2.5 2-1.4.3-2.5 1-2.5 1.6 0 .5-.4.7-.9.4-1.4-.9-4.1.4-4.1 1.9 0 1.9-1.3 2.5-3 1.5-1.1-.7-1-1.3.5-3.7 1.1-1.5 1.9-3.6 2-4.5 0-1 .4-1.7.9-1.7s2.1-1.9 3.7-4.2c3.3-5 4.9-5.9 10.4-5.6 3.9.2 4 .3 4 3.7zm90.4-1.6c1.7 3 .9 4.3-2.6 4.4-4.2 0-4.5-.7-2.3-3.9 2.6-3.5 3.3-3.6 4.9-.5zm-85.9 4c0 .6-.7.2-1.5-.8-.8-1.1-1.5-2.5-1.5-3 0-.6.7-.2 1.5.8.8 1.1 1.5 2.5 1.5 3zm70-.5c0 1-.7 2.4-1.5 3.1-2 1.7-3.2-1.3-1.3-3.4 1.8-2.1 2.8-2 2.8.3zm54.4 1c-1 1-2.2 1.7-2.5 1.5-.4-.2-1 .3-1.3 1.2-.4 1-.2 1.3.6.8.7-.4.8-.3.4.4-1.2 2-3.3.2-2.8-2.3.3-1.7 1.2-2.5 3.1-2.8 1.4-.2 3-.5 3.5-.6.5 0 .1.7-1 1.8zm-65.4 1.2c-.7 1.1-1.4 1.8-1.7 1.5-.8-.8.5-3.6 1.7-3.6.7 0 .7.6 0 2.1zm20 .3c0 .3-.4.8-1 1.1-.5.3-1 .1-1-.4 0-.6.5-1.1 1-1.1.6 0 1 .2 1 .4zm47.9 1.9c.8 1 .6 2.4-.8 5.3-1.4 2.8-1.6 4.4-.9 5.7.5 1 .8 2 .6 2.1-3.6 2.7-5.9 3.6-9.3 3.5-2.6-.1-3.1-.3-1.5-.6 1.4-.2 3.9-1.5 5.5-2.9l3-2.5-3.2.5c-2.5.4-3.3.2-3.3-1 0-.8.7-1.7 1.5-2 .8-.4 1.5-1.4 1.5-2.4 0-1.9 3.6-7 5-7 .4 0 1.3.6 1.9 1.3zm-31.9.5c0 .5-1.1 1.4-2.5 2-2.4 1.1-2.5 1-1.5-.8 1-2 4-2.8 4-1.2zm-25 1.2c0 .5-.8 1-1.7 1-1.5 0-1.6-.2-.3-1 1.9-1.2 2-1.2 2 0zm27 2.1c-1.2 1.6-2.5 2.8-2.8 2.5-.5-.6 3.6-5.6 4.5-5.6.3 0-.5 1.4-1.7 3.1zm-37.7 1.4c-.5 1.3-2.3 2.2-2.3 1.1 0-1.5 1.4-3.5 2.1-3.1.4.3.6 1.2.2 2zm25.2-.6c.3.5.1 1.3-.5 1.6-1.5.9-4.3-.3-3.5-1.5.8-1.3 3.2-1.3 4-.1zm-133.7 2c2.4.2 1.2 1.8-2.7 3.5-2.8 1.3-4.3 1.5-5.7.8-1.1-.6-2.7-1.3-3.6-1.6-1-.3-1.8-1-1.8-1.5 0-1.5 4.2-1.9 13.8-1.2zM615 708c0 1.1-4 1.3-6.5.3-1.5-.5-1.4-.8.6-1.9 2.4-1.3 5.9-.3 5.9 1.6zm4-2c0 .5-.5 1-1.1 1-.5 0-.7-.5-.4-1 .3-.6.8-1 1.1-1 .2 0 .4.4.4 1zm8.4 1.5c-.8 2 1.8 2 5.8-.1 3.4-1.7 5.2-.8 4.6 2.2-.5 2.8-11.2 3.3-14 .7-1.8-1.6-1.8-1.8-.2-3 2.4-1.8 4.5-1.6 3.8.2zm-127.8.5c2.4 0 1.5 3.1-1.7 6.1-3.7 3.4-3.2 3.3-7.5 1.3-4-1.9-4.3-3.1-1-4 1.4-.3 3.2-1.5 4.2-2.5 1-1.1 2.4-1.7 3.2-1.4.7.3 2 .5 2.8.5zm61.3 4.1c1.5 4.5 1.4 11.8-.3 13.5-.8.7-1.6 1.8-1.8 2.4-.4 1.3-7.8 2.2-7.8.9 0-1.1 4.3-5.5 8-8.2 1.6-1.1 2.1-2 1.3-2.3-.7-.3-.9-1.2-.6-2 .3-.8.1-1.4-.5-1.4-.5 0-1.2.7-1.6 1.5-.8 2.2-3.7 1.9-3-.3 2.7-8.1 4.5-9.3 6.3-4.1zm82.1-1.7c0 .3-.4.8-1 1.1-.5.3-1 .1-1-.4 0-.6.5-1.1 1-1.1.6 0 1 .2 1 .4zm-50.5 2.6c-.3.5-1.3 1-2.1 1s-1.2-.5-.9-1c.3-.6 1.3-1 2.1-1s1.2.4.9 1zm75.4 1.1c3.4 1.2 4.2 2.9 1.4 2.9-2.7 0-8.9 4-7.5 4.9 1.5.9-4.3 9.1-6.4 9.1-1.9 0-5.4-3.6-5.4-5.5 0-2.9 5.2-9.5 7.4-9.5 1.2 0 3.1-.7 4.2-1.5 2.3-1.8 2.4-1.8 6.3-.4zM486.5 718c2.1 1.7 4.5 2.8 5.4 2.5.9-.2 2.2 0 3 .4 1.2.8 1.2 1.2.2 2.5-1.9 2.2-5.7 2-7.4-.4-.8-1.1-1.6-1.7-1.9-1.4-.8.8-4.9-4.7-4.2-5.7.7-1.2.7-1.3 4.9 2.1zm152.5 0c0 .5-.2 1-.4 1-.3 0-.8-.5-1.1-1-.3-.6-.1-1 .4-1 .6 0 1.1.4 1.1 1zm-84.1 4.6c-1.3 1.4-2.5 2-2.7 1.4-.7-2 .7-4 2.9-4h2.2l-2.4 2.6zm86.5.9c1.3 2 2 2.3 4 1.5 2.4-.9 3.9-.4 3 1.1-.2.4-1.1.6-1.9.2-.8-.3-1.5 0-1.5.6s.7 1.1 1.6 1.1c1.1 0 1.4.8 1.2 2.7-.2 1.8-.9 2.8-1.9 2.8-.9 0-2.3.6-3.1 1.2-1.1 1-1.9.9-3.5-.2-1.9-1.4-2.3-1.3-3.9.2-1 1-2.5 1.9-3.3 2-5.2.7-10.4 2.2-11 3.1-1 1.6-6.1 2.6-6.1 1.2 0-2.6 3.5-6.8 6.8-8.1 1.9-.8 4.6-2.9 6-4.7 2.7-3.6 7-6.2 9-5.5.6.3 1.2 0 1.2-.6 0-1.9 1.7-1.2 3.4 1.4zm25.6 4.2c0 1.8-1.8 1.6-3.7-.2-1.2-1.3-1.3-1.9-.3-3 1.1-1.3 1.4-1.3 2.6.2.7 1 1.4 2.4 1.4 3zm.7 2.9c-.3.3-1.2.4-1.9.1-.8-.3-.5-.6.6-.6 1.1-.1 1.7.2 1.3.5zm-169.4 12.1c-1.6.6-1.7 2.4-.2 2 .6-.1 1.3.3 1.6 1 .5 1.3-6.4 1.2-8.5-.1-2.3-1.4.7-3.6 4.7-3.5 2 0 3 .3 2.4.6zm10.4 1.8c4.8 2.8 5.3 4.4 2.3 6.3-2.1 1.3-4.9.5-7.8-2.4-1.2-1.2-.7-6.4.6-6.4.3 0 2.5 1.1 4.9 2.5zm73.9 11.1c1.8 1.2 2.3 2.2 1.8 3.7-.6 2-.6 2 1 .4 1-.9 1.4-2.1 1.1-2.7-.3-.5-.1-1 .5-1 .8 0 1 .9.5 2.7-1.3 5.3-5.6 5.8-10.3 1.2-1.8-1.7-3.2-3.8-3.2-4.5 0-2 5.5-1.8 8.6.2zm-27.7.3c.7.5 1.2 1.4.9 2.1-.2.7-1 .4-2.2-.9-1.9-2.1-1.2-2.8 1.3-1.2zm-33.9 3.6c-.7.9-1.5 1.3-1.8 1-.3-.2.1-1.1.8-2 .7-.9 1.5-1.3 1.8-1 .3.2-.1 1.1-.8 2zm38.7 2.7c-.7.4.1.8 1.7.8 2.6 0 14.3 3.5 15.6 4.7.2.2-.2.8-1 1.4-1.2.7-1.1 1 .7 1.5 2.1.6 2.1.7.7 4.7-.8 2.3-2.2 5.2-3 6.5-1.9 2.8-.7 4.5 2.6 4 1.8-.2 3-1.9 5.4-7.4 3.7-8.5 6.8-13 8.4-12 .7.4 1.2 1.8 1.2 3.1s.5 2.7 1 3c.6.3 1 1.1 1 1.6 0 1.2-10.1 10.9-11.5 10.9-.5 0-3.2 2-6 4.5-7.4 6.6-11.6 9.3-15.6 10-3.7.7-3.7.7-4-3.2-.5-4.8 0-7.5 1.2-6.8.5.4.9.1.9-.4 0-.6-.5-1.1-1.1-1.1-.5 0-.7-.5-.4-1 1.1-1.8-2.1-1.1-6.9 1.5-5.6 3-5.6 3-5.6.8 0-.9-.7-2.5-1.6-3.4-1.5-1.7-1.5-2.1.1-5.5l1.7-3.6 5.2.6c2.8.4 6.7.9 8.6 1.2 2.2.3 5.4-.3 8.5-1.5 3.9-1.5 4.4-2 2.5-2.1-1.5 0-3.1.5-3.6 1-.6.6-2.8 1.1-5 1.3-3.4.2-3.9-.1-4.2-2.1-.2-1.5.2-2.2 1.2-2.2 2 0 2-2.3 0-7.7-.9-2.3-1.4-5-1-5.9.6-1.6.8-1.5 2 .2 1.1 1.4 1.1 2.1.3 2.6zm-58.9 1.1c2.6.9 3.2 1.6 3.2 3.9 0 2.6-.2 2.8-2.1 1.7-1.7-.8-2-.8-1.4.1.9 1.4-1.8.8-7.7-1.7-3.4-1.4-3.6-1.7-2.5-4 1.1-2.6 3.1-2.6 10.5 0zm-6.8 6.8c0 .4-.9.9-2 1.2-1.1.3-2 1.1-2 1.9 0 .9.2 1 .8.1 1.6-2.5 11.2-2.9 11.2-.4 0 1.3-8.2 7.2-9.4 6.8-.6-.2-1.4-1.4-1.8-2.8-.6-2-.7-1.9-.4.9.4 4.3-1.6 5.9-4.3 3.6-1.5-1.3-1.8-2.2-1-3.6.7-1.3.5-2.7-.8-4.9-1.8-3-1.8-3.1.5-4.9 2.2-1.8 2.5-1.8 5.8-.3 1.9.9 3.4 2 3.4 2.4zm103 7.7c0 .5-1.2 1.4-2.7 2.1-2.8 1.3-2.8 1.3-.9-.8 2-2.2 3.6-2.7 3.6-1.3zM582 790c0 .5-.5 1-1.1 1-.5 0-.7-.5-.4-1 .3-.6.8-1 1.1-1 .2 0 .4.4.4 1zm-118.2 56.6c1.2.8 2.2 1.9 2.2 2.3 0 .9-15 .3-16-.6-.3-.3.6-1.3 1.9-2.4 2.6-2.2 7.8-1.8 11.9.7zm4.7 15.5c-1.2 4.7-7.5 9.9-11.9 9.9-3.3 0-3.3-1-.1-4 4-3.7 2.9-4.4-2.5-1.4-4.1 2.3-5.2 2.5-6.5 1.4-1.1-.9-1.3-1.6-.5-2.4 1.3-1.3 1.3-2.9 0-2.1-.5.3-1-.3-1-1.4 0-1.6.6-2.1 2.6-2.1 2.4 0 2.5.2 1.3 1.7-1.3 1.7-1.2 1.7.6.1 1.2-.9 4.8-1.9 9-2.3 3.8-.3 7.2-.8 7.4-1.1 1.1-1 2.2 1.5 1.6 3.7z"/><path d="M679.7 633c.3 1.1.9 1.7 1.4 1.5 1-.7.1-3.5-1.1-3.5-.5 0-.6.9-.3 2zM662 673.1c0 .5.5.7 1 .4.6-.3 1-.8 1-1.1 0-.2-.4-.4-1-.4-.5 0-1 .5-1 1.1zM618.7 661.7c-.4.3-.7 1.1-.7 1.7 0 .6.5.5 1.2-.2.6-.6.9-1.4.7-1.7-.3-.3-.9-.2-1.2.2zM606 671c-.8.5-1.2 1.2-.9 1.5.4.3 1.2-.1 1.9-1 1.4-1.7 1.1-1.9-1-.5zM558 713.1c0 .5.5.7 1 .4.6-.3 1-.8 1-1.1 0-.2-.4-.4-1-.4-.5 0-1 .5-1 1.1zM632 728.2c-1 1.9-1 2.1.1 1.1 1-1 1.6-.9 3.1.4 1 .9 1.8 1.2 1.8.6 0-.5-.9-1.8-1.9-2.7-1.9-1.7-2-1.7-3.1.6zM574 774.7c0 .4.5 1.5 1 2.3.8 1.3 1 1.3 1-.2 0-.9-.4-2-1-2.3-.5-.3-1-.3-1 .2zM563.5 795c-.3.5-.2 1 .4 1 .5 0 1.3-.5 1.6-1 .3-.6.2-1-.4-1-.5 0-1.3.4-1.6 1zM674 499.1c0 .5.5.7 1 .4.6-.3 1-.8 1-1.1 0-.2-.4-.4-1-.4-.5 0-1 .5-1 1.1zM607.6 502.9c-.4.5-.2 1.2.3 1.5.5.4 1.2.2 1.5-.3.4-.5.2-1.2-.3-1.5-.5-.4-1.2-.2-1.5.3zM615 511.5c-4.2 1.5-4.6 2.6-2.9 7.7 1.6 4.9 4.2 6.8 9.4 6.8 10.3 0 11.6-12.2 1.7-15-2-.5-3.9-.9-4.2-.9-.3.1-2.1.7-4 1.4zM721.3 512.5c-.3.9-.3 1.9.1 2.2.8.9 3.7-1.8 3-2.8-.8-1.4-2.4-1.1-3.1.6zM553 514.3c0 .7 2 2.3 4.5 3.5 2.5 1.2 4.8 2.9 5.2 3.8.3.8-.6 4.5-2 8.2-4 10.3-4.1 12.5-.3 4.7 2-3.9 3.5-8.5 3.6-10.3 0-3.3-2.9-7.2-5.4-7.2-.7 0-1.6-.9-1.9-2-.6-2.2-3.7-2.8-3.7-.7zM671.6 537.8c-.3.5.1.9.9.9s1.5-.4 1.5-.9c0-.4-.4-.8-.9-.8-.6 0-1.2.4-1.5.8zM658 541c0 .5.5 1 1 1 .6 0 1-.5 1-1 0-.6-.4-1-1-1-.5 0-1 .4-1 1zM681 545.5c.7.9 1.5 1.3 1.7 1.1.7-.7-.7-2.6-1.9-2.6-.6 0-.6.6.2 1.5zM652.2 549.4c.7.8 1.5 1.2 1.7 1.1.5-.6-1-2.5-2-2.5-.5 0-.4.6.3 1.4zM695.5 551c-2.7 3-1.2 3.4 1.5.5 1.3-1.4 1.9-2.5 1.3-2.5-.5 0-1.8.9-2.8 2zM686.4 557c.3 1.4.6 2.8.6 3.2 0 .5.5.8 1 .8 1.5 0 1.2-2.2-.7-4.5-1.5-2-1.5-1.9-.9.5zM662.7 557.7c-.4.3-.7 1.3-.7 2.1 0 1.2.3 1.2 1.5.2.8-.7 1.5-1.6 1.5-2.1 0-1.1-1.4-1.2-2.3-.2zM453.2 559.6c-3.1 2.2-5.3 7.9-5.4 14.4-.1 7.7 3.5 14.4 11.3 21.2 3.3 2.9 6.9 7 8 9 2.2 4.2 2.5 11 .7 13-3.1 3.2-5.8 7.9-5.8 9.7 0 5.1 6.6 6.7 10.4 2.6 4.5-4.8 5.4-23.3 1.6-30.5-.6-1.1-.8-2.6-.4-3.3 1.6-2.6 5.9-7.7 6.6-7.7.3 0 1.3 1.2 2 2.7.8 1.6 1.9 3.7 2.6 4.8.6 1.1 2 4.2 3.1 6.8 2.4 5.6 5.2 6.2 6.2 1.2.7-4.2-.4-7.6-3.7-11.2-4.1-4.3-8.4-10.7-12-17.7-3.5-6.8-7.9-11.3-13.9-14.5-4.7-2.5-8.2-2.7-11.3-.5zM600 561c0 .5.5 1 1.1 1 .5 0 .7-.5.4-1-.3-.6-.8-1-1.1-1-.2 0-.4.4-.4 1zM718.2 567.2c-1.9 1.9-1.4 3 .8 1.8 1.1-.6 2-1.5 2-2 0-1.4-1.4-1.2-2.8.2zM569.3 571c-.6 1.5-.7 3.4-.2 4.1.6 1.1.9 1 1.5-.4.3-1 .4-2.1 0-2.4-.3-.3-.1-1.2.5-1.9.5-.7.6-1.5.1-1.7-.4-.3-1.3.7-1.9 2.3zM696 574c0 .5.5 1 1 1 .6 0 1-.5 1-1 0-.6-.4-1-1-1-.5 0-1 .4-1 1zM642.5 575c-.3.5-.1 1 .4 1 .6 0 1.1-.5 1.1-1 0-.6-.2-1-.4-1-.3 0-.8.4-1.1 1zM645.5 576c-.3.5-.1 1 .4 1 .6 0 1.1-.5 1.1-1 0-.6-.2-1-.4-1-.3 0-.8.4-1.1 1zM638.8 577.2c-.7 1.6.7 4.5 1.4 3.2.3-.5.2-1.8-.2-2.8-.5-1.6-.8-1.7-1.2-.4zM668.3 581.5c0 3.3.2 4.5.4 2.7.2-1.8.2-4.5 0-6s-.4 0-.4 3.3zM584 582.4c0 .8.7 1.7 1.6 2 .9.3 1.4 1.1 1.2 1.8-.4 1.1 2.1 4.2 5.7 6.8 1.9 1.3 1.9 1.3-.1-1-1.2-1.4-3.2-4.4-4.4-6.8-2.4-4.2-4-5.4-4-2.8zM691.7 585.7c-.4.3-.7 1.1-.7 1.7 0 .6.5.5 1.2-.2.6-.6.9-1.4.7-1.7-.3-.3-.9-.2-1.2.2zM307.8 587.6c-6.8 2.4-10.3 5.1-13 10-2.3 4.1-2.8 6.1-2.8 12.4 0 4.2.4 8 1 8.6.5.5 1.5 2.5 2.2 4.4 1.9 5.1 7 12.8 8.8 13.4.8.2 3.5 1.2 6 2.2 2.9 1.1 9.3 2 17.9 2.5 12.8.7 13.7.9 20.7 4.5 6.6 3.4 7.6 3.6 9.8 2.4 6-3.2 5.6-11.2-.7-12.4-3.7-.7-5.7-3.6-5.7-8.5 0-5.7-4.5-18.7-8.1-23.1-7.2-9-11.1-12.9-14.7-14.6-4.8-2.3-17.1-3.3-21.4-1.8zM583.2 588.5c-1.5 3.2-1.5 3.5.1 3.5.6 0 1.2-1.3 1.3-3 .1-3.6 0-3.7-1.4-.5zM608 588.4c0 .8.5 1.8 1 2.1.6.3 1-.1 1-.9s-.4-1.8-1-2.1c-.5-.3-1 .1-1 .9zM644 588.5c.6.8.9 1.9.5 2.5-.3.6.3 1 1.4 1 2.6 0 2.6-.2.2-2.8-2-2.4-4.1-3.1-2.1-.7zM822.5 592c-.8 1.3.4 3.2 1.6 2.5 1.2-.8 1.2-3.5 0-3.5-.6 0-1.3.4-1.6 1zM602 592.9c0 .6.5 1.3 1 1.6.6.3 1-.1 1-.9 0-.9-.4-1.6-1-1.6-.5 0-1 .4-1 .9zM668.1 593.6c0 1.1.3 1.4.6.6.3-.7.2-1.6-.1-1.9-.3-.4-.6.2-.5 1.3zM578 597.5c0 .8.6 1.5 1.4 1.5 2.2 0 2.8-1.7 1-2.4-2.2-.9-2.4-.8-2.4.9zM599 596.7c0 .6 1.1 1.8 2.5 2.7 2.3 1.5 2.5 1.5 2.5 0 0-1-.3-1.4-.7-1.1-.3.4-1.5 0-2.5-1-1-.9-1.8-1.1-1.8-.6zM639 598c-.9 1.6-.8 1.8.5 1.4.8-.4 1.5-1.2 1.5-2 0-2-.7-1.7-2 .6zM610.7 598.4c-.3.8-.2 1.8.3 2.1 1.3.8 2.4-1.5 1.2-2.7-.6-.6-1.1-.4-1.5.6zM667.6 600.1c-.3 1.7-.5 4.3-.5 5.8.1 1.4.5.2 1-2.8 1-5.8.6-8.3-.5-3zM673.7 601.7c-2.7 8.5-2.8 9.9-.3 4.6 3.2-6.8 3.9-9.3 2.8-9.3-.5 0-1.6 2.1-2.5 4.7z"/><path d="M479 599.1c0 .5.5.7 1 .4.6-.3 1-.8 1-1.1 0-.2-.4-.4-1-.4-.5 0-1 .5-1 1.1zM405 603.1c0 .5.5.7 1 .4.6-.3 1-.8 1-1.1 0-.2-.4-.4-1-.4-.5 0-1 .5-1 1.1zM483 605.1c0 .5.5.7 1 .4.6-.3 1-.8 1-1.1 0-.2-.4-.4-1-.4-.5 0-1 .5-1 1.1zM525 606c0 .5.5 1 1 1 .6 0 1-.5 1-1 0-.6-.4-1-1-1-.5 0-1 .4-1 1zM731.5 615c-.3.5.1 1 .9 1 .9 0 1.6-.5 1.6-1 0-.6-.4-1-.9-1-.6 0-1.3.4-1.6 1zM542 617.5c-1.3 1.4-1.9 2.5-1.4 2.5.8-.1 5-5 4.1-5-.2 0-1.4 1.1-2.7 2.5zM585 617c0 .5.5 1 1 1 .6 0 1-.5 1-1 0-.6-.4-1-1-1-.5 0-1 .4-1 1zM628 616.8c0 .5.9 1.2 2.1 1.5 1.3.3 1.9.1 1.6-.6-.5-1.5-3.7-2.2-3.7-.9zM644 621.1c0 .5.5.7 1 .4.6-.3 1-.8 1-1.1 0-.2-.4-.4-1-.4-.5 0-1 .5-1 1.1zM626 623c0 .5.5 1 1 1 .6 0 1-.5 1-1 0-.6-.4-1-1-1-.5 0-1 .4-1 1zM639.5 623c.3.5 1.1 1 1.6 1 .6 0 .7-.5.4-1-.3-.6-1.1-1-1.6-1-.6 0-.7.4-.4 1zM534 626.1c0 .5.5.7 1 .4.6-.3 1-.8 1-1.1 0-.2-.4-.4-1-.4-.5 0-1 .5-1 1.1zM771.5 628.1c-.4.6-.5 1.3-.2 1.6.7.7 2.7-.6 2.7-1.8 0-1.2-1.7-1.2-2.5.2zM814 630c0 .5.9 1 2.1 1 1.1 0 1.7-.5 1.4-1-.3-.6-1.3-1-2.1-1s-1.4.4-1.4 1zM912 633c0 1.9.3 2.1 1.2 1.2.9-.9.9-1.5 0-2.4-.9-.9-1.2-.7-1.2 1.2zM384 654.1c0 .6.6.9 1.4.6.8-.3 3.6 1.8 6.8 5.3 5.9 6.2 10.5 9.7 11.5 8.6.8-.7-3.5-4.6-5.1-4.6-.7 0-3.6-2.5-6.6-5.5-5.2-5.2-8-6.8-8-4.4zM528.1 655.6c0 1.1.3 1.4.6.6.3-.7.2-1.6-.1-1.9-.3-.4-.6.2-.5 1.3zM458.6 659.3c.3 1 .9 1.5 1.2 1.2.3-.3 0-1.1-.7-1.8-1-.9-1.1-.8-.5.6zM526.3 662.2c-1.5 1.9-2.3 8.7-1.2 9.3.5.4.9 1.9.9 3.5s.3 3.1.8 3.4c.4.2.3-2.7-.2-6.6-.7-5.1-.7-7.4.2-8.9 1.4-2.1 1-2.6-.5-.7zM691.7 664.7c-.4.3-.7 1.1-.7 1.7 0 .6.5.5 1.2-.2.6-.6.9-1.4.7-1.7-.3-.3-.9-.2-1.2.2zM535.6 667.2c-1.3 1.8-1.8 1.9-3.1.8-2.8-2.3-1.5-.1 1.8 3 3.7 3.5 7 3.6 7.5.3.4-2.8-1.4-6.3-3.3-6.3-.8 0-2.1 1-2.9 2.2zM682 666.9c0 1.2.6 2.1 1.5 2.1.8 0 1.5-.4 1.5-.9s-.7-1.4-1.5-2.1c-1.3-1-1.5-.9-1.5.9zM785 667c0 .5.5 1 1 1 .6 0 1-.5 1-1 0-.6-.4-1-1-1-.5 0-1 .4-1 1zM550 669c0 .5.5 1 1 1 .6 0 1-.5 1-1 0-.6-.4-1-1-1-.5 0-1 .4-1 1zM796 669.1c0 .5.5.7 1 .4.6-.3 1-.8 1-1.1 0-.2-.4-.4-1-.4-.5 0-1 .5-1 1.1zM813.8 669.7c-4.3 4.9-4.8 14.3-.8 14.3 2.5 0 5-5.7 5-11.6 0-4.8-1.5-5.7-4.2-2.7zM789 670c0 .5.5 1 1.1 1 .5 0 .7-.5.4-1-.3-.6-.8-1-1.1-1-.2 0-.4.4-.4 1zM735.3 675c1.1 2.8 4.2 4.9 5.4 3.6.4-.3-.1-.6-1-.6s-2.3-1.4-3.2-3c-2-3.9-2.7-3.9-1.2 0zM679 682c0 .5.5 1 1 1 .6 0 1-.5 1-1 0-.6-.4-1-1-1-.5 0-1 .4-1 1zM756.3 683.2c-2.5 1.2-2.9 2.3-1.3 3.3.6.3 1 .1 1-.6 0-.6.8-1.8 1.8-2.5 2-1.6 1.5-1.7-1.5-.2zM386.5 685c.3.5.8 1 1.1 1 .2 0 .4-.5.4-1 0-.6-.5-1-1.1-1-.5 0-.7.4-.4 1zM334.1 688.3c-.8 1.1-.2 2.1 2.7 4.4 2.4 2 6 7 10.1 14.4 3.4 6.3 7.4 12.7 8.8 14.4 2.6 3 2.6 3 .9.2-4.5-7.4-7.6-12.9-11.5-20.7-4.8-9.3-7.8-14-9-14-.5 0-1.4.6-2 1.3zM1013 692.6c0 .8.5 1.2 1 .9.6-.3 1-1 1-1.6 0-.5-.4-.9-1-.9-.5 0-1 .7-1 1.6zM686.2 693.6c-2.2 1.5-3 4.4-1.3 4.4 1 0 4.5-5 3.9-5.6-.2-.2-1.4.3-2.6 1.2zM746.5 700c-1.6 1.6-2.7 3.1-2.4 3.3.2.2 1.7-1.1 3.2-3 3.6-4.1 3.1-4.3-.8-.3zM725.3 707.3c-4.6 4.6-4.3 5.7 1.7 5.7 2.8 0 5 .2 5 .5s-.9 1.5-2 2.7c-1.1 1.2-2 3.4-2 5 0 2.6.3 2.8 4 2.8 3.1 0 3.8-.3 3.4-1.5-.5-1.3-2.4-2-4.6-1.6-1.9.3-.6-3.3 2.1-6l2.9-2.9h-5.9c-6.4 0-7.2-.8-3.6-3.7 1.3-1 2.6-2.4 3.1-3.1 1.4-2.3-.9-1.1-4.1 2.1zM683 707c0 .5.5 1 1 1 .6 0 1-.5 1-1 0-.6-.4-1-1-1-.5 0-1 .4-1 1zM769 719.3c2.7 2.8 3.7 3 9 2.7l3.5-.2-2.8-.8c-1.6-.5-3.5-.6-4.3-.3-.8.3-2.2-.1-3.2-.9-3.2-2.8-4.7-3.1-2.2-.5zM818.3 726c-1.1 1.6-1 1.8.1 1.4 1.5-.6 3-3.4 1.8-3.4-.4 0-1.3.9-1.9 2zM301.6 726.9c-.4.5-.2 1.2.3 1.5.5.4 1.2.2 1.5-.3.4-.5.2-1.2-.3-1.5-.5-.4-1.2-.2-1.5.3zM780 753c0 .5.7 1 1.5 1s1.5-.5 1.5-1c0-.6-.7-1-1.5-1s-1.5.4-1.5 1zM784 754c0 .5.5 1 1.1 1 .5 0 .7-.5.4-1-.3-.6-.8-1-1.1-1-.2 0-.4.4-.4 1zM437.3 759.2c-1.6 2.6-1.1 4.3 1.4 5.5 2.8 1.4 11 1.7 13.7.7 2.2-.8 1-2.4-1.8-2.4-1.2 0-3.3-1.1-4.6-2.5-2.5-2.7-7.3-3.4-8.7-1.3zM473.8 762.2c.9.9 1.5.9 2.4 0 .9-.9.7-1.2-1.2-1.2s-2.1.3-1.2 1.2zM614 770c0 .5.5 1 1.1 1 .5 0 .7-.5.4-1-.3-.6-.8-1-1.1-1-.2 0-.4.4-.4 1zM704.8 780.7c-1.8 1.5-3.5 2.8-3.7 3-.2.2-.2.5 0 .7.2.2 2.2-1.1 4.3-3 4.7-4 4.2-4.6-.6-.7zM610.1 781.4c-.9 1-.8 1.6.4 2.6.8.7 1.5 1.9 1.5 2.7 0 .8.5 1.1 1 .8.8-.5.8-1.1.1-1.9-.6-.7-.8-2.2-.4-3.4.6-2.5-.8-2.9-2.6-.8zM627.5 786c-.3.5-.1 1 .4 1 .6 0 1.1-.5 1.1-1 0-.6-.2-1-.4-1-.3 0-.8.4-1.1 1zM695 793.9c0 1.5 6.3 3.7 6.7 2.4.3-.7 1.1-.9 2-.6 1.1.4 1.4.2.9-.5-.4-.7-1.9-.9-3.6-.5-1.9.3-3 .1-3-.6 0-.6-.7-1.1-1.5-1.1s-1.5.4-1.5.9zM493.9 798.7c-1.3 1.6-1.2 1.7.4.4 1.6-1.3 2.1-2.1 1.3-2.1-.2 0-1 .8-1.7 1.7zM779.2 799.2c.5 1.5 2.8 1.8 2.9.3 0-.6-.7-1.2-1.7-1.3-1-.3-1.5.1-1.2 1zM610 806.1c0 .5.5.7 1 .4.6-.3 1-.8 1-1.1 0-.2-.4-.4-1-.4-.5 0-1 .5-1 1.1zM685.2 821c0 1.9.2 2.7.5 1.7.2-.9.2-2.5 0-3.5-.3-.9-.5-.1-.5 1.8zM471 819.9c0 .5.5 1.3 1 1.6.6.3 1 .2 1-.4 0-.5-.4-1.3-1-1.6-.5-.3-1-.2-1 .4zM591 822.9c0 .6.5 1.3 1 1.6.6.3 1-.1 1-.9 0-.9-.4-1.6-1-1.6-.5 0-1 .4-1 .9zM674 823c0 .5.5 1 1.1 1 .5 0 .7-.5.4-1-.3-.6-.8-1-1.1-1-.2 0-.4.4-.4 1zM437.3 828.6c.6 1.7 2 4.1 2.9 5.5 1.7 2.4 1.7 2.4 1.7.2.1-2.9-.9-5.3-2.1-5.3-.6 0-1.7-.8-2.4-1.8-1.2-1.4-1.2-1.2-.1 1.4zM323.2 829.2c.6 1.8 2.5 2 3.1.3.5-1 0-1.5-1.4-1.5-1.2 0-1.9.5-1.7 1.2zM682.1 832.1c-2.9 7.5-3.1 7.8-6.7 7.2-3.1-.5-3.5-.2-6.3 4.3-3.7 6.1-3.4 5.7-10.1 13-4.2 4.6-6 7.6-7.5 12.4-1.9 5.9-2.3 6.4-6.5 8.3-5.1 2.3-15.2 11.5-21.6 19.9-6.2 8-7.5 16.5-3.5 22.8 1.8 2.6 2.2.4.6-3.3-.9-2.2-1.2-4.8-.8-6.9.8-4.1 10.1-16 15.1-19.3 2-1.4 4.8-3.3 6.2-4.3 7.6-5.6 12-8.1 15.3-8.7 4.9-1 6.4-2.8 4.8-6.2-1-2.2-.9-3.1 1.2-6.2 1.4-2 3.3-5.8 4.2-8.4 1.4-3.8 3.3-6.1 8.7-10.5 5.5-4.5 6.8-6.1 6.8-8.5 0-1.5.5-3.7 1.1-4.8.6-1.1.9-2.5.7-3.1-.2-.6-1 .4-1.7 2.3zM659 863.9c-1.5 2.8-3.3 2.7-2.4-.2.3-1.2 1.2-2.8 1.8-3.6.9-1.2 1.1-1.2 1.4.2.2.9-.2 2.5-.8 3.6zM600 832c0 .5.4 1 .9 1 .6 0 1.3-.5 1.6-1 .3-.6-.1-1-.9-1-.9 0-1.6.4-1.6 1zM363.2 842.2c.4 2.9 3.4 3.5 5.9 1.2 2.9-2.6 2.3-3.4-2.2-3.4-3.6 0-4 .2-3.7 2.2zM278.3 847.7c-1.3.2-3.1 1.5-4.2 2.9-1 1.3-2.4 2.4-3 2.4-2.1 0-3.3 3.9-2.1 7.4 1.8 5.6-.4 17-4.8 24.6-1.5 2.4-6.4 8.2-11 12.9-8.1 8-11.2 12.8-11.2 16.9 0 2.6 2.5 4.5 4.9 3.7 2.5-.8 15.6-13.7 17.4-17.3.7-1.5 3-5.9 5-9.7 4.7-9.2 6.1-16.9 4.9-26-.9-6.4-.8-7.2 1.2-9.7 1.1-1.5 3.1-4.1 4.4-5.8 1.3-1.6 2-2.9 1.5-2.9-.4.1-1.8.4-3 .6zM750.7 847.7c-.4.3-.7 1.2-.7 2 0 1.5 2.6 1.8 3.4.4.7-1.1-1.8-3.3-2.7-2.4zM915.5 851c.3.5.8 1 1.1 1 .2 0 .4-.5.4-1 0-.6-.5-1-1.1-1-.5 0-.7.4-.4 1zM977.2 867.1c.2.6.8 1 1.3 1s1.1-.4 1.3-1c.2-.6-.4-1.1-1.3-1.1s-1.5.5-1.3 1.1zM552.3 930.5c-3.2 2.2-5.5 10.5-4.4 15.6.9 4 5.1 8.8 7.7 8.9 2.9.1 9.4-9 9.4-13.1 0-2.9-3-10.4-4.7-11.7-2.2-1.6-5.4-1.5-8 .3zM259 951c0 .5.7 1 1.5 1s1.5-.5 1.5-1c0-.6-.7-1-1.5-1s-1.5.4-1.5 1z"/></svg>