<svg xmlns="http://www.w3.org/2000/svg" width="1342.667" height="1706.667" version="1.0" viewBox="0 0 1007 1280"><path d="M576 1.5c-1.5 1.8-1.1 5.6 2 20 1.9 8.7 2.1 12.2 1.7 27-.4 13-1 18.9-2.6 25-5 18.6-13.8 28.5-18.7 21-1.8-2.7-5.1-3.3-7.6-1.3-.9.7-3.7 4.6-6.3 8.7-8.9 14.1-20.8 22.5-35.2 25.1-10.1 1.8-13.9.5-20.4-7-5.4-6.3-7.7-7.2-12.2-4.9-7 3.6-10 9.5-13.7 26.9-2.7 12.7-4.3 16.1-12 24.5-7.2 8.1-9.4 13.5-12.6 31.5-3 16.8-5.6 25.5-10.2 34.4-4.6 8.7-9.3 13.6-13.1 13.6-1.6 0-3.4-.6-4-1.3-2.5-3.1-4.3-11-5.2-24.2-.6-7.7-1.6-15.1-2.3-16.5-.7-1.6-2.8-3-6.1-4.2-8.4-2.9-13.3-10.4-15-22.8-1.6-11 4.1-32.4 14.7-55.8 5.1-11 6-13.8 5.5-16.8-.7-3.9.2-6.2 3.9-10.7 3.1-3.7 3.1-7.2-.1-9.3-2.1-1.4-3-1.4-5.5-.4-4.8 2-7.6 8-10 21.4-3.7 20.9-10.8 35.2-21.6 43.4-4.1 3.2-6.2 5.7-7.7 9.3-1.7 4.1-2.5 4.9-4.7 4.9-2.9 0-9.8 3.5-11.7 5.9-5.5 6.9-14.8 32.7-17.4 48.5l-1.3 7.8-6.8 4.5c-4.7 3.1-7 5.3-7.5 7.1-.3 1.5.1 6.7.9 11.7 2 11.8 1.7 39.1-.6 49-3.3 14.2-8.8 24.6-15.4 29-7.9 5.2-20.4 5.4-27.3.4-3.6-2.6-8.4-10.5-8.1-13.6.1-1.4-.4-2.3-1.2-2.3-.8 0-2.4-1.6-3.6-3.5-4.7-7.6-12.1-11-13.9-6.3-.7 2-.4 4.5 1.4 10.5.4 1.2 0 5.1-1 8.8-3 12-.8 14.7 19.8 25.2 14.1 7.2 22.9 14.3 24.3 19.7.8 3.5-.5 6-3.5 6.4-1.6.3-2.1 1-2.1 3.2 0 1.9-.7 3.3-2.1 4-1.2.7-1.8 1.8-1.5 2.6.3.8 0 2.5-.6 3.9-.8 1.9-.8 3.8 0 7.3 1.2 5.4.5 6.7-6.1 10.9-5.8 3.7-3.7 3.9 2.7.3 3.1-1.7 6-2.9 6.5-2.6 1.7 1.1 2 6.7.6 10.4-2.8 7.3-6.6 27.3-7.2 38.2-.4 6.9-1 11-1.7 11-2.6 0-23 9.1-30.5 13.6-18.1 10.7-28.7 25.9-24.1 34.5.9 1.6.7 1.9-1.4 1.9-5.8 0-11.5 8.6-10.2 15.4.9 4.9 3.6 6.8 9.4 6.8 14-.2 20.5-9.2 13-17.9-1.8-2.1-2.5-3.2-1.6-2.5 3.9 3.1 7.4-1.2 4.7-5.7-1.5-2.3 1.4-12.1 4.8-16.1 1.3-1.5 2.3-3.3 2.3-3.9 0-2.1 8.2-10 14.4-13.9 5.6-3.6 18.1-9.2 20.4-9.2.5 0 1.2 2.4 1.6 5.4.5 4.5 4 19.4 7.2 30.2.4 1.7 0 2.3-2.3 3.1-6.5 2.3-12.4 9.7-13.8 17.3-.9 5.3 2.8 11.8 8.5 14.8 4 2.1 5.4 2.3 12.4 1.8 4.3-.3 8.4-1 9.2-1.6 1-.9 1.6-.4 2.9 1.9 1.3 2.7 1.4 3.2.1 3.7-3.2 1.2-9.6 8.1-9 9.7.3.9-.1 2.9-.9 4.5-1.2 2.4-1.2 3.2-.1 4.7 1.2 1.6 1.1 2.1-.3 3.7-1.3 1.4-1.3 1.8-.2 1.8 1.5 0 4.5 3.9 4.1 5.4-.2.5.3 1.3 1 1.8 1 .7.9 1.1-.4 1.9-2.6 1.5-2.2 2.9.7 2.9 1.4 0 2.5.5 2.5 1 0 .7.6.7 1.9.1 2.6-1.5 9.1-.2 9.1 1.7 0 1.3.2 1.2 1.4-.3.8-1.2 2-1.6 3.5-1.2 1.1.3 3.7 0 5.7-.6 3.2-1 3.8-.9 5.1.8 1.3 1.9 1.4 1.8.8-.8-.4-1.5-.5-2.7-.2-2.7s3.1 3.2 6.1 7.1c5.5 6.9 6.9 11.1 4.4 12.3-.9.4-.9.8-.2 1.1.7.4.6 2.4-.4 6.6-1.9 7.7-.8 11.6 5.3 18.8 2.5 2.9 4.5 5 4.5 4.7 0-.4 1.1.1 2.4 1 1.6 1 2.6 2.7 2.8 4.7.2 2.5.9 3.3 3.4 4 3 .9 3.2 1.3 3.8 6.6 1.6 13.9 1.8 17.1 1 17.1-1.9 0-16.4-8.5-28.4-16.5-21.4-14.2-34.4-27.4-33.8-34 .3-2.6.9-3.2 5.3-4.6 2.7-1 5.1-2.2 5.3-2.9 1.8-5.4-12.8-15.1-36-23.8-11.6-4.4-14.6-6-19.6-10.6-5.3-4.9-7.6-10.1-7.5-17.2.1-5.2.5-6.5 2.7-8.7 4.5-4.5 2.8-9.5-3.6-11.1-2-.4-3.4 0-5.7 1.9-3.8 3.3-4.7 6-2.7 9 1.3 2 1.3 2.5.1 3.5-3.9 3.2-1.2 9.2 9.5 21.9l7.9 9.3-2.8 2.4c-5.4 4.5-4 13 2.5 15.4 2.1.8 2.2 1.3 1.4 3.5-1.6 4.3-1.1 9.7 1.4 15.1 1.8 4 2.1 5.5 1.3 6.4-.9 1-.8 1.2.4.7 1.1-.3 3.4 1.7 7.6 6.7 6.9 8.3 22.6 22.8 32.5 30.1 6.3 4.6 6.5 5 4.5 6-2.6 1.2-3.6 7.3-1.5 8.6 2.6 1.7 5.7.9 8.1-2.2l2.4-3 6.7 3.3c5 2.4 6.5 3.6 6 4.8-.4.8-.9 3.4-1.2 5.8l-.4 4.3-5.7-.6c-3.1-.4-11.9-1.5-19.6-2.6-7.7-1-14.3-1.9-14.8-1.9s-.6-.7-.3-1.5c.9-2.3-2.4-3.2-4-1-1.6 2.1-4.4 1.3-4.4-1.3s-4.2-6.2-7.2-6.2c-1.5 0-4 1.1-5.7 2.6-2.8 2.3-3.3 2.4-7.3 1.3-2.4-.6-3.7-1.4-3-1.6 2-.7 1.4-4.1-1-5.7-2.8-2-3.3-2-5.3 0-.9.9-1.3 2.4-1 3.4.5 1.7.3 1.8-2.7.9-1.8-.5-6.7-1.8-10.8-3-43.5-11.8-91.5-33.5-130-58.6-16.8-11-26.2-18.4-38.4-30.3-66.4-64.4-73.9-154.4-22.7-273.8 7.9-18.4 24.6-51.7 41.2-82.4 20.7-38 22.6-43.1 18.6-49.2-1.4-2.1-2.5-2.6-5.6-2.6-6 0-7.6 2.5-7.7 12.4 0 11.8-2.7 19-23.6 63.5-15.6 33.3-22.2 48.2-30.1 68.2C8.3 364.8-1.4 412.5.4 452.5c3.5 80.8 49.2 140.7 141.5 185.6 12.3 6 45.9 19.9 48 19.9 1.4 0 1.4 1.3 0 2.7-1.6 1.6-.3 6 2.2 7.4 3.9 2 6.6.3 9.4-5.8.1-.2 2.1.4 4.6 1.1 2.4.8 7.6 2.4 11.5 3.5 6.1 1.8 7 2.4 7 4.3-.1 2.8 3.3 3.7 5 1.3 1.2-1.5 2.1-1.5 13.3 1.1 10.3 2.4 12.1 3.1 12.5 5 1.1 4.2 10.5 5.6 13.5 2 .8-1 3-.9 10.8.5 5.4 1 16.3 2.5 24.3 3.4 21.7 2.5 22.3 2.8 15 6.5-2.6 1.3-4.7 3.4-5.7 5.5-.9 1.9-2.1 3.5-2.5 3.5-.5 0-.4-.9.2-1.9 1.4-2.7 1.3-4.1-.4-4.1-1.2 0-3.8 4.8-4 7.5-.1.5 1 1 2.4 1 1.9 0 2.6.6 2.8 2.4.2 1.2 1.9 3.7 3.8 5.4 2 1.7 3.1 3.4 2.6 3.9-1 1-6.9-.8-9.3-2.8-.8-.8-2.2-1.4-3-1.4-.7 0-3.7-1-6.5-2.1-4.8-2-5.1-2.3-5-5.7.1-2.9-.4-3.9-2.6-5.1-2.5-1.4-2.9-1.4-5.6.6-2.9 2.1-2.9 2.1-6.1.2-1.7-1-3.1-2.3-3.1-2.8s-1-1.3-2.2-1.7c-1.2-.3-3.9-1.9-6.1-3.5-2.2-1.6-5.2-2.9-6.7-2.9-1.6 0-3-.7-3.4-1.5-1.6-4.3-13.5 1-19.7 8.9l-4.4 5.6-1.4-2.8c-.8-1.5-1.5-3.5-1.6-4.4-.1-1.8-7.5-8.4-11.2-10.1-1.3-.6-2.3-1.3-2.3-1.7 0-.3-3.3-.5-7.3-.4-5.6.1-8.6.8-12.4 2.8-9 4.5-16.3 15.3-16.3 24 0 4.8 5.3 15.1 8.8 17.2 1.7 1 2.9 2.1 2.7 2.5-.3.4.5.7 1.8.8 1.2 0 5 .3 8.4.7 5.6.6 6.9.3 12.6-2.4 5.3-2.5 6.4-2.7 6.3-1.3 0 .9-.9 1.9-1.8 2.3-2.7 1.1-2.2 5.3.8 7.7 1.5 1.2 3.2 2.1 3.9 2.1 2 0 4.8-3.8 4.1-5.6-.5-1.2.2-2.4 2-3.9 2-1.6 2.5-2.6 2-4.3-.8-2.5-5.3-3.1-7.4-1-1.8 1.8-1.4-.1.7-3 1-1.5 3.1-5.1 4.5-8 2.6-5 2.8-5.3 4.5-3.8 2.3 2.1 8.5 2.1 10.6-.1 1.2-1.1 1.5-2.6 1.2-4.9-.5-2.9-.1-3.5 3.9-6.4 2.4-1.7 4.4-3.5 4.4-4.1 0-.5.5-.9 1-.9.6 0 1 1 1 2.3 0 1.2.9 4 2 6.2s2 4.1 2 4.2c0 .2-1.1.3-2.5.3-3.4 0-8.2 2.5-9.5 4.9-1.4 2.7-1.2 9.2.3 11.2 3.6 4.7 12.6 4.9 17.2.3 1.3-1.3 3-2.1 3.8-1.8 2.4.9 3-1.4.7-2.6-2.5-1.4-2.8-4.6-.2-3.5 7.1 3.2 13.7 4.7 22.3 5.2 5.4.3 9.9.9 9.9 1.2 0 .3-1.6 1.7-3.5 3.1-5.4 3.9-6.7 7.5-5.9 17 .7 8.2.6 8.6-3.3 8.1-.7-.1-1.5 1-1.9 2.4-.5 2.1-1.2 2.5-4.2 2.5-4.8 0-11.3 3.3-13.7 7-1.1 1.6-2.6 3-3.3 3-2.2 0-2.7 3.2-.6 4.7 1.4 1 1.6 1.7.8 3s-.2 2.4 3 5.6l4.1 4 8.2-.6c4.5-.2 8.5-.2 8.8.1.3.3-.9 2.1-2.7 3.9-3.3 3.4-3.2 5.6.2 3.5 2.4-1.5 7-1.6 7-.2 0 .5-.9 1-2 1s-2 .5-2 1.1c0 .6.9.8 2.1.4 1.4-.5 2.8 0 4.2 1.2 1.2 1.1 3.6 2.5 5.4 3.2 6.1 2.4 5.8 3.8-.6 3.3-7.2-.5-13.3 1.9-18.8 7.6l-3.7 3.9-2.9-2.1c-2.1-1.5-4.3-2.1-8.4-2.1-4 0-5.8-.5-6.7-1.8-.7-.9-1.8-1.7-2.5-1.7-1.4 0-1.4 2.3.1 3.8.6.6 1 3.2 1 5.8-.2 4 .2 5 3.3 8.1 3.3 3.3 3.9 3.5 8.6 3.1 5-.5 5-.5 6.9 3.2 1.1 2.1 3.4 4.9 5.1 6.3l3.1 2.4-9.3 1.4c-7.1 1.1-21.9 1.4-59.9 1.4-53 0-54.4.1-63.2 4.6-5.3 2.7-18.4 14.6-26 23.7-6.5 7.6-16.2 21.8-16.4 23.7 0 .5-.8 3.4-1.7 6.4-3.3 10.7-1.4 21.1 3.8 21.1 1.5 0 3.1-.9 4-2.3 1.3-2.1 1.3-2.9.2-6.3-2.4-6.9-2.9-12-1.1-13.4 1.2-1 1.2-1.5.2-2.1-1-.6-1-1.7 0-5.6 2.7-10 9.9-19.6 25.4-33.8 10.2-9.4 13.3-11 18.7-9.5 6.9 1.8 13.3 8.7 30.3 33 6.2 8.8 8.7 10.9 14.8 12.5 2.9.8 5.6 1.9 6 2.4.3.7 3.7-.1 9-2 4.7-1.7 9.9-3.2 11.7-3.3 1.8-.1 3.8-.8 4.5-1.7.7-.9 4.9-3 9.3-4.8 7.1-2.8 8.4-3 11.2-1.9 2.8 1 3.5 1 5.3-.7 1.2-1.1 1.9-2.6 1.7-3.5-.3-1.2 2-2.9 8.3-6.1l8.7-4.5 1.2 4.9c1 4.3.9 5.3-.5 6.8-2.6 2.9-1.4 5.4 2.6 5.5 2.5 0 4.6 1.1 7.5 3.6 2.2 2 5.2 4.6 6.8 5.9l2.8 2.4-5.5 4.2c-28.7 22-21.2 65.6 16.3 95.5 13.1 10.5 24.4 14.8 39.4 14.8 13.1 0 25-5.1 33.6-14.6 5.4-5.9 8.4-12.5 10.7-23.8.8-3.8 1.7-7.2 1.9-7.6.2-.4 1.7-.5 3.3-.2 1.6.2 3.3-.1 3.6-.7.4-.6 3.5-1.1 6.9-1.1 3.4-.1 9.1-.7 12.7-1.5 7.9-1.7 22.4-1.9 27.1-.4 4.9 1.7 7.9 4.8 7.9 8.1 0 3.6 3.9 6.3 8 5.4 1.7-.3 3-.3 3 0 0 1.6-7.9 12.1-12.8 17-7.2 7.1-13 11.1-21.2 14.5-11.9 4.8-20 4.7-20.7-.1-.4-2.8-2.8-5-5.4-5-1 0-2.1-.5-2.4-1-1.1-1.8-2.3-1.1-4.2 2.7-1.4 2.7-1.7 4.6-1.2 6.5.7 2.6.5 2.8-2.9 3.4-2.1.3-6.5 1.2-10 1.8-5.4 1.1-6.2 1.1-5.7-.1.3-1-.1-1.3-1.3-1.1-.9.2-1.7.9-1.7 1.7 0 .9-3.9 2.5-11 4.6-30.3 8.8-60.9 23.5-64.3 31-1.9 4.2-1.5 7.3 1.3 9.1 3.7 2.4 7.5.4 12.7-6.6 6.8-9 15.1-15.6 27.3-21.6 12.7-6.1 23.5-9.5 42.3-12.9 16.8-3.1 16.2-3.2 16.2.5 0 4.1 3.4 7.4 6.7 6.5 4.5-1.1 10.2-5.6 11.5-9 1.2-3.4 4.8-5.6 4.8-2.9 0 .8.9 1.4 2.1 1.4 1.6 0 1.9-.4 1.4-2.1-.4-1.3-.3-1.9.2-1.6.6.4 1.9 0 2.9-.8 2.5-1.9 3.4-1.9 3.4.1 0 2.3 2.4 1.1 2.8-1.3.4-2.6 4.1-4.4 6.4-3 2.1 1.4 5.1-.8 4.4-3.2-.4-1 .9-2.6 3.5-4.6 6.8-5 14.7-15.2 20.2-26.1 2.4-4.7 3-5.2 8.4-6.9 3.2-1 6.1-2 6.5-2.2 1.5-.8 3.8 7.1 3.8 12.7 0 5.3.3 6.1 3.1 8.4 3.6 3.1 5.3 3.2 11.6.8 3.6-1.4 6.6-1.8 11.9-1.4 5.6.3 8.1 0 11.5-1.5 7-3.1 9.6-3.5 12.8-1.9 8.6 4.5 12.1 10.9 14.1 25.7 1.3 10.3 5.5 19.5 10.8 23.9 10 8.3 44.2 21 56.4 21 12.9 0 28.5-2.9 38.2-7.1 4.9-2.1 9.1-3.7 9.3-3.5.2.2-.4 1.7-1.3 3.3-2.3 3.9-1.2 7.8 2.6 9.8 4 2.1 6.1 1.9 10.1-.8 1.9-1.2 6.2-4 9.6-6 3.5-2.1 7.1-5.3 8.3-7.2 1.2-1.9 2.7-3.5 3.3-3.5.6 0 3.5 2.5 6.4 5.7l5.2 5.6 9.3-.6c12.3-.8 13.3-1.2 16.2-6.1 1.3-2.2 4.5-5.8 7-7.9 5.5-4.6 7.1-7.4 8.5-15.2.6-3.3 2-8.4 3.1-11.3 3.4-8.9 2.8-11.7-3.2-17.4-2.9-2.6-7-5.3-9.1-6-3.2-1-6.3-3.9-9.1-8.6-.5-.8.2-1.6 2-2.2 1.5-.6 4.9-2.7 7.6-4.6 2.6-2 5.3-3.4 6-3.2.7.2 6.3 2.3 12.5 4.7 10 4 11.1 4.6 10.2 6.3-1.2 2.1-.2 2.3 5.4.7 3.3-.9 4.1-.7 7 1.5 4.7 3.5 10.3 5.6 15.4 5.6 3.7 0 5-.5 7.7-3.2 1.8-1.8 3.5-3.8 3.7-4.3.2-.6 3.8-2 7.9-3.3 4.1-1.3 8.2-2.5 9.1-2.8 2.5-.8 11.2 7.8 14 13.8 8.2 18 11.5 21.8 19 21.8 4.9 0 8.3-1.3 12.7-5 2-1.7 4.6-3 5.8-3 5.5 0 15.3 10.5 24.8 26.5 13.9 23.3 20.4 47.8 19.3 72-.6 13.6-2.9 21.2-9.7 32.4-5.8 9.5-6.5 14.2-2.7 18.6 5.2 6.1 14.7 3.5 19.5-5.3 2.2-3.9 2.3-5.2 2.3-20.9-.2-44.7-11.9-90.4-35.6-138.8-4.1-8.3-10.8-20.8-15-27.9-5.6-9.7-7.2-13.2-6.3-13.8.7-.5 4.8-2.7 9.1-4.8 9.7-4.8 15.7-5.7 23.3-3.5 4.8 1.4 6.8 2.8 12.8 8.8 3.9 4 8.5 9.1 10.3 11.3 3.4 4.4 6.5 5.6 10.4 4.2 2.9-1.1 3.9-2.5 3.9-5.9 0-6.2-31.6-43.5-52.8-62.3l-10.1-9 5-5.3c2.8-2.9 5.9-7.4 7.1-9.9 4-9.2.7-22.2-7.1-27.6-10.7-7.6-34.3-7.8-48.7-.6l-6.2 3.1-19.3-14c-10.7-7.7-33.7-24-51.1-36.1-45.4-31.6-60.7-42.6-60.8-43.6 0-1.8 9.1-11.4 12.4-13 5-2.3 8.7-2 22 1.9s24.2 4.8 25.2 2c1-2.4-1.3-4.2-6.9-5.5-32.8-7.5-79.9-20.8-85.5-24.2-3.3-2-6.2-6.4-6.2-9.3 0-.8-.4-1.5-1-1.5-1.2 0-5.4-8-4.6-8.8.3-.3 0-1.2-.8-2.1-1.3-1.5-7.5-18.2-9-24.4-.6-2.4-.4-2.7 1.8-2.7 1.4 0 4-1.4 5.9-3.3 4.4-4.1 6-11.6 3.2-14.7-1.6-1.7-1.6-1.9.4-3 2.8-1.4 2.7-4.6-.2-6.5-1.3-.8-2.9-2.6-3.5-4-1.3-2.9-3.4-3.2-5.3-.9-1 1.2-1 2-.1 3.5.7 1 1.2 2.8 1.2 4 0 1.5-.5 1.9-1.9 1.4-1-.3-3-.1-4.5.4-1.4.6-2.6.7-2.6.3 0-.4-.5-3.6-1-7.1-.8-4.4-.8-6.7 0-7.6.8-.9.8-1.4-.1-1.7-.7-.2-1.4-4.4-1.9-11.3l-.7-11 3.3-3.8c4.7-5.1 4.6-9.4-.1-14.1-2-2-3.5-4.5-3.5-5.8 0-4.2 1.2-6.8 3.1-6.8 1.8 0 3.5-1.7 2.6-2.6-.3-.3-1.5 0-2.8.6l-2.2 1.2.7-10.2c.3-5.7 1.1-10.9 1.7-11.6.6-.7.8-2.6.4-4.2-.7-3.4 2.4-25.7 6.6-47.2 5.7-29.3 14.6-60.1 23.5-81.6C688.9 388 702.4 362 704 362c1.2 0 4.2-8.9 4.7-14.1.4-4 .2-4.9-1.8-6.3-3.2-2.2-5.7-2-11.7 1-5.4 2.7-9.5 7.1-13 14.1-2.2 4.3-8.9 22.9-9.9 27.3-3.2 15-9.1 47.7-13.4 74.2-5.2 32.6-5.3 32.8-7.3 31.4-2.7-1.7-9.9-3-12.4-2.2-1.1.4-2.7 2.2-3.7 4.1-1.1 1.8-2.9 3.6-4.2 4-5.3 1.3-5.5 9.3-.4 11.5 3.8 1.5 8.6-.7 9.5-4.5.6-2.2 1-2.5 2.9-1.8 1.2.4 3.7.8 5.5.8 1.7 0 3.2 0 3.2.1 0 1.2-4.9 26.7-7 36.9-5 23.3-7.7 32.5-10.1 35.1-1.7 1.9-2.3 3.7-2.4 8.2-.4 9.8-13 36.8-19.1 40.9-1.4.8-3.6 3.5-4.9 5.8-3.2 5.3-7 7.3-9.6 4.9-1.1-1-1.9-3.1-1.9-4.8 0-4.5-2.5-7.6-6-7.6-1.9 0-4.4-1.3-7.2-3.8-4.3-3.7-5.2-5.9-3.3-7.5.6-.5-.5-.6-2.2-.3-2.7.4-3.6.1-4.8-1.8-.9-1.3-1.3-3.1-.9-4 .4-1.1.1-1.6-1.3-1.6-2.2 0-5.3-3.3-5.3-5.6 0-1-.6-1.4-1.5-1-2.3.8-1.8-1.8.9-4.7 3.3-3.5 6.9-13.4 6.3-17.2-.3-1.7-1.6-5.5-3-8.6-2.1-4.7-3.7-6.6-9.9-11.2-4.1-3-8.4-5.7-9.4-5.9-1.5-.2-2-1.4-2.4-6.3-.5-5.4-.3-6.3 2-8.8 2-2.3 2.2-3 1.1-3.7-3.2-1.9-5.5 1.6-6.4 9.8-.3 2.4-.8 4.6-1.1 4.9-.3.3-3.8 1.3-7.8 2.3-6.7 1.6-7.4 1.6-8.5.1-.7-.9-1.3-2.6-1.3-3.9 0-1.3-.8-2.5-1.7-2.8-1-.3-2.8-1.1-4-1.6-1.2-.6-2.9-.8-3.7-.5-2.2.9-2 3.7.2 3.8 4.7.3 7 1.6 8.7 4.9 1.4 2.7 1.3 2.9-2.1 5.9-4 3.6-4.4 3.6-8.6 1.5-2.2-1.2-2.7-1.9-1.9-2.7 1.7-1.7 1.3-3.7-.6-3.7-3.8.1-7.4 5-3.7 5 2.2 0 8.4 3.9 8.4 5.2 0 1.8-6.1 13.8-7 13.8-2.5 0-41.5-57.9-47.3-70.1-5.9-12.6-6.1-13.1-3.9-12.7.9.2 1.6 1.1 1.6 2.1-.1.9.2 1.7.7 1.7.5 0 .9-.9.9-2 0-1.4.7-2 2.1-2 1.8 0 2.1.5 1.7 3.2-.5 3.1 1.5 8.2 4.7 11.8.7.8 1.2 2.8.9 4.5l-.4 3 1.2-3.3c.9-2.7 1.6-3.2 4.4-3.2h4.2c.4 0 1 3 1.5 6.6.7 6.2 1.1 7 4.9 10.6 2.3 2.1 4.9 3.8 5.8 3.8.9 0 2.1.5 2.7 1.1.8.8 2.2.8 4.9 0 5.1-1.4 7.6-1.4 5.2 0-1 .5-1.8 1.6-1.8 2.4 0 1 1.7 1.3 7.2 1.1 6.4-.3 7.4-.6 9.5-3 2.9-3.4 2.9-7 .2-9.7-1.8-1.8-2-2.5-1-4 .6-1 1.1-2.7 1.1-3.8 0-1.1.6-2.2 1.3-2.4.9-.4.9-.8-.2-1.5-.7-.5-1.1-1.4-.7-2 .3-.6.2-1.3-.4-1.7-.5-.3-1-1.5-1-2.6s-1.4-3.3-3.2-4.9c-3.1-2.9-3.2-3-1.3-4.4 1.1-.8 1.7-1.8 1.2-2.2-.4-.4-1.3-.2-1.9.4-.7.7-2 1.2-3.1 1.2-1.4 0-1.7-.5-1.2-2 .4-1.3.2-2-.6-2-.7 0-2.1-.7-3.1-1.6-1.6-1.6-1.8-1.5-2.4 0-.4 1 .1 2.5 1.1 3.6 2.3 2.5 1.3 3.7-1.9 2.2-2.4-1.1-6.2-.4-10.9 2-1.4.7-1.9.3-2.7-1.8-.6-1.5-.8-2.9-.5-3.2.5-.5-2.1-2.3-6.2-4.1-2.2-1-3.2-3.1-1.5-3.1.5 0 1.5-1.9 2.2-4.3.8-2.3 1.7-4.7 2.1-5.2.4-.6.4-1.7 0-2.4-1.2-1.9-.2-5 2.1-6.2 8-4.3 12.3-14.3 8.3-19.5-.8-1-1.5-2.7-1.5-3.6 0-1.1-.5-1.5-1.5-1.2-.8.4-2.2 0-3.1-.7-2.2-1.8-10.5-1.9-12.3-.2-.7.8-2.2 1.1-3.2.8-1.4-.5-1.9-.1-1.9 1.4 0 1.1-1.1 2.8-2.4 3.7-1.4.8-2.3 2.1-2 2.8.8 2-3.5 6.6-6.2 6.6-1.4 0-3.5.7-4.8 1.5-1.3.9-3 1.4-3.7 1.3-.7-.2-1.3.3-1.4 1.1 0 .8-.6 1.6-1.2 1.8-1 .4-1.3-2.5-1.3-12 0-14.5 1.7-24.8 6.6-39.7 3.6-10.7 11.3-26.9 11.4-23.8 0 1 .5 1.8 1.1 1.8.7 0 .8-.7.4-1.8-1.3-3-1-3.6 7.4-16.6 10.9-16.7 12.5-20.5 12.6-28.7 0-9.2-1.6-10.9-9.9-10.7-7.6.2-11.7-1.8-14.1-6.8-1.8-3.9-1.7-9.5.4-14.8l1.2-2.9 1.6 2.2c2.3 3.4 3.8 1.2 2.2-3.2-1.2-3.4-1.2-3.5 9-18.8 11.3-16.9 16.2-26.3 18.5-35.3.9-3.3 1.9-6.3 2.3-6.7 1.4-1.3 11.5-3.9 15.1-3.9 1.8 0 5.3 1.2 7.8 2.6 3.7 2.2 5.2 2.5 8.9 2 2.4-.4 5.8-1.7 7.7-2.9 2.8-1.9 3.3-2.9 3.3-6.1 0-5-3.2-7.5-10.6-8.2-5.1-.6-5.8-.3-11.9 3.7-6.7 4.3-13.1 7.5-18.3 9l-3 .8.6-5.5c1.1-10.6 7.1-20.9 30.7-52.4 41.4-55.2 52.3-78.1 57.1-119.9 1.4-12.7.7-48.1-1.1-52.9-1.8-4.9-7.3-7-10-3.7zM356.4 180.7c-4 18.4-7.1 24.9-16.1 33.8-3.7 3.6-7 6.5-7.4 6.5-1.3 0 5.9-19.8 9.9-27.5 3.7-7 10.8-15.5 13-15.5.8 0 1 .9.6 2.7zM299.7 414c5.1 0 7.3 1.1 7.3 3.5 0 5.3 5.5 5.7 10.5.8l2.8-2.8-.8 17c-.4 9.3-.9 17.3-1.1 17.7-.8 1.4-10.2 3.8-20.4 5.3-5.8.8-12.1 2-14 2.5-1.9.6-3.8 1-4.2 1-.5 0-.8-5.3-.8-11.9 0-13.4 2.4-24 7.3-32.4l2.8-4.7 3.9 2c2.2 1.1 5.2 2 6.7 2zm34.8 20.2 2.6 3.1-2.8 2.3c-1.5 1.3-4.7 3.7-6.9 5.3l-4.2 3.1-.6-3.3c-.6-3.7.6-10 2.4-12.2 2.2-2.6 6.6-1.8 9.5 1.7zm-13.4 26c.4.6 1 3.1 1.4 5.6.7 4.8-.5 6.6-3.6 5.7-.9-.3-2.2.1-2.9 1-.7.8-2.2 1.5-3.4 1.5-1.2 0-2.7.9-3.4 2.1-.8 1.2-1.9 1.8-2.8 1.5-.8-.3-1.4 0-1.4.8 0 .7-.7 1.9-1.6 2.7-.8.7-2.5 3.1-3.6 5.3-1.2 2.3-2.9 4.7-3.9 5.4-2.3 1.6-2.5 4.2-.4 4.2 1.6 0 2.1 4.5.6 5.4-2.2 1.4-5.9-1.4-7.5-5.5-1.5-3.7-1.5-4.5-.3-5.4.7-.5 1.9-2 2.6-3.2 1-1.9.8-2.6-1-4.4-1.4-1.4-2.8-1.9-4.4-1.5-2.2.6-2.4.2-4.1-8.9-1-5.2-1.5-9.7-1.2-10 .7-.7 10.3-2.4 19.5-3.5 9.2-1 20.5-.4 21.4 1.2zm13.6 2.7c1.6.9 1.5 1-1 1.1-3.1 0-6.7-1.6-6.7-3 0-1 4.8.2 7.7 1.9zm8.6 227.1c.6 2.5-.2 6.1-1.4 5.5-.4-.3-1.2.3-1.8 1.2-.9 1.7-1.2 1.6-4-1.1-3.8-3.7-3.9-5.4-.3-6.2 1.5-.3 3.2-.7 3.7-.9 2.3-.8 3.3-.4 3.8 1.5zM304 767c2 3.8-4.5 15.2-7.6 13.2-2.1-1.4-2.3-5.1-.4-7.5 1-1.3 2.2-3.7 2.6-5.3.4-1.6.9-3.3 1.1-3.7.6-1 3.1 1 4.3 3.3zm18.4 47.6c.4.9.4 2.6.1 3.8-.4 1.3.1 1 1.2-.9l1.7-3 1 2.7c.5 1.6 1.3 2.8 1.8 2.8.4 0 .8.4.8.9 0 .8-11.1 5.1-13.1 5.1-.3 0 .4-2.1 1.7-4.7 1.3-2.5 2.4-5.5 2.4-6.5 0-2.2 1.6-2.4 2.4-.2zm30.1 13.6c3.8 12.9 2.5 26.7-3.1 33.4l-2.5 2.9 1.6-3.2c3.2-6.7.7-14.7-6.1-19.4-4.8-3.3-5.2-4-2.9-5.9.8-.7 1.5-2.8 1.5-4.6 0-4.6 1.8-4.3 2.5.3 1 6.1 1.5 6.2 1 .3-.5-5.2-.4-5.6 2.2-7.2 1.5-1 3.1-1.8 3.5-1.8.4 0 1.4 2.4 2.3 5.2zm-23 8.7c-.3.6-1.1 1.1-1.7 1.1-.6 0-.6-.6.2-1.5 1.4-1.7 2.6-1.3 1.5.4zm38.8 25.9c.9 1 2.2 3.3 2.8 5 .6 1.8 2 3.7 3 4.3 2.7 1.4 2.6 6.9-.1 7.6-1.1.3-2 1.2-2 1.9 0 .8-.9 1.4-2 1.4-1.3 0-2-.7-2-1.9 0-2.6-2.6-4.4-5.4-3.7-1.7.4-2.6.1-3-1-.9-2.4-.7-6.2.4-6.9.6-.3 1-1.3 1-2.2 0-1.7 3.7-6.3 5-6.3.4 0 1.4.8 2.3 1.8zm261.4 24.3c1.2 3.1 2.5 7.4 2.9 9.6.6 3.9.6 4-3.8 5.6-3.5 1.3-5.6 1.4-11.3.7-3.8-.5-9.1-.9-11.7-1-5.6 0-6-1-1.9-5.9 1.7-2.1 3.3-3.1 4-2.7.7.5 1 1.4.8 2-1.1 2.8.8 3.7 4.6 2.1 4.2-1.7 4.9-4.5 1.5-6-1.3-.6-2.3-1.7-2.3-2.5 0-1.7 11.2-8.1 13.5-7.7.8.1 2.5 2.7 3.7 5.8zm87.1 84.8c.3.8-.1 1.2-.9.9-.7-.2-1.5-1-1.7-1.7-.3-.8.1-1.2.9-.9.7.2 1.5 1 1.7 1.7zm-11.6 4.8 4.1 2.8-3.1.9c-3.8 1.1-6.2-.5-6.2-4 0-3 .1-3 5.2.3z"/><path d="M307.5 428c.3.5 1 1 1.6 1 .5 0 .9-.5.9-1 0-.6-.7-1-1.6-1-.8 0-1.2.4-.9 1zM285.5 437c-.3.5-.1 1 .4 1 .6 0 1.1-.5 1.1-1 0-.6-.2-1-.4-1-.3 0-.8.4-1.1 1zM299.5 773c-.3.5-.1 1 .4 1 .6 0 1.1-.5 1.1-1 0-.6-.2-1-.4-1-.3 0-.8.4-1.1 1zM351 852.1c0 .5.5.7 1 .4.6-.3 1-.8 1-1.1 0-.2-.4-.4-1-.4-.5 0-1 .5-1 1.1zM388.5 17.6c-1.2 1.3-1.3 1.9-.4 2.5 1.7 1 5.4-.5 5.4-2.2 0-2.1-3-2.2-5-.3zM422.8 34.7c-3.9 4.6-2.1 8.6 2.8 6.1 3.8-1.8 5.1-4.2 3.5-6.2-1.8-2.1-4.4-2-6.3.1zM289 42.5c-1.7 2.1-.4 3.5 3.5 3.5 1.9 0 3.7-.5 4-1 1-1.6-1.4-4-4-4-1.2 0-2.8.7-3.5 1.5zM662.9 45.5c-5.6 3.8-6.6 8.6-2.5 12.4 3.3 3.1 8.3 2.2 13.1-2.3 8.5-8.1-.7-16.9-10.6-10.1zM683.2 48.2c-1.9 1.9-1.4 3 1.1 2.6 1.2-.2 2.2-.9 2.2-1.7 0-1.9-1.8-2.4-3.3-.9zM270.5 53c-.3.5.1 1 .9 1 .9 0 1.6-.5 1.6-1 0-.6-.4-1-.9-1-.6 0-1.3.4-1.6 1zM282.5 55.4c-5.9 2.8-9.2 6.1-10.5 10.6-1.3 4.4.3 7.6 5.8 11.4 5.3 3.7 12.6 4.2 17 .9 4.5-3.3 8.4-9.7 8.9-14.6.5-4.1.2-4.9-2.5-7.7-2.6-2.6-3.8-3-8.4-3-3.5 0-7 .8-10.3 2.4zM397 54.4c0 .8.4 1.7.9 2 1.1.7 3.3-1.8 2.4-2.7-1.2-1.2-3.3-.7-3.3.7zM443.6 55c-1.7 1-3.6 3-4.3 4.4-2.5 4.8 2.6 10.6 9.2 10.6 3.3 0 6.5-4.4 6.5-8.9 0-7.5-5.2-10.2-11.4-6.1zM675.2 59.6c-2.9 1.4-6.9 4.5-8.9 6.8l-3.7 4.3-1.6-3.1c-2.3-4.6-6.2-4.7-10.4-.2-4.3 4.5-5.2 8-3 11.3 1.4 2.2 2.2 2.5 5.4 2l3.8-.5-4 6c-5.7 8.6-10.1 18.3-10.6 23.8-.4 4-.1 5.1 1.8 7 4 4 11.7 1.9 25-6.8 10.6-7.1 25.6-23.9 29.8-33.5 3-6.9.5-14.5-5.8-17.7-5.4-2.8-11.5-2.6-17.8.6zM399 68.1c0 .5.5.7 1 .4.6-.3 1-.8 1-1.1 0-.2-.4-.4-1-.4-.5 0-1 .5-1 1.1zM408.2 70.2c-1.9 1.9-1.4 3 1.1 2.6 1.2-.2 2.2-.9 2.2-1.7 0-1.9-1.8-2.4-3.3-.9zM498.4 70.4c-1.7 4.5 2.2 7.9 6.3 5.6 3.3-1.9 3.8-3.3 1.8-5.4-2-2-7.4-2.1-8.1-.2zM221.8 83.4c-10.2 3.6-19.6 11.9-24.4 21.4-5.7 11.3-3 23.4 6.6 29 3.9 2.4 5.6 2.7 13 2.7 7.1 0 9.4-.4 14-2.6 8.8-4.2 16.2-11 20-18.3 7.1-14.2 2.7-27.4-10.9-32.2-4.6-1.7-13.6-1.7-18.3 0zM431.3 86.7c-.7.2-1.3 1.4-1.3 2.5 0 1.4.6 1.9 2.3 1.6 1.4-.2 2.2-1 2.2-2.2 0-2.1-1.2-2.8-3.2-1.9zM623.5 109c.4.6 1.1.8 1.6.5 1.4-.9 1.1-1.5-.7-1.5-.8 0-1.2.5-.9 1zM624.6 124.6c-1.2 1.1-1.4 2-.7 2.7 1.4 1.4 6.4-.8 5.8-2.6-.6-1.9-3.3-2-5.1-.1zM435.1 135.3c-1.3 1.6-.5 2.7 2.1 2.7 1.1 0 1.8-.7 1.8-2 0-2.3-2.2-2.7-3.9-.7zM181.5 162c-.3.5-.1 1 .4 1 .6 0 1.1-.5 1.1-1 0-.6-.2-1-.4-1-.3 0-.8.4-1.1 1zM665 169.3c-27.2 8.3-60.2 26.4-87 47.7-12.6 10.1-29.6 26.9-36.8 36.5-7.9 10.5-13.5 22.3-14 29.6-.5 6.3.6 8.9 3.8 8.9 3.5 0 4.4-2.6 2.6-7.5-2.2-5.7-1.6-8.7 3.6-16.7 8.5-13.1 24.2-27 39.3-34.5 11.3-5.7 29.1-10.8 35.5-10.1 3.4.3 3.5.4 3.7 4.8.1 2.5.2 5.1.2 5.7.2 2.3 5.7 1.4 12.2-2 3.5-1.8 13.6-7.7 22.4-13.1 18.2-11.2 27.2-15.6 38.3-18.7 9.3-2.6 14.1-4.9 19-9.3 4.7-4.2 6.9-5.3 13.1-6.7 2.8-.6 5.4-1.5 5.8-2.1 1.2-2.1-5.1-5.8-12.7-7.4-6.2-1.4-8.9-1.5-15.9-.7-9.6 1.2-13.2.5-17.1-3.2-3.7-3.5-7.4-3.8-16-1.2zM315.7 172c-.8 3.2 2.4 8.5 5.6 8.8 2.3.3 2.7 0 2.7-2 0-1.4-1.4-3.8-3.3-5.6-3.9-3.7-4.3-3.9-5-1.2zM303.1 174.4c-1.6 1.9-.6 3.6 2 3.6 1.5 0 2-.6 1.7-2.2-.4-2.7-2.1-3.3-3.7-1.4zM153 176.5c-12.8 5.8-16 19.6-6.6 28.4 4 3.8 11.2 4 18.1.6 16.4-8 14.4-29-2.8-30.2-3.3-.2-6.5.3-8.7 1.2zM283 198c-2.5 2.5-2.6 5.2-.2 7.3 2.4 2.2 6.5 2.1 8.5-.1 5.2-5.7-2.9-12.6-8.3-7.2zM299.9 198.2c0 .2-.3 2.3-.5 4.9-.6 5.7 2.3 10.2 6.5 9.7 2.1-.2 2.7-.9 2.9-3.3.2-2.3-.6-4.1-3.3-7.3-3.1-3.5-5.2-5.1-5.6-4zM133.8 232.1c-6.3 3.3-9.4 10-7.7 16.6 1.3 4.7 3.9 7 9.5 8.4 2.4.6 4.4 1.6 4.4 2.3-.1 1.9-5.4 7.4-8.3 8.5-3.5 1.4-3.5 3.1.2 3.1 1.9 0 3 .6 3.3 1.8.4 1.2 2.2 2.3 5.3 3.2 4.2 1.2 5.1 1.1 8.1-.5 4.2-2.3 5.2-3.4 6.4-7.5.8-2.8.6-3.5-1.8-5.9-1.5-1.4-3.7-3.1-4.7-3.7-1.9-1.1-1.9-1.3.6-4 7.6-8.3 7.9-18 .7-22.4-4.2-2.6-11.1-2.5-16 .1zM288.6 238.6c-1.7 1.6-2 3.3-1 5.8.7 1.9 2.4 2 5.9.4 3-1.4 3.4-5.3.6-6.8-2.7-1.4-3.7-1.3-5.5.6zM301 240c0 .5.5 1 1 1 .6 0 1-.5 1-1 0-.6-.4-1-1-1-.5 0-1 .4-1 1z"/><path d="M565.4 245.5c-.6 3.5 0 5.5 1.2 4.2 1-1 1.3-7.7.4-7.7-.5 0-1.2 1.6-1.6 3.5zM287.2 249.1c.2.6.8 1 1.3 1s1.1-.4 1.3-1c.2-.6-.4-1.1-1.3-1.1s-1.5.5-1.3 1.1zM251.2 250.1c-5.2 1-9.5 3.9-13.3 9.2-3.8 5.2-4.1 12.7-.6 17.8 2.5 3.8 9.7 7.8 14.2 7.9 10.8.1 21.6-9.6 21.5-19.2-.1-4.3-2.9-10-5.7-11.4-1.3-.6-3.1-1.8-4-2.6-2.4-2-6.9-2.7-12.1-1.7zM160.7 258.6c-4.4 4.4-4.5 6.4-.3 9.9l3.7 3.1-2.1 1.9c-1.3 1.2-2 2.8-1.8 4.4.2 2.1.9 2.7 3.5 2.9 2.7.3 3.5-.1 4.5-2.3.9-2.1.9-3.1-.1-4.7-1.1-1.8-.9-2.5 2.3-5.7 2.2-2.3 3.6-4.7 3.6-6.2 0-6-8.6-8.1-13.3-3.3zM520.4 260.6c.4 1.5 1 3.9 1.3 5.5.7 3.5 3.3 6.1 3.3 3.3s-3.2-11.4-4.3-11.4c-.5 0-.6 1.2-.3 2.6zM640.1 262.4c-.8.9-1.1 1.9-.7 2.3.9.9 2.9-1.3 2.4-2.7-.2-.8-.8-.7-1.7.4zM107.7 263.2c-.7.4-2.2.8-3.4.8-2.8 0-5.7 4.2-4.8 6.8.3 1.1 1.9 2.5 3.5 3.2 3.3 1.4 3.8 3.1 1.5 5-2.6 2.1-3.7 8.3-2.3 12.6 2.4 7.2 12.4 10.8 19.6 7 12.2-6.4 12.7-21.1.8-25.5-2.7-1.1-2.8-1.2-1.2-3.6 2.1-3.2 2.1-6.5-.1-6.6-5.5-.5-12.6-.3-13.6.3zm7.3 7.9c0 .5-.7.9-1.5.9-1.5 0-2-1.2-.9-2.3.8-.8 2.4.1 2.4 1.4zM589 265.5c0 .8.2 1.5.4 1.5s.6-.7 1-1.5c.3-.8.1-1.5-.4-1.5-.6 0-1 .7-1 1.5zM189.2 273.9c.2.7.7 1.2 1.1 1.2 1.2-.1.9-1.5-.3-2-.7-.2-1.1.2-.8.8zM558.6 277.9c-.4.7-.5 1.5-.2 1.8.9.9 1.9-.4 1.4-1.8-.4-1.1-.6-1.1-1.2 0zM196.7 278.7c-1.2 1.1-.8 4 .7 5.2 2.6 2.2 6.3-1 5-4.4-.6-1.5-4.5-2.1-5.7-.8zM212.4 280.9c-4.4 1.9-6.5 6-6.2 12 .3 4.7.7 5.7 2.8 7 2.2 1.2 3.3 1.2 8.2-.3 7.6-2.2 11.1-5.3 11-9.6-.2-6.6-9.3-11.9-15.8-9.1zM176.8 292.4c-2 4.4.8 7.4 5.7 6.2 2.9-.7 4.4-4.9 2.5-7.1-2-2.5-6.9-1.9-8.2.9zM144.4 293.5c-.4.9-.2 2.1.4 2.7 1.6 1.6 4.7.5 4.7-1.7 0-2.6-4.2-3.4-5.1-1zM522.2 295.2c.3 3.5 2.8 5.2 2.8 2 0-2.8-1-5.2-2.2-5.2-.5 0-.8 1.4-.6 3.2zM544.4 306.5c-1.4 1.4-2.2 3-1.9 3.5 1.9 3 10.5-1.1 9.2-4.3-.9-2.5-4.4-2.1-7.3.8zM513.3 315c-8.3 5-6.1 12.3 3.2 10.6 4.6-.9 7.5-3.8 7.5-7.6 0-5-5.1-6.5-10.7-3zM209.5 316.9c-.6 1.1.9 2.3 1.9 1.4.9-.9.7-2.3-.3-2.3-.6 0-1.2.4-1.6.9zM209 321.5c0 .8.7 1.5 1.5 1.5s1.5-.7 1.5-1.5-.7-1.5-1.5-1.5-1.5.7-1.5 1.5zM480 322.6c0 .8.5 1.2 1 .9.6-.3 1-1 1-1.6 0-.5-.4-.9-1-.9-.5 0-1 .7-1 1.6zM220.5 327c-.3.5.1 1 .9 1 .9 0 1.6-.5 1.6-1 0-.6-.4-1-.9-1-.6 0-1.3.4-1.6 1zM662.8 332.8c-3.7 3.7-4.8 6.2-2.9 6.2 1.1 0 8.1-8 8.1-9.2 0-1.6-1.6-.7-5.2 3zM507 332c0 2.3 2.4 5.9 4.7 6.9 1.4.7 2.7 1 2.9.9.2-.2-.7-2.3-1.8-4.6-1.4-2.6-2.9-4.2-4-4.2-1 0-1.8.4-1.8 1zM131 334.1c0 .5.5.7 1 .4.6-.3 1-.8 1-1.1 0-.2-.4-.4-1-.4-.5 0-1 .5-1 1.1zM231.7 335.6c-1.4 1.4-.7 3.5 1.1 3.2.9-.2 1.7-1 1.7-1.7 0-1.6-1.8-2.5-2.8-1.5zM174 344.5c0 1 .7 1.5 1.8 1.3 2.1-.4 1.9-2.2-.2-2.6-1-.2-1.6.3-1.6 1.3zM239.2 347.2c-2.5.7-3.7 1.8-4.8 4.4-1.2 2.8-1.9 3.4-3.2 2.8-8.4-3.6-16.9-2.5-23.2 3.2-13.1 11.8-6.6 30.2 10.2 29.1 8-.5 14.2-4.5 17.8-11.5 2.4-4.8 2.6-5.8 1.8-10.4-1.1-5.8-.6-7.8 2-7.8 2.5 0 6.2-4.1 6.2-6.8 0-2.9-2.7-4.1-6.8-3zM494.4 354.1c-4 1.1-7.1 6.8-5.4 9.9 2.4 4.4 10 3.7 12.6-1.2 2.9-5.5-1.1-10.3-7.2-8.7zM740.5 357c-.3.5-1.9 1-3.5 1-4.2 0-5.9.9-7.5 4-1.2 2.4-1.2 3 .2 4.9 1.3 1.9 2.1 2.2 5.2 1.7 4-.7 8.2-1.4 9.4-1.5 1.6-.2 4.7-4.2 4.7-6.2 0-3.7-6.7-6.8-8.5-3.9zM628 364.4c-2.9.9-3.6 1.6-3.8 4.3-.2 2.4.2 3.4 1.8 4.3 5.5 2.9 11.8-4.2 7.3-8.2-1.5-1.3-2.4-1.4-5.3-.4zM104.8 365.4c-5.6 2-8.5 4.2-11.6 8.8-2.4 3.7-2.7 5.2-3 14.4-.3 8 .1 12.1 1.7 18.6 4.3 16.9 14.6 33.5 26.4 42.4 7.9 6 10.6 7.1 20.3 8.3 12.4 1.5 19-.8 22.6-8 2.3-4.4 2.3-9.9-.2-20.1-1.1-4.6-2-10.6-2-13.3-.1-6.6-1.6-10.4-7.8-19.9-5.6-8.4-6-9.6-3.7-9.6.8 0 1.5.4 1.5 1 0 1.3 3.7 1.3 4.5-.1.9-1.3-2.2-7.9-3.7-7.9-.7 0-2.2 1-3.5 2.2l-2.3 2.1-8.2-8.5c-6.9-7-9.2-8.7-13.7-10.1-6.3-2-12.2-2.1-17.3-.3zM242.4 368.1c-1 1.7 1.3 3.6 2.7 2.2 1.2-1.2.4-3.3-1.1-3.3-.5 0-1.2.5-1.6 1.1zM493.4 374.2c-.4.6-1.8.8-3.3.5-1.8-.4-3.6.2-5.9 2-2.8 2.1-3.5 2.3-4.9 1.1-1.3-1-1.5-1-.9 0 .8 1.4-1.8 6.1-4.1 7.5-.7.4-1.3 1.9-1.3 3.2 0 1.3-.5 2.7-1 3-1.1.7-.6 12.7.5 14.5 1.3 2.1-.7 4.6-6.1 8-7.2 4.6-11 7.7-10.3 8.4.3.4 2.3-.8 4.5-2.5 9.4-7.6 19.3-8.2 17.8-1-.5 2.5-.4 2.5 2.4-.9 2.7-3.1 3.7-3.5 7.9-3.6 2.6 0 5.9-.5 7.3-.9 1.4-.5 3-.9 3.7-.9 2.5-.2 10.1-7.7 12.7-12.6 2.6-4.9 2.6-5.3 1.4-10.7-.7-3-1.9-5.8-2.5-6-.7-.3-1.3-1.3-1.3-2.4 0-1-.9-2.3-2.1-3-1.5-.8-1.8-1.4-1-2.2 1.8-1.8 1.3-2.9-.9-1.7-1.4.7-3.7.8-7 .2-3.2-.6-5.3-.6-5.6 0zM519.9 388.7c0 .4-.2 3.1-.5 6-.5 5.4.8 7.7 2.5 4.5 1.1-2 .3-9.9-1-10.8-.5-.3-.9-.2-1 .3zM636.7 393.5c-3 2.9.8 8 3.9 5.4 2-1.6 1.7-4.7-.5-5.9-1.5-.7-2.3-.6-3.4.5zM584 400.9c-3.9 1.2-9.3 4.1-11.7 6.3-1.2 1.1-2.6 1.8-3.1 1.4-1.1-.7-4.9 1.9-6.2 4.4-.7 1.4-.6 2.3.6 3.5 1.5 1.5 1.5 1.7-.3 2.1-1.2.3-2.6 1.7-3.2 3-1 2.3-.9 2.4.9 1.4s1.9-.8 1.3 2.2c-.8 4.4-5.6 9.9-7.4 8.7-5.2-3.3-13 1.8-12.1 8 .7 4.9 4.2 6.5 9.7 4.4 1.7-.6 5-1.4 7.5-1.8 2.4-.3 4.9-1 5.6-1.6.8-.7 2.3-.2 4.9 1.6 2.1 1.4 5.1 2.5 6.8 2.5 4.1 0 9.7-6 12-13 3.5-10.4 4.7-12.6 7.7-13.7 5.4-2 8.6-10.4 5.9-15.5-2.1-4-11.9-6-18.9-3.9zM798.4 405.7c-1.7 1.7-1.7 1.8.5 2.1 2.7.4 4.7-1.1 3.7-2.7s-2.2-1.4-4.2.6zM456.5 409.1c-1 1.5.1 2.3 2 1.5.9-.3 1.3-1 1-1.6-.8-1.3-2.2-1.3-3 .1zM610.6 415.2c-8.5 8.5-9.5 21.8-1.6 21.8 4.5 0 7.7-3.3 8.5-8.7.4-2.6 1.4-6 2.2-7.6.8-1.6 1.3-4.3 1.1-6-.2-2.7-.8-3.3-3.1-3.5-2.2-.3-3.7.6-7.1 4zM190.2 417.9c.4 1.3 1.8 1.6 1.9.4 0-.4-.5-.9-1.1-1.2-.7-.2-1.1.2-.8.8zM695.5 420.1c-1 1.5.3 2.5 1.6 1.2.7-.7.7-1.3.1-1.7-.6-.3-1.4-.1-1.7.5zM779 421.1c0 .5.5.7 1 .4.6-.3 1-.8 1-1.1 0-.2-.4-.4-1-.4-.5 0-1 .5-1 1.1zM231.2 425.8l-2.3 1.8 2.4 1.3c3.5 1.9 6.2 1.1 6.2-1.9 0-3.2-3.1-3.7-6.3-1.2zM495.5 427c-.8 3.5.3 6 1.6 3.9 1.2-1.9 1.1-6.9 0-6.9-.5 0-1.2 1.3-1.6 3zM703.5 427.2c-3 3.6-2.8 7.1.7 10.1 2.4 2 7.1 1.5 9.9-1 1.5-1.2 1.7-1.1 2.2.8.3 1.1 1 1.8 1.6 1.4 1.4-.8 1.4-5.5.1-5.5-.5 0-1-1.3-1-2.8 0-3.8-2.8-6.2-7.2-6.2-2.8 0-4.2.7-6.3 3.2zM761.2 427c-2.3 1-3.9 3.6-2.8 4.7 1 1.1 7.6-2.6 7.6-4.2 0-1.7-1.4-1.8-4.8-.5zM623.1 429.6c-3.5 2.9-3.9 4.4-1.3 4.4 2.7 0 7.1-5.3 5.3-6.4-.5-.4-2.3.6-4 2zM641 432.7c-4.9 1.8-6.5 6.7-3.2 9.6 2.8 2.5 6.7 2.1 9.1-.9 2.6-3.3 2.6-4.9.1-7.4-2-2-3.3-2.3-6-1.3zM722.3 439c-4.2 1.7-5.6 7.5-2.5 10.3 2.5 2.3 5.4 2.1 8.6-.4 5.9-4.6.9-12.7-6.1-9.9zM500 442.4c-.6.6-1 2.7-1 4.8 0 7.4 7.1 10.4 12.4 5.2 5.1-5.2 2-10.9-6.1-10.9-2.4 0-4.8.4-5.3.9zM832.4 443c-4.6 2-5.9 3.5-6.7 7.5-1.1 5.8 5.4 11.7 11 9.9 4.1-1.3 6.1-2.7 7.7-5.6 4.6-7.8-3.4-15.7-12-11.8zM450 445c0 .5.5 1 1 1 .6 0 1-.5 1-1 0-.6-.4-1-1-1-.5 0-1 .4-1 1zM746.6 445.6c-2.3 2.2-2 3.7.4 2.4 1.1-.6 2-1.7 2-2.5 0-1.9-.5-1.9-2.4.1zM615.3 452.7c-.7.3-1.3 1.3-1.3 2.4 0 2.3-.8 2.4-3.2.2-1-.9-1.8-1.1-1.8-.5 0 .6.5 1.4 1 1.7 1.7 1 0 2.6-2 2-2.2-.7-3.5 1.3-4.3 6.8-.5 3.2-.1 4.3 2.6 7.3 2.7 3.2 3.5 3.6 6.8 3.1 5.2-.7 9.5-4 10.9-8.3 1.4-4.1.5-10.8-1.2-9.8-.8.5-.9.1-.4-1.1.5-1.5.4-1.6-.9-.5-1.9 1.5-4.9.5-4.1-1.5.6-1.6-.3-2.4-2.1-1.8zM716.7 454c-4.4.8-9.4 5.1-8.2 7 1.9 3 14.5-2.3 14.5-6.1 0-2-.4-2.1-6.3-.9zM689.3 454.7c-2.8.5-7.3 5.8-7.3 8.4 0 1.1 1.2 3.1 2.6 4.6 2.1 2.1 3.2 2.4 6.1 2 6.5-1.1 10.1-6.2 7.6-11-1.1-2.2-5.6-5.3-6.6-4.6-.1.1-1.2.4-2.4.6zM158 456.5c-1.5 1.9-1.6 6.3-.2 7.7 1.6 1.6 7.2 1.4 8.3-.3 1.6-2.5 1-6.8-1-7.9-2.8-1.4-5.7-1.2-7.1.5zM495.2 461.1c.2.6.8 1 1.3 1s1.1-.4 1.3-1c.2-.6-.4-1.1-1.3-1.1s-1.5.5-1.3 1.1zM536.6 463.1c-2.7 3.2-2.9 6.9-.6 9.3 1.5 1.5 8.8-1.2 10.7-4 1.5-2.4 1.5-2.7-.4-5.2-2.9-4-6.4-4-9.7-.1zM590 462c-2.3 2.3-2.6 4-.7 4 1.6 0 4.7-3.2 4.7-4.8 0-1.8-1.8-1.4-4 .8zM579.5 465c-.3.5.1 1 .9 1 .9 0 1.6-.5 1.6-1 0-.6-.4-1-.9-1-.6 0-1.3.4-1.6 1zM189.4 467.1c-.8 1.4 1.1 3.3 2.5 2.5.6-.4 1.1-1.4 1.1-2.2 0-1.6-2.6-1.9-3.6-.3zM555.4 467.4c-1 .8-1.6 1.7-1.3 2 .3.3 1.4-.1 2.5-.8 1-.8 1.6-1.7 1.3-2-.3-.3-1.4.1-2.5.8zM504 472c0 .5.5 1 1.1 1 .5 0 .7-.5.4-1-.3-.6-.8-1-1.1-1-.2 0-.4.4-.4 1zM184.8 473.6c-6 3.2-7.4 11.4-3.4 20 2.7 5.8 5.7 8.4 9.9 8.4 5.6 0 12.3-5.4 15.1-12.2 2.2-5.1 2-7.6-.6-11.5-4-5.7-14.7-8.2-21-4.7zM665.9 473.9c-2.1 1.7-2.2 2-.7 2.6 2.7 1.1 5.3.1 5.3-1.9 0-2.7-1.8-3-4.6-.7zM488 474.1c0 .5.5.7 1 .4.6-.3 1-.8 1-1.1 0-.2-.4-.4-1-.4-.5 0-1 .5-1 1.1zM112 476c0 .5.5 1 1 1 .6 0 1-.5 1-1 0-.6-.4-1-1-1-.5 0-1 .4-1 1zM512.6 476.9c-.4.6-.1 2.1.6 3.3l1.3 2.3.3-2.4c.4-2.6-1.2-4.9-2.2-3.2zM691.7 478.7c-1.2 1.1-.8 2.3.8 2.3.8 0 1.5-.7 1.5-1.5 0-1.6-1.2-2-2.3-.8zM125.5 482.5c-.5.2-2.2.6-3.7.9-6 1.3-12.8 10.2-12.8 16.6 0 4.5 3.5 10.7 7.2 12.6 4.1 2.1 13.7 2.1 18 0 4.4-2.2 4.5-2.1 4.6 2.7.2 6.6 1.6 9.4 6.3 11.8 3.8 1.9 4.6 2 8.7.8 2.5-.7 5.9-2.7 7.8-4.6 3-3 3.4-4 3.4-8.8 0-2.9.5-5.7 1-6 1.6-1 4-7.4 4-10.5 0-6-9.5-12.2-15.3-10.1-1.4.5-2.6.2-3.9-1.1-2.4-2.4-3.5-2.3-4.9.4-.9 1.7-.9 2.4.5 3.3 1.4 1.1 1.4 1.4-.4 3-1.9 1.8-2 1.7-2-.7 0-5-13-12.2-18.5-10.3zM589 484.4c-.6.8-1 2.5-.8 3.8.2 1.8 1 2.4 3.5 2.6 2.7.3 3.5-.1 4.4-2.2.9-2 .9-2.9-.1-4.1-1.6-1.9-5.4-1.9-7-.1zM689.5 484c-.3.5-.1 1 .4 1 .6 0 1.1-.5 1.1-1 0-.6-.2-1-.4-1-.3 0-.8.4-1.1 1zM560.5 488c-2.4 2.5-2.6 3.1-1.4 4.6.9 1.2 2.4 1.5 5.1 1.1 4.4-.6 6.8-2.2 6.8-4.6 0-4.8-6.3-5.5-10.5-1.1zM602.6 488.6c-2.8 2.9-3.2 5.3-1.5 8.5 2.8 5.3 11.7 3.7 13.8-2.3 1.5-4.1 1.4-4.5-.9-6.8-2.9-2.9-8.1-2.6-11.4.6zM769 490c0 .5.9 1 2 1s2-.5 2-1c0-.6-.9-1-2-1s-2 .4-2 1zM685 491.5c-.9 1.1-2.2 1.4-3.9 1-2-.4-3.5.2-6.1 2.4l-3.5 2.9 4.3-.5c6.4-.8 5.2 2.7-1.4 4.1-3.5.8-8 4.9-7 6.5.5.7 1.5.7 3.2.1 3.4-1.3 3.3-1.4 4.4 1.5l1 2.5h29.5l.3-3.9c.3-5.1-1.2-6-4.4-2.6-2.9 3.1-3.9 2.7-4.7-1.9-1.2-7.5-4.9-10-11.1-7.6-3.5 1.3-3.4-.7.2-3.7 1.5-1.2 2.2-2.2 1.6-2.3-.6 0-1.7.7-2.4 1.5zM760 494.3c-2.2 1.1-4.4 1.5-6 1.1-7.7-2-13 .1-15.6 6.1-1.2 3.1-1.2 3.9 0 7l1.5 3.5h6.8c3.8 0 7.4-.5 8-1.1.8-.8 1.3-.8 1.7 0 .8 1.2 11.6 1.5 15.4.5 1.2-.4 2.2-1.4 2.2-2.3 0-.9.6-2.4 1.3-3.3.8-.9 1.1-3.2.9-5.3-.8-6.9-8.8-10-16.2-6.2zM550.5 496.9c-.8 2.5.1 4.1 2.1 4.1 1.8 0 1.8-3.4 0-4.9-1.1-1-1.6-.8-2.1.8zM546.1 498.6c-2.4 3.1-2.7 4.6-.7 3.8 1.6-.6 4.2-5.2 3.4-6-.3-.3-1.5.7-2.7 2.2zM582 506.4c0 .8.4 1.7.9 2 1.1.7 3.3-1.8 2.4-2.7-1.2-1.2-3.3-.7-3.3.7zM597 506c0 .5.5 1 1.1 1 .5 0 .7-.5.4-1-.3-.6-.8-1-1.1-1-.2 0-.4.4-.4 1zM574 508.1c0 .5.5.7 1 .4.6-.3 1-.8 1-1.1 0-.2-.4-.4-1-.4-.5 0-1 .5-1 1.1zM539.7 513.7c-2.4 2.3.9 3.1 3.9.8 1.8-1.4 1.8-1.4-.7-1.5-1.4 0-2.9.3-3.2.7zM606.4 515c-2.6 1-5.4 4.8-5.4 7.2 0 5.5 8.5 7.7 13.2 3.3 6-5.6 0-13.7-7.8-10.5z"/><path d="M134.5 518c-.3.5-.1 1 .4 1 .6 0 1.1-.5 1.1-1 0-.6-.2-1-.4-1-.3 0-.8.4-1.1 1zM530.2 519c-.7 1.1-.8 2-.3 2 .9 0 2.4-3 1.8-3.6-.1-.2-.8.6-1.5 1.6zM675.5 523.1c-.4 1.2-.3 2.5.3 3.1 1.3 1.3 4.3-1.8 3.6-3.7-.9-2.2-3.2-1.8-3.9.6zM640 524.5c-1 1.2-1 1.9-.2 2.7 1.6 1.6 4.2.2 4.2-2.2 0-2.4-2.2-2.6-4-.5zM555.5 525c-.3.6.1 1.3 1 1.6 1.9.8 3 0 2-1.5-.8-1.4-2.2-1.4-3-.1zM112.7 527.3c-2.2 1.6-2 6.5.4 8 .9.5 2.8.7 4.2.3 3-.7 4.6-4.9 3-7.5-1.3-2.1-5.3-2.5-7.6-.8zM563 527c0 .5.5 1 1 1 .6 0 1-.5 1-1 0-.6-.4-1-1-1-.5 0-1 .4-1 1zM174 529.6c-6.2 2.1-8.8 3.9-11.5 8.2-1.7 2.5-3.2 6-3.5 7.7-.5 3.3-1.2 3.4-9.7 2.1-3.5-.5-5-.1-9 2.2-5.5 3.2-8.3 7.8-8.3 13.5 0 5.9 2.3 9.3 7.5 11 5.6 2 9.1 1.1 15.1-3.8l4.4-3.6.9 2.4c.5 1.4 1.3 4.2 1.7 6.3.8 4.7 5.3 11.4 9.8 14.9 3.7 2.8 13.6 6.5 17.5 6.5 9.2 0 28.9-13.1 31.2-20.8.8-3 .7-5-.5-9.9-2.1-7.9-2.1-8 1-8.7 3.4-.9 2.5-3.2-1.2-2.9-2.7.2-3.1-.2-4.6-4.5-3.5-9.6-10.7-17.4-18.7-20.1-3.3-1.1-19.1-1.4-22.1-.5zM601.8 530.1c-2.2 1.3-2.3 2.5-.2 3.3 1.9.7 4.4-1 4.4-3 0-1.6-1.8-1.8-4.2-.3zM636.5 532c-.3.5-.1 1 .4 1 .6 0 1.1-.5 1.1-1 0-.6-.2-1-.4-1-.3 0-.8.4-1.1 1zM550.5 534.2c-1.5 2.3-1.5 2.3 2.4 2.6 2.2.2 4.5 1 5.1 1.8 1.6 1.8 3 1.8 3-.1 0-.8-.9-1.5-2-1.5s-2.7-1.1-3.6-2.5c-2-3.1-2.8-3.1-4.9-.3zM591.5 533.6c-6.3 2.2-10.4 8.3-4.7 6.9 3.7-.9 10.2-5.4 10.2-7.1 0-1.7-.4-1.7-5.5.2z"/><path d="M144.9 540.6c-1 1.2-.9 1.8.3 3.1 1.9 1.8 3.8 1 3.8-1.7 0-2.4-2.5-3.3-4.1-1.4zM252 540c0 1.2 4.5 2.4 5.9 1.5 2.2-1.3 1-2.5-2.4-2.5-1.9 0-3.5.4-3.5 1zM567.7 540.6c-.4.4-.7 1.6-.7 2.6 0 1.4.6 1.9 2.3 1.6 1.4-.2 2.2-1 2.2-2.3 0-2-2.5-3.2-3.8-1.9zM589 541c-1.1.7-1.2 1.2-.3 2.1 1.3 1.3 3.3.4 3.3-1.7 0-1.6-.9-1.8-3-.4zM152.4 542.5c-.8 1.9.3 3.5 2.6 3.5 1.9 0 3.4-2.5 2.4-4.1-.8-1.4-4.4-1-5 .6zM607.2 543.2c-1.7 1.7-1.5 5.5.4 6.2 1.5.6 6.4-1.7 6.4-3 0-.3-.5-1.4-1-2.5-1.2-2.1-4-2.5-5.8-.7zM680 543c0 .5.7 1 1.5 1s1.5-.5 1.5-1c0-.6-.7-1-1.5-1s-1.5.4-1.5 1zM627.4 550.5c-.6 1.5.2 3.5 1.4 3.5.4 0 1.2-1.1 1.9-2.5 1-2.2.9-2.5-.8-2.5-1.1 0-2.2.7-2.5 1.5zM784.6 549.7c-.3.3-1.8.7-3.3.9-1.5.1-2.9.8-3.1 1.3-.2.6-1 1.1-1.8 1.1s-2.4 1-3.5 2.1c-1.8 1.8-2.5 2-4 1-3-1.8-3.6-1.2-.9.9 2.2 1.7 2.3 1.9.7 2.6-1.1.4-2.5 0-3.7-1.1-1.1-1-2.3-1.5-2.6-1.2-.4.3.9 1.5 2.7 2.6 2.5 1.6 2.9 2.2 1.7 2.6-.9.4-1.4 1.4-1.1 2.3.2.9-.5 2.7-1.6 3.9-1.2 1.3-1.7 2.5-1.1 2.8 1.8 1.1 1.1 3.7-1.2 4.3-2 .5-2 .6-.3 1.2 1.5.5 1.9 1.7 1.9 5.9.1 5.7 1.4 7.3 5.6 6.5 1.4-.3 3.9.2 5.5 1 1.7.9 4 1.6 5.2 1.6 1.2 0 3.3.4 4.7.9 1.8.8 2.8.6 3.7-.5.9-1.1 2.2-1.4 4.1-1 2 .4 3 .1 3.4-.9.3-.8 2.1-1.9 4-2.5 2.4-.8 3.4-1.8 3.4-3.2 0-1.1.8-2.2 2-2.5 1.4-.4 2.5-2.2 3.7-6.2 1-3.1 1.7-6.3 1.6-7.1-1-7.5-1-8.5.6-9.7 1.3-1.1 1.1-1.2-1.6-.7-2.6.5-3.3.3-3.3-.9 0-.8-.7-1.7-1.5-2.1-.8-.3-1.5-1.3-1.5-2.2 0-1-.3-1.4-.7-1.1-.3.4-1.7 0-2.9-.8-2.3-1.5-13.7-2.9-14.8-1.8zM595.4 558.5c-1.5 1.1-1.7 1.7-.8 3.2 1.5 2.5 4.8 2.3 5.2-.3.4-3.1-2-4.7-4.4-2.9zM607.7 561.7c-1.2 1.1-.8 2.3.8 2.3.8 0 1.5-.7 1.5-1.5 0-1.6-1.2-2-2.3-.8zM668.6 563.6c-1.9 1.8-2.1 6.5-.4 8.2 1.7 1.7 7.4 1.5 9.2-.4 1.9-1.8 2.1-6.5.4-8.2-1.7-1.7-7.4-1.5-9.2.4zM859.6 564.9c-1.1 1.2-1.6 2.4-1.2 2.8.9.9 3.9-2.2 3.4-3.7-.2-.7-1-.4-2.2.9zM615.5 566.1c-1 1.5.3 2.5 1.6 1.2.7-.7.7-1.3.1-1.7-.6-.3-1.4-.1-1.7.5zM263.4 567.4c-1 .8-1.6 1.7-1.3 2 .3.3 1.4-.3 2.4-1.4 2.1-2.3 1.7-2.6-1.1-.6zM704.1 566.9c-1 .6-1 1-.1 1.6 1.3.8 2.4.1 1.9-1.4-.3-.6-1-.7-1.8-.2zM601 574c0 .5.5 1 1 1 .6 0 1-.5 1-1 0-.6-.4-1-1-1-.5 0-1 .4-1 1zM280 577c0 .5.7 1 1.5 1s1.5-.5 1.5-1c0-.6-.7-1-1.5-1s-1.5.4-1.5 1zM662.8 577.9c-7.5 5.1-7.8 10.8-.8 15.5 3.4 2.2 6.5 2 10.1-.7 5.2-3.7 6.6-10.3 3-14-2.3-2.4-9.4-2.9-12.3-.8zM575.7 585.6c-1 1-.9 5.6.2 7.2.5.8 1.7 1.2 2.7 1 2.9-.5 2.7-8.2-.1-8.6-1.2-.2-2.4 0-2.8.4zM85.3 589.7c-2 .7-1.5 2.3.7 2.3 1.1 0 2-.4 2-.9 0-1.3-1.2-1.9-2.7-1.4zM320.3 594.5c-.3.9-.3 1.8 0 2.2 1.1 1 5.7-.7 5.7-2.2 0-2-4.9-2-5.7 0zM595 597c-1.6 3.1-.5 5 2.8 5 6 0 6.8-6.1.9-6.8-1.8-.2-2.9.3-3.7 1.8zM575.5 598.6c-.9.9-1.5 2.8-1.3 4.3.2 2.1.9 2.7 3.4 2.9 5.2.5 8.2-3.9 4.8-7.2-2-2.1-4.8-2-6.9 0zM608 600.5c-.7.9-1.1 1.8-.8 2 .3.3 1.1-.1 1.8-1s1.1-1.8.8-2c-.3-.3-1.1.1-1.8 1zM183.1 604.9c-2.9 2.9-2.8 6.9.3 7.7 4.3 1 7 .1 8-2.9 2-5.5-4.1-9-8.3-4.8zM726 606c-.8.5-2.9 1-4.6 1-3.7 0-5.4 1.8-8.3 8.4-3.2 7.5-3.6 11.5-1.1 15.4 5.4 8.8 17.7 5.4 21.3-5.9 2.7-8.3 2.3-12.9-1.6-16.7-3.7-3.6-3.6-3.5-5.7-2.2zM307 608.5c-1 1.2-1 1.8 0 3s2.5 1.4 6.3 1c5.5-.6 6.7-1.1 6.7-2.6 0-1.3-4.7-1.1-5.6.3-.5.7-1 .4-1.5-1-1-2.5-4.1-2.9-5.9-.7zM138.7 612.2c1.8 1.8 3.6 2.9 3.9 2.5 1-1-3.6-5.7-5.5-5.7-1.1 0-.6 1 1.6 3.2zM611 611c0 .5.5 1 1 1 .6 0 1-.5 1-1 0-.6-.4-1-1-1-.5 0-1 .4-1 1zM682.6 610.9c-.8 1.2 2.5 1.9 4.8 1.1 1.8-.6 1.8-.7.2-1.3-2.4-1-4.4-.9-5 .2zM604.5 611.9c-.3.5-.1 1.2.4 1.5 1.2.8 4.1-.3 4.1-1.5s-3.7-1.2-4.5 0zM743.5 612.1c-1 1.5.3 2.5 1.6 1.2.7-.7.7-1.3.1-1.7-.6-.3-1.4-.1-1.7.5zM193 616c-1.4 1-2.3 2.1-2 2.3.3.3 1.6-.3 2.9-1.4 3.1-2.5 2.3-3.3-.9-.9zM912 617c-3.4 3.2-3.6 5-.3 3 2.3-1.5 5.7-6 4.5-6-.6 0-2.4 1.4-4.2 3zM680.4 618.1c-1 1.8 1.3 3.2 4 2.5 3.7-.9 3.4-3.6-.3-3.6-1.7 0-3.3.5-3.7 1.1zM751.5 617.9c-.3.5-.2 1.2.3 1.5 1.2.7 5.2-.4 5.2-1.5 0-1.2-4.7-1.2-5.5 0zM801.7 620.8c-2.8 3-3.6 5.5-1.4 4.6 1.4-.5 5.1-6.3 4.5-7-.3-.2-1.7.9-3.1 2.4zM240.5 621.2c-5.4 2.9-7.1 9-3.5 12.3 2.4 2.2 10.4 3.1 14.2 1.6 1.5-.5 3.5-2.2 4.4-3.6 2.4-3.6.6-7-4.9-9.5-4.8-2.2-7.3-2.4-10.2-.8zM681 624.7c-4.5 1.8-5.4 8.3-1.5 10.1 3.8 1.8 5.9 1.5 8.3-1.1 2.7-2.9 2.8-5.1.2-7.7-2-2-4.1-2.4-7-1.3zM769.7 631.6c-2.1 2.8-1.8 3.8.7 2.8.9-.3 1.6-1.7 1.6-3 0-2.9-.1-2.9-2.3.2zM260.6 637.6c-1.1 1.1-1.4 2-.8 2.6 1.6 1.6 4.7.5 4.7-1.6 0-2.6-1.9-3.1-3.9-1zM192.5 640c.3.5 1.4 1 2.3 1 1.5 0 1.5-.2.2-1-2-1.3-3.3-1.3-2.5 0zM740 640.7c-2.4.9-5.1 3.6-6.7 6.7-1.2 2.3-1.2 3.3-.2 5.7 2.3 5.6 8.1 6.5 13 2.1 2.6-2.4 3.2-3.6 3.2-7.2 0-6.1-4-9.2-9.3-7.3zM702.5 644c.3.5 1.9 1 3.6 1 1.6 0 2.9-.5 2.9-1 0-.6-1.6-1-3.6-1-2.1 0-3.3.4-2.9 1zM781.8 643.7c-3.7 1-1.1 3.3 3.7 3.3 2.9 0 4.3-1.9 2.4-3.1-1.5-.9-3.2-1-6.1-.2zM795.5 645c-.3.5.1 1 .9 1s1.8-.5 2.1-1c.3-.6-.1-1-.9-1s-1.8.4-2.1 1zM251.5 647.1c-1 1.5.3 2.5 1.6 1.2.7-.7.7-1.3.1-1.7-.6-.3-1.4-.1-1.7.5zM693.6 650.7c-.4.9-.1 2 .6 2.4 1.6 1 4.3-1.5 3.4-3-1.1-1.6-3.3-1.3-4 .6zM236 654.3c0 1.9 1 2.7 2.6 2 2.1-.8 1.7-3.3-.6-3.3-1.1 0-2 .6-2 1.3zM709 657.5c-1 1.2-1 1.8-.1 2.9 1.7 2.1 5.7 2.7 12.1 1.8 6.9-.9 7.3-2.9 1-4.8-6-1.8-11.5-1.8-13 .1zM219 659c0 .5.7 1 1.6 1 .8 0 1.2-.5.9-1-.3-.6-1-1-1.6-1-.5 0-.9.4-.9 1zM227 660c0 .5.5 1 1 1 .6 0 1-.5 1-1 0-.6-.4-1-1-1-.5 0-1 .4-1 1zM241.5 660c.3.5.8 1 1.1 1 .2 0 .4-.5.4-1 0-.6-.5-1-1.1-1-.5 0-.7.4-.4 1zM254 662.3c-3 1.5-3.8 5.2-1.5 6.1 4 1.5 9.7-4.4 6.3-6.5-1.7-1.1-1.8-1.1-4.8.4zM263 665c0 1.3.7 2 1.8 2s2.7-.9 3.7-2c1.8-2 1.7-2-1.8-2-3 0-3.7.4-3.7 2zM714.6 665.9c-1.2 1.9.4 3.1 4.4 3.1 3.7 0 6-1.3 4.3-2.3-2-1.3-8.1-1.8-8.7-.8zM683.7 666.6c-1 1.1.3 2.4 2.4 2.4 1 0 1.9-.7 1.9-1.5 0-1.5-3.1-2.1-4.3-.9zM284.7 667.7c-.4.3-.7 1.8-.7 3.2 0 2.8 1.4 1.9 2.5-1.7.6-2.1-.4-3-1.8-1.5zM709 668.5c0 .8.9 1.5 2 1.5s2-.7 2-1.5-.9-1.5-2-1.5-2 .7-2 1.5zM215.3 668.7c-2 .7-1.5 2.3.7 2.3 1.1 0 2-.4 2-.9 0-1.3-1.2-1.9-2.7-1.4zM289 669.5c0 .8.5 1.5 1 1.5.6 0 1-.7 1-1.5s-.4-1.5-1-1.5c-.5 0-1 .7-1 1.5zM206.4 670.1c-.3.6-.1 1.6.4 2.1 1.3 1.3 4.5-.8 3.6-2.3-.7-1.2-3.1-1.1-4 .2zM685 674c-1.1.7-1.2 1.2-.3 2.1 1.4 1.4 4.6.4 4.1-1.3-.6-1.6-2-1.9-3.8-.8zM853.6 677.1c-1.5 1.2-4.9 5.4-7.6 9.5-6.3 9.3-7.5 9.9-13.9 7.8-4.1-1.3-5.6-1.4-8.6-.4-4.4 1.5-5.9 4.1-5.1 9.2.4 2.7-.1 6.8-1.8 13.1-3.7 13.8-5 23-5 34.7 0 12.7 1.8 20 8 32.8 3.7 7.7 6.1 11 13.2 18.3 4.8 4.9 9.5 8.9 10.5 8.9 2.2 0 6.7-4.3 6.7-6.4 0-2.5-4.8-7.3-10.4-10.5-12.2-6.8-17.6-14.2-18.4-25-.6-8.3 1.1-12.1 6.5-14.8 4.9-2.3 7.1-7 11.1-23.5 3.4-14 6.4-21 12.1-27.8 9.7-11.6 15-23 12.2-26.4-1.9-2.2-6.3-2-9.5.5zM243.7 676.7c-1.4 1.3-.6 3.3 1.3 3.3 1.3 0 2-.7 2-2 0-1.9-2-2.7-3.3-1.3zM231.5 685c-.3.5.1 1 .9 1 .9 0 1.6-.5 1.6-1 0-.6-.4-1-.9-1-.6 0-1.3.4-1.6 1zM690.4 686.5c-.4.9-.2 2.1.4 2.7 1.6 1.6 4.7.5 4.7-1.7 0-2.6-4.2-3.4-5.1-1zM719.4 700.5c-.9 2.3.3 4.5 2.5 4.5 1 0 2.1-.7 2.5-1.5.8-2.3-.4-4.5-2.5-4.5-1.1 0-2.2.7-2.5 1.5zM135.5 703.8c-2.2.4-4.5 2.9-4.5 4.9 0 .7 1.2 1.8 2.7 2.4 2.2.8 3 .6 5-1.2 1.2-1.3 2.3-2.8 2.3-3.5 0-1.7-3-3.2-5.5-2.6zM726.2 708.6c-3.2 2.5-3.5 4.4-.7 4.4 1.7 0 4.9-4.4 4.3-5.9-.1-.6-1.8.1-3.6 1.5zM759.5 709c-.3.5-.1 1 .4 1 .6 0 1.1-.5 1.1-1 0-.6-.2-1-.4-1-.3 0-.8.4-1.1 1zM768.5 714.1c-3.1 1.9-5.5 4.6-5.5 6.1 0 1.9 2.9.5 6.3-3 5.3-5.4 4.9-6.8-.8-3.1zM778.4 720.1c-1 1.6 1 3.1 5.5 3.9 5.5 1 6.1-.5 1.2-3-4.6-2.3-5.7-2.4-6.7-.9zM274.8 723.2c-.8 2.2.3 3.8 2.7 3.8 2.3 0 4-2.4 2.9-4.1-.8-1.3-5.1-1.1-5.6.3zM240.2 729.6c-4.5 3.2-.8 8.9 4.2 6.6 3.2-1.4 3.6-5.6.7-7.2-2.5-1.3-2.2-1.3-4.9.6zM282.4 730.1c-.8 1.4 1.1 3.3 2.5 2.5 1.6-1 1.3-3.6-.3-3.6-.8 0-1.8.5-2.2 1.1zM186.5 731c.3.5.8 1 1.1 1 .2 0 .4-.5.4-1 0-.6-.5-1-1.1-1-.5 0-.7.4-.4 1zM206.6 732.5c-.8 2.1 2.8 3.9 4.3 2.2.8-1 .7-1.7-.1-2.5-1.6-1.6-3.5-1.5-4.2.3zM84.1 739.2c-3.2 3.3-3.5 5.7-1.4 8.7 3 3.9 7.5 4 11.3.2 1.7-1.6 3-3.9 3-5 0-5.6-8.9-8.3-12.9-3.9zM231.5 740.5c-4.2 4.1-3 10.2 2.6 13.1 5.4 2.8 11.9-.4 11.9-5.8 0-4-1.5-6.5-5-8.3-4.1-2.1-6.7-1.9-9.5 1z"/><path d="M850.3 749.1c-2.7 1-3 3.4-.7 4.3 2.3.9 8.4.7 8.4-.2 0-.9-2.6-3.4-4.5-4.4-.5-.3-2-.2-3.2.3zM174.2 753.2c-1.7 1.7-1.5 4.5.4 5.2 2.4.9 3.1.8 4.8-1 1.2-1.2 1.3-2 .6-3.5-1.2-2.1-4-2.5-5.8-.7zM186.5 757.6c-1.4 1.4-1.4 1.9-.2 3.1 1.9 1.9 4.9.6 4.5-2-.4-2.7-2.2-3.2-4.3-1.1zM201.4 764.5c-1.4 2.1-1.5 3.1-.6 5 2.3 5 11.2 2.3 11.2-3.3 0-4.5-7.9-5.8-10.6-1.7zM217.4 765.5c-.3.8-.3 1.9 0 2.4 1 1.6 3.6.1 3.6-2 0-2.2-2.8-2.6-3.6-.4zM844.7 773.7c-1.2 1.1-.8 2.3.8 2.3.8 0 1.5-.7 1.5-1.5 0-1.6-1.2-2-2.3-.8zM232.5 775.7c-1.2 1.1-1.5 2.6-1.2 4.9.4 2.4 0 3.7-1.4 5-2.3 2.1-4.2 8.5-3.3 11 1.1 3 3.6 5.5 7.2 7l3.4 1.4-2.1 2.6c-1.2 1.5-2.1 3.6-2.1 4.8 0 1.1-.7 3-1.5 4-.8 1.1-1.5 2.9-1.5 3.9 0 3.2 4.6 8.4 8.5 9.7 1.9.6 3.3 1.6 3 2.1-.4.5.1.9.9.9.9 0 1.6-.4 1.6-.8 0-.5 1.8-1.6 4-2.6 3.1-1.4 4-2.3 4.2-4.4.2-4.8-.2-6.6-2.3-8.8-1.1-1.2-1.9-2.8-1.8-3.5.5-2.5-1.1-5.6-3.6-6.9l-2.5-1.4 3.4-3.5c1.9-2 4.1-5.3 5-7.3 1.5-3.7 1.5-3.8 6-3.2 3.1.5 5.1.2 6.1-.6 2.1-1.7 6.3.4 6.7 3.3.2 1.1 1.5 2.9 2.9 3.9 3.4 2.6 7.5 1.5 9.5-2.4 1.4-2.7 1.4-3.2-.1-5.4-.8-1.3-2-2.4-2.6-2.4-.6 0-2.4-1.4-3.9-3-2.8-3-7.2-4-8.5-2.1-.3.6-2 .4-4.1-.5-3.5-1.5-3.8-1.4-7.6 1.1-2.2 1.4-4.6 2.5-5.5 2.3-.8-.2-2.1-2.1-2.9-4.3-.7-2.2-2.1-4.5-3.1-5.2-2.4-1.9-8.8-1.6-10.8.4zM202.4 813.5c-.9 2.3.3 4.5 2.4 4.5 2.5 0 4.6-2.5 3.8-4.5-.7-1.9-5.5-2-6.2 0z"/><path d="M256.3 819.6c-.8 2.1 1.3 4.2 2.8 2.7 1.3-1.3.5-4.3-1.1-4.3-.6 0-1.3.7-1.7 1.6zM208.2 826.2c-1.7 1.7-1.5 5.5.4 6.2 4.8 1.9 8.4-.8 6.6-4.9-1.3-2.7-4.9-3.4-7-1.3zM257 826c0 .5.5 1 1 1 .6 0 1-.5 1-1 0-.6-.4-1-1-1-.5 0-1 .4-1 1zM114.2 827.2c-1.6 1.6-1.5 3.3.1 4.7 1.9 1.5 5-.9 4.5-3.5-.4-2.3-2.9-2.9-4.6-1.2zM158 877c0 .5.4 1 .9 1 .6 0 1.3-.5 1.6-1 .3-.6-.1-1-.9-1-.9 0-1.6.4-1.6 1zM122.5 884c-.3.5-.2 1 .4 1 .5 0 1.3-.5 1.6-1 .3-.6.2-1-.4-1-.5 0-1.3.4-1.6 1zM267.7 886.7c-1.2 1.1-.8 2.3.8 2.3.8 0 1.5-.7 1.5-1.5 0-1.6-1.2-2-2.3-.8zM260.6 903.5c-.6 1.7 1.7 3.1 3.4 2 .5-.3 1-1.3 1-2.1 0-1.9-3.6-1.8-4.4.1zM972 905c0 1.5.5 2 1.8 1.8.9-.2 1.7-1 1.7-1.8s-.8-1.6-1.7-1.8c-1.3-.2-1.8.3-1.8 1.8zM266.5 912.4c-1.1.8-1.6 1.9-1.2 3 .9 2.3 3.4 3.1 5.2 1.6 2-1.6 1.9-4.6-.1-5.4-2-.8-1.7-.8-3.9.8zM965.5 924.4c-1.1.8-1.6 1.9-1.2 3 .9 2.2 4.1 1.7 4.5-.8.6-2.7-1.1-3.8-3.3-2.2zM994.1 927.6c-1.1 1.4-1.8 3.1-1.5 3.9.9 2.2 12.3 11.7 13.4 11 2.7-1.6.4-10.4-3.8-14.8-3.2-3.4-5.5-3.4-8.1-.1zM435 957.2c-1.9.5-5.6 2.5-8.1 4.3-3.2 2.3-5 3-5.7 2.3-.6-.6-1.5-.7-2.1-.4-1.4.9-1.4 4.3 0 4.8s-1.4 6.4-3.3 7c-1 .4-1 .8-.2 1.9.6.8 1.5 3.6 1.9 6.4.5 3.8 1.5 5.7 4.4 8.6 10.6 10.7 31.4 5.3 37.7-9.7 1.8-4.3 1.8-12.8 0-16.2-4.3-8.3-14.3-12-24.6-9zM927.5 967.4c-2.5 2.5-2.5 5.5.2 7.8 3.1 2.6 7.4-4.2 5.2-8.4-1.3-2.4-2.5-2.3-5.4.6zM406.4 972.1c-1 1.7 1.3 3.6 2.7 2.2 1.2-1.2.4-3.3-1.1-3.3-.5 0-1.2.5-1.6 1.1zM397.1 987.4c-.7.8-2.3 1.7-3.6 2-2.8.7-4.1 4.2-3.1 8.1.9 3.4 4.1 3.2 7.6-.5 1.5-1.7 3.3-3 3.9-3 2 0 3.6-4.7 2.1-6.5-1.6-1.9-5.4-2-6.9-.1zM991 992.8c-6.5 3.2-9.1 13.2-4.9 18.6 2.6 3.3 5.9 3.3 9.7.1 6.4-5.4 8.2-14.8 3.6-18.4-3.2-2.5-3.9-2.6-8.4-.3zM221 994c0 .5.4 1 .9 1 .6 0 1.3-.5 1.6-1 .3-.6-.1-1-.9-1-.9 0-1.6.4-1.6 1zM401.5 998c.3.5.8 1 1.1 1 .2 0 .4-.5.4-1 0-.6-.5-1-1.1-1-.5 0-.7.4-.4 1zM480.9 999.1c-2.6 2.6-2.1 5.9 1.2 7.8 2.4 1.3 2.9 1.3 5.3-.2 2.8-1.9 3.6-6.3 1.4-8.5-1.8-1.8-5.6-1.4-7.9.9zM390 1003c0 .5.7 1 1.6 1 .8 0 1.2-.5.9-1-.3-.6-1-1-1.6-1-.5 0-.9.4-.9 1zM455.7 1012.6c-5.1 2.6-6.7 5.3-6.7 10.7.1 11.3 12.6 15.3 21.2 6.7 3.2-3.2 3.8-4.4 3.8-8 0-3.4-.6-4.8-3.4-7.6-1.9-1.9-4.3-3.4-5.4-3.4-1.1 0-2.6-.2-3.4-.5-.7-.2-3.5.7-6.1 2.1zM409.2 1027c-6.8 6.3-1.9 16.3 7.2 14.6 4-.8 7.6-5.1 7.6-9.4 0-6.1-10-9.6-14.8-5.2zM435.3 1026.1c-4.9 1.8-3.5 8.9 1.7 8.9 3.4 0 5.5-2.9 4.6-6.5-.7-2.6-3.2-3.6-6.3-2.4zM393 1027.5c-1.6 1.9-.5 3.5 2.5 3.5 2.4 0 3.5-1.6 2.8-3.8-.6-1.7-3.8-1.5-5.3.3zM756.8 1031.1c-5.5 4.1-2.7 10.6 4.9 11.5 5.1.6 6.8-.7 6.8-5.5 0-7.3-5.9-10.3-11.7-6zM781.5 1031.3c-1.8 1.4-1.8 1.5.1 8.9.4 1.7-.6 3.6-4 7.6-2.5 3-4.6 6-4.6 6.9 0 2.2 5.7 10.1 11.6 16 7.2 7.2 12 8.6 28.4 7.8 11.8-.6 12.8-.5 16.9 1.7 8.1 4.2 9.3 7.5 7.9 21.3-.2 2.5.1 3.1 2 3.3 2.7.4 5.1-1.3 6.3-4.5 1-2.8-1.8-14.4-6-24.4-6.6-15.8-17.6-30.2-28.1-36.9-11.4-7.3-25.9-11-30.5-7.7zM313 1032.5c-.7.8-1 2.2-.6 3 .8 2.2 4.6.1 4.6-2.5 0-2.4-2.2-2.6-4-.5zM358.7 1031.6c-1.4 1.4-.7 3.5 1.1 3.2.9-.2 1.7-1 1.7-1.7 0-1.6-1.8-2.5-2.8-1.5zM541 1040.5c-1.4 1.7-.5 3.5 1.9 3.5 2.2 0 4.5-2.5 3.6-4-.9-1.5-4.1-1.2-5.5.5zM647 1045.5c-1 1.2-.9 1.6.3 2.1 1.7.6 3.7-.2 3.7-1.6 0-1.5-2.9-1.9-4-.5zM287.5 1046c-.3.5.1 1 .9 1 .9 0 1.6-.5 1.6-1 0-.6-.4-1-.9-1-.6 0-1.3.4-1.6 1zM641.3 1050.9c-7.7 3.6-9.7 12-4.1 17.3 2.9 2.7 3.8 3 8.1 2.5 6.9-.6 11.2-4.9 11.2-11.2 0-8.3-7.2-12.3-15.2-8.6zM578.5 1058.6c-4.6 1.7-9.3 5.8-10.7 9.4-2.7 6.9.3 16.8 6.4 21.2 2.4 1.7 4.7 2.3 8.4 2.3 4.5 0 6-.6 12.2-4.9 11.3-7.8 18.7-7.3 32.8 2 13.3 8.9 16.2 13.1 17.4 25.3.7 6.4 1.2 7.9 3.4 9.8 2.9 2.4 4.8 2.2 8.4-1 2.8-2.6 2.8-6.8.1-9.3-1.2-1-7-9.1-12.8-17.9-5.8-8.8-13.3-18.7-16.6-22-13.2-13.2-35.3-19.9-49-14.9zM756.6 1061.5c-1.8 1.7-2.6 3.4-2.6 5.7.1 10.1 16.1 22.7 22 17.3 4-3.6 1.3-12.1-6.6-20.5-5.4-5.8-8.6-6.4-12.8-2.5zM325.5 1062.5c-1.4 1.3-2.5 3.1-2.5 4 0 2.9 4.6 6.5 8.5 6.5 5.3 0 9.3-4.9 6.7-8.6-1.4-2-5.7-4.4-8-4.4-1.2 0-3.4 1.1-4.7 2.5zM523.3 1062.1c-4.2 1.2-5.9 4.2-3.7 6.3 2.9 3 10.2 1.6 12.3-2.2 2-3.7-2.7-5.9-8.6-4.1zM461 1070.5c-3 3.2-1.8 5.8 2.7 6.3 5.4.5 11.2-6.5 6.7-8.2-3.4-1.3-7.1-.5-9.4 1.9zM742.7 1082.4c-.4.9-.2 1.8.3 2.1 1.3.8 4.1-.6 3.7-1.9-.6-1.7-3.4-1.9-4-.2zM723.5 1084c-.3.5-.1 1 .4 1 .6 0 1.1-.5 1.1-1 0-.6-.2-1-.4-1-.3 0-.8.4-1.1 1zM678.7 1084.6c-1.4 1.4-.7 3.5 1.1 3.2.9-.2 1.7-1 1.7-1.7 0-1.6-1.8-2.5-2.8-1.5zM321.3 1086.7c-2.3.9-1.5 3.5 1 3.1 1.2-.2 2.2-.9 2.2-1.7 0-1.6-1.4-2.2-3.2-1.4zM388.4 1089.4c-2.4 1.8-1.1 4.8 1.8 4.4 1.4-.2 2.4-1.1 2.6-2.4.4-2.6-2-3.7-4.4-2zM561.3 1104.6c-.3.8-.1 2 .5 2.6 1.6 1.6 4.2.2 4.2-2.2 0-2.4-3.8-2.8-4.7-.4zM431.9 1120.3c-4.4 2-5.9 3.8-5.9 7.3 0 6.6 7.9 8.6 13.2 3.4 2.4-2.5 2.9-3.6 2.3-5.8-1.2-4.9-5.1-6.9-9.6-4.9zM846.8 1122.1c-2.9 1.6-2.3 7.3.8 9.8 3.5 2.8 6 2.6 8-.4 1.7-2.6 1.3-6.7-.8-9.2-1.2-1.5-5.6-1.6-8-.2zM513.7 1124.7c-1.3 1.2-.7 3.3.8 3.3.8 0 1.5-.9 1.5-2 0-2-1.1-2.6-2.3-1.3zM791.5 1140.2c-2.7 2.1-5.5 7.3-5.5 10.3 0 2.9 4.6 6.5 8.3 6.5 4.9 0 9.7-5.8 9.7-11.7 0-3.4-.8-4.6-3.7-6.2-3.2-1.6-5.7-1.4-8.8 1.1zM667.8 1142.1c-4.2 2.4-.1 10.9 5.2 10.9 3.2 0 5-2.3 5-6.4 0-4.7-5.6-7.2-10.2-4.5zM488.8 1152.9c-5.1 1.7-9.7 5.2-14.8 11.2-6.4 7.7-6.5 8.6-2.3 15 3.3 4.9 7.5 6.3 16.7 5.6 14-1.2 20.3-5.3 22.6-14.7 1.6-6.7-.6-13.2-5.3-15.6-3.6-1.9-13.1-2.7-16.9-1.5zM900.2 1165.2c-1.6 1.6-1.5 6.3.2 7.7 1 .8 2 .6 4-1 3.6-2.8 3.3-7.3-.4-7.7-1.4-.2-3.1.3-3.8 1zM856.7 1169.7c-1.3 1.2-.7 4.3.7 4.3 1.6 0 4.6-2.6 4.6-4.1 0-1-4.3-1.2-5.3-.2zM887 1196.4c0 .8.4 1.7.8 2 1.3.8 3.5-1.1 2.8-2.3-1-1.6-3.6-1.4-3.6.3zM897.6 1205.9c-.4.7-.5 1.5-.2 1.8.9.9 1.9-.4 1.4-1.8-.4-1.1-.6-1.1-1.2 0zM780.9 1242.8c-2.9 2.4-2 5.7 1.3 4.7s5.2-3.1 4.5-4.9c-.8-2.1-3-2-5.8.2zM791.4 1250.4c-7.9 3.5-14.4 12.3-14.4 19.3 0 7.4 5.6 11 15.7 10 10-1 15.3-6.7 15.3-16.2 0-10.5-8.1-17-16.6-13.1z"/></svg>