<svg xmlns="http://www.w3.org/2000/svg" width="1706.667" height="925.333" version="1.0" viewBox="0 0 1280 694"><path d="M1031.7 5.2c-11.9 11.8-12.2 24.8-.3 13.8C1035 15.7 1043 3 1043 .6c0-.3-1.3-.6-3-.6-2.2 0-4.2 1.3-8.3 5.2zM1276.6 5.9c-.4.7-.5 1.5-.2 1.8.9.9 1.9-.4 1.4-1.8-.4-1.1-.6-1.1-1.2 0zM1016.6 26.9c-1.9 2-2.1 4.4-.4 3.9 1.8-.6 4-4.5 3-5.2-.5-.3-1.7.3-2.6 1.3zM549 31.2c0 .9.5 2 1.1 2.3 1.7 1.1 2 0 .4-2.1-1.3-1.7-1.4-1.7-1.5-.2zM459.6 36.1c-1.4 1.7-2.6 3.4-2.6 3.9s-4.1 5.5-9.1 11.2c-5.1 5.7-10.8 12.7-12.7 15.5-1.9 2.9-4.1 5.3-4.8 5.3-.7 0-1.9.3-2.8.6-1.1.4-1.6.1-1.6-1 0-2.4-1.3-2-4.5 1.4-1.6 1.6-3.8 3-5 3-1.1 0-2.8.9-3.8 2-2.1 2.5-.2 2.7 3.1.4 1.3-.9 2.9-1.3 3.6-1.1.8.3 2.2 0 3.2-.7 1.3-.9 2.7-1.1 4.2-.5 1.9.7 2.1 1.2 1.2 2.8-1.7 3.3-1.2 6.1 1.1 6.1 4.5 0 18-16.3 27.3-33 2-3.6 5-8.1 6.6-10 1.6-1.9 3.2-4.7 3.5-6.3.6-2.4.4-2.7-1.8-2.7-1.6 0-3.5 1.1-5.1 3.1zM770.5 58c-2.1 2.3-1.2 3.9 1.3 2.4 1.9-1.2 2.9-4.4 1.4-4.4-.5 0-1.7.9-2.7 2zM763.5 68.2c-6.4 2.2-10.8 9-6.9 10.5 3.7 1.4 13.8-7.6 11.9-10.7-.7-1.2-1.1-1.2-5 .2zM983.2 71.2c-1.4 1.4-1.6 3.8-.3 3.8.5 0 1.4-.7 2.1-1.5 1.7-2 0-4.1-1.8-2.3zM405.1 80.6c-3 3.8-2.7 6.9.5 5.7 1.5-.6 4.4-5.4 4.4-7.3 0-1.9-2.9-1-4.9 1.6zM758.5 82c-.3.5-.1 1 .4 1 .6 0 1.1-.5 1.1-1 0-.6-.2-1-.4-1-.3 0-.8.4-1.1 1zM942.4 88.5c-1.9 1.4-1.9 1.4.2 1.5 1.2 0 2.7-.7 3.4-1.5 1.7-2-.9-2.1-3.6 0zM398 89c0 .5.5 1 1 1 .6 0 1-.5 1-1 0-.6-.4-1-1-1-.5 0-1 .4-1 1zM1246.4 90.5c-.4.9-.2 2.1.4 2.7 1.5 1.5 4.4.1 4-1.9-.4-2.3-3.6-2.9-4.4-.8zM391.2 93.2c-1.4 1.4-1.6 3.8-.4 3.8 1.2 0 3.2-2.3 3.2-3.7 0-1.6-1.2-1.7-2.8-.1zM964.7 99.8c-2.2 2.4-2.1 3.2.2 3.2 1 0 2.2-.7 2.5-1.6 1.4-3.7 0-4.6-2.7-1.6zM730.6 103.6c-1.3 1.2-1.4 2-.6 2.8 1.3 1.3 4.5-.4 4.5-2.4 0-2.1-2.1-2.3-3.9-.4zM691.1 108.4c-.8.9-1.1 1.9-.7 2.3.9.9 2.9-1.3 2.4-2.7-.2-.8-.8-.7-1.7.4zM806.2 113c-4.5 2-6.3 4.7-4.2 6 2.6 1.6 11-3.5 11-6.7 0-1.8-1.7-1.6-6.8.7zM816 125.8c-2.5 2.1-2 4.5.8 3.5 2.2-.8 5.2-3.4 5.2-4.5 0-1.5-3.7-.9-6 1zM946.3 125.5c-.3.9-.3 1.8 0 2.1.9.9 2.7-.6 2.7-2.2 0-1.9-1.9-1.8-2.7.1zM983.6 125.6c-2.5 2.4-1.9 3.6.9 1.8 2.5-1.6 3.3-3.4 1.6-3.4-.5 0-1.7.7-2.5 1.6zM1204 130c-.8.6-4 1.7-7 2.6-15.1 4.5-38.3 20.2-48.2 32.7-2.1 2.7-3.8 5.9-3.8 7.1 0 2.4-10.6 10.9-24.3 19.5-3.7 2.4-6.6 4.5-6.4 4.8.6.5 17.1-10 25.7-16.3 6.1-4.5 6.8-4.8 13-4.9 5.2-.1 7.7-.7 12.7-3.3 7.9-4.1 17.9-11.1 25-17.5 8.1-7.4 19.5-21.4 19.1-23.5-.4-2-3.6-2.7-5.8-1.2zM787.2 132.2c-1.7 1.7-1.5 2.8.6 2.8 1.9 0 4.2-1.8 4.2-3.2 0-1.2-3.5-.9-4.8.4zM820.5 132c-.3.5-.1 1 .4 1 .6 0 1.1-.5 1.1-1 0-.6-.2-1-.4-1-.3 0-.8.4-1.1 1zM941.5 135.9c-12 5.6-19.3 13.7-26.9 29.5-2.4 5.1-6.8 12.1-9.7 15.6-3 3.4-6.9 8.2-8.7 10.6-1.8 2.4-3.9 4.4-4.7 4.4-1.6 0-4.7 4.2-4.3 5.8.6 1.9-4.2 7.1-8.7 9.3-5.4 2.7-6.9 4.3-6.1 6.4.5 1.4 1.3 1.1 5.1-1.5 2.5-1.7 4.5-3.5 4.5-4 0-1.5 6.1-8 7.5-8 .7 0 1.5.7 1.9 1.5 1.3 3.6 7.5.9 21.9-9.4 21.2-15.1 30-24.1 35.9-36.7 5-10.7 5.1-26.5.1-26.3-1 0-4.5 1.3-7.8 2.8zM588.5 151c-1.1.4-3.1 2-4.4 3.4-2.9 3.1-1.7 5.2 2.2 4.2 3.2-.8 8.7-5.3 8.7-7.2 0-1.5-3.3-1.8-6.5-.4zM571.5 153.2c-7.2 3.6-17.9 10.1-21 12.6-1.6 1.4-6.2 4-10.1 5.7-4.5 2.1-10.2 6.1-16 11.1-5 4.4-12.4 10.7-16.5 14-16.9 14-31.9 30.7-31.9 35.6 0 7.8 13-2.1 44.5-34.1 29.2-29.6 37.9-36.8 49.3-40.5 5.4-1.8 8.1-4.1 6.6-5.6-.5-.5-2.6 0-4.9 1.2zM816.4 154.5c-7.4 1.6-13.9 4.8-21.9 10.8-8.9 6.6-12.7 10.5-12.3 12.5.5 2.8 4 2.5 10.3-.9 3.2-1.7 9.4-4.1 13.6-5.4 9.7-2.8 16.7-6.8 17.5-9.9.3-1.3 1.6-3.4 3-4.7 4.3-4.1 1-4.9-10.2-2.4zM754.9 157.5c-8.5 3.1-14.7 9.1-12.1 11.7 2.5 2.5 19.6-9.1 17.8-12.1-.9-1.3-1.1-1.3-5.7.4z"/><path d="M680.5 164.8c-5.1 1.2-6.8 3.5-10.9 15.3-2.3 6.5-10 12.1-33.1 24.3-4.9 2.6-10.6 6-12.5 7.4-7.2 5.4-26.6 25.2-38 38.7-15.7 18.7-16.2 19.1-23.5 19.9-7.7.9-17.5 5.6-20.9 10.1-1.4 1.8-2.9 5.3-3.2 7.7-.3 2.4-1.1 5.1-1.8 6-2.2 3-41.1 30.8-43.2 30.8-6.1 0-21.5 7.7-27.6 13.8-2.6 2.5-5.6 6.4-6.7 8.7-2.2 4.6-5.5 7.9-15.7 15.1-4.2 3-6.9 4.4-7.2 3.6-.2-.7-1.4-1.2-2.7-1.2-3.1 0-10.5 2.7-12.6 4.6-.9.8-4.3 2.2-7.4 3-3.2.9-9.5 3.5-14 6-4.5 2.4-8.9 4.4-9.8 4.4-.9 0-1.7.4-1.7.9 0 1.6-15.2 6-39.5 11.2-5.5 1.2-12.2 2.7-15 3.4-5.5 1.4-7.2.7-5.6-2.3 1.8-3.3 33.7-33 47-43.6 12.4-10 22.9-19.4 20.1-18-4.1 2.1-28.9 21.7-43 34-31.8 27.8-33 28.8-35.2 26.6-.7-.7-2.5-1.2-4-1.2s-2.8-.5-2.8-1.1c0-1.9 4.1-7.1 13.5-17 11.2-12.1 16.2-16.2 35-28.8 16.5-11 52.7-36.7 59.4-42 2.3-1.8 4-3.5 3.8-3.8-.3-.2-6.7 4-14.3 9.5-7.7 5.4-15.9 11.3-18.4 13.1-7.3 5.2-36.1 24.1-36.6 24.1-1.3 0 27-25.5 37.1-33.5 11-8.7 26.2-23.5 33.7-32.8 4.4-5.4 7.8-10 7.5-10.3-.2-.3-6.9 6.1-14.8 14.1-7.9 8.1-18.4 18-23.4 22.1-4.9 4.1-12.8 10.6-17.5 14.5-15.2 12.6-47.1 36.1-64.5 47.5-9.3 6.2-20.8 13.9-25.5 17.2-4.7 3.2-15 9.4-23 13.7-8 4.3-17 9.4-20 11.3-3 2-12.7 6.9-21.5 10.9-18.7 8.6-22.2 10.9-27.6 17.7-2.8 3.5-5.5 5.6-8.7 6.9-6.4 2.4-18.4 4.9-19.3 4-.4-.5-.2-3 .4-5.7.8-3.6 2.1-5.9 4.7-8.2 7.7-7.1 27.9-23.4 34.6-28 3.9-2.7 9.7-6.9 12.9-9.4 3.1-2.5 11.2-8.7 17.9-13.9 12.2-9.4 15.5-12.2 12.6-10.6-1.9 1.1-34 22.8-44.7 30.3-4.5 3.1-10.8 7.5-14 9.7-3.2 2.2-10 7.1-15.1 10.9-10.1 7.5-12.9 8.5-24.9 8.6-8.4 0-10.3-.6-10.3-3.1 0-3 25.3-28.4 33.4-33.6 3.8-2.5 9.6-6.7 12.8-9.4 3.3-2.7 7.8-5.9 10.1-7.1 2.3-1.1 7.1-4.9 10.7-8.3 3.6-3.4 10.6-8.9 15.5-12.3 7.7-5.1 20.6-15 36.9-28.4 2.9-2.4 5.1-3.2 8.5-3.4 5.4-.4 9-2.7 11.4-7.6 5.5-11-9.7-13.1-16.1-2.2-1.4 2.5-2.1 4.9-1.8 6.6.5 2.3.1 2.9-2 3.4-1.3.3-3 1.4-3.7 2.4-.6.9-2.7 2.5-4.4 3.4-1.8.9-3.3 2-3.3 2.4 0 1-16.7 13.8-22.4 17.2-2.4 1.4-8.3 5.7-13.2 9.6-4.9 4-11 8.5-13.5 10-2.5 1.6-8.6 5.9-13.5 9.6-11.1 8.4-18.2 12.4-19.6 11-1-1 38.1-41.2 101.7-104.7 12.1-12.1 26.3-26.5 31.5-32.1 9.4-9.9 15.7-14.4 30-21.3 2.5-1.2 7.2-3.9 10.5-6.1 3.3-2.1 6.3-3.9 6.8-3.9.4-.1 1.7 1 2.9 2.4 4.1 4.8 8.7 2.2 13.9-7.9 2.9-5.6 3.2-6.7 2.1-9-2.2-5-7.8-2.7-13 5.3-2.1 3.2-4.7 5.6-7.5 7-4.8 2.4-13.9 7.9-21.9 13.2-2.9 2-6.4 4.1-7.7 4.8-2 1.1-2.2 1.1-1.3-.6.6-1 2-2.7 3.2-3.8 1.2-1.1 4.5-4.7 7.4-8 2.8-3.3-.8-.2-7.9 7-11.8 11.8-13.9 13.5-22.8 17.9-5.4 2.7-10 5.3-10.4 5.9-.3.5 3.3-1.1 8.1-3.5 4.7-2.5 8.6-4.2 8.6-3.8 0 1.1-90.5 91.6-116 116.1-29.5 28.3-36.3 34.4-42.7 38.5-10.7 6.8-30.8 13.4-40.9 13.4-10.6 0-24.5 5.5-31.7 12.5-2.1 2.1-5 6.1-6.4 9.1-1.4 2.9-4.8 7.9-7.5 11.1l-5.1 5.7.7 6.5c.5 6.3.5 6.5-3 10.4-3.5 3.8-3.6 4.2-3.2 9.8.7 9.8 5.8 14.4 13.7 12.3 2.9-.8 4.2-.7 6 .4 1.3.9 4.9 1.6 8.4 1.7 4.3.1 8.2 1.1 12.7 3 6.1 2.6 7.5 2.8 20.5 2.9 14.5.1 18.6-.8 28.8-6.1 1.8-.9 6.6-2.8 10.7-4.2 7-2.4 7.9-2.5 14-1.4 15.9 3 14.5 2.3 17.1 9.1 1.8 5.1 3.8 5.6 12.2 3.3 7.7-2.2 12-2.1 25.2.4 3.9.7 12 1.9 18.1 2.5 11.9 1.3 14.6.8 18.7-3.8 1-1 3.6-2.7 5.8-3.7 3.8-1.7 5.3-1.8 22.2-.7 39.6 2.7 104.8 6.1 116.7 6.2l4.5.1-4 3.6-4 3.5 5.1-3.5 5.1-3.6 9.9.5c5.4.3 35.1.9 65.9 1.4 30.8.4 56.7 1.1 57.5 1.5.8.3 2.4 2 3.5 3.7 1.8 2.7 2.6 3 7.5 3.2 3.1.2 8.5 1 12 1.8 9.8 2.4 18.1 3.8 23.1 3.8 5.5.1 3.3 1.7-3.5 2.6-3.3.5-5.2.2-7-1-3.1-2-5.6-2.1-5.6-.2 0 .8-.9 1.7-1.9 2.1-2.7.8-9 8-10.7 12.2-1.9 4.4-1.1 7.1 3.3 10.9l3.5 3.1-3.6 2.2c-1.9 1.2-5.1 4.1-7 6.3-3.2 3.7-4.2 4.2-12.3 5.8-20.2 4.2-41.4 5.4-47.3 2.8-1.9-.9-5.6-3.6-8.2-6.2-6.2-6.2-11.4-6.3-14.4-.4-1.9 3.6-1.2 7 2.2 11.5 1.9 2.5 3.6 3.4 8.1 4.3 5.9 1.3 9.1.9 21.3-2.5 3-.9 10.9-2.7 17.5-4 6.6-1.4 15.1-3.2 18.9-4 3.8-.8 7.1-1.3 7.3-1.1 1.3 1.2-29.1 14-51.2 21.6-56.8 19.4-115.5 33.2-157.1 37-6.6.6-19.7 2.6-29 4.5s-18.2 3.5-19.9 3.5c-1.6 0-3.7.5-4.5 1.1-1.1.8 0 .9 4 .5 3-.3 11.1-1.1 18-1.6 13.8-1.1 19.3-2 35.5-5.5 6.1-1.3 20.3-4 31.7-5.9 36.9-6.3 50.8-9.5 85.3-19.3 18.9-5.3 62.2-19.6 74.9-24.7 4.9-1.9 9.4-3.3 9.9-2.9.6.3 1.6-.2 2.3-1.2.9-1.3 3.4-2 8.7-2.5 9.1-.9 16.6-4.2 23.4-10.3 6.9-6.1 29-16.6 32.5-15.5.9.3 1.1 3 .9 9.2-.3 9.2.5 11.6 4.1 11.6 2.5 0 6.3-2.7 16.3-11.5 6.6-5.8 9-7.3 13.6-8.4 5.4-1.3 5.8-1.3 8.7.9 3 2.2 3.5 2.3 8.7 1.1 3.5-.8 8-1 12-.6 5.2.6 7.4.3 11.7-1.3 6.3-2.4 19.2-4.2 30.4-4.2 7.6 0 11-.5 34.4-4.9 27.9-5.2 49.7-15.7 65.5-31.5 3.3-3.3 11.6-9.8 18.5-14.5 16.8-11.4 42.2-28.2 45.7-30.2 11.2-6.6 41.3-25.9 41.3-26.6 0-.3-1.5.4-3.2 1.5-1.8 1.1-7.8 4.5-13.3 7.7-5.5 3.2-11.6 6.9-13.6 8.2-1.9 1.2-3.8 2.3-4.2 2.3-.3 0-3 1.4-5.9 3.1-2.9 1.8-5.9 3.2-6.5 3.2-.7 0-1.3.4-1.3.9s-1.7 1.6-3.7 2.6c-2.1.9-4 2-4.3 2.3-1.6 1.9-20.1 10.9-22.4 10.9-5.8 0-1.9-3.4 13.9-11.9 25-13.5 47.6-27.9 73.5-47 6.3-4.6 13.1-9.6 15-10.9 5.2-3.8 29.4-22.4 30.5-23.6 2-2-5.3 2.9-14.5 9.9-59.4 44.6-107.8 72.5-125.7 72.5-5.3 0-4.2-3.1 3.6-10.5 9.4-9 16.3-14.4 34.8-27.4 8.7-6.1 18.3-13.1 21.3-15.6 3-2.4 8.3-6.6 11.7-9.2 3.4-2.7 6-4.9 5.8-5.1-1-1.1-23.1 11.5-34.4 19.7-38.4 27.6-36.3 26.2-40.1 25.9-6.7-.6-4.8-5.3 6.9-17.3 3.7-3.8 8.5-7.3 12.8-9.4 3.7-1.9 10.2-5.7 14.3-8.4 14.1-9.4 32-22.1 31.6-22.4-.6-.6-10.6 4.6-15.6 8.1-4.1 2.9-25.5 15.8-30.7 18.5-3.3 1.7-4.1 1.4-4.8-2-.6-2.6-.2-3.6 2.6-6.6 1.9-1.9 6-4.8 9.2-6.5 3.1-1.7 5.7-3.6 5.7-4.2 0-.6-1.6-2.2-3.5-3.5-1.9-1.3-3.5-2.7-3.5-3.2 0-2 18.6-14.2 35-23.1 6.4-3.4 10-4.7 14.5-5.1 8.3-.8 16-5 20.3-11 6.2-8.6 5.4-17.7-2-22.3-2.1-1.3-3.8-2.8-3.8-3.3 0-.7 6.4-6.9 35-33.6 9.1-8.4 28.2-25.6 39.3-35.3 3.7-3.1 11.7-10.4 17.9-16 10.1-9.3 11.3-10.1 11.6-8 .5 4 2.4 7.8 4.4 8.9 3.8 2 13.9-1.7 24.8-9 2.5-1.7 5.4-3.1 6.4-3.1 1.1 0 4.6-2 7.7-4.5 3.2-2.5 7.5-5.3 9.6-6.3 2.1-.9 6.5-3.6 9.8-5.8 3.3-2.2 9.2-5.9 13-8.2 3.9-2.2 7.9-4.8 9-5.7 2.5-2.1-.7-.3-19.5 11l-14.5 8.6 7.1-7.3c9.3-9.6 14.5-17.5 15.1-23.1.5-3.8.2-4.6-2.1-6.4-14.1-11.1-54.4 10.6-67.2 36.1-1.8 3.8-3.4 7.6-3.4 8.5 0 1.5-26.7 26.2-30.8 28.5-.9.5 0-1.1 2-3.5 6.4-7.8 5.8-12.2-1.7-13.9-5.6-1.3-9.8-.4-19 4.3-9.7 5.1-20.6 15-23.7 21.6-1.7 3.8-4.3 6.4-13 13.2-6 4.6-12.6 9.2-14.6 10.3-2 1-6.4 4.4-9.7 7.5-3.4 3.1-10.1 9-15 13.1-4.8 4.1-12.5 10.9-17 15-18.8 17.3-30.9 27.6-34.3 29.4-2 1-8.1 4.8-13.5 8.2-5.4 3.5-10.1 6.4-10.4 6.4-.3 0-3.5 2.2-7.2 4.8-19.4 14.1-31.9 21.2-37.3 21.2-1.8 0-3.3-.8-4.4-2.5-1.4-2.2-1.5-3-.3-5.8.7-1.7 2-4.3 2.9-5.7 1-1.4 3.4-5 5.4-8.1 4.3-6.5 12.8-15.1 20.8-21.1 3.2-2.4 9-6.9 13.1-10.1 4.8-3.7 16.6-10.5 34.3-19.6 68.3-35.1 65.4-33.4 82.7-48.8 15.1-13.3 17.8-19.1 14.7-30.5-1.4-4.8-4-6.2-10.1-5.5-15 1.8-35.7 18.1-57.4 44.9-7.5 9.3-10.5 14.6-10.5 18.2 0 3.1-3.6 5.5-27 18.1-24.7 13.2-31.2 17.8-46.7 32.9-5.1 4.9-9.5 8.7-9.8 8.5-1.6-1.6 4.8-22.2 10.2-32.9 1.8-3.5 3.1-6.6 2.9-6.7-.3-.4-5.2 7.7-8.4 13.7-.7 1.4-2.1 3.6-3.1 4.9-1.5 2-2 2.2-3.8 1.1-1.8-1.1-2.5-.9-5.6 1.4-2.9 2.2-3.9 2.5-5.6 1.7-1.1-.6-2.7-1.1-3.6-1.1-1.7 0-16.2 13.9-15.8 15.1.1.3-1.8 3-4.3 5.9-2.6 3.1-4.3 5.9-4 6.7.8 1.9-3.9 6.9-8.6 9.4-2.1 1.1-3.8 1.6-3.8 1.3 0-.4 3.6-4.6 8-9.5 4.4-4.8 8-9 8-9.4 0-.4 1-1.5 2.3-2.6 1.2-1 1.7-1.8 1.1-1.9-.6 0-1.7.6-2.3 1.4-1.3 1.6-13 7-13.7 6.3-.3-.2 5.7-5.6 13.3-11.8 7.6-6.2 15.4-12.8 17.3-14.5 9.7-8.8 11.2-9.4 8.1-3.4-.9 1.8-.2 1.4 2.5-1.5 2.1-2.2 5.2-4.7 6.8-5.5 2.4-1.2 3.2-2.4 3.7-5.6.7-3.7 3-6.4 23.6-27 22-22 20.6-21.2-3.7 2.1-6.3 6-10.5 9.9-9.5 8.6 1.5-1.7 2-4 2.1-8.5.1-3.3.7-8.7 1.3-12 .7-3.2.9-6.1.6-6.4-1.1-1.2-4.8 9.6-4.9 14.5-.1 4-.5 5.3-1.8 5.6-1.9.5-7.8 10.3-7.8 12.9 0 1 .7 1.8 1.7 1.8 1.4 0 1.4.3-.5 2-1.2 1.1-2.8 2-3.7 2-.8 0-3 2.1-4.9 4.7-3.5 4.9-8.4 9.5-26.6 24.8-5.8 4.9-12.8 11-15.7 13.7-4.5 4.1-5.8 4.8-9.3 4.8-7.9 0-29.9 8.7-39 15.4-1.9 1.5-14.1 13.1-27 25.9l-23.5 23.2-13 7c-18.3 9.8-23.3 12.1-30.1 14-6.4 1.9-23.2 8.3-30.4 11.7-8.1 3.7-11.5 4-21.1 1.4-2.1-.6-3.4-.1-6.1 2.2-6.4 5.7-34 11-68.7 13.2-8.5.5-17.7 1.3-20.5 1.6l-5.1.7 8.5-8c15.7-14.8 18.9-17.2 26.3-19.4 10.3-3.1 14.7-8.8 15-19.4.1-5.4-1.9-10-4.9-11.2-2.6-1-7.4 1.9-10.3 6.1-1.6 2.3-4.1 7.7-5.7 12-3.3 9.4-8.2 16.1-20.3 27.9-8.3 8.2-9.3 8.8-12.1 8.2-2.8-.6-3.5 0-3.1 2.7.2 1.2-3.2 2.4-6.9 2.3-2.3 0-3.5-.5-3.5-1.4 0-.8-.6-1.6-1.4-1.9-.9-.3-1.1.1-.7 1.6.6 1.7.1 2.1-3.1 2.6-9.5 1.6-42.4 2.7-95.7 3.3-46.6.5-58 .3-58.6-.7-1.3-2.1.8-6.4 4.9-10.4 3.5-3.4 4.1-3.6 6-2.4 1.7 1 2.5 1 4.1 0 1.1-.6 4.1-1.3 6.7-1.4l4.8-.1-5.5-.6-5.5-.6 5-2.9c2.8-1.6 12.7-7.8 22.1-13.8 14.1-8.9 18.7-11.2 25.8-13.3 12-3.5 18.9-6.5 30.6-13.5 5.4-3.3 12.1-7 14.7-8.4 2.6-1.3 6.8-4.2 9.3-6.4 7.3-6.4 32.7-19.9 61.1-32.5 3-1.3 8.4-4.7 11.8-7.5 3.4-2.7 9-6.5 12.3-8.2 5.9-3.2 6.1-3.2 9.4-1.6 2.1.9 3.4 2.3 3.4 3.5 0 3.4 2.5 4.4 10.3 3.9 11.9-.9 36.6-10.4 51.4-20 3.7-2.5 10.1-7.3 14.1-10.9 6.3-5.5 7.3-6.8 6.8-9-.5-2.4.2-3.1 7.2-7.2 13.1-7.6 19.5-10.5 28-12.2 1.8-.4 5.5-2.2 8.3-4.1 4.6-3.1 10.5-5.4 13.8-5.4.7 0 2.8-1.5 4.6-3.4 2.4-2.6 5.7-4.3 12.6-6.7 15.9-5.5 22.5-8.4 27.5-12.4 7.1-5.7 7.4-6.1 2.3-3.1-2.5 1.4-5.7 2.6-7 2.6-3.4 0-26.4 6.7-31 9.1-2.1 1-5 1.9-6.4 1.9-3.6 0-7.9 2.4-9.9 5.5s-8.8 6.4-13 6.5c-1.7 0-3.9.9-5 2-1.2 1-3.9 2.6-6.1 3.6-3.4 1.4-3.7 1.4-2.6 0 1.6-1.9.6-3.6-2-3.6-3.9 0-1.8-2.9 3.6-4.9 11.2-4.2 21.5-10.2 32-18.6 2.2-1.8 5.9-4.2 8.2-5.4 4.2-2.1 5.8-4.6 4.7-7.4-.9-2.5-3.2-2.8-9.2-1.3-3.2.8-9 1.8-12.9 2.2-11 1-10.8-.4 1.9-13.4 5.8-5.9 11.1-11.7 11.7-13 1.9-3.5-.2-5.4-5.8-5.2-7.5.3-7.4.3-5.1-3 3.3-4.6 1.6-5.3-4.9-2-5.2 2.6-11.1 7.9-11.1 9.9 0 .5-2.6 2.4-5.7 4.4-7.6 4.7-10.6 7.9-10.5 11.4.4 7.4.8 9.7 2 10 .6.3 1.2 1.4 1.2 2.6.1 1.2.7 3.3 1.5 4.7 2.3 4.1 1.8 5.9-3.6 11.2-2.7 2.8-5.3 6.4-5.6 8-.4 2.1-1.9 3.6-6.2 6-3.1 1.8-9.6 5.9-14.6 9.1-4.9 3.2-11.5 7.2-14.5 8.8-3 1.7-6.8 3.8-8.5 4.7-1.6.9-6.6 3.7-11 6.1-4.4 2.4-9.2 5.4-10.7 6.6-1.8 1.5-5.1 2.6-10.4 3.4-9.9 1.5-11.6.3-6.1-4.1 2.8-2.3 3.7-3.7 3.7-6 0-1.7-.7-3.6-1.6-4.2-1.3-1 .9-2.9 14.3-11.8 19.1-12.8 21-13.8 26.5-13.8 9.9-.1 20.8-9.1 20.8-17.2 0-2.1.6-5.3 1.4-7.1 1.3-3 42.3-45.4 49.1-50.7 7.5-6 16.4-11.4 33.3-20.4 15.8-8.4 19.5-10 26.5-11.2 8.8-1.5 11.7-3 14.4-7 5.6-8.6-3.7-20.1-14.2-17.6zm307 98.1c-6 5.3-30.9 27.1-41.5 36.2-7.4 6.4-18.8 16.6-25.3 22.8-6.5 6.1-14.1 12.8-17 15-7.4 5.5-19.8 18.7-23.5 25.2-3.8 6.8-5.5 8.1-31.7 25.4-11.5 7.7-25.4 17-30.8 20.7-7.5 5.2-10.7 6.8-13.3 6.8-2.6 0-3.4-.4-3.4-1.8 0-2.7 3.7-5.8 21.5-17.7 27.2-18.4 32.1-22 30.3-22.3-2.2-.4-9 3.1-16.5 8.7-11.7 8.6-28.8 17.8-37.5 20.1-4.8 1.3-7.5-.3-6.4-3.8.8-2.4 10.6-11.1 15.1-13.5 1.7-.9 4.6-3.2 6.5-5.2 1.9-2 5.5-4.8 8-6.3 2.5-1.4 5.6-3.6 7.1-4.9 1.8-1.6 3.8-2.3 7-2.4 3.2-.1 5.8-1.1 9.6-3.5 2.8-1.8 6.6-3.7 8.5-4.2 3.6-.9 4.9-4.1 2.8-6.7-1.6-1.9-1.1-2.5 6.7-7.7 3.8-2.6 8.9-6.8 11.3-9.5 10-10.6 37.1-33.1 45.7-37.8 2.6-1.4 6.5-4.4 8.5-6.6 2-2.1 8.3-6.9 13.8-10.5 10.1-6.6 10.2-6.7 17.8-6.9 8.5-.2 13.9-2 21.7-7.1 5-3.3 6.7-4.1 5-2.5zM898 351c0 .5-1 1.9-2.2 3-2.7 2.5-3.8.8-1.2-2.1 1.8-2 3.4-2.5 3.4-.9zm-109.6 3.7c-.6 3.8-3.8 8.2-4.9 7.1-.6-.6 4.3-10.8 5.2-10.8.2 0 .1 1.7-.3 3.7zm-448.4 1c-.1 1.3-5.1 4.6-5.8 3.8-.4-.3.4-1.5 1.8-2.5 2.6-2.1 4-2.5 4-1.3zm130 .8c1.9 1 2.1 1.5 1 1.9-10.8 3.9-31 10.2-31 9.7.1-1.1 12.5-9.1 14.3-9.1.9 0 1.7-.4 1.7-.8 0-1.2 5-3 8.5-3.1 1.7 0 4.1.6 5.5 1.4zm378 2.4c0 1.2-7.9 6.5-8.6 5.8-.9-.9.6-2.7 4-4.8 3.4-2.1 4.6-2.4 4.6-1zm-394.2 8.7c-3.1 1.6-3.8 3-1.1 1.9 1.2-.4.9.3-.9 2.2-4.1 4.2-18.1 12.4-23.8 13.9-2.7.7-6.9 2.6-9.2 4.1-7.5 5-18.8 9-18.8 6.7.1-1.5 15.7-11.4 17.9-11.4 1.1 0 2.8-1.1 3.7-2.5 1.2-1.9 2.2-2.3 4-1.9 3.3.9 9.2-3.2 10.2-7 .7-2.5 1.5-3.1 5.7-4.2 2.8-.6 6.1-1.6 7.5-2.2 1.4-.6 3.6-1.1 5-1.1h2.5l-2.7 1.5zM414 382.4c0 2.1-22.3 17.2-32 21.8-7.4 3.5-20.3 6.8-21.6 5.6-.9-1 22.5-12.2 28.8-13.8 5.3-1.4 8.1-2.9 12.5-6.7 9.5-8.1 12.3-9.7 12.3-6.9zm443 10.1c0 1.9-8.9 11.8-15.4 17-2.7 2.2-7.9 6.8-11.6 10.2-7.2 6.5-11.3 9-19.8 11.8-6.2 2-8.2 1.5-8.2-2 0-2 1.4-3.4 7.3-7.2 3.9-2.6 10.8-7 15.2-9.9 4.4-2.8 9.1-5.7 10.4-6.4 1.3-.7 6.5-4.3 11.5-8.1s9.4-6.9 9.9-6.9c.4 0 .7.7.7 1.5zm-487 8.4c0 1-5.8 3.6-6.6 2.9-.3-.3.2-1.3 1.1-2.2 1.7-1.7 5.5-2.2 5.5-.7zm-27 4.1c0 1-9.2 4-12.4 4-3.3 0-.4-2 5-3.5 6.1-1.7 7.4-1.8 7.4-.5zm-22.2 40.5c-1.8 1.9-34.4 21.5-35.1 21.2-1.6-.5 14.3-12.7 19.8-15.2 5.3-2.5 14.7-6.4 15.4-6.5.2 0 .2.2-.1.5zm272.8 86.6c.4.8 2.6 1 6 .6 4.1-.4 5.4-.2 5.4.7 0 .8-.6 1.8-1.2 2.3-1.7 1.3-26.4 14.3-27.2 14.3-1.1 0-.6-6.6.7-8.3 1.2-1.7 13.6-10.5 14.9-10.6.4-.1 1 .4 1.4 1z"/><path d="M425 384c0 .5.5 1 1 1 .6 0 1-.5 1-1 0-.6-.4-1-1-1-.5 0-1 .4-1 1zM711.4 166c-4.2 1.9-8.8 6.6-7.8 8.1 1.3 2.1 5.5.6 10.3-3.7 2.8-2.5 5.1-5 5.1-5.5 0-1.4-3.1-1-7.6 1.1zM1276.7 169.8c-2.3 2.5-2.1 3.4.6 3 1.4-.2 2.3-1.1 2.5-2.6.4-2.7-.9-2.8-3.1-.4zM1270.7 177.1c-1.7 1-2.4 3.9-.9 3.9 1.4 0 4.4-3.8 3.5-4.3-.5-.3-1.6-.1-2.6.4zM578.2 179.7c-.4 1-2.9 4.6-5.5 8-3.9 4.9-5.6 6.2-8.5 6.8-4.4.8-9.6 3.8-11.7 6.8-.8 1.2-1.5 4-1.5 6.3 0 3.7-.6 4.6-5.5 9.3-5.7 5.4-7.5 5.8-7.5 1.6 0-1.3-1.2-3.8-2.6-5.5-2.2-2.6-2.5-3.5-1.6-5.4 1.6-3.5 7.1-9.5 10.3-11.2 1.6-.8 3.6-2.8 4.5-4.5 1.5-2.9 1.4-3.3 0-4.8-1.5-1.4-1.9-1.4-4.4-.1-1.5.9-4.3 3.7-6.1 6.2-1.9 2.6-5.9 6.2-8.9 8-19.8 12.1-34.2 24.2-34.2 28.7 0 5.1 7.3 3.3 19.3-4.8 8.1-5.4 11.4-6.7 15.2-5.7 5.4 1.4 5.3 7.2-.2 13.9-1.3 1.6-2.3 3.6-2.3 4.5 0 2.2-14.7 16.1-19 17.9-1.9.9-3.8 2-4.2 2.6-.8 1.4.9 3.7 2.8 3.7 1.8 0 4.6-3 4-4.5-.5-1.3 2.5-4.3 11.3-11.5l5.4-4.4-.7 3.9c-.4 2.1-1.4 4.8-2.2 5.9-.8 1.1-1.4 3.9-1.4 6.3 0 3.1-.7 4.9-2.5 6.9-1.6 1.7-2.3 3.4-2 4.5.4 1 .1 2.9-.5 4.1-.9 2.1-.9 2.1.2.4.7-1.1 2.6-3.2 4.2-4.7 2.2-2.1 2.7-3.1 1.9-4.1-2-2.5 2-11.6 7.5-17 4.5-4.4 5-5.4 5.4-10.3.3-4.1 1.4-6.7 4.3-11.2 6-8.9 11.5-14.3 14.6-14.3 6.2 0 13.6-4.2 17-9.6 2.6-4.3 2.4-6.3-1.1-7.7l-2.9-1.3 4.4-5.6c3.5-4.5 5.1-5.7 7.7-6 4.1-.4 4.5-3.2.5-3.6-1.9-.2-2.9.2-3.5 1.5zM848 182c0 .5.5 1 1.1 1 .5 0 .7-.5.4-1-.3-.6-.8-1-1.1-1-.2 0-.4.4-.4 1zM1257.9 187.4c-3.9 2.9-5.9 5.3-5.9 7.2 0 .2 1.2.4 2.7.4 1.8 0 3.8-1.3 6.5-4.2 6.5-7.1 4.5-9.1-3.3-3.4zM853.5 188c-.3.5-.2 1 .4 1 .5 0 1.3-.5 1.6-1 .3-.6.2-1-.4-1-.5 0-1.3.4-1.6 1zM281.3 203.1c-2.7 1-4.3 3.9-4.3 7.6 0 2.1-1.3 4.1-4.7 7.5-2.7 2.5-5.8 5.1-7 5.7-1.3.7-2.3 1.7-2.3 2.3 0 .7-1.7 3-3.7 5.3l-3.8 4 4-3.8c2.3-2 4.5-3.7 4.9-3.7.5 0 3.5-2.9 6.8-6.5 5.6-6.1 6.2-6.5 10.4-6.5 3.8 0 5-.6 7.9-3.5 1.9-1.9 3.5-3.9 3.5-4.4 0-.9-4.1-3.1-8-4.4-.8-.2-2.5-.1-3.7.4zM847.5 204c-.3.5-1.4 1-2.3 1-2.8 0-9.7 5.2-18.7 13.9l-8.5 8.3 1.1 4.2c.9 3.7.7 4.9-1.4 9.8-2.7 6.1-4.1 7.2-10.1 8.1-5.1.8-13.8 5.1-15.3 7.6-.9 1.5-.9 2.3.2 3.7 2.9 4 16.4 1 26.2-5.8 4.3-2.9 4.5-3.3 3.9-6.7-.3-2 .1-5.6.8-8.1 1.2-4.1 1.7-4.6 5.2-5.3 9.4-1.9 11.5-2.9 17.3-8.4 5.1-4.7 6.1-6.2 6.1-8.9s.6-3.6 3-4.9c3.2-1.6 3.2-3.5.1-3.5-1.1 0-2.4-1.2-3.1-3-1.2-3-3.3-3.9-4.5-2zM716 226.1c0 .5.5.7 1 .4.6-.3 1-.8 1-1.1 0-.2-.4-.4-1-.4-.5 0-1 .5-1 1.1zM1220.8 229.1c-2.4 1.4-2.3 3.9.2 3.9 2 0 4.4-3.2 3.3-4.4-.8-.8-1.5-.7-3.5.5zM789 235.1c0 .5.5.7 1 .4.6-.3 1-.8 1-1.1 0-.2-.4-.4-1-.4-.5 0-1 .5-1 1.1zM250.7 238.8c-2 1.5-5.1 4.4-6.8 6.5-1.7 2.1-4.8 4.6-6.9 5.7-4.6 2.3-5.6 3.8-4.1 5.3.9.9 2.3-.1 5.9-4.1 2.6-2.9 5.9-6.1 7.3-7 2.3-1.5 9.7-9.3 8.8-9.2-.2.1-2.1 1.3-4.2 2.8zM844.1 240.4c-1.2 1.4-.5 2.6 1.6 2.6 1.5 0 1.8-2.6.4-3.4-.5-.3-1.4 0-2 .8zM856.4 247.2l-1.9 2.3 2.3-1.9c1.2-1.1 2.2-2.1 2.2-2.3 0-.8-.8-.2-2.6 1.9zM768.5 247c-.3.6.1.7.9.4 1.8-.7 2.1-1.4.7-1.4-.6 0-1.3.4-1.6 1zM852 248c0 .5.5 1 1 1 .6 0 1-.5 1-1 0-.6-.4-1-1-1-.5 0-1 .4-1 1zM851.4 253.2l-2.9 3.3 3.3-2.9c1.7-1.7 3.2-3.1 3.2-3.3 0-.8-.8-.1-3.6 2.9zM762.5 252c-.3.5.1 1 .9 1 .9 0 1.6-.5 1.6-1 0-.6-.4-1-.9-1-.6 0-1.3.4-1.6 1zM1191.7 255.7c-1.5 1.5-.6 3.3 1.7 3.3s4.1-2.2 2.9-3.4c-.8-.8-3.8-.8-4.6.1zM843.5 262.2l-4 4.3 4.3-4c2.3-2.1 4.2-4 4.2-4.2 0-.8-.9 0-4.5 3.9zM698 259.9c-4.8 1.5-9 4.2-9 5.8 0 2.3 6.2 1.1 11.2-2.2 5.3-3.5 4.1-5.5-2.2-3.6zM226.5 261c.3.5.8 1 1.1 1 .2 0 .4-.5.4-1 0-.6-.5-1-1.1-1-.5 0-.7.4-.4 1zM275.7 262.6c-1.4 1.4-.7 3.5 1.1 3.2.9-.2 1.7-1 1.7-1.7 0-1.6-1.8-2.5-2.8-1.5zM782.3 264c-2.9 1.2-2.9 2.6 0 3.2 1.6.3 2.8-.3 4-1.9 1.7-2.2 1.7-2.3 0-2.2-1 0-2.8.4-4 .9zM767 265c0 .5.4 1 .9 1 .6 0 1.3-.5 1.6-1 .3-.6-.1-1-.9-1-.9 0-1.6.4-1.6 1zM808.6 267.3c-2.2 5.1-1.5 7.1.8 2.3.9-2 1.5-4.2 1.3-4.9-.3-.7-1.2.5-2.1 2.6zM494 268.1c0 .5.5.7 1 .4.6-.3 1-.8 1-1.1 0-.2-.4-.4-1-.4-.5 0-1 .5-1 1.1zM489.5 271c-.3.5-.1 1 .4 1 .6 0 1.1-.5 1.1-1 0-.6-.2-1-.4-1-.3 0-.8.4-1.1 1zM484.5 273.9c-.6 1.1.9 2.3 1.9 1.4.9-.9.7-2.3-.3-2.3-.6 0-1.2.4-1.6.9zM585.5 276.4c-4 1.7-6.2 4.3-4.7 5.8s5.5.3 9.1-2.8c4.8-4 2.1-5.8-4.4-3zM514.3 277.7c-1.8.6-1.6 3.3.1 3.3 1.9 0 3.1-1.9 2-3-.5-.4-1.5-.5-2.1-.3zM1170 283c0 .5.5 1 1 1 .6 0 1-.5 1-1 0-.6-.4-1-1-1-.5 0-1 .4-1 1zM512.5 284c-.3.5-.1 1 .4 1 .6 0 1.1-.5 1.1-1 0-.6-.2-1-.4-1-.3 0-.8.4-1.1 1zM748 284c-.8.5-1.2 1.2-.8 1.5 1 1 4.9-.5 4.3-1.6-.8-1.1-1.6-1.1-3.5.1zM795.2 289.1c.2.6.8 1 1.3 1s1.1-.4 1.3-1c.2-.6-.4-1.1-1.3-1.1s-1.5.5-1.3 1.1zM186.4 295.5c-1 2.5 1 3.9 3.6 2.5s2.2-3.4-.8-3.8c-1.3-.2-2.5.3-2.8 1.3zM182.6 295.7c-1.1 1.1-.6 2.3.9 2.3.8 0 1.5-.4 1.5-.9 0-1.3-1.6-2.2-2.4-1.4zM451.4 297.1c-.3.6.1 1.8 1 2.7 1.5 1.5 1.7 1.5 3.2 0 1.9-1.9 1.1-3.8-1.6-3.8-1 0-2.2.5-2.6 1.1zM724.7 298.3c-1.8 1.2-1.8 1.4-.2 2.7 1.5 1.2 2.1 1.2 4.3 0 1.4-.8 2.5-2 2.4-2.5-.2-1.6-4.5-1.7-6.5-.2zM653.9 301.3c-1.9 1.2-3.5 3-3.7 4-.6 2.8 4.1 2.1 7.1-1.1 4.9-5.1 2.7-7-3.4-2.9zM318.6 303.2c-.9 1.2-1.6 2.6-1.6 3.1 0 1.3 2.9-1.2 4.1-3.5 1.4-2.6-.6-2.3-2.5.4zM498.4 304.1c-1 1.7 1.3 3.6 2.7 2.2 1.2-1.2.4-3.3-1.1-3.3-.5 0-1.2.5-1.6 1.1zM162.5 305.7c-2.1 2.1-1.4 3.8 1.6 3.8 1.7 0 2.5-.6 2.7-2.1.4-2.7-2.3-3.8-4.3-1.7zM545 307.2c-5.8 1.3-12.2 5.6-13.4 9.1-1.6 4.3.1 4.9 6.9 2.4 10.9-4.1 16.3-8.1 15.2-11.2-.7-1.7-2.2-1.7-8.7-.3zM691 312c0 .5.5 1 1 1 .6 0 1-.5 1-1 0-.6-.4-1-1-1-.5 0-1 .4-1 1zM309.7 315.7c-.4.3-.7 1.1-.7 1.7 0 .6.5.5 1.2-.2.6-.6.9-1.4.7-1.7-.3-.3-.9-.2-1.2.2zM411.3 323.7c-.7.3-1.3 1.3-1.3 2.4 0 2.3 3.5 2.6 4.3.5.7-1.7-1.3-3.5-3-2.9zM657.2 328.1c.2.6.8 1 1.3 1s1.1-.4 1.3-1c.2-.6-.4-1.1-1.3-1.1s-1.5.5-1.3 1.1zM642 334c0 .5.7 1 1.5 1s1.5-.5 1.5-1c0-.6-.7-1-1.5-1s-1.5.4-1.5 1zM977.5 334.6c-7.7 1.9-13 5.1-18.7 11.2-10.5 11.2-5.7 17.3 9.5 12.3 8.8-2.9 12.7-3.1 14-.6.6 1.1 1.9 3.2 2.9 4.7 2.1 3.1 2.4 11.7.7 15.1-.6 1.2-2.2 3.3-3.4 4.7-1.2 1.4-2.5 4.3-2.8 6.5-.7 4.4-7.7 15.2-9.6 14.7-.6-.1-1.4.5-1.8 1.4-.3.9-1.4 2.6-2.5 3.8-1 1.1-5 5.8-8.9 10.4-3.9 4.5-8.6 9.4-10.6 11-2 1.5-4.3 3.6-5.2 4.7-4.2 5.2-13.7 13.6-17.4 15.3-2.3 1.1-5.2 3.4-6.4 5-1.4 1.9-3.3 3.2-5 3.4-1.7.2-2.9 1-3.1 2-.5 2.6 2.1 2.2 4.8-.6 1.4-1.6 3.6-2.6 5.9-2.8 2.8-.2 3.9-.9 4.9-3 1.7-3.6 10.6-11.3 16-13.9 2.7-1.3 5.3-3.7 6.9-6.2 2.8-4.4 6.4-8.1 10.5-10.7 5.6-3.4 13.8-11.9 13.8-14.2 0-3 8.8-13.8 14.1-17.3 4-2.6 4.1-2.8 3.6-7-.5-3.6-.2-4.9 2.6-9 4.9-7.4 10.6-16.7 11.7-19.3 1.2-2.8.4-6.6-1.7-8.4-.8-.7-2.5-3.5-3.7-6.3-1.3-2.7-3-5.6-4-6.4-2.4-2-10.2-2.3-17.1-.5zM647 336.6c0 .9.7 1.4 1.7 1.2 2.5-.5 2.8-2.8.4-2.8-1.2 0-2.1.6-2.1 1.6zM33.5 339c.3.5 1 1 1.6 1 .5 0 .9-.5.9-1 0-.6-.7-1-1.6-1-.8 0-1.2.4-.9 1zM1097 343c0 .5.5 1 1 1 .6 0 1-.5 1-1 0-.6-.4-1-1-1-.5 0-1 .4-1 1zM588.3 347.7c-.7.3-1.3 1.4-1.3 2.5 0 1.4.6 1.9 2.2 1.6 1.3-.2 2.4-1 2.6-1.9.3-1.8-1.5-2.9-3.5-2.2zM1269.5 350c-.3.5-.1 1 .4 1 .6 0 1.1-.5 1.1-1 0-.6-.2-1-.4-1-.3 0-.8.4-1.1 1zM333.5 369.1c-1 1.5.1 2.3 2 1.5.9-.3 1.3-1 1-1.6-.8-1.3-2.2-1.3-3 .1zM575.2 369.6c-2.3 1.6-2.7 5.2-1.3 10.4.6 2.2 1.1 2.4 5.1 2.2 3.3-.2 5.1-1 6.8-2.8 2.9-3.2 2.8-5.9-.3-8.9-2.8-2.9-7-3.2-10.3-.9zM537 378c0 .5.5 1 1 1 .6 0 1-.5 1-1 0-.6-.4-1-1-1-.5 0-1 .4-1 1zM1110.9 383.3c-7.8 4-13.2 11-15 19.6-1.5 7-3.7 11.4-8.4 16.8-4.9 5.7-20.7 18.9-30.8 25.7-4.5 3-13.1 9.3-19.1 13.9-6.4 5-16.1 11.3-23.5 15.2-7.3 3.9-17 10.2-23.1 14.9-17.6 13.9-25.8 18.5-46 26.1-6.9 2.6-15.2 6.2-18.5 7.9-3.3 1.8-8.1 3.6-10.8 3.9-2.6.4-6.5 1.6-8.7 2.7-2.1 1.1-4.9 2-6 2-2.5 0-8 5.1-8 7.4 0 .9-1.8 2.4-4.2 3.5-7.5 3.3-31.6 13.1-32.3 13.1-.5 0-4.1 1.6-8.1 3.5s-8.7 3.5-10.6 3.5c-3.4 0-12.1 4.5-20.6 10.7-2.3 1.7-6.2 3.5-8.5 3.8-5.2.9-6.8 1.7-13.3 6.6-6.2 4.8-10.4 6.5-18.4 7.8-4.6.8-7.4 1.9-10.2 4.1-5.6 4.5-10.2 6.2-19.8 6.9-4.7.4-9.8 1.5-11.5 2.4-9 4.9-14.6 7-29.7 11.2-31.3 8.6-62.9 14.5-78.3 14.6-10.9.1-17.5-1.2-30.3-6.2-11.9-4.6-21.9-6-33.8-4.8-6.9.7-12.2.7-17.4 0-9.4-1.4-16.2-1.1-16.8.8-.4 1.1.3 1.2 3.1.7 2.1-.4 3.8-.2 4.2.4.3.5 2 1 3.6 1 3.2 0 6.9 1.6 8.1 3.4.4.6.8 2.3.8 3.7 0 3.9 6.9 11.2 13.2 14 4.8 2.1 6.7 2.3 19.3 2.3 8.1-.1 20.7-1 30-2.2 8.8-1.2 21.3-2.6 27.7-3.2 13.9-1.2 32-5 41.5-8.6 12.7-4.7 32.8-11.3 39.6-12.9 3.7-.9 9.6-1.5 13-1.3 7.2.2 8.8-.5 16.2-7.2 6.4-5.8 11.9-7.8 17.4-6.4 4.7 1.3 7.2.4 12.4-4.2 5-4.6 11.8-7.8 12.9-6.1.6.9.8.9.8 0 0-.7 1.6-1.5 3.5-1.8 1.9-.3 5-.7 6.9-1 2.3-.4 5-2.1 7.9-5 2.5-2.4 5.8-4.7 7.4-5.1 16.3-3.7 18.9-4.8 23.1-10.2 1.7-2.1 5-4.7 7.4-5.7 2.4-1.1 6.2-3.2 8.6-4.8 5-3.3 21.4-11.2 25.4-12.2 2-.5 2.7-.3 3.1 1.2.4 1.4.5 1.3.6-.5.1-1.4 1-2.6 2.7-3.2 2.3-.9 3.1-.6 6.9 2.9 8.3 7.6 17.1 7.6 23.9.1 3-3.4 3.6-4.7 3.6-8.6 0-8 .3-8.3 20-15.4 5.8-2.1 17.7-6.6 26.5-10 8.8-3.4 21.1-7.5 27.3-9.1 14.7-3.8 20.9-7 31.2-16.4 5.5-5 11.3-9.1 16.5-11.7 14.9-7.5 22-12.1 31-20.2 8.4-7.6 21.8-18 32.5-25.3 2.5-1.7 9.5-5.2 15.6-7.7 17.6-7.4 22.8-13.2 22.9-25.7 0-5.6-.4-7-2.7-10.1-4.3-5.6-11.7-8.8-20.4-8.8-6.2 0-8.1.5-13.5 3.3zM198 384.6c0 .9.7 1.4 1.7 1.2 2.5-.5 2.8-2.8.4-2.8-1.2 0-2.1.6-2.1 1.6zM535.3 391.6c-.7 1.8 1.1 3.9 2.6 3 1.7-1.1 1.3-4.6-.4-4.6-.9 0-1.8.7-2.2 1.6zM1038 394.1c0 1.4.5 1.9 1.7 1.7 2.6-.5 2.9-3.8.4-3.8-1.5 0-2.1.6-2.1 2.1zM997.6 400.1c-5.9 4.6-.9 13.8 6.1 11.3 5.6-1.9 6.8-9.9 1.8-12.2-3.6-1.7-4.8-1.5-7.9.9zM529 409c0 .5.5 1 1 1 .6 0 1-.5 1-1 0-.6-.4-1-1-1-.5 0-1 .4-1 1zM512.3 411.6c-.3.8-.1 2 .5 2.6 1.6 1.6 4.2.2 4.2-2.2 0-2.4-3.8-2.8-4.7-.4zM194.5 419.8c-9.6 6.5-14.5 10.5-14.5 11.8 0 .8.3 1.4.6 1.4 1.3 0 9.2-6.1 9.7-7.5.4-.8 1.5-1.5 2.5-1.5 2.2 0 6.2-3.5 6.2-5.5 0-1.9.2-2-4.5 1.3zM432 434.5c0 1.7.2 1.8 2.4.9 2.3-.9 2-2.4-.4-2.4-1.1 0-2 .7-2 1.5zM845.6 433.9c-.3.5.1 1.4.9 2.1 1.2 1 1.5 1 1.5-.3 0-1.9-1.6-3.1-2.4-1.8zM466.7 439.7c-1.2 1.1-.8 2.3.8 2.3.8 0 1.5-.7 1.5-1.5 0-1.6-1.2-2-2.3-.8zM328 446.6c0 .9.5 1.4 1.2 1.2 1.8-.6 2.1-2.8.4-2.8-.9 0-1.6.7-1.6 1.6z"/><path d="M955.2 446.6c.4 2.1 2.2 2.3 2.6.1.2-1-.3-1.7-1.3-1.7s-1.5.6-1.3 1.6zM423.1 455.3c-.6.6-1.1 1.7-1.1 2.5 0 1.9 4.4 1.1 4.8-.9.4-2-2.2-3.1-3.7-1.6zM483 455c0 .5.5 1 1 1 .6 0 1-.5 1-1 0-.6-.4-1-1-1-.5 0-1 .4-1 1zM951 456c0 .5.5 1 1 1 .6 0 1-.5 1-1 0-.6-.4-1-1-1-.5 0-1 .4-1 1zM959 458.1c0 .5.5.7 1 .4.6-.3 1-.8 1-1.1 0-.2-.4-.4-1-.4-.5 0-1 .5-1 1.1zM312.2 459.2c-1.4 1.4-1.6 3.8-.4 3.8 1.2 0 3.2-2.3 3.2-3.7 0-1.6-1.2-1.7-2.8-.1zM443.1 462.9c-1.7 1.1-.5 3.1 1.9 3.1s3.6-2 1.9-3.1c-.8-.5-1.6-.9-1.9-.9-.3 0-1.1.4-1.9.9zM890 466.5c0 .8.5 1.5 1 1.5.6 0 1-.7 1-1.5s-.4-1.5-1-1.5c-.5 0-1 .7-1 1.5zM308.8 467.1c-3.5 2-.8 6.7 3.2 5.4 2.2-.7 2.7-3.4.8-5.3-1.4-1.4-1.8-1.4-4-.1zM406.3 467.6c-.6 1.6 1.1 3.4 3.3 3.4 1.7 0 3.7-2.7 2.9-4-1-1.6-5.5-1.2-6.2.6zM878.5 467.9c-.6 1.1.9 2.3 1.9 1.4.9-.9.7-2.3-.3-2.3-.6 0-1.2.4-1.6.9zM945.7 467.6c-.9 1 .2 2.4 1.9 2.4.8 0 1.4-.7 1.4-1.5 0-1.5-2.1-2.1-3.3-.9zM299.8 469.7c.7.3 1.6.2 1.9-.1.4-.3-.2-.6-1.3-.5-1.1 0-1.4.3-.6.6zM425.5 475c-.3.5.1 1 1 1s1.3-.5 1-1c-.3-.6-.8-1-1-1-.2 0-.7.4-1 1zM925.3 490c-6.5 3.9-8.7 11.6-4.3 15.2 2.9 2.3 5.7 2.3 9.7-.2 4-2.4 6.2-5.7 7-10.5.5-3 .2-4.1-1.2-5.1-2.7-2-7.5-1.7-11.2.6zM385.6 518.9c-.3.4-2.2 1.1-4.2 1.4-4.3.7-6.4 2.3-6.4 4.9 0 4.2 6.9 3.5 8.9-.9.7-1.6 1.7-3.6 2.2-4.6.9-1.7.5-2.4-.5-.8zM478.7 522.7c-.4.3-.7 1.2-.7 2 0 1.7 2.6 1.7 3.3-.1.8-2.1-1.1-3.5-2.6-1.9zM46.7 530.8c-2 2.2-2.2 5.2-.4 5.2 1.9 0 6-4.7 5.2-5.9-1-1.6-3-1.3-4.8.7zM501.3 532.8c-4.6 1.9-6.4 3.2-4.2 3.1 2 0 11.7-4.7 9.9-4.8-.8 0-3.4.8-5.7 1.7zM233.3 537.9c-12.9 7.1-26.1 19.7-31.9 30.4-2.9 5.3-7.8 11.2-18.8 22.7-18.8 19.6-25.5 27.3-28.6 33.2l-2.4 4.7 2.4 2.7c2.4 2.5 2.8 2.6 10.5 2 4.4-.3 10.5-.9 13.6-1.2l5.7-.6 2.4 4.8c2.9 5.9 6.2 7.5 11.1 5.5 6.2-2.5 6.6-2.5 7.6.2 1.5 3.9 4.1 4.7 14.3 4.7 12.5-.1 21-3.7 17.8-7.5-2-2.4-8.9-3.8-18-3.7-6.9.1-9-.2-10.9-1.7-1.4-1.1-2.2-2.5-1.8-3.4.5-1.4 11.4-5.7 14.5-5.7.7 0 2.9-1.2 4.8-2.6 2.7-2.1 4.1-2.5 6.8-2 3.8.7 6.9-1.4 6.4-4.3-.5-2.7-4.8-2.6-7.2.3-1.2 1.4-4.6 3.4-7.6 4.4-3 1.1-7.9 2.9-10.7 4.1L208 627v-3c0-2.4-.5-3.1-2.7-3.6-2.1-.6-3-.2-4.1 1.4-1.1 1.7-2.4 2.2-5.7 2.2-3.5 0-4.9.6-7.1 2.9-3.1 3.3-5.9 4-18 4.6-7.4.4-8.7.2-10.4-1.5-3.2-3.2-2.4-6.6 2.9-13.7 6.7-8.9 30.1-29.7 36.9-32.8 23.4-10.7 51.5-38.4 47.2-46.5-1.6-3-7.3-2.6-13.7.9zM354.5 540.1c-1 1.5.3 2.5 1.6 1.2.7-.7.7-1.3.1-1.7-.6-.3-1.4-.1-1.7.5zM169.4 547.5c-.7 1.8.3 3.5 2.1 3.5 1.6 0 3.8-3.4 2.8-4.4-1.2-1.1-4.4-.6-4.9.9zM343 550.5c-1.4 1.7-.5 3.5 1.9 3.5 2.2 0 4.5-2.5 3.6-4-.9-1.5-4.1-1.2-5.5.5zM150.7 550.7c-1.4 1.3-.6 3.3 1.2 3.3 1.9 0 3.5-2.3 2.4-3.4-.8-.8-2.8-.8-3.6.1zM143 553.5c0 .8.5 1.5 1 1.5.6 0 1-.7 1-1.5s-.4-1.5-1-1.5c-.5 0-1 .7-1 1.5zM129 559c-.9.6-1 1-.3 1 .6 0 1.5-.5 1.8-1 .8-1.2.4-1.2-1.5 0zM405.7 569.4c-7.9 2.2-13.3 7.4-9.2 9 1 .4 3.4-.7 6.2-2.7 2.4-1.7 6.1-4.2 8.1-5.4 4.3-2.6 2.5-2.9-5.1-.9zM303.1 576.4c-.9 1-.8 1.6.3 2.5 1 .9 1.6.8 2.5-.3.9-1 .8-1.6-.3-2.5-1-.9-1.6-.8-2.5.3zM76.9 589.8c-5.3 3.5-8.4 6.8-7.1 7.6 2.3 1.4 16.2-6.8 16.2-9.6 0-1.7-4.8-.7-9.1 2zM269.7 596.6c-.9 1 .2 2.4 1.9 2.4.8 0 1.4-.7 1.4-1.5 0-1.5-2.1-2.1-3.3-.9zM58.5 602c-.3.5-.2 1 .4 1 .5 0 1.3-.5 1.6-1 .3-.6.2-1-.4-1-.5 0-1.3.4-1.6 1zM245.5 610.9c-.6 1.1.9 2.3 1.9 1.4.9-.9.7-2.3-.3-2.3-.6 0-1.2.4-1.6.9z"/><path d="M205 615.1c0 .5.5.7 1 .4.6-.3 1-.8 1-1.1 0-.2-.4-.4-1-.4-.5 0-1 .5-1 1.1zM55.4 619.5c-.8 2.1.3 3.4 2.6 2.8 2.7-.7 2.7-4.3 0-4.3-1.1 0-2.3.7-2.6 1.5zM77 619.1c0 .5.5.7 1 .4.6-.3 1-.8 1-1.1 0-.2-.4-.4-1-.4-.5 0-1 .5-1 1.1zM522 621.5c-1.1 1.3-.8 1.5 1.3 1.5 3 0 4.4-1.5 2.1-2.4-2.1-.8-2-.8-3.4.9zM16.8 634.2c-2.6.7-5.6 3-10.2 8C3 646 0 649.3 0 649.4c0 .2 3.7-1 8.2-2.5 4.5-1.6 8.3-2.9 8.5-2.9.2 0 2.1-1.6 4.3-3.6 3.3-3 3.8-3.9 2.9-5.5-1.1-2.1-1.7-2.2-7.1-.7z"/></svg>