<svg xmlns="http://www.w3.org/2000/svg" width="1706.667" height="1706.667" version="1.0" viewBox="0 0 1280 1280"><path d="M703.7 267.2c-3.1 1.1-5.7 6.2-5.7 11.3 0 6.2-2.1 10.1-5.2 9.6-.5 0-.8.3-.8.9 0 1.3-10.7 15.1-13.1 16.8-1 .7-1.9 1.9-1.9 2.7 0 .7-.8 1.6-1.8 1.9-.9.3-3.1 1.8-4.9 3.3-1.7 1.6-4.6 4-6.4 5.4-1.9 1.4-4.3 4.3-5.4 6.5-1.1 2.1-3 5.4-4.3 7.3-1.2 1.9-2.8 5.4-3.4 7.8-.6 2.5-1.6 4.3-2.4 4.3-1.6 0-1.9 1.6-.4 2.5 1.2.7.7 3-2 8.9-1.2 2.6-1.5 4.8-1 6.5.4 1.4.4 4.8.1 7.6-.4 3.7 0 6.8 1.7 11.9 2.9 8.9 2.8 9.4-1 12.8l-3.3 2.8 4.8-2.2 4.7-2.2 3.8 3.6c2 2 7.1 5.3 11.2 7.3 4.1 2.1 8.2 4.3 9 5 .8.7 2.3 1.5 3.3 1.6 1.8.4 1.8.6-.3 3.1-2.4 3.1-5.1 3.6-7 1.3-.7-.9-1.9-1.4-2.5-1.1-.7.2-1.7 0-2.2-.5-.6-.6-1.8-.1-3.2 1.2-2.1 2-2.1 2.2-.6 3.9 1.6 1.7 1.5 1.9-.2 2.8-2.5 1.3-6.4-.3-7-2.9-.4-1.6-1.1-1.9-2.9-1.5-1.3.4-2.4.3-2.4-.1-.1-.5-1.2-2.2-2.6-3.8l-2.5-3 2.1 4.7c1.1 2.6 1.7 5.4 1.3 6.4-.4 1.1-.3 1.5.5 1 .6-.3 1.4-.1 1.7.5 1.2 1.8-.2 2.1-3.7.6-1.8-.8-6.2-1.5-9.7-1.5-3.4 0-6.9-.6-7.7-1.3-1.7-1.4-6.4.3-6.4 2.3 0 .7-1.7 2.4-3.8 3.7-2 1.4-4.3 3.2-5.1 4-1.2 1.4-1.3 1.3-.8-.7.3-1.2.1-2.2-.4-2.2s-.9.7-.9 1.5-.9 1.5-2 1.5c-1.4 0-2-.7-2-2.1 0-1.9-.2-2-1.7-.8-.9.8-3.8 1.4-6.5 1.4-4.3 0-4.8-.2-4.8-2.3 0-1.2-.5-2.2-1.1-2.2-.5 0-.7-.6-.4-1.3.4-.6-.1-.3-.9.7-.9 1.1-1.6 2.3-1.6 2.7 0 .4-1.9 1.6-4.2 2.7-4.4 2-6.8 1.5-6.8-1.4 0-3-5.1-3.8-16.1-2.5-4.5.6-9.3 1.8-10.7 2.7-2 1.3-2.6 1.4-3.3.3-.6-1-.3-1.5.9-1.8.9-.2 4.4-2.2 7.7-4.6 6.9-4.8 10-6.1 11-4.5.3.5 1.4 1 2.3 1 1.3-.1 1.1-.4-.7-1.4l-2.5-1.4 3.5-1.7c1.9-1 4.8-2.9 6.5-4.1 1.7-1.3 3.8-2.4 4.7-2.4.9 0 1.9-.5 2.2-1 1-1.6 2.3-1.2 3 .9.7 2.4 4.2 3.3 6.8 1.9 1.2-.6 3.8-1.2 5.9-1.3 2.1-.2 5-1.3 6.4-2.4 1.5-1.2 3.1-2.1 3.7-2.1.6 0 2-.8 3.1-1.9 2.8-2.4 9-4.5 9.4-3.1.2.5.8 1 1.4 1 .6 0 .7-.7.4-1.5-.4-1 .2-1.9 1.7-2.4 2.7-1.1 6.4-5 6.6-7.1 1.1-12.3 1.2-15.9.2-21.6-.7-3.6-1.9-7.7-2.7-9-1.2-1.8-1.5-4.1-1.1-10.1.3-4.3.2-6-.1-3.8l-.7 4-1.8-2.7c-1.1-1.5-1.5-3.3-1.1-4 .5-1 .4-1.1-.7-.1-1.8 1.8-2.7 1.6-4-.8-.8-1.6-.8-2.3.1-2.9.9-.5.9-.9.1-1.4-.6-.4-1.1-.2-1.1.3 0 .6-.5 1.1-1.1 1.1-.6 0-.9-.7-.5-1.5.3-.9 0-1.5-.9-1.5-1.8 0-1.9-1.2-.3-2.8.9-.9.9-1.5 0-2.4-.9-.9-1.2-.8-1.2.5 0 .9-.7 1.7-1.5 1.7-.9 0-1.5-.9-1.5-2.4 0-1.4-.4-2.8-1-3.1-.5-.3-1-3.1-1-6.1 0-3.9-.4-5.4-1.4-5.4-.7 0-1.6.9-1.9 2-.3 1.1-1.1 2-1.7 2-.8 0-1-.9-.6-2.5.4-1.4.3-2.5-.1-2.5-1.3 0-3.3-5.2-3.3-8.4 0-1.6.7-3.7 1.6-4.7.8-.9 2.1-4.8 2.7-8.6.6-3.7 1.6-7.1 2.2-7.6.7-.5.6-1-.2-1.5-.7-.4-1.2-2.5-1.1-4.5.1-2.1-.3-4.2-.8-4.7s-4.1 0-8.7 1.2c-6.8 1.9-8.7 2.9-14.8 8.4-9.1 8-11.2 9-14.7 7.8-2.4-.9-2.7-1.5-2.5-5 .2-2.8 0-3.5-.7-2.4-.5.8-1 2.3-1 3.4 0 1-3.2 5.1-7.1 9.1-6 6.2-6.8 7.5-5.4 8.3 1.9 1 2.5.3-8.4 8.4-10.6 7.8-11.8 10.3-8 16.4 1.5 2.6 2.2 5.7 2.6 12.8.5 8.3.4 9.7-1.4 12.2-1.1 1.6-2.9 4.9-4 7.4s-3 5.5-4.2 6.7c-1.1 1.2-2.8 4.1-3.7 6.5-.9 2.4-2.2 5.7-3 7.4-3.6 8.3-6.8 18.8-8.1 27.4-2.3 13.9-3.2 17-4.9 17-1.1 0-1.4-.6-.9-2.3.4-1.2 1.1-2.6 1.6-3.2.5-.5.9-2.7.9-4.8 0-3-.4-4-2-4.4-1.1-.3-2-1.1-2-1.8 0-1.5-3-2.8-5.1-2.3-.7.2-2.2 1.1-3.3 2-1.1 1-3.1 1.8-4.5 1.8s-5 1.1-7.9 2.5c-3 1.4-6 2.5-6.8 2.5-.8 0-2.3.9-3.5 2.1-1.5 1.5-1.9 2.7-1.4 5 .6 2.4.2 3.3-1.8 5-1.4 1-3.5 3.4-4.6 5.3-2.4 3.9-5.2 5-7.8 3-2.6-1.9-3.3-1.7-3.3 1 0 1.3-.7 2.9-1.5 3.6-1.2 1-1.5 1-1.5-.1.1-3.1 3-19.8 4.4-25.2 3.2-11.6 1.6-16.9-7-24.2-2.9-2.5-5.9-5.8-6.6-7.3-4.4-9.2-22.2-7.3-30.2 3.3-3.7 4.8-10.1 17.1-11.7 22.3-1.1 3.9-1 4.4 1.4 8 2.4 3.4 2.7 4.7 2.8 13.7.1 5.5.1 12.4 0 15.4l-.1 5.4-3.4-3.5c-1.8-1.9-3.7-4.9-4.1-6.6-.7-3.6-1-3.7-4.5-1.7-1.4.8-5.3 1.5-9 1.5-10.1.1-15.9 4.3-17.5 12.5-.4 2.2-.8 7.6-.9 12-.1 7.1.3 8.6 2.9 13.3 1.6 2.9 4.7 6.6 6.9 8.3 5.7 4.2 10.4 3.8 5.7-.5-2.9-2.6-4.3-6.8-3.9-11.7.3-3.8.8-4.7 5-7.9 6-4.5 15.7-7.5 19.2-5.9 3.1 1.4 7.6 9.7 7.6 13.9 0 3.1.1 3.2 3.3 2.6 1.7-.3 3.8-.2 4.6.3 1.6 1-1.3 4.3-9.9 11.1-2.4 1.9-5.6 4.7-7.1 6.2-1.5 1.6-3.7 2.8-4.9 2.8-1.2 0-3.1.5-4.2 1.1-1.7.9-1.8 1.3-.7 2 1 .6.6.9-1.3.9-1.5 0-3 .4-3.3 1-.4.6 1 1 3.4 1 3 0 4.3.5 5.1 2 1.3 2.5.5 4-2.2 4-1.5 0-1.9-.5-1.5-2 .6-2.5-2.1-2.8-3-.4-.8 2.1 2.1 4.4 4.7 3.7 2.6-.7 2.6 1.8.1 3.4-1.1.7-2.2 2.6-2.6 4.3-.7 3-3.4 4.5-7.7 4.2-1 0-2 .3-2.3.9-.4.5-1.8.9-3.2.9-4.3 0-10.3 2-20 6.7-5.8 2.7-11.2 4.6-14.4 4.9-6.5.6-9.1 2-15.6 8.2-7.8 7.4-7.1 9.6 3 9.7 5 0 6.1.4 7.8 2.5 5.2 6.6 5.3 12.2.2 18.4-6.2 7.4-7.9 9.8-10.7 15.1-1.5 2.7-4.3 7.7-6.1 11-1.9 3.3-4.4 8.1-5.6 10.7-1.2 2.7-2.5 4.8-3 4.8s-.9.4-.9 1c0 .5.3.9.8.9 1.8-.3 2.1.3 1.1 2.8-.6 1.6-1.5 8.9-1.9 16.3-.6 10.7-1.2 14.4-2.9 17.7-1.1 2.3-2.1 4.9-2.1 5.7 0 .8-1 2.7-2.3 4.3-1.3 1.5-3.4 4.6-4.8 6.8-7.3 12-8.2 13-15.4 18.5-8.1 6.1-9.8 7.9-13.2 14-1.4 2.5-4.1 6.8-6 9.7-6.4 9.5-3 15.9 6.5 12.3 2.6-1 6.3-2.4 8.2-3 8.4-3 10.1-4.1 13-8.7 1.7-2.6 3-5.9 3-7.3 0-3.4 3-6.2 10.3-9.5 3.2-1.4 6.1-3.3 6.4-4.1.3-.7 1-1.4 1.6-1.4 2.8 0 26.1-16.1 32-22.2 1-1 3-2.4 4.6-3.3 2.7-1.3 2.9-1.3 3.4.5.3 1.1-.1 2.4-.9 3.1-.8.7-1.4 3-1.4 5.6 0 4.9 3.3 9.3 7 9.3 2.5 0 2.5-.2.1-4.8-1-2-2.2-6.5-2.6-9.8l-.7-6.1 4.2-3.4c4.7-3.9 9.7-13.1 10.6-19.3l.5-4.1-3.2 3.8c-1.7 2.1-4.6 4.4-6.5 5.2-2.1.9-4 2.8-5.3 5.3-2.9 5.6-9.6 13.1-15 16.9-2.5 1.7-6.8 5.4-9.5 8.2-3.4 3.4-8 6.5-14.5 9.8-5.5 2.7-12.1 7-15.5 10-3.3 3-6.4 5.2-7 5-3.9-1.3-3-10.2 1.7-17.3 1.8-2.6 4.3-6.6 5.6-8.8 1.3-2.3 4.3-6.5 6.5-9.4 2.3-3 4.9-6.7 5.8-8.4.9-1.7 2.9-4.4 4.5-6 2.4-2.5 2.6-3.1 1.4-5-1.4-2.3-2.6-22.5-1.3-24.2.4-.6 1.4-2.9 2.1-5.1 1.7-5.1 7.4-14.7 12.1-20.5 2-2.5 5.3-7.8 7.3-11.8 4.9-10 7.4-13.2 11.5-14.9 4.4-1.8 8.8-5.1 17.1-12.5 3.5-3.2 6.9-5.8 7.6-5.8.6 0 2-1 3.1-2.1 3.8-4.3 14.4-6.8 14.4-3.4 0 .8.7 1.5 1.5 1.5s1.5-.6 1.5-1.3c0-.7.9-1.8 2-2.5 1.7-1 2-1 2 .4 0 .8.4 1.3.9 1 .5-.3 1.4.1 2.1.9.9 1.1.8 1.9-.4 3.7-.9 1.2-1.6 3.3-1.6 4.5 0 2.3-2.3 3.2-3.5 1.3-.4-.6-1.6-.3-3.1.6-1.3.9-2.2 1.9-2 2.2.3.3 1.3-.1 2.1-.8 1.2-1 1.9-1 2.7-.2.7.7 2 1.2 2.9 1.2 1.7 0 2.8 3.3 3.2 9.2.1 1.6.5 2.8.8 2.8.7 0 3.3-5.2 4.4-9 1-3.1 4.7-9.1 6.6-10.6.8-.6 2.5-1.4 3.8-1.7 2.2-.5 2.3-.4 1.7 3.4-.4 2.7-.3 3.8.4 3.4.5-.3 1 .1 1 1s-.4 1.4-1 1c-.5-.3-1.4 1.4-2 3.7-.6 2.4-1.5 5.6-2 7.2-1.3 3.7-1.3 3.5.7 3.2 1.1-.2 2.1-1.7 2.6-4 .6-2.4 1.8-4.1 3.6-5 1.6-.9 3.2-2.9 4-5.3 2.6-7.4 6.4-10.9 7.3-6.6.5 2.6 3.9-3.1 4.4-7.4.3-2 .7-3.9.9-4.4.9-1.4 6 .7 7.2 3.1 1.2 2.4 1.2 2.4 1.1-.6-.1-4.2 1.1-7.4 2.8-7.4 2 0 3.3 3.8 3.3 9.7 0 2.6.4 7 1 9.8 1 5.3.5 6.9-3.4 11.7-1.2 1.4-3.7 5.7-5.4 9.5-1.8 3.7-4.2 8.6-5.4 10.8-4.2 8-4.7 9.1-6.3 13.7-1.2 3.6-2.2 4.8-3.7 4.8-1.6 0-1.8.5-1.4 2.7.3 1.5-.3 6.6-1.3 11.3-2.4 11.3-3.4 40-1.5 42.6 1.1 1.5 1.7 1.6 3.8.7 3.3-1.5 10.7-12.7 10.7-16.1 0-1.5.3-5.1.7-8 .5-4.9.9-5.5 4.5-7.3 3.3-1.7 4.5-3.3 7.8-10.3 3-6.3 4.7-8.8 7.7-10.8 2.9-1.9 4.3-4 6.1-8.6 2.1-5.4 2.2-6.7 1.3-11.8-1.3-6.8-1.4-14.4-.3-14.4.5 0 1.6 1.8 2.6 4.1 1 2.2 2.1 3.8 2.4 3.5.3-.3.1-1.6-.5-2.9-4.6-9.7-4.9-11.9-1.8-16.1 1.7-2.3 3.5-1.3 2.7 1.6-.3 1.4-.2 1.9.6 1.4.7-.4 1.2-.2 1.2.4 0 .8 1 .9 2.9.5 2.5-.5 2.9-.3 3.3 1.9.3 1.4 0 2.7-.5 2.9-.6.2-.7.9-.3 1.6.5.7 1.4 1 2.1.7 1.6-.6 2.9 3.7 1.9 6.6-.4 1.4-.3 1.8.6 1.3.6-.4 1-2.2.8-4-.3-4.1.7-5.4 2.1-2.7.6 1.1 3.3 2.8 6 3.7 2.7.9 5.2 2.3 5.5 3.1 1.1 2.8.6 6.1-1 7.5-1.7 1.4-1.4 4.8 1 10.2.7 1.8 1.4 5.2 1.4 7.7.1 4.3 1.9 7 5.2 8.2.5.2 1 1.4.9 2.8 0 1.4 0 4.1-.1 6 0 1.9.6 5.3 1.5 7.5 1.4 3.6 1.6 3.7 1.7 1.3 0-1.5.5-3 1-3.3.6-.3 1-1.7 1-3 0-3.3 3.4-5.5 7.6-4.8l3.4.6v-7c0-7-1.4-13.3-3-13.3-.5 0-1.8 1.2-3 2.7-3.1 4-5.3 2.2-6.3-5.3-.4-3.2-1.1-6.6-1.4-7.4-.3-.8-.5-1.8-.5-2.3.1-.4-.4-.7-1.2-.7-.7 0-1.9-.7-2.6-1.5-1.6-1.9-5-16.4-4-17 .3-.2.5-1.8.2-3.5-.2-1.6-.1-3 .2-3 .9 0 2.5 4.5 3 8.4.6 4.9 2.8 8.5 8 13.4 3 2.8 4.6 5.1 4.6 6.8 0 1.3.4 2.4 1 2.4.5 0 .7.6.4 1.4-.3.9.5 2.1 2 3.1s2.6 2.7 2.6 4c0 1.2.7 2.8 1.6 3.6 1 .8 1.3 2.1.9 3.7-.3 1.3-.1 3 .6 3.8.6.7.9 1.9.7 2.6-.5 1.3 3.2 4.8 4.9 4.8 3.6 0 5.4 14.4 2.1 16.8-2.8 2.1-2.1 4.4 2.4 8.2 4.1 3.6 4.1 3.7 2.5 6-.9 1.4-1.7 2.9-1.7 3.4 0 .6.7 0 1.6-1.3 1.2-1.6 1.9-1.9 2.4-1.1 1.4 2.3-.2 4.7-6.1 9.1-6 4.5-7.1 6.5-4.3 7.6 1.3.5 1.1 1-1.3 3l-2.8 2.4 3.3-1.8c3.3-1.8 3.4-1.8 4.8.1 1.8 2.5 1.8 5.3.1 6.3-4 2.3-5.7 10.5-2.6 12.3.6.5.9 1.5.6 2.3-.3.9-.1 1.8.6 2.1.7.2.1.5-1.2.5-3.2.1-2.1 1.1 1.5 1.5 3.8.4 4.1 2.6 1.3 8.4-1.2 2.6-2.6 5.5-3 6.4-.5.9-.5 1.9 0 2.2.8.5 3.6-4.3 3.3-5.7-.4-1.3 2.8-6.7 3.9-6.7.7 0 .8.7.4 1.7-1.2 2.9-1.1 5.6.3 6 .6.3 1.2-.2 1.2-1.1 0-.9-.5-1.6-1-1.6-.6 0-.4-1.3.5-3 .8-1.6 1.5-3.3 1.4-3.7-.5-2.7.2-3.4 1.7-1.8.9.8 1.4 2.1 1.1 2.8-.3.7.1 2.1.8 3.1 1.3 1.7 1.4 1.7 2.4-.3 1.5-2.7 1.4-3.4-.4-2.7-.8.3-1.5.1-1.5-.4 0-1.4 2.6-1.2 3.8.3 2 2.4 1.4 12.7-1.3 21.3-1.2 3.9 2.2 2.3 3.8-1.8 1.7-4.3 2.5-4.6 5.8-1.9 2.1 1.7 2.2 2.1 1.1 4.6-1.1 2.3-1 3 .4 4.6 1.2 1.3 1.5 2.8 1 5.4-.3 1.9-.9 5-1.2 6.7-1.4 8.1 4.3 12.3 15.7 11.6 7.3-.4 11.3-2.4 13.5-6.7 1.1-2.1 1.3-2 4.3 2.8 6.6 10.2 11.5 13.2 21.9 13.2 9.9 0 14.2-2.2 26.9-14.2 5.9-5.6 11.6-11 12.6-12.1 1.6-1.6 3.3-1.8 13.1-1.7 10.4.2 11.7 0 16.7-2.5 7.4-3.6 14.9-9.8 29.9-24.6 7-6.9 14.5-14.2 16.7-16.2 3.9-3.5 4.2-3.6 5.8-1.9 1.4 1.7 1.4 1.9 0 2.4-.8.4-1.5 1.2-1.5 1.8 0 .8.5.8 1.6-.2 2.1-1.7 2.8-.5 5 8.3 1.3 5.5 1.4 7.4.4 9.7-.9 2.4-.9 3.4.4 5.9.9 1.7 2.2 3.4 2.8 3.8.9.5.9.3-.1-.9-.8-1-.9-1.7-.3-1.7.6 0 2 1.5 3.1 3.3 1.9 3 6.3 9.1 9.1 12.4 1.4 1.7 5.2 1.6 7.6-.1 1.8-1.4 1.7-1.7-3.6-6.6-4.5-4.1-5.3-5.3-4.4-6.7 1.4-2.3 3.9-3.1 3.1-1-.4 1.1-.2 1.4.7 1.1.7-.3 3 .5 5 1.6 4.9 2.9 4.6 2-.5-1.6-3.4-2.3-4-3.2-3.7-5.5.4-2.6.3-2.7-1.6-1.3-2.8 2-3.3 1.8-5.1-1.6-1.4-2.8-1.3-3.4.8-3.1 1.1.2.9-1.3-.4-2.6-.7-.7-.8-1.9-.4-3 .5-1 .8-2.5.7-3.3-.1-1 0-1.1.4-.3.3.7 1.4 1.3 2.5 1.3 2.2 0 4.4 3.2 5.3 7.6.8 3.8 4.9 6.3 11.8 7.1 3 .4 5.8 1.3 6.5 2.2.8 1.1 1.2 1.2 1.3.3.1-3.4 1.7-.4 3.3 6.1 4.4 17.9 14 23.2 51.1 28 9 1.2 23.3-3.8 34.2-12 2.8-2.1 6.1-4.5 7.4-5.3 1.2-.8 3.9-2.7 5.9-4.1 2-1.4 4.3-2.8 5.1-3.1.9-.3 4.5-2.8 8-5.5 7.7-5.9 25.5-17.5 31.3-20.4 4.4-2.3 5.9-3.8 5.1-5.1-1-1.6-3.6-.8-5.6 1.7-5.1 6.4-30.8 20.8-43.8 24.4-7.4 2.1-14.2 5.5-19.5 9.9-2.6 2.1-3.6 2.4-8 1.8-17.1-2.2-16.7-2.1-19.2-5.2-4.7-5.7-9.3-13-14.4-22.9-6.2-12.2-6.3-12.3-10.5-13.1-4.6-.9-9.6.2-12.2 2.6-1.2 1.1-2.6 2-3.1 2-.6 0-3.1 2-5.5 4.5-2.5 2.5-5 4.5-5.6 4.5-.6 0-1.5 1.1-2 2.5-.9 2.3-3 3.5-3 1.7 0-.4-1.9-.7-4.3-.7-6-.1-10.1-2.4-10.5-5.8-.2-1.5.1-2.7.7-2.7s1-.6.8-1.3c-.1-.7.6-1.1 1.7-.9 1.8.3 1.8.2.6-1.3-1.5-1.8-1.5-7.3.1-8.9.5-.6 1.8-.5 3.3.4 2.9 1.5 6.1.6 5.3-1.5-.9-2.1 2.2-7.7 3.9-7.1.8.3 1.4.1 1.4-.4 0-.6-.5-1-1.1-1-2.2 0 .2-1.8 3.1-2.2 3.5-.5 3.9.5.8 1.9-2 .9-2 1 .9 1 1.9 0 3.4-.6 3.8-1.5.3-1 1.3-1.2 3.1-.8 1.9.5 2.5.3 2.2-.6-.3-.9-2.5-1.3-7.1-1.2-6.4.1-6.7 0-6.7-2.2 0-1.6.6-2.4 1.8-2.4 1.4 0 1.4-.2.3-.9-.9-.6-1.1-1.6-.7-2.7.7-1.8.9-1.7 2.5.5 1 1.3 2.4 2.1 3.2 1.8 1-.4.8-.6-.5-.6-1.2-.1-1.6-.6-1.2-1.6.3-.8.1-1.5-.5-1.5s-.8-.4-.5-.9c.3-.5-.3-1.1-1.3-1.4-1.3-.3-1.8-1.2-1.6-3.2.2-1.5-.3-5.9-1.1-9.7-.8-3.9-1.2-7.8-.9-8.9.3-1 3.8-4.5 7.8-7.9 4-3.3 7.9-6.6 8.7-7.4.8-.7 3.3-1.6 5.6-1.9 2.2-.4 5.5-1.4 7.3-2.3 2.7-1.4 3.1-2 2.7-4.3-.5-2.3.1-3.1 5.6-6.8 11.4-7.6 14.3-9.8 17-12.8 2.5-2.7 2.6-3.1 1.1-4.3-2.4-1.8-4.2-1.5-9.5 1.3-7.6 4-9.9 3.3-10.1-3.1-.1-1.9-.5-3.4-1-3.4s-.6-.7-.3-1.5c.8-2.2-5.3-8.1-7.9-7.7-1.1.2-2.3.7-2.8 1.1-1.3 1.3-6.7 0-6.7-1.6 0-.8-.7-3.1-1.7-5-1.5-3.2-1.9-3.5-5-3-3 .5-3.5.3-4.4-2-1.2-3.3-2.7-9.9-3.4-15.3-.3-2.4-1.2-5.5-2.1-6.8-1.7-2.6-1.2-5.2 1-5.2 1.4 0 3.6-4.8 3.6-8.1 0-2.2 3.2-4.1 5.4-3.3 1.2.4 1.5.2 1-.9-.3-.8-.1-1.8.5-2.2.6-.3 1.1-1.7 1.1-3.1 0-1.3.6-2.5 1.3-2.5 3.5-.5 5.3-.3 6.4.4 1.3.9 2.7-.8 1.9-2.2-1-1.5 1.7-2.9 7.6-4 8.2-1.5 12.9-4.2 19-11.1 5.9-6.7 7.1-9.7 6.2-15.2-.7-4.6 1.6-8.3 5.9-9.7 1.8-.5 7.8-1.1 13.4-1.4 13.7-.7 15.2-1.6 20.9-13.2 7.2-14.8 6.8-26.5-1.3-35.5-7.5-8.3-14.2-10.5-21.8-7.1-3.4 1.5-5.2 1.8-7 1.1-1.4-.5-3.1-.7-3.9-.4-.9.3-2.1-.5-3.1-2-1-1.4-2.2-2.3-3.1-1.9-.8.3-1.4 0-1.4-.6s-.5-1.1-1.2-1.1c-2.9 0-8.6-3.5-10.8-6.7-3.4-4.9-6.8-6.5-12.2-5.4-4.9.9-8.5 0-9.4-2.4-.4-.8-1.2-1.5-1.8-1.5-2.6 0-6.6-2.6-6.6-4.3 0-.9-.4-1.7-1-1.7-.5 0-1-.4-1-.9 0-1.4 8.9-10.9 10.9-11.6 1-.3 2.4-1.7 3.2-3.1 1.3-2.5 1.2-2.8-2.4-5.9-5-4.4-9.7-6.5-14-6.5-2 0-3.9-.5-4.3-1.2-.4-.6-.6-8.5-.5-17.4.2-15.9.2-16.3-2.3-20.3-1.4-2.2-3.5-4.5-4.6-5.1-1.2-.6-1.9-1.9-1.7-3.2.1-1.3-.6-2.6-1.8-3.2-1.2-.7-1.9-1.9-1.7-2.9.2-1.1-.1-1.7-1-1.5-.7.1-2.7-.7-4.5-2-4.6-3.2-14.4-4-21.5-1.7-12.8 4.1-25.6 13.1-28.3 19.8-2 5-3.5 17.4-2.5 20.2 1.1 3.1 1.2 17.8.1 20.6-.5 1.4-2.5 4.3-4.5 6.3-1.9 2.1-3.8 4.7-4.1 5.7-.4 1-1.3 2.6-2.1 3.4-.9.8-1.1 1.5-.5 1.5 1.9 0-1.1 3.9-4.6 6.1-3.9 2.5-5.1 1.9-4.5-2 .2-1.6 0-3.7-.6-4.7-1.7-3.1-4.5 2.7-4.6 9.6-.1 4.6-.4 5.9-1.6 5.8-5.2-.4-7.8.3-8.3 2.2-.6 2.4-2 2.6-4.1.5-1.8-1.8-1.1-4.1 1.5-5.6 2.3-1.2 2.5-2.9.3-2.9-1.4 0-1.5-.6-.8-3.3 1-4.1 1.2-28.7.1-29.4-.4-.2-2.1-3-3.8-6.1-1.6-3.1-4.4-8-6.1-10.7-3.5-5.7-6.8-14.3-6.8-17.9 0-2.9 4-12.4 6.1-14.6.8-.8 2.7-3.3 4.3-5.5 1.6-2.2 4.3-5.4 6-7.1 1.7-1.7 3.8-3.9 4.7-5 .9-1 2.5-2.7 3.5-3.6 1-1 2.8-2.6 3.8-3.8 2.5-2.6 3-2.5 6 .6 3 3.3 5.6 2.6 5.6-1.3 0-1.7 1.4-4.5 3.4-7 2.2-2.8 3.6-5.9 4.1-8.8 1.5-10.4-2.3-14.4-10.8-11.3zM571 293.7c-.1.9-6.7 5.3-8.1 5.3-2.1 0 .4-4.2 3.1-5.3 2.2-.8 5-.8 5 0zM539.5 371c0 1.4.4 2.8 1 3.2.5.4.3 1.4-.6 2.5-.9 1-1.9 2.7-2.1 3.8-.3 1.1-.9 2.8-1.3 3.7-.9 2.3.8 2.3 3.1.1 1.7-1.7 1.7-1.6 1.1 1.7-.4 1.9-1.6 5.2-2.6 7.2-1 2.1-1.5 3.8-1.1 3.8 1 0 7-11.8 7-13.7 0-.8.5-2.3 1.1-3.5 1.1-2 1.1-2 3.2 0 1.2 1 2.9 2.2 3.8 2.5 1.7.6 3.3 6.2 2.2 8-.4.6-.1.7.7.2 1-.6 1.2-.1.8 1.9-.6 2.8 1.5 4.8 3.9 3.9.7-.3 1.6.4 2 1.4.4 1 1.5 3 2.6 4.5 2.8 3.7 1.6 6.8-4.2 11.7-9.3 7.8-19.1 11.9-19.1 8 0-2 5.1-14.3 6.6-16 1.6-1.7 1.9-4.9.5-4.9-1.7 0-3.6 3.3-6.3 11.3-1.6 4.5-3.3 8.6-3.8 9.1-.6.6-2.9 0-6.2-1.6-2.9-1.4-6.1-2.9-7.2-3.2-1.6-.5-1.7-.9-.5-2.5 5.2-7.1 5.7-8.1 1.9-3.9-4.8 5.5-7 5.4-7-.1 0-3.3 3.2-13.3 5-15.6.7-1 2.6-6.8 4.9-15.3 2.2-8.1 10.6-14.6 10.6-8.2zm153.3 39.1c-1 .5-1.8 2.1-1.8 3.4 0 1.3-.5 2.7-1.2 3.1-.7.4-.8.3-.4-.5.4-.6.2-1.9-.5-2.7-1-1.2-.8-1.7.7-2.9 1-.8 2.6-1.4 3.4-1.4 1.2 0 1.1.2-.2 1zM670 427.4c0 .3-.4.8-1 1.1-.5.3-1 .1-1-.4 0-.6.5-1.1 1-1.1.6 0 1 .2 1 .4zm-120 2.1c.9 1.1.8 1.9-.4 3.7-1 1.4-1.6 4.3-1.6 7.5 0 5.4-.8 6.4-3.2 3.9-1.1-1.1-1.7-1.1-3.1-.1-1.9 1.3-2.3 3.5-.7 3.5.6 0 1 1.4 1 3v3l-8-.5c-9.3-.5-12-1.8-12-5.8 0-2.2.7-3.1 3.4-4.2 4.4-1.9 9.3-6.1 11.1-9.5.9-1.8 3-3.4 5.7-4.3 5.5-2 6.3-2 7.8-.2zm44.1 6.8c-1 .9-1.1.8-.5-.6.3-1 .9-1.5 1.2-1.2.3.3 0 1.1-.7 1.8zm58.9-.3c0 .5-.4 1-1 1-.5 0-1-.5-1-1 0-.6.5-1 1-1 .6 0 1 .4 1 1zm-17.5 2.1c-.4.5-1.5.9-2.6.9-2.6 0-1.7-1.5 1-1.7 1.2-.1 1.9.2 1.6.8zm-7.1 3.6c-2.4 1.8-3.1 1.7-4.4-.7-1-1.8-.9-1.9 1.5-1 1.5.6 2.4.6 2.1.1-.4-.5 0-1.1.6-1.4 2.1-.7 2.2 1.5.2 3zm-25-.2c-.4.8-1.7 1.5-3 1.5-4.2 0-2.5-2.7 1.8-2.9 1.2-.1 1.5.4 1.2 1.4zm18.1 1.5c.3.5.1 1-.4 1-.6 0-1.1-.5-1.1-1 0-.6.2-1 .4-1 .3 0 .8.4 1.1 1zM517 507c0 .5-1 1.5-2.2 2.1-2 1.1-2.1 1-1.1-.3.7-.8 1-1.8.6-2.1-.3-.4.1-.7 1-.7 1 0 1.7.4 1.7 1zm-34 1.5c.5-.3 1-.4 1-.2 0 1.1-3 6.1-4 6.7-.6.4-1.3 1.9-1.6 3.5-.7 3.7-1.2 4.5-2.9 4.5-2.3 0-3.7-3.9-3.1-8.4.6-3.3 1.3-4.4 3.9-5.6 1.9-1 3.7-1.2 4.4-.7.7.5 1.7.6 2.3.2zm7.4 5.7c.9 1.2 1.6 4.2 1.6 6.5 0 2.7.5 4.3 1.3 4.4.6 0-.1.5-1.8 1-3.4 1.1-10.5.2-10.5-1.2 0-.6.5-.7 1-.4.6.3 1 .1 1-.4 0-.6-.4-1.1-1-1.1-1.2 0-.3-2.5 2.7-7.3 2.7-4.3 3.6-4.5 5.7-1.5zm-27 14.7c.3.4 2 1.1 3.8 1.5l3.3.7-4.3 3.9c-2.4 2.2-4.7 4-5.2 4-.6 0-1 .4-1 1 0 .5-.5 1-1.1 1-.9 0-.8-.4 0-1.4.6-.7.8-2.6.5-4.3-.9-4.4 2.2-9.4 4-6.4zm323.1 5.3c-1.9 1.1-3 .5-2.1-1.1.4-.6 1.4-.7 2.2-.4 1.5.5 1.4.7-.1 1.5zm-406-.3c.3.5.1 1.2-.5 1.6-1.4.9-5.2-.4-4.5-1.6.8-1.2 4.2-1.2 5 0zm-10.5 4.5c0 .7-1.5 2.3-3.2 3.6-1.8 1.3-3.6 2.9-4 3.6-.5.7-4.6 1.5-10.5 1.9-5.4.4-10.6 1.2-11.6 1.7-2.5 1.3-3.3.3-1.6-1.8 2.4-2.9 11-6.2 14.7-5.6 2.6.3 3.9-.1 6-2.1 3.8-3.5 10.2-4.3 10.2-1.3zm19 .6c0 1-.7 2-1.5 2.4-1.8.7-5-3.5-3.4-4.5 1.8-1.1 4.9.2 4.9 2.1zm394-2c0 .5-.5 1-1.1 1-.8 0-.8.5.1 1.5 1 1.2 1 1.5-.3 1.5-1.6 0-3 2.6-2.1 4.1.3.5 0 .9-.5.9-1.5 0-1.4 2.7.2 3.3.6.3.2.6-1.1.6-1.4.1-2.1-.3-1.7-.9.4-.6.1-1.8-.7-2.7-1-1.2-1-1.7-.1-2 .7-.2 1-1 .7-1.8-.3-.7.4-1.8 1.5-2.5 1.2-.6 2.1-1.7 2.1-2.5s.7-1.5 1.5-1.5 1.5.4 1.5 1zm-400 4.5c.9 1.1 1 1.9.3 2.6-2.7 2.7-18.2 4.6-19 2.3-.2-.6 1.8-2.2 4.4-3.7 5.5-3 12.3-3.6 14.3-1.2zm27.1 2.5c1.8 0 2.9.5 2.9 1.4 0 2-2.6 2.7-4 1.1-.6-.8-1.8-1.1-2.6-.8-.8.3-1.4-.1-1.4-.9 0-1.9 1.4-3.2 1.8-1.9.2.6 1.7 1.1 3.3 1.1zm-73.4 4c-1.3 3.4-2.7 4-2.7 1 0-1.5 2-3.7 3.7-4 .1 0-.4 1.3-1 3zm447.3-1c0 .5-.4 1-1 1-.5 0-1-.5-1-1 0-.6.5-1 1-1 .6 0 1 .4 1 1zm-402.1 1.9c1.1.7.7 1.2-1.5 2.4-1.6.8-3.8 2.4-4.8 3.6-1.1 1.2-2.4 2.1-2.9 2.1-.6 0-2 .8-3.1 1.9-3.5 3.1-11.1 7-12.2 6.3-.6-.4-2.1-2.7-3.3-5.1-2-3.8-2.1-4.7-1-7.3l1.2-3.1 8.1.6c5.4.3 9.3.1 11.6-.8 4.4-1.6 6.1-1.7 7.9-.6zm90.4 13.3c-.1 3.1-.6 8.1-1.2 11-.5 2.9-1.3 7.9-1.7 11.1-.3 3.1-1 6-1.5 6.3-.5.3-.9 2.1-.9 4 0 2.5-.9 4.4-3.7 7.5-2.1 2.3-4.3 6-5 8.3-.6 2.2-1.9 6.5-2.7 9.5-2.1 7.2-4.8 11.6-7.2 11.6-2.5 0-3.4 1.3-3.4 5 0 1.6-1.6 7.9-3.6 13.8-2.6 7.9-4.2 11.2-6 12.4-3.2 2-5 .5-4.8-3.9.2-1.8.5-9.4.9-16.8.8-19 2.4-24.8 11.7-44 10.8-22.3 11.6-23.8 16-29.3 2.1-2.7 3.8-5.4 3.8-6.1 0-2.4 4.9-6.7 7.3-6.4 2 .3 2.2.8 2 6zm-10.3-3.3c0 .6-.4 1.3-1 1.6-.5.3-1-.1-1-.9 0-.9.5-1.6 1-1.6.6 0 1 .4 1 .9zm-52.4 3.8c-1 1-1.9-.5-1-1.8.6-1.1.8-1.1 1.2 0 .2.7.1 1.5-.2 1.8zm96.4 2.2c0 .6-.4 1.3-1 1.6-.5.3-1-.1-1-.9 0-.9.5-1.6 1-1.6.6 0 1 .4 1 .9zm-34.9 28.8c-.9 1.5-1 1.2-1-1.7s.1-3.2 1-1.8c.7 1.2.7 2.4 0 3.5zm39.7 19.5c1.7 1.7 1.5 3.8-.3 3.8-1.2 0-3.5-2.8-3.5-4.4 0-1.1 2.6-.6 3.8.6zm282.7 22.3c-3.4 2.8-4.5 3.1-4.5 1.2 0-2.1 2.2-3.7 5-3.7l2.5.1-3 2.4zm-5.5 19.6c0 .6-.4.7-1 .4-.5-.3-1-1.1-1-1.6 0-.6.5-.7 1-.4.6.3 1 1.1 1 1.6zm-3.8 20.1 4-.1-.7 3.7c-.9 4.7-1.2 5.2-3.5 5.2-1.1 0-3.5 1.3-5.3 3-3.7 3.2-7.1 3.8-9.9 1.6-2.5-1.9-2.3-2.9 1.7-6.7 1.9-1.9 3.5-4 3.5-4.7 0-1.4 4-3.3 5.3-2.5.5.3 2.7.5 4.9.5zm-14.2 2.4c0 .6-1.2 2-6.1 7.4-1 1.1-2.7 1.6-4.5 1.4-1.5-.1-4 .4-5.5 1.2-3.8 1.9-4.5 1.8-2.4-.6.9-1 2-1.8 2.4-1.8 1.6.5 6-1.8 9.4-4.8 3.3-3 6.7-4.4 6.7-2.8zm15 10.3c0 1.5-2.5 3-4.8 2.8-2.6-.2-2.6-.1-.6-2.1 1.6-1.7 5.4-2.2 5.4-.7zm-25.6 1.6c-2.1 1.6-4.4 2-4.4.7 0-1.5 1.3-2.2 3.9-2.2 2.4 0 2.4.1.5 1.5zm8.1-.2c2 1.6 1.3 2.3-3.5 3.7-3.4 1-3.8 0-1.3-3 2.1-2.4 2.4-2.4 4.8-.7zm6.5 6.4c0 3.9-1.5 4.7-4.9 2.7l-3.2-1.9 2.8-1.2c3.9-1.7 5.3-1.6 5.3.4zm-230 4.4c0 .9-3.1 2.1-3.7 1.5-.3-.3-.3-.9.1-1.4.6-1 3.6-1.2 3.6-.1zm224.8.4c1.5.4 2.2 1.3 2 2.3-.7 3.2-7.8.4-7.8-3.1 0-.4.8-.6 1.8-.3.9.2 2.7.7 4 1.1zm-146 24.9c1.5.8 3.4 2.6 4.2 4 .7 1.4 1.7 2.6 2.2 2.6 1.7 0 .7 5-1.4 7.3-3.2 3.3-5.7 4.1-6.5 1.9-.4-.9-2.2-3.8-4-6.3-3.7-5.2-4-7-1.7-9.3 1.9-2 3.7-2 7.2-.2zm-36.3 1.6c5.5 1.7 7.2 3.5 8 8.1.9 5-.2 10.2-1.8 8.9-6.1-5-8.1-6.2-11.7-7.5-2.4-.8-5.1-1.5-6.1-1.5-4.5 0-7-7.5-2.6-8.4 7-1.5 8.4-1.5 14.2.4zm177.1 6.7c-.7.7-2.6-.7-2.6-1.9 0-.6.6-.6 1.5.2.9.7 1.3 1.5 1.1 1.7zm-160.7 2.9c3.5 1.8 6.4 6.5 4.4 7.1-.6.2-.9 1.3-.6 2.3.3 1.2 0 2-.7 2-.6 0-1.4-.9-1.7-2-.3-1-1.4-2.2-2.4-2.5-2.5-.8-4.2-4.1-3.4-6.5.8-2.4.5-2.4 4.4-.4zm13.7 1.8c.8.8 1.4 2.6 1.4 3.9 0 2-.4 2.4-1.9 2-1.5-.4-1.9-1.3-1.8-3.9.2-3.9.3-3.9 2.3-2z"/><path d="M551 402.6c0 .8.5 1.2 1 .9.6-.4.8-1.1.5-1.6-.9-1.4-1.5-1.1-1.5.7zM464 566c-1.2.8-1.1 1 .8 1 1.2 0 2.2-.5 2.2-1 0-1.3-1.1-1.3-3 0zM453.5 591c.3.5.8 1 1.1 1 .2 0 .4-.5.4-1 0-.6-.5-1-1.1-1-.5 0-.7.4-.4 1zM448.5 627c.3.5.8 1 1.1 1 .2 0 .4-.5.4-1 0-.6-.5-1-1.1-1-.5 0-.7.4-.4 1zM785.2 268c-6 1.4-7.9 6.6-4.1 11.4 2.7 3.4 7.1 3.5 10.4.1 3.2-3.1 3.1-5.4-.2-9.2-2.5-2.7-3.2-3-6.1-2.3zM501.9 277.7c-1.8.4-3.9 4.4-3.9 7.2 0 2.5 3.2 5.1 6.1 5.1 3.7 0 5.9-2 6.5-6.1.9-5.5-2.5-7.9-8.7-6.2zM802 280c0 2.3 2.6 3.8 4.1 2.3 1.4-1.4 0-4.3-2.2-4.3-1.2 0-1.9.7-1.9 2zM929 287.1c0 .5.5.7 1 .4.6-.3 1-.8 1-1.1 0-.2-.4-.4-1-.4-.5 0-1 .5-1 1.1zM952 288c0 .5.5 1 1 1 .6 0 1-.5 1-1 0-.6-.4-1-1-1-.5 0-1 .4-1 1zM408 300.5c0 .9 1.2 2 2.6 2.5 4.2 1.6 4.9 1.2 2.4-1.5-2.6-2.8-5-3.3-5-1zM616.5 304c.3.5.8 1 1.1 1 .2 0 .4-.5.4-1 0-.6-.5-1-1.1-1-.5 0-.7.4-.4 1zM619 307.8c0 .5.7 1.5 1.5 2.2.8.7 1.5.8 1.5.2 0-.5-.7-1.5-1.5-2.2-.8-.7-1.5-.8-1.5-.2zM683 312.5c0 .8.5 1.5 1 1.5.6 0 1-.7 1-1.5s-.4-1.5-1-1.5c-.5 0-1 .7-1 1.5zM828 312.9c0 1.5.6 2.1 2.1 2.1 1.4 0 1.9-.5 1.7-1.7-.5-2.6-3.8-2.9-3.8-.4zM644.6 337.5c-.9 2.3-.8 2.5.9 2.5 1.7 0 1.9-.9.6-2.8-.7-1.1-1-1-1.5.3zM858.5 340c-.3.5.1 1 1 1s1.3-.5 1-1c-.3-.6-.8-1-1-1-.2 0-.7.4-1 1zM851 341c0 .5.5 1 1 1 .6 0 1-.5 1-1 0-.6-.4-1-1-1-.5 0-1 .4-1 1zM489 342c0 .5.5 1 1.1 1 .5 0 .7-.5.4-1-.3-.6-.8-1-1.1-1-.2 0-.4.4-.4 1zM694 350.1c0 .5.5.7 1 .4.6-.3 1-.8 1-1.1 0-.2-.4-.4-1-.4-.5 0-1 .5-1 1.1zM689.5 352c-.3.5-.1 1 .4 1 .6 0 1.1-.5 1.1-1 0-.6-.2-1-.4-1-.3 0-.8.4-1.1 1zM993.5 360c-.3.5-.1 1 .4 1 .6 0 1.1-.5 1.1-1 0-.6-.2-1-.4-1-.3 0-.8.4-1.1 1zM500.5 362c.3.5.8 1 1.1 1 .2 0 .4-.5.4-1 0-.6-.5-1-1.1-1-.5 0-.7.4-.4 1zM978.4 370.1c-1.2 2 2.4 4 4.7 2.6 1.1-.7 1.8-1.6 1.6-2.2-.5-1.5-5.4-1.8-6.3-.4zM874.1 380.6c-2.4 3.1-2.6 5.2-.7 7.6 1.9 2.5 5.3 2.2 8.1-.7 2.9-2.8 3.2-5.7.9-7.9-2.3-2.4-6-1.9-8.3 1zM454.5 390.9c-.6 1.1.9 2.3 1.9 1.4.9-.9.7-2.3-.3-2.3-.6 0-1.2.4-1.6.9zM941.5 391.1c-1 1.5.3 2.5 1.6 1.2.7-.7.7-1.3.1-1.7-.6-.3-1.4-.1-1.7.5zM608.8 415.7c.7.3 1.6.2 1.9-.1.4-.3-.2-.6-1.3-.5-1.1 0-1.4.3-.6.6zM905.5 417c-.3.5-.1 1 .4 1 .6 0 1.1-.5 1.1-1 0-.6-.2-1-.4-1-.3 0-.8.4-1.1 1zM1029.1 426.3c-1.4 1.7.3 4.1 2.3 3.4.9-.4 1.6-1.3 1.6-2.1 0-1.9-2.6-2.8-3.9-1.3zM957 439.5c0 .8.7 1.5 1.5 1.5s1.5-.7 1.5-1.5-.7-1.5-1.5-1.5-1.5.7-1.5 1.5zM1048 454.1c0 .5.5.7 1 .4.6-.3 1-.8 1-1.1 0-.2-.4-.4-1-.4-.5 0-1 .5-1 1.1zM262.5 472c.3.5.8 1 1.1 1 .2 0 .4-.5.4-1 0-.6-.5-1-1.1-1-.5 0-.7.4-.4 1zM1038.1 491.3c-.8 1-.7 1.8.2 3.1 1.8 2.5 4.9 1.7 5.7-1.4.6-2.3.4-2.6-2-2.8-1.5-.1-3.2.4-3.9 1.1zM330.4 496.1c-1 1.7 1.3 3.6 2.7 2.2 1.2-1.2.4-3.3-1.1-3.3-.5 0-1.2.5-1.6 1.1zM857 519c0 .5.5 1 1.1 1 .5 0 .7-.5.4-1-.3-.6-.8-1-1.1-1-.2 0-.4.4-.4 1zM358 520c0 .5.5 1 1 1 .6 0 1-.5 1-1 0-.6-.4-1-1-1-.5 0-1 .4-1 1zM277.3 520.7c-3.2.6-3.1 4.7.1 6.8 3.1 2 7.6 1.1 7.6-1.6 0-1.9-3.4-6-4.7-5.8-.5.1-1.8.4-3 .6zM858 524.4c0 .9.5 1.6 1 1.6.6 0 1-.4 1-.9 0-.6-.4-1.3-1-1.6-.5-.3-1 .1-1 .9zM816 532.1c0 .5.5.7 1 .4.6-.3 1-.8 1-1.1 0-.2-.4-.4-1-.4-.5 0-1 .5-1 1.1zM928.2 533.2c-1.6 1.6-1.5 4.5.2 5.1.8.3 2.2-.3 3.1-1.3 1.5-1.6 1.5-2.2.5-3.5-1.5-1.8-2.2-1.9-3.8-.3zM915 545.5c0 .8.5 1.5 1 1.5.6 0 1-.7 1-1.5s-.4-1.5-1-1.5c-.5 0-1 .7-1 1.5zM821 556c0 .5.7 1 1.6 1 .8 0 1.2-.5.9-1-.3-.6-1-1-1.6-1-.5 0-.9.4-.9 1zM437 558c0 .5.5 1 1 1 .6 0 1-.5 1-1 0-.6-.4-1-1-1-.5 0-1 .4-1 1zM976.4 561.1c-.7 1.2 1.5 4.1 2.7 3.3 1.4-.8 1.1-3.1-.6-3.7-.8-.4-1.7-.2-2.1.4zM437 566.7c0 .4.5 1.5 1 2.3.8 1.3 1 1.3 1-.2 0-.9-.4-2-1-2.3-.5-.3-1-.3-1 .2zM316.4 568.5c-.9 2.2.3 4.4 2.8 5.4 3.9 1.5 6.6-2.7 3.6-5.7-1.7-1.7-5.7-1.5-6.4.3zM431.5 570c-.8 1.3.4 3.2 1.6 2.5 1.2-.8 1.2-3.5 0-3.5-.6 0-1.3.4-1.6 1zM482.1 572.3c-.9 1.2-.7 1.6.9 2 2.1.5 2.5 0 1.1-2.1-.6-1-1-1-2 .1zM443.5 573c-.3.5.3 1 1.4 1 1.2 0 2.1-.5 2.1-1 0-.6-.6-1-1.4-1-.8 0-1.8.4-2.1 1zM476 576.5c0 .8.7 1.5 1.5 1.5s1.5-.7 1.5-1.5-.7-1.5-1.5-1.5-1.5.7-1.5 1.5zM402 577.5c0 .8.5 1.5 1 1.5.6 0 1-.7 1-1.5s-.4-1.5-1-1.5c-.5 0-1 .7-1 1.5zM409.7 577.4c-.6 1.5.1 2.6 1.5 2.6 1.1 0 1-2.7-.1-3.4-.5-.3-1.1 0-1.4.8zM404.6 582.5c.4.8 1.3 1.5 2.1 1.5 1.3 0 1.3-.3.3-1.5-.7-.8-1.6-1.5-2.1-1.5s-.6.7-.3 1.5zM387.8 592.8c-10.9 10.8-12.8 13.9-2.9 4.8 3.3-3 7.8-6.6 9.9-8 4.8-3 5.8-4.4 4.3-5.9-.7-.7-3.9 1.8-11.3 9.1zM414.5 588c.3.5 1 1 1.6 1 .5 0 .9-.5.9-1 0-.6-.7-1-1.6-1-.8 0-1.2.4-.9 1zM419.6 591.8c-1.9 2.2-1.9 6.3.1 6.9.7.3 1.5-1 1.8-3.1 1-4.9.3-6.2-1.9-3.8zM354.6 593.7c-.6 1.4-.5 1.5.5.6.7-.7 1-1.5.7-1.8-.3-.3-.9.2-1.2 1.2zM361 596c0 .5.5 1 1 1 .6 0 1-.5 1-1 0-.6-.4-1-1-1-.5 0-1 .4-1 1zM476.1 597.7c0 1.2-.4 3-.7 4-.5 1.4-.4 1.5.5.7.7-.6 1.1-2.4.8-4-.3-2.1-.4-2.3-.6-.7zM360 599.5c0 .8.5 1.5 1 1.5.6 0 1-.7 1-1.5s-.4-1.5-1-1.5c-.5 0-1 .7-1 1.5zM403.3 600.3c-1.1 1.2-4.3 5.5-7.2 9.4-4.8 6.6-6.1 7.8-8.3 7.4-.4 0-.5.5-.2 1.2.2.7-.4 2.2-1.6 3.2-2 1.8-2 1.8-2-.7 0-3-2.3-5.3-4.4-4.5-2.1.8-5.6 8.1-5.6 11.7 0 3.4.6 3.7 3.2 1.3 1-.9 2.7-1.7 3.8-1.8 2.2-.1 12.7-10.5 18.5-18.2 3.7-5.1 4-5.2 7.9-4.7 4.4.6 9.6-.8 9.6-2.7 0-.7-1.6-.9-5-.4-4.1.6-5 .4-5-.8 0-2.6-1.6-2.8-3.7-.4zM421 610.6c0 .8.5 1.2 1 .9.6-.4.8-1.1.5-1.6-.9-1.4-1.5-1.1-1.5.7zM419.6 614.7c-.6 1.4-.5 1.5.5.6.7-.7 1-1.5.7-1.8-.3-.3-.9.2-1.2 1.2zM476.2 614c.3.8 1.4 1.9 2.6 2.5 1.2.5 2.2 1.5 2.2 2.1 0 .6 1 1.9 2.2 3 2 1.8 2.1 1.8 1.5.1-.4-1-.7-3.3-.7-5 0-1.8-.4-2.7-.8-2.1-1 1.5-5.1 1.1-6.4-.7-.8-1.2-.9-1.2-.6.1zM838.5 616c.3.5.8 1 1.1 1 .2 0 .4-.5.4-1 0-.6-.5-1-1.1-1-.5 0-.7.4-.4 1zM419.5 621c-.3.5-.1 1 .4 1 .6 0 1.1-.5 1.1-1 0-.6-.2-1-.4-1-.3 0-.8.4-1.1 1zM347.2 630.2c-.8 1-.8 2 .1 3.7 1.4 2.7 2.8 2.9 4.2.7 1.4-2.2-2.6-6.4-4.3-4.4zM507.1 636.6c0 1.1.3 1.4.6.6.3-.7.2-1.6-.1-1.9-.3-.4-.6.2-.5 1.3zM512.2 651.7c-2.4 8.2-2 11.2 1.2 10 1.2-.5 1.4-1.2.8-2.9-.5-1.3-.7-4.2-.4-6.6.5-5.2-.1-5.4-1.6-.5zM487.5 660c.3.5.8 1 1.1 1 .2 0 .4-.5.4-1 0-.6-.5-1-1.1-1-.5 0-.7.4-.4 1zM435.1 670.6c0 1.1.3 1.4.6.6.3-.7.2-1.6-.1-1.9-.3-.4-.6.2-.5 1.3zM802 670c-1.3.8-1.2 1 .3 1 .9 0 1.7-.5 1.7-1 0-1.2-.1-1.2-2 0zM519 671.6c0 1.2 3.8 5.3 4.4 4.7 1-1 .7-2-1-3.7-1.5-1.6-3.4-2.1-3.4-1zM373.7 680.2c-2.2 1.8-5.2 5.9-7.3 9.9-4.4 8.9-4.6 15.9-.7 27.1 2.8 8.4 5.3 11.8 8.2 11.8 1.4 0 1.8.5 1.4 2-.8 2.9 1.2 2.4 5-1.3 1.9-1.7 5.9-5.3 9-7.9 6.7-5.7 9.7-11.5 9.7-18.5 0-5.4 1.7-8.3 4.9-8.3 2 0 4.1-1.9 4.1-3.7 0-.8-1.2-1.3-2.9-1.3-1.6 0-3.4-.7-4.1-1.5-.7-.8-1.6-1.5-2.1-1.5-.4 0-1.9-1-3.3-2.3-9.6-8.8-15.2-10-21.9-4.5zm28.4 11.1c-.1.4-.1 1.4-.1 2.2 0 .8-.4 1.5-.9 1.5-1.2 0-2.3-2.9-1.5-4.1.6-1.1 2.6-.8 2.5.4zM284.5 679c.3.5 1.2.7 2 .3 2.1-.7 1.9-1.3-.6-1.3-1.1 0-1.8.4-1.4 1zM820.5 679c-.3.5-.1 1 .4 1 .6 0 1.1-.5 1.1-1 0-.6-.2-1-.4-1-.3 0-.8.4-1.1 1zM501.1 682.3c-1.3.6-3.3 2.4-4.4 3.9l-2.1 2.8 2.1 2.7c2.9 4 6.6 4.1 10.3.4 3.6-3.5 3.8-6 .7-8.9-2.7-2.5-3.3-2.6-6.6-.9zM309 686.6c0 .9.7 1.4 1.7 1.2 2.5-.5 2.8-2.8.4-2.8-1.2 0-2.1.6-2.1 1.6zM466.5 689c.3.5 1.1 1 1.6 1 .6 0 .7-.5.4-1-.3-.6-1.1-1-1.6-1-.6 0-.7.4-.4 1zM454 691c-.9.6-1 1-.3 1 .6 0 1.5-.5 1.8-1 .8-1.2.4-1.2-1.5 0zM469.5 691.3c-.4 1-.5 2.1-.1 2.4 1 1 1.8-.4 1.3-2.4-.4-1.7-.4-1.7-1.2 0zM429.2 692.2c-.7.7-1.2 1.6-1.2 2 0 1.2 2.8 1 3.6-.3 1-1.7-1-3.1-2.4-1.7zM262.5 694c-.7 1.2.2 3 1.6 3 .5 0 .9-.9.9-2 0-2.1-1.5-2.7-2.5-1z"/><path d="M405.5 697c.3.5.8 1 1.1 1 .2 0 .4-.5.4-1 0-.6-.5-1-1.1-1-.5 0-.7.4-.4 1zM511.8 708.5c-4.8 1.8-9 3-9.3 2.7-.3-.3-.5 0-.5.6 0 1.4 3.6 1.6 4.4.3.6-.9 13.7-5.7 17.6-6.4 2.2-.4 2.1-.4-.5-.5-1.6 0-6.9 1.5-11.7 3.3zM775.7 708.1c.7.7 1.5 1 1.8.7.3-.3-.2-.9-1.2-1.2-1.4-.6-1.5-.5-.6.5zM546.2 718c-1.8 1.7-2.6 3-1.9 3 .7 0 2.3-1.4 3.5-3 2.8-3.7 2.6-3.7-1.6 0zM517.1 724.2c-.1 1.6.4 2.8.9 2.8 1.2 0 1.2-.8 0-3.5-.8-1.8-.9-1.7-.9.7zM530 726.1c0 .5.5.7 1 .4.6-.3 1-.8 1-1.1 0-.2-.4-.4-1-.4-.5 0-1 .5-1 1.1zM531 729c0 .6.7 1 1.5 1s1.5-.2 1.5-.4-.7-.6-1.5-1c-.8-.3-1.5-.1-1.5.4zM777 729.6c0 .5.7 1.7 1.5 2.7 1 1.5 1.8 1.7 3.2.8 1.2-.7 1.4-1 .4-1.1-.8 0-2.3-.7-3.3-1.7-1-.9-1.8-1.2-1.8-.7zM724 733c0 .5.5 1 1 1 .6 0 1-.5 1-1 0-.6-.4-1-1-1-.5 0-1 .4-1 1zM538 742.3c0 2.1-.8 4.1-2 5.2-1.1 1-2 2.4-2 3.1 0 1.8-4.9 7.4-6.6 7.4-.8 0-1.4-.7-1.4-1.6 0-3.2-2.8.6-5.2 6.9-1.8 4.8-3.7 7.6-8.5 12.2-3.5 3.4-6.3 6.4-6.3 6.8 0 .5 1.1-.2 2.4-1.5 1.3-1.3 4.1-3.9 6.1-5.8 2.1-1.9 4.9-5.9 6.4-8.8 2.4-4.7 2.9-5.2 4-3.8 1.1 1.3 1 2.3-.3 5.6-.9 2.2-1.6 5.3-1.6 6.9 0 1.6-.6 4.4-1.4 6.2-1.7 4.3-3.1 32.8-1.6 34.9.7 1.1 1 .3 1-3.3 0-2.6.7-6.2 1.6-7.9 1.4-2.8 1.4-3.2.1-4-1.2-.6-1.3-1.5-.7-4.1.5-1.7 1.1-6.4 1.4-10.2 1.1-15.4 3.1-21.7 8.5-26.9 2.8-2.7 6-2.8 4.4-.3-.9 1.5-2.1 10.7-1.4 10.6.3 0 1.7-2.4 3.1-5.2 2.5-5.1 2.5-5.4 1.1-11.3-1.2-5.5-1.2-6.5.2-9.4 1.6-3.2 1.5-5-.4-5-.5 0-.9 1.5-.9 3.3zM486.5 745c-.3.6.1.7.9.4 1.8-.7 2.1-1.4.7-1.4-.6 0-1.3.4-1.6 1zM991 760c0 .5.5 1 1 1 .6 0 1-.5 1-1 0-.6-.4-1-1-1-.5 0-1 .4-1 1zM812 766c0 .5.7 1 1.6 1 .8 0 1.2-.5.9-1-.3-.6-1-1-1.6-1-.5 0-.9.4-.9 1zM680 775.1c0 .5.5.7 1 .4.6-.3 1-.8 1-1.1 0-.2-.4-.4-1-.4-.5 0-1 .5-1 1.1zM535 779c0 2.8.2 3.1 1.5 2 1.2-1 1.3-1.6.3-2.9-.7-.9-1.4-1.8-1.5-2-.2-.2-.3 1-.3 2.9zM625 785c0 .5.5 1 1.1 1 .5 0 .7-.5.4-1-.3-.6-.8-1-1.1-1-.2 0-.4.4-.4 1zM592 794.4c0 .9.5 1.6 1 1.6.6 0 1-.4 1-.9 0-.6-.4-1.3-1-1.6-.5-.3-1 .1-1 .9zM496.1 799.9c-.8.5-.9 1.1-.3 1.5.5.3 1.5-.1 2.2-.9 1.4-1.6.3-2-1.9-.6zM481.7 800.7c-1.2 1.1-.8 2.3.7 2.3.7 0 1.9-.7 2.6-1.5 1-1.2.9-1.5-.7-1.5-1.1 0-2.3.3-2.6.7zM445.6 812.9c-.4.5-.2 1.2.3 1.5.5.4 1.2.2 1.5-.3.4-.5.2-1.2-.3-1.5-.5-.4-1.2-.2-1.5.3zM660.6 814.9c-.3.5.1 1.1.9 1.5.8.3 1.5.1 1.5-.4 0-1.3-1.8-2.2-2.4-1.1zM368.5 816c-.3.5-.1 1 .4 1 .6 0 1.1-.5 1.1-1 0-.6-.2-1-.4-1-.3 0-.8.4-1.1 1zM615 824.6c0 .8.5 1.2 1 .9.6-.3 1-1 1-1.6 0-.5-.4-.9-1-.9-.5 0-1 .7-1 1.6zM517.7 825.6c-1.1 1.1-.8 5.2.4 6 .6.3 1.8-.1 2.7-1 1.3-1.2 1.4-2.1.6-3.3-1.2-2-2.7-2.6-3.7-1.7zM446 870.7c-4.1 3.8-4.9 8.8-2 12.6 4.4 5.5 11.8 2.4 13-5.4.9-6.1-1-9.9-5-9.9-1.8 0-4.1 1.1-6 2.7zM324.6 875.9c-2.4 2.7-1.1 4.8 1.5 2.5 1.9-1.7 2.6-4.4 1.1-4.4-.5 0-1.7.9-2.6 1.9zM872 885c0 .5.5 1 1 1 .6 0 1-.5 1-1 0-.6-.4-1-1-1-.5 0-1 .4-1 1zM310.5 891c-.3.5-.1 1 .4 1 .6 0 1.1-.5 1.1-1 0-.6-.2-1-.4-1-.3 0-.8.4-1.1 1zM450 898.1c0 .5.5.7 1 .4.6-.3 1-.8 1-1.1 0-.2-.4-.4-1-.4-.5 0-1 .5-1 1.1zM447.7 901.7c-.4.3-.7 1.1-.7 1.7 0 .6.5.5 1.2-.2.6-.6.9-1.4.7-1.7-.3-.3-.9-.2-1.2.2z"/></svg>