<svg xmlns="http://www.w3.org/2000/svg" width="1706.667" height="1706.667" version="1.0" viewBox="0 0 1280 1280"><path d="M149 246c-1.9 1.9-1.9 2.2-.5 5 2 3.9 6 4.1 7.7.5.9-1.9.8-2.9-.6-5-2-3-3.9-3.2-6.6-.5zM290.7 257.7c-.4.3 2.2 2.6 5.6 5 5 3.5 6.8 4.3 9.2 3.8 3.1-.6 17.5 2.6 23.3 5.2 1.8.8 3.6 1.1 4.1.8.5-.3 2.9.1 5.3.9s7.2 2 10.8 2.7c3.6.6 7 1.5 7.5 1.9.6.4 2.2 1 3.8 1.4 3.1.7 3.6 2.2 1 2.9-2.7.6 6.2 4.4 12.2 5.2 2.8.3 8.2 1.2 12 2 3.9.8 12.8 2.4 19.8 3.6 17.9 2.8 37.2 7.2 41 9.1 1.8.9 16.4 4.1 25.7 5.7 2.5.4 5.6 1.4 7 2.4 1.4.9 5.2 1.9 8.5 2.3 3.3.4 7.1 1.5 8.5 2.4 3.1 2.1 9.2 3.8 19.1 5.4 4.1.7 8.1 1.6 8.7 2 3.4 2.1 17.7 4.8 27.2 5.1 8.9.3 11.9.9 20 3.8 5.2 1.9 12.7 4.2 16.5 5.1 8.6 2.1 11.8 3.3 17.2 6.4l4.3 2.4-3.3 3.9c-3.4 4-7.5 7.2-18.2 14.4-3.3 2.2-6.1 4.9-6.3 5.9-.4 1.7.2 1.8 6 1.4 8.1-.6 12.6.7 16.1 4.5 3.1 3.5 3.3 4.5 1.3 7.3-1.4 1.8-1.5 1.8-2.2 0-.4-1-.2-2.7.5-3.7 1.2-2 .2-2.6-1.6-.8-1.5 1.5-8.3 2.9-8 1.7.1-.6-.4-1.3-1.2-1.6-.8-.3-1.1 0-.7.7.7 1.1-.4 1.5-3.8 1.1-2.9-.3-8.6-4.3-8.1-5.8.2-.6.1-1.2-.4-1.2s-1.1-.9-1.4-2c-.3-1.1-1.2-2-2.1-2-.9 0-3.3-1.1-5.4-2.4-2-1.4-6.5-3.4-9.8-4.5-5.3-1.8-7-1.9-12-1-9.2 1.6-12.6 2.9-16.2 6-1.8 1.6-3.7 2.9-4.2 2.9-.6 0-2.2 2.6-3.6 5.7-1.5 3.2-3 6.6-3.5 7.5-1.2 2.4-2.9 13.8-2.5 17.1.2 1.5 1.2 3.8 2.3 5 2.6 2.9 6.6 9.7 5.8 9.7-.4 0 1.9 2.5 5.1 5.5 3.2 3 5.6 5.7 5.3 6-.3.3-2.2-1.1-4.2-3s-4.3-3.5-5-3.5c-.8 0-1.7-.7-2.1-1.5-.3-.8-1.4-1.5-2.4-1.5s-3.4-1.8-5.3-4.1c-1.8-2.2-5-5-6.9-6.1-1.9-1.1-4.8-3.8-6.5-6.1-1.7-2.3-4.4-4.5-6.3-5.1-1.8-.6-3.6-1.6-4-2.2-.4-.6-1.7-1.5-3-1.9-1.3-.4-4-2.1-6-3.8-2-1.8-3.3-2.6-2.8-2 1 1.7-.4 1.6-2.3-.1-1.8-1.7-16.5-7-26.1-9.4-4.5-1.2-8.5-3.2-13-6.6-3.6-2.6-6.7-5.1-7-5.5-.3-.5-1.7-1.4-3.1-2.2-12.5-6.8-19.9-14.4-19.9-20.6 0-3.1-2.4-7.8-6.5-12.9-2-2.5-12.2-6.8-20.2-8.4-4.9-1.1-19.3-8.4-23.3-12-4.1-3.6-6.6-5.7-14.5-12.2-11.3-9.3-13.8-11.3-17-13.4-1.6-1-5.2-4-7.9-6.7-5.1-5-6.9-5.5-7.4-1.9-.2 1.5.5 2.5 2.7 3.7 1.7.8 3.5 2.4 4.1 3.5.6 1.1 2.6 3 4.4 4.3 8.2 5.5 16.4 12.3 19.6 16.4 1.9 2.4 5.1 5.3 7 6.4 5 2.8 19.3 15.6 22.8 20.5 1.7 2.3 5.1 5.8 7.6 7.9 2.5 2 4.6 4.2 4.6 4.7 0 1.8 8 12.4 14.5 19.3 9.3 9.8 10.5 13.2 11.4 33 .4 8.8.6 17.6.4 19.5-.2 1.9-.6 10-.8 17.9-.3 12.4-.6 14.6-2.3 16.5-1.1 1.1-3.1 3.8-4.5 6-1.4 2.1-3.6 4.4-4.9 5-2.8 1.4-3.6 5.7-1.4 7.6 1.9 1.5 2.1 8.1.4 9.8-.7.7-2.4 1.2-3.9 1.2-2.3 0-6.3-3.5-21.2-18.3-10.1-10-20.2-20.8-22.5-23.9-2.3-3.1-4.7-6-5.3-6.3-.6-.4-1.8-1.9-2.7-3.4-2.3-3.8-7-9.7-11.2-14.1-1.9-2-5.3-5.8-7.5-8.5-4.1-5.1-24.2-26.2-28.4-29.9-1.3-1.2-3.3-3-4.5-4.2-5.8-5.8-11.6-10.5-11.6-9.5s2.7 3.9 7.2 7.7c.7.6 2.5 2.4 3.9 4 1.5 1.6 8.8 8.9 16.3 16.1 7.4 7.3 14.6 15 16 17 2.1 3.4 8.6 11.3 14.8 18.1 1.2 1.3 2.7 3.4 3.4 4.7.6 1.2 3.1 4.8 5.5 8 8.5 11.2 8.1 10.4 13.8 28 2.4 7.1 5.6 15.2 7.3 17.8l3.1 4.8-6.1 5.7c-5.1 4.8-6.4 6.7-8.1 12.1-1.2 3.6-2.1 7.3-2.1 8.3 0 1-.3 1.8-.7 1.8-.5 0-.9 3.7-1.1 8.3-.1 4.5-.5 10.2-.8 12.7-.3 2.5-.6 7-.8 10-.2 3-1.3 7.7-2.5 10.3-3.2 7.4-2.4 7 1.5-.6 1.9-3.7 4.1-7 4.9-7.4 2-.7 1.9-5.1-.1-9.8-2-4.9-1.1-11.1 1.4-9.8 2.8 1.3 13.5 1 14-.5.2-.6.9-1.2 1.6-1.2.6 0 2.9-1.4 5.1-3.2 4.1-3.4 12.7-7.8 15.2-7.8 5.5 0 14.1-11.4 12.8-16.8-.5-2.2.7-1.4 6.9 4.8 4.1 4.1 8.5 9.3 9.7 11.5 1.2 2.2 3.3 5.4 4.6 7.1 3.7 4.9 3.2 11.1-1.2 16.4-1.9 2.3-3.5 4.5-3.5 5 0 .4-.9 1-2 1.3-3.8 1-3.4 3.5 1 8 2.5 2.4 5.9 7.6 8.1 12.3l3.9 8.1-1 7.9c-.6 4.3-1.3 8.7-1.6 9.6-.9 3-10.5 6.6-18.4 7-1.4.1-3 .6-3.7 1-1.4 1.1-10.1 0-10.9-1.3-.7-1.3-4.1-1.1-5 .2-.3.6.3 2.4 1.5 4 1.1 1.5 2.1 3.5 2.1 4.4 0 .8.7 1.5 1.5 1.5 1.7 0 2-2.5.5-3.5-2.5-1.6.8-2.5 8.3-2.5 8.7.1 19.4-1.1 21.4-2.3 2.6-1.6 5 2.9 7.2 13.7 1.9 8.8 2.1 11.3 1.1 13.4-.9 2.2-.9 2.8.4 3.8.9.6 1.6 2 1.7 3 0 1 .4 2.8.9 3.9.7 1.5.9.7.9-3 0-2.8.3-7.5.8-10.5.9-6.2.9-18.8.1-30.2-.7-8.9.6-11.6 6.4-13.7 1.8-.7 4.1-1.7 5.1-2.2.9-.5 3.5-.6 5.7-.3l4 .7v10.3c0 14-2.2 18.3-7.5 14.8-2.1-1.4-2.6-1.4-3-.2-.3.8-.1 2.7.5 4.2.5 1.5.8 3.2.4 3.7-.3.5.2.9 1 .9.9 0 1.6.4 1.6.8 0 .5 1.5 2.6 3.4 4.8 1.9 2.1 4.8 5.6 6.6 7.6 2.6 3.1 3.5 3.6 5 2.8 1-.6 3-1 4.5-1 3.1 0 5 3.9 4.1 8.5-.6 2.9-3.8 10.5-5.7 13.5-.5.8-1.8 3.3-3 5.5-5.9 11.7-8.5 14.7-16 19.6-3.6 2.3-5.7 2.9-9.5 2.8-5.7-.1-11.4-1.8-11.4-3.4 0-.6 1.4-3.7 3.1-6.9 1.7-3.1 2.9-5.9 2.7-6.1-.2-.3-1.7 2.1-3.3 5.1-1.6 3.1-3.6 5.9-4.4 6.2-.8.3-2.4-.6-3.7-2.1-1.3-1.5-2.7-2.7-3.2-2.7s-1.7-.9-2.6-1.9c-1-1.1-2.4-1.7-3.2-1.4-1.9.7-1.8-.7.5-6.7 1.5-3.9 1.8-7 1.6-13.9l-.4-8.9 6-6.1c3.3-3.3 5.5-6.1 5-6.1-.6 0-2.3 1.4-3.8 3.2-1.6 1.8-3.9 4.1-5.2 5.3-6.4 5.5-6.2 5.1-4.6 8.9 1.9 4.5 1.9 13.4.1 18.3-.8 2.1-1.7 5.5-2.1 7.6-.5 3.4-1.5 4.3-10.7 10.4-7.7 5.1-11 6.7-13.7 6.8-3.1 0-3.6.3-3.9 2.6-.5 4.5 2.3 4.2 8-.7 6.1-5.3 13.6-9.9 14.5-9 .3.3.1 1.7-.5 3.1-.8 1.6-.8 2.5-.1 2.5.5 0 1.6-1.5 2.4-3.3 2-4.9 3.7-6 6.8-4.6 2.9 1.3 4.1 3.5 5.6 10.1 1.3 5.4 6.9 14.1 8.7 13.4.7-.3 4-1 7.4-1.7 3.7-.7 8.1-2.5 10.9-4.3 2.5-1.7 6.9-3.9 9.7-4.9 4.9-1.7 5.1-1.7 9.7.3 2.7 1.2 5.8 3.6 7.4 5.8 1.5 2 3 3.9 3.4 4.2 3.2 2.8-.1 15.2-6 22.3-7.6 9.2-16.9 14.8-23.2 14.1-1.9-.2-5.8-.5-8.7-.8-6-.4-7.6-1.5-10.2-6.6-2.5-4.9-7.2-7-10.9-4.9-3.1 1.8-3.8 4.3-2 7.6 2 3.7-.5 4.7-5.5 2.1-4.9-2.5-20.2-15.2-21.8-18.1-1.8-3.4-11.8-16.1-13.4-17-.7-.4-1.4-1.4-1.4-2.1 0-1.4-6.4-7.6-7.8-7.6-1.5 0-2.9 1.6-3.4 3.7-.7 2.8 3.6 7.8 7.9 9.4 3 1 13.8 13.1 16.6 18.4 2.1 4.2 14.5 16.4 17.3 17.1 1.3.3 3.7 2.4 5.2 4.5 1.6 2.1 4 4.7 5.3 5.7 4.2 3.2 15.9 9.2 18 9.2 1.1 0 4.6 1.3 7.8 3 7.2 3.6 14.1 3.4 20.5-.5 6.6-4.1 6.9-4.2 12.3-6.9 2.9-1.4 5.9-2.6 6.7-2.6.9 0 3.1-1.4 4.9-3 1.9-1.7 3.7-3 4.1-3 .3 0 5.2-2.2 10.9-4.8 7.3-3.5 11.3-6.1 14.1-9.2 3.3-3.7 4.4-4.3 8-4.3 6-.1 14.6 1.4 14 2.4-1.2 2 .9.7 3.1-1.9l2.3-2.7-2-1.9c-4-3.7-.3-14.8 6.5-19.7 8.8-6.4 19.9-1.7 25.4 10.8 1.3 2.9 1.7 6.9 1.8 17.4 0 12.2.2 13.9 2 15.9 1.6 1.8 2.6 2 6.6 1.5 4.3-.6 5.2-.3 10.3 3 5.9 4 8.6 4.1 8.6.2 0-4-3.6-13.1-7.2-18.3-3.9-5.6-5.2-8.7-6.7-16.2-1.1-5.4-.3-9.4 3.5-16.4.8-1.4 1.4-3.5 1.4-4.5 0-2.7 2.8-6.3 4.9-6.3 1 0 2.4-.7 3.1-1.5.7-.8 2.5-1.5 3.9-1.5 1.5 0 3.8-1 5-2.1 2.1-2 2.3-2.9 2-11.3-.3-11.6.6-16 4.3-21.7 4.3-6.4 15.5-11.9 24.2-11.9 5.2.1 7.6 3.1 8.6 10.9.4 3.1.8 5.2.9 4.8 0-.5 1.3.1 2.7 1.2 2.7 2.1 5.2 2.5 9.1 1.5 1.3-.4 2-1.1 1.6-2-.3-1 .5-1.6 2.5-2 1.8-.4 3.2-1.4 3.5-2.5.7-2.5 3.7-2.5 3.7 0 0 1.1-.4 2.3-1 2.6-.5.3-1 1.7-1 3.1 0 1.3-.4 2.4-1 2.4-1.6 0-4.1 7.1-3.3 9.4.4 1.2.6 2.9.4 3.9-.1 1 .5 2.9 1.4 4.3 1.4 2.1 1.9 2.3 3.8 1.3 3.5-2 15-11 17.2-13.6 2.7-3.3 5.9-2.2 5 1.6-.4 1.4-.7 2.6-.8 2.6-1.8 0-4.3 3-4.9 5.6-1.1 5.4 1.5 9 10.1 13.8 1.1.7 1 1.3-.3 3.9-2.2 4.2-2 10.4.4 14.6 1.4 2.7 2 5.7 2.1 12.1.2 8.3.3 8.6 2.8 9.1 1.4.3 3.4.9 4.3 1.5 1 .5 2.8.9 4 .9 2.8.1 5.1 1.7 6.7 4.9 1 1.7 1.5 2 2.1 1.1.6-.9 1.1-.7 1.9.9 1.1 2 1.3 2 2.8.5 1.6-1.5 1.6-1.7 0-2.9-2.1-1.5-2.1-1.9-.1-6.1 1.9-4 3.1-4.3 4.4-1 .5 1.4 1.8 3 3 3.6 1.9 1 2 .9 1.4-1.4-.3-1.5-.2-2.6.4-2.6 1.4 0 .2-4.3-1.5-5.3-.9-.5-1.3-2.1-1.2-4 .2-1.8-.1-6.2-.5-9.8-.7-5.6-.5-7.2 1.2-10.8 4.8-9.9-.2-27.2-11.3-39.1-3.7-3.9-5.5-6.9-6.5-10.5-.7-2.8-1.9-5.7-2.7-6.6-.7-.9-2.1-3.9-3.1-6.7-2.2-6.1-8-13.2-22.4-27.5-8.6-8.4-11.5-10.7-13.7-10.7-4.2 0-6.5-3.2-13.6-19-3.2-7.2-9.8-15.3-13.6-16.8-1.9-.8-16-13.5-23.3-20.9-5.9-6-13.3-11.5-19.3-14.3-2.4-1.1-4.3-2.4-4.3-3 0-.5-.7-1-1.5-1s-2.4-2-3.5-4.5c-1.9-4.1-10-13.5-11.8-13.5-.4 0-4.4-3.5-8.9-7.8-8.3-7.9-12.6-11.6-17.7-15.4-1.6-1.2-4.1-4-5.5-6.3-5.9-9.4-13.2-15.3-22.8-18.6-3.2-1-7-2.8-8.5-3.9s-3.1-2-3.7-2c-1.2 0-11.3-10.5-12.8-13.4-.7-1.3-2-4.6-2.8-7.2-.9-2.7-2-5.8-2.4-6.9-.5-1.1-1.3-4.6-1.9-7.9-2.1-10.7-.8-10.4 14 4.1 6.5 6.5 12.4 11.9 12.9 12.1.5.2.9.9.9 1.6 0 2.5 23.2 23.8 24.5 22.4.2-.2-.1-2.3-.5-4.8-1.6-7.9-1.3-9.4 1.9-10.6 2.3-.9 3.6-.8 6.7.7 2.2 1 4.4 1.8 5 1.9 1.2 0 5.3 4.1 5.3 5.3 0 1.6 4.1 5.8 5 5.3.5-.4 2.9 0 5.3.8 2.4.7 6.6 1.9 9.3 2.6 2.8.7 7 2.3 9.5 3.5 2.5 1.2 6.3 2.8 8.5 3.5 5.2 1.7 17.8 7.7 29 13.9 7.8 4.2 9 5.3 9 7.5-.1 1.6.3 2.2.9 1.6.9-.9 4.6 2.9 4.6 4.9 0 .6.7 1.1 1.6 1.1.9 0 2.4 2 3.6 4.7 1.1 2.7 2.6 5.1 3.2 5.5.7.5.6.8-.3.8-1.2 0-4.3-1.3-16.1-6.9-5.6-2.6-8.2-4.3-8.7-5.7-.3-.8-1.1-1.4-1.8-1.4s-1.5-.4-1.7-.8c-.5-1.2-8.7-7.6-9.2-7.1-.2.2 3.2 3.5 7.6 7.3 8.7 7.4 8.7 7.5 5.8 15.6-2.2 6-3.8 8.5-5.8 8.8-3.1.5-22.7-13-31.4-21.6-.4-.4-3.1-3.1-6-6.1-13.2-13.3-16.7-16.5-17.4-15.9-.6.6 4 5.7 20.1 22.2 5 5.1 9.9 11.6 8.7 11.6-.4 0-2.8-1.4-5.3-3.1l-4.4-3.1 4 3.6c2.2 2 6.3 5.2 9 7 6.2 4.1 14.5 12.4 14.5 14.4 0 .4 1.7 1.8 3.8 3.1 3.6 2.3 12.2 12 12.2 13.9 0 1.1 7.5 7.2 8.9 7.2.5 0 1.9 1.3 3.1 3 1.8 2.5 1.9 3 .6 3-.9 0-1.6.4-1.6 1 0 .5.7 1 1.5 1s2.5 1.2 3.9 2.6c1.6 1.8 2.8 2.4 3.7 1.8 2.5-1.5 6.3-.3 9.1 2.9 1.5 1.8 2.7 3.7 2.8 4.4 0 2 3.5 3.4 4.8 2.1 2.3-2.3 1.1-5.3-3.9-10-3.7-3.5-5.9-4.8-8.1-4.8-3.3 0-10.8-3.5-10.8-5.1 0-.7 1.4-1 3.5-.7 1.9.2 3.5.1 3.5-.3s1.4-1.1 3.2-1.4c1.8-.4 4.8-2 6.8-3.5 4.9-3.9 7.6-4.6 8.9-2.2 1.2 2.2.9 4.8-.7 6.4-2.1 2.1-1.3 3.7 2.7 4.9 5 1.5 10.4.5 13.8-2.6 2.7-2.5 2.8-2.5.8-4-1.1-.9-3.6-2-5.6-2.5-6.3-1.7-9.8-8.2-6.4-12 2.4-2.7 3.6-2.1 13.9 7.2 2.2 2.1 4.5 3.8 4.9 3.8.7 0 7.7 5.5 12.8 10 .9.8 5.3 4.2 9.8 7.4 4.5 3.3 9.7 7.6 11.6 9.7 3.2 3.6 3.3 4 2.8 9.7-.5 5.3-.2 6.6 2 10.5 1.5 2.4 3.8 5.2 5.3 6.2 3.8 2.5 11.2 1.6 16.3-1.9 7-4.9 12.6-1.3 12.6 8.3.1 3.1.8 7 1.7 8.8 1.6 3.2 1.6 3.3-.3 3.3-1.7 0-2.8-.4-7.9-3.1-.8-.4-4.2-2.2-7.5-3.9-3.3-1.7-8.1-4.5-10.7-6.3-2.6-1.7-7.3-4.8-10.4-6.7-3.1-1.9-7.4-4.9-9.6-6.7-2.2-1.8-4.5-3-5.3-2.6-.9.3-2.7-.8-4.5-2.7-1.7-1.8-3.4-3-3.7-2.6-.4.4 1.6 3 4.3 5.9 2.8 2.8 6.3 7.1 7.8 9.4 1.6 2.4 3.5 4.3 4.2 4.3.7 0 1.7.6 2.1 1.3.4.6 2 1.8 3.6 2.6 1.5.8 2.7 2 2.7 2.6 0 .7 1.7 1.9 3.8 2.8 2 .9 6 3.5 8.7 5.7 5.3 4.4 13.6 9 19.7 10.9 2 .7 4.2 1.9 4.9 2.8.7.8 2.2 1.9 3.4 2.4 12.5 5.8 15.9 14.4 4.9 12.3-2.5-.5-3.4-.3-3.5.7-.5 5.3 1.9 9.4 6.4 11.5l3.2 1.5-4.5-.7c-2.5-.3-4.9-1-5.4-1.5-.6-.5-1.8-.9-2.7-.9-4.1 0-13.4-5.1-15.7-8.5-2.1-3.4-5.4-4.6-6.7-2.5-1.5 2.4 3.8 6.7 13.5 10.9 21.3 9.2 22.7 9.9 25.6 13.4 1.8 2.2 2.4 3.9 2.2 7.3-.1 3 .4 5 1.5 6.1 1.2 1.2 1.3 2.2.6 4.1-1.5 4-.3 6.9 5 11.8 2.7 2.5 5.2 5.5 5.5 6.7.7 2.9 5.6 7.6 8.5 8.2 1.2.2 3.8-.3 5.7-1.3 3.4-1.6 3.6-1.5 4.5.1.6.9 2.4 2.4 4.1 3.3 4.1 2.1 5.1.7 4.4-6.4-.5-5.2-.4-5.3 3.4-7.7 2.7-1.7 6-2.7 10.2-3 6.9-.6 12.3-2.7 14.8-5.7 1.5-1.8 1.6-1.8 6.3 0 2.7 1 5.2 2.4 5.7 3.1.5.8 1.6 1.1 3 .6 1.2-.4 4.8-.2 8 .5 7.2 1.5 10 .4 10-4.1 0-2.2-.9-3.9-3.5-6.2-1.9-1.7-3.5-3.6-3.5-4.3 0-1.3 2.2-2.4 4.8-2.4.9 0 2.5-.7 3.6-1.5 1.8-1.3 1.7-1.7-2-8.2-2.1-3.7-5.6-10.8-7.7-15.6-3.4-7.9-6.5-12.6-15.8-23.7-1.6-1.9-2.9-3.8-2.9-4.2 0-.5-.7-.8-1.5-.8s-5-2.7-9.1-6c-4.2-3.4-10-7.2-12.8-8.7-2.8-1.4-6.4-3.5-8.1-4.7-5.1-3.7-24.2-15.6-25.1-15.6-.4 0-1.7-.9-2.8-1.9-1.2-1-5.2-3.5-8.9-5.5-3.8-2-8.4-4.9-10.2-6.4-1.9-1.5-6.3-4.2-9.8-6-3.6-1.8-7.8-4.8-9.4-6.5-5.9-6.5-11.6-10.9-13.5-10.4-1.1.3-2.2-.1-2.5-.9-.3-.8-1.5-1.4-2.7-1.4-2.5 0-4.6-3.5-4.6-7.7 0-2.1-.2-2.4-1.5-1.3-1.7 1.4-2 4.6-.5 5.5.6.3 1 1.1 1 1.6s-2.1-.6-4.8-2.5c-6.5-4.9-8.2-6.7-8-8.4.4-1.9-1.9-2.7-2.4-.9-.2 1-2.8-.5-8.3-5-4.4-3.5-10.3-7.7-13.1-9.4-2.8-1.6-7.1-4.7-9.5-6.9-3.6-3.2-4-3.9-2.4-4 4.7-.1 9.1-2.1 10.7-4.8 2.6-4.3 2.4-16.7-.2-23.6-.5-1.5-.9-3-.8-3.4.5-2.9-7.6-14.1-14.6-20.2-4.8-4.2-11-8-12.9-8-1 0-4.1-.8-7.1-1.9-4.8-1.7-5.7-1.7-9.5-.4-4.2 1.4-4.2 1.4-15.4-3.9-6.2-2.8-12.3-6-13.7-6.9-1.4-.9-5.2-3.1-8.5-4.8-3.3-1.7-6.9-3.7-8-4.4-1.1-.6-2.1-1.2-2.1-1.2-.1 0-.5-1.4-.9-3.2-.6-3.2-.6-3.2 2.9-2.8 3.7.5 6.1-1.3 2.9-2.1-1.1-.3-2.6-2.1-3.5-3.9l-1.5-3.4 4.9-5.3c2.7-2.9 5.2-5.3 5.6-5.4 2-.2 4.2-1.8 4.2-3 0-.8.7-1.4 1.5-1.4 1.8 0 2-3 .3-3.1-.7-.1-2.8 0-4.7.1l-3.4.2 3.6-4.9 3.6-4.9-5 .1c-2.7.1-4.9-.2-4.9-.6 0-1 2.5-2.9 6.3-4.8 3-1.5 3.4-1.5 7.7.5 2.5 1.2 6.9 2.9 9.9 3.9 3.3 1.1 5.5 2.4 5.8 3.6.5 1.7 4.3 2.3 4.3.7 0-2.6 7.1 1.5 13.4 7.7.7.8 5.1 3.3 9.7 5.7 11.6 5.9 11.6 5.9 11.2 18.4-.4 11.3-.1 12.3 5.5 19.1 2.3 3 4.4 4.4 6.8 4.9 1.9.3 3.7 1 4 1.5.3.5 2.6.9 5.2.9 6.6 0 11.3-4 15.8-13.6 1.9-4 3.4-8.1 3.4-9.2 0-1 1.9-3.1 4.4-4.9 2.6-1.8 5.5-5.2 7.3-8.4 1.6-3 3.9-7.1 5.1-9.1 2.3-4.1 3.1-15.1 1.7-24.3-1.3-8.6-11-28.6-17.2-35.5-4.5-5-12.9-11-15.4-11-3.5 0-15.8-10.6-28.2-24.3-3.4-3.8-8.2-8.3-10.7-10-2.5-1.7-6.7-4.9-9.5-7.3-2.7-2.3-8.1-6.3-12-8.9-8-5.4-11.2-5.6-17.2-.8-1.9 1.5-4.4 3.3-5.5 4-2.1 1.2-10.8 10.2-10.8 11.2 0 .4-1 1.7-2.3 3.1-3.8 4.2-6.4 8.3-7.5 12-3.7 12.5-6.3 16-13.3 18.2-5.4 1.7-7.6 1.7-20.4-.2-10.7-1.5-15.8-1.8-18-1-1.1.4-3.5.3-5.5-.1-1.9-.4-7.3-1-12-1.4-4.7-.3-12.1-1.3-16.5-2.2-4.4-.9-10-1.7-12.4-1.9-2.4-.1-6-.9-8-1.7-4.6-1.9-11.7-3.7-20.6-5.2-7.1-1.2-17.3-3.9-21-5.5-1.1-.5-4.1-.8-6.7-.8-4.4 0-14.4-2.7-21.6-5.8-1.8-.8-5.3-1.4-7.7-1.4-3.9 0-4.5-.3-5.1-2.5-.7-2.9-2.9-3.3-4.2-.8-.9 1.6-1.4 1.6-7.3.1-14.5-3.6-20.5-5.1-21.9-5.6-.8-.3-3.7-1.1-6.5-1.8-12.1-3-17.3-4.3-21-5.4-2.2-.7-5.6-1.4-7.5-1.7-1.9-.3-4.1-1-4.8-1.6-.8-.6-3.5-1.4-6-1.8-8.1-1.2-22.5-5-26.5-7-2.2-1-5-1.9-6.4-1.9-1.3 0-3.3-.5-4.4-1-1-.6-5.6-1.3-10-1.5-4.5-.3-8.5-.7-8.9-1-.4-.2-1-.2-1.3.2zm105.7 87.8c2.5 2 4.6 3.9 4.6 4.3 0 1.5 10.3 12.3 13 13.7 1.6.8 6.7 5.2 11.4 9.7l8.6 8.1v6.4c0 3.4-.4 8.2-.9 10.5-.6 2.4-1.4 6.9-2 10.1-.6 3.2-1.9 7-3 8.6-2.1 2.9-2.1 3.1-.5 15.2.5 3.5.2 4.9-1.1 6.3-1 .9-2.2 1.5-2.8 1.3-2.5-.8-4.5-13.2-5.2-30.7-.7-20.7-2.6-34.5-5.2-38.9-.9-1.4-3.9-4.9-6.7-7.6-10.5-10.3-18.3-20.5-15.8-20.5.5 0 3 1.6 5.6 3.5zM620 357.4c0 1.4-8.3 7-11.8 7.9-1.9.5-2.3.2-2-1.6.2-1.6.9-2.1 2.6-2 1.2.2 2.2-.2 2.2-.8 0-.6.7-.9 1.5-.5 1.1.4 1.5-.1 1.5-1.7 0-3.2 1.9-4.8 4.2-3.6 1 .5 1.8 1.6 1.8 2.3zM561.4 381c.4 0 .4-.4.1-1-.3-.6.1-.7.9-.4.9.3 1.6 1.2 1.6 2s.5 1.4 1.1 1.4c.5 0 .7-.5.4-1-.3-.6-.3-1.5.1-2.1.3-.6 1.4.2 2.5 2.1 1.9 3 1.8 5-.1 5-.5 0-2.1 1.1-3.6 2.5s-3.3 2.5-4 2.5c-1 0-1.4 1.4-1.5 4.2-.2 7.1-.3 7.3-2.9 7.3-2 0-2.5-.5-2.3-2.3.2-1.8-.2-2.2-2.5-2.3-2.4 0-2.5-.1-.7-1 1.5-.7 1-.8-1.8-.4-3 .5-3.9.2-4.4-1.2-.4-.9-2.4-3.4-4.5-5.4-3.4-3.2-5.1-7-3-6.9.4 0 2.9 1.1 5.6 2.5 6.6 3.2 8.9 2.2 4.1-1.8-4.2-3.4-3.5-5.7 1.2-3.9 2.7 1.1 5.6 1.6 7.9 1.3.6-.1.9-1.5.6-3.4l-.4-3.2 2.5 2.7c1.3 1.6 2.7 2.8 3.1 2.8zm46.8 5c1 0 1.8.7 1.8 1.5 0 1.9-1.1 1.9-3.6 0-1-.8-2.8-1.5-3.9-1.5l-2-.1 2-.9c1.1-.4 2.4-.4 3 .1.5.5 1.7.9 2.7.9zm-32.8 14.2c-.5 3-1.1 3.8-3.5 4.3-1.6.4-3.3.4-3.8.1-1.3-.9-.1-8.8 1.7-10.9 1.5-1.7 1.7-1.7 3.9.5 1.8 1.9 2.1 3 1.7 6zm24.1-2.8c1.1.8 2.4 1.2 3 .9 2.9-1.1 5.1 5.9 2.4 7.5-2.8 1.7-4.6 1.5-9.4-1.3-5.2-3.1-7.4-5.4-5.4-5.7.8 0 1.9-.2 2.4-.3.6-.2 1.6-.3 2.3-.4.7 0 1-.6.7-1.1-.9-1.5 1.8-1.2 4 .4zm-48.5 12c.7 1 .8 2.1.3 3.1-.8 1.4-1.1 1.4-2.7-.4-1-1.1-1.5-2.5-1.1-3 .9-1.5 2-1.4 3.5.3zm26.2 10.8c-.9.9-1.5.9-2.3.1-.7-.7-.9-2-.5-2.9.6-1.6.8-1.6 2.3-.1 1.3 1.3 1.5 1.9.5 2.9zm5.6 1c1.7 1.7 1.5 2.8-.6 2.8-1.9 0-4.2-1.8-4.2-3.2 0-1.2 3.5-.9 4.8.4zm-42 6.8c.9.5 2.9 1.4 4.5 2 1.7.6 2.7 1.7 2.7 3 0 2.7-.9 2.5-5.8-1.2-5-3.8-6-6.4-1.4-3.8zm-130.6 32.4c-.5 7.7-1.1 10.1-2.4 11-2.5 1.5-2.8.7-3.2-7.2-.4-6.6-.2-7.4 2.7-11.3 1.7-2.3 3.2-3.8 3.4-3.3.1.5-.1 5.4-.5 10.8zm-42.9-4.7c10.2 9.3 23 22.3 22.4 22.9-1.1 1.2-12.1 4.1-13.6 3.7-2.7-.8-9-9.2-10.2-13.6-.6-2.3-2.2-7-3.5-10.4-1.3-3.4-2.4-6.4-2.4-6.7 0-1.6 2.5-.1 7.3 4.1zm79.7 5.8c3.2 3.5 1.7 4.5-4.9 3.5-5.3-.9-9.6-3.5-8.5-5.1.3-.5 2.9-.9 5.8-.9 4.3 0 5.7.4 7.6 2.5zm-19.4 16c2.7.8 6 1.5 7.4 1.5 3.7 0 14.5 5.7 18.9 10 2.9 2.9 4 4.8 4.5 8.3.6 4.1.3 5.3-3.4 11.9-7.4 13-10.4 15-17.7 11.6-4.5-2.1-8.7-6-19.3-17.7-3-3.3-8.3-9-11.7-12.6-7-7.2-7.9-10.2-3.5-11 1.5-.3 5.2-1.2 8.2-1.9 7.3-1.9 10.7-1.9 16.6-.1zM658 483c2.8 1.6 5.3 3 5.7 3 .3 0 2.6 1.5 5.2 3.4 2.5 1.8 7.9 5 11.9 7 3.9 2 7.2 4.1 7.2 4.6 0 .6.5 1 1.1 1 .6 0 1.7.7 2.5 1.5.9.8 2.7 1.5 4.2 1.5 1.8 0 6 2.5 12.2 7 11.1 8.1 23.2 17.6 26.3 20.6 1.2 1.1 3.4 2.9 4.9 3.8 4.1 2.7 9.1 10.6 7.7 12.3-1.7 2-4.5 1.6-8.9-1.2-2.2-1.4-4.4-2.5-4.9-2.5s-1.4-.7-2.2-1.6c-.7-.8-4.4-3.3-8.3-5.5-9.8-5.6-17-10-17.6-10.8-.3-.4-1.2-1.2-2.1-1.7-2.3-1.2-12.3-9.9-17.3-15-3.3-3.3-4.7-4.1-7.1-3.9-1.6.2-3.6-.1-4.5-.6-1.1-.7-.9-.8 1-.3s2.2.3 1.4-.5c-.6-.7-2.2-1.3-3.5-1.4-1.3-.2-3.9-1-5.6-2-2.6-1.4-3.3-2.4-3.3-4.7 0-2.3-.4-3-2-3-1.3 0-2-.7-2-1.9 0-1-.7-2.2-1.6-2.5-.9-.4-1.4-.9-1-1.3.8-.8-2.3-4.3-3.8-4.3-.7 0-1.2-.9-1.3-2-.2-2.5-.3-2.6 5.7 1zm-260.8.4c.7.8 2.2 2.6 3.3 4.2 1.1 1.5 2.6 3.4 3.4 4.1 2 2 1.2 2.3-3.9 1.1-2.5-.6-6.4-1-8.8-.9-4.3.1-7.3-.9-10.4-3.7-1.7-1.4-1.7-1.6 0-2.8.9-.7 3.1-1.4 4.7-1.4 1.7 0 3.7-.5 4.5-1 2.2-1.4 5.7-1.2 7.2.4zm-22.4 7.8c.2 1-.8 2-2.6 2.6-1.6.5-4.5 2.4-6.5 4.2-5.4 4.7-4.5 2.3 1.4-3.8 5-5.2 7.1-6 7.7-3zM685 513c.6 1.1.9 2 .7 2-.2 0-1.2-.9-2.2-2-1-1.1-1.3-2-.7-2 .6 0 1.6.9 2.2 2zm99.5 65.1c0 3.1-3.2 3.6-7.7 1.2l-3.3-1.8 3.5-.3c1.9-.2 3.9-.8 4.5-1.3 1.5-1.5 3-.4 3 2.2zm39.9 25c2.9 2.3 8.2 10.7 7.3 11.6-1 .9-9.2-7.5-10.4-10.7-1.3-3.5-.5-3.8 3.1-.9zm-151.7 27.4c-.3 2.6-.8 3-2.9 2.3-.7-.3-.7-1.1.3-2.6 1.8-2.9 3-2.8 2.6.3zm-.7 8.2c0 1-.3 2.8-.6 4.1-.5 1.7-1 2-2 1.1-.7-.6-1.1-1.7-.8-2.5.2-.8.6-2.1.9-2.9.6-2.1 2.5-1.9 2.5.2zm154 7.8c1 1.2 1 1.8 0 3-1.1 1.3-1.7 1.2-5.1-.7-2.7-1.5-3.5-2.4-2.7-3 2.1-1.3 6.5-.9 7.8.7zm13.2 9.2c1.7 1.5 2.5 4.3 1.3 4.3-.3 0-2.4-.9-4.7-2.1-3.1-1.6-3.8-2.3-2.7-3 2.1-1.3 4-1.1 6.1.8z"/><path d="M556.8 389.7c.6.2 1.8.2 2.5 0 .6-.3.1-.5-1.3-.5-1.4 0-1.9.2-1.2.5zM553 396.4c0 .2.9.6 2 .9 1.1.3 1.8.1 1.4-.4-.5-.9-3.4-1.3-3.4-.5zM167.1 271.9c1.7 2.2 4.5 4.5 6.3 5.1 1.7.6 3.9 1.6 4.8 2.1 2.8 1.4 3 1.1 1.3-1.9-1.7-2.8-6.6-6.2-9-6.2-.7 0-1.5-.7-1.9-1.5-.3-.8-1.5-1.5-2.6-1.5-1.9 0-1.9.3 1.1 3.9zM565 278.1c0 .5.5.7 1 .4.6-.3 1-.8 1-1.1 0-.2-.4-.4-1-.4-.5 0-1 .5-1 1.1zM596 288c0 .5.5 1 1.1 1 .5 0 .7-.5.4-1-.3-.6-.8-1-1.1-1-.2 0-.4.4-.4 1zM450 317.6c0 1.7 3 7.4 4 7.4.9 0 2.2 3.3 2.5 6 .1.8 1.7 4 3.6 7 1.9 3 3.8 6.3 4.2 7.2.3 1 1.1 1.8 1.7 1.8.5 0 1 .6 1 1.2 0 2.5 7 10.1 11.5 12.4 5.2 2.8 5.5 2.4 2-2.2-1.4-1.8-2.5-3.9-2.5-4.7 0-.8-.9-2.6-2-4s-2-2.9-2-3.4c-.1-1.4-4.4-5.9-6.2-6.6-1-.4-1.8-1.5-1.8-2.6s-1.4-3.1-3.1-4.3c-1.7-1.3-3.9-3.9-4.9-5.8-2.2-4.2-7.9-10.9-8-9.4zM260 341.7c0 .5 1.3 1.7 2.8 2.7l2.7 1.9-2.4-2.6c-2.6-2.8-3.1-3.2-3.1-2zM271 350.9c0 .5 1.2 1.7 2.8 2.6l2.7 1.8-2.4-2.7c-2.6-2.8-3.1-3.1-3.1-1.7zM460.4 353.5c-.8 2 1.3 4.5 3.7 4.5 2.1 0 2.4-1.2.9-4.1-1.3-2.3-3.8-2.5-4.6-.4zM373.5 360c-.3.5-.1 1 .4 1 .6 0 1.1-.5 1.1-1 0-.6-.2-1-.4-1-.3 0-.8.4-1.1 1zM341.2 392.1c.2.6.8 1 1.3 1s1.1-.4 1.3-1c.2-.6-.4-1.1-1.3-1.1s-1.5.5-1.3 1.1zM365.6 413.9c-.9 1.5 2.3 3.6 3.6 2.3.5-.5.7-1.5.4-2.1-.9-1.3-3.3-1.4-4-.2zM522 413.4c0 .2.7.6 1.5 1 .8.3 1.5.1 1.5-.4 0-.6-.7-1-1.5-1s-1.5.2-1.5.4zM321.7 468.4c-.7 1.7 1.8 4 3.3 3.1.7-.4.7-1.2 0-2.6-1.3-2.3-2.6-2.5-3.3-.5zM214 495c0 .5.5 1 1 1 .6 0 1-.5 1-1 0-.6-.4-1-1-1-.5 0-1 .4-1 1zM669 545.4c0 .2.7.7 1.6 1 .8.3 1.2.2.9-.4-.6-1-2.5-1.4-2.5-.6zM695 561.8c0 2.6 4.5 5.6 6.6 4.4 1.4-.8 1.2-1.2-1.2-2.9-5-3.4-5.4-3.5-5.4-1.5zM345.5 564c-.3.5-.1 1 .4 1 .6 0 1.1-.5 1.1-1 0-.6-.2-1-.4-1-.3 0-.8.4-1.1 1zM344.7 566.7c-.4.3-.7 1.1-.7 1.7 0 .6.5.5 1.2-.2.6-.6.9-1.4.7-1.7-.3-.3-.9-.2-1.2.2zM340 576.1c-4.2 8.6-5.1 10.9-4.1 10.9s8.4-16 7.7-16.7c-.3-.3-1.9 2.3-3.6 5.8zM718.8 588.8c3.9 3.9 4.7 4.4 5 2.8.5-2.4-3.9-6.8-7.1-7.2-2.2-.2-2 .2 2.1 4.4zM333.8 589.5c-.3 1.1-.9 2.9-1.3 4-.3 1.1.1.7 1-.8.9-1.6 1.5-3.3 1.2-4-.2-.6-.6-.3-.9.8zM329.3 600.6c-.6 1.3-.7 2.4-.3 2.4.9 0 2.5-3.9 1.8-4.5-.2-.2-.8.7-1.5 2.1zM388.5 627c-.4.6-.3 1.6.3 2.2.6.6 1.2.6 1.7-.2.4-.6.3-1.6-.3-2.2-.6-.6-1.2-.6-1.7.2zM392.3 654.5c-.7 2 .2 2.9 2.1 2.2.9-.4 1.3-1.3 1-2.2-.8-1.9-2.3-1.9-3.1 0zM440.1 655.6c0 1.1.3 1.4.6.6.3-.7.2-1.6-.1-1.9-.3-.4-.6.2-.5 1.3zM779.3 669.7c-1.2.2-2.7 1.1-3.3 1.9-.7.8-2.1 1.4-3.1 1.4-1.1 0-1.9.4-1.9 1 0 .5.5.9 1.2.7.8-.1 1.3 1.3 1.3 4.3 0 4.4 0 4.5 4.2 5.4 5.2 1.1 6.5.2 9.3-6.2 2.5-5.6 2.5-6.9.1-8.2-2-1-3.8-1.1-7.8-.3zM403.2 685.6c-2.4 2.4-4 4.4-3.7 4.4 1 0 7.8-6 8.8-7.7 1.6-2.7-.9-1.1-5.1 3.3zM391.8 693.6c-2.7 1.4-4.8 3.1-4.8 3.9 0 2.5 2.3 1.6 6.9-2.5 5-4.6 4.5-4.9-2.1-1.4zM776.6 694.5c.4.8 1 1.5 1.5 1.5s.9-.7.9-1.5-.7-1.5-1.5-1.5c-.9 0-1.2.6-.9 1.5zM772.8 701.7c-2 .5-2.5 1.8-3.4 8.3-.4 3.2-.3 5 .4 5 .5 0 2.5 1.4 4.3 3.1 3.2 2.9 7.1 4 8.7 2.5 1.2-1.3.5-8.1-1.3-11.6-1.5-2.9-6.1-8.3-6.8-7.9-.1.1-.9.3-1.9.6zM614 709c.8.5 2 1 2.5 1 .6 0 .3-.5-.5-1s-1.9-1-2.5-1c-.5 0-.3.5.5 1zM626.7 709.7c-2.4 2.3 1.3 9.3 4.8 9.3 1.6 0 5.5-3.4 5.5-4.8 0-.5-.9-1.8-2-3-2-2.1-6.9-3-8.3-1.5zM269 724.4c0 .7-.7 2.6-1.4 4.2-1.5 2.8-1.3 4.4.5 4.4 1.4 0 4.2-6.9 3.5-8.6-.7-1.8-2.6-1.8-2.6 0zM539.5 726.1c-.4.6-.5 1.2-.2 1.5.2.3.7-.2 1-1.1.7-1.7.1-2-.8-.4zM656.6 743.5c.4.8 1 1.2 1.5.9 1.4-.8 1-2.4-.6-2.4-.9 0-1.2.6-.9 1.5zM233.7 747.6c-1.2 1.3 1.4 4.4 3.7 4.4 2.6 0 5.1-2.4 4.1-4-.7-1.1-6.8-1.4-7.8-.4zM897.4 752.7c-1.4 3.4-2.1 10.8-1.3 15.6.4 3.1 4.7 4.1 9.2 2.1 5.8-2.6 7.2-8.1 4-14.9-.9-2-2.4-3.5-3.4-3.5-.9 0-2.2-.7-2.9-1.5-2-2.5-3.9-1.7-5.6 2.2zM705.6 759.7c-1.1 1.1-.6 2.3.9 2.3.8 0 1.5-.4 1.5-.9 0-1.3-1.6-2.2-2.4-1.4zM719.4 761.1c-1 1.2-2.9 2.5-4.1 3-3.6 1.4-2.6 3.8 1.2 2.9.6-.1 2.8-.3 4.9-.4 4.5-.1 6.8-2.5 5-5.4-1.6-2.5-4.7-2.6-7-.1zM517.4 768.7c-3.6 5-5.2 11.9-6.5 27.8-.4 6-1.1 12.1-1.5 13.5-.4 1.4-.8 6.3-.9 11-.1 4.7-.5 9.8-.9 11.3s-.3 3.5.2 4.4c1 1.7 1.7-2.9 2.8-18.7.3-4.7 1-9.2 1.4-10 .4-.8 1.1-5.3 1.4-10 1.3-18 1.7-20.1 4.7-23.5 3-3.4 3.5-5.1 2.1-7.3-.6-.9-1.4-.4-2.8 1.5zM885.5 773.9c.3.5 3.1 2.3 6.2 4 5.6 3.1 9.3 3.9 9.3 2.2 0-1.3-4.7-4.1-6.9-4.1-1.1 0-2.2-.4-2.6-1-.3-.5-1.2-.7-1.9-.4-.8.3-1.7.1-2.1-.5-.3-.6-1.1-1.1-1.6-1.1-.6 0-.8.4-.4.9zM501.5 785c-1.9 2.1-1.9 2.2-.1 3.6 1.4 1 2.3 1.1 3.3.3 1.6-1.4 1.6-2.1 0-4.3-1.2-1.6-1.4-1.6-3.2.4zM909.6 801.8c-2.1 2-4.5 5.7-5.3 8.2-.8 2.5-2.2 5.3-3 6.2-3.4 3.8 2.6 12.8 6.6 9.9.9-.6 2.5-1.5 3.6-2s3.1-2.1 4.4-3.5c1.9-2 3.4-2.6 6.7-2.6 5.4 0 6.5-1.7 3.1-4.5-2.1-1.6-2.8-3.2-3.1-6.5-.3-3.4-1-4.9-3.2-6.7-3.9-3.1-5.3-2.9-9.8 1.5zM147 815c0 .5.4 1 .9 1 .6 0 1.3-.5 1.6-1 .3-.6-.1-1-.9-1-.9 0-1.6.4-1.6 1zM731.2 819c0 1.4.2 1.9.5 1.2.2-.6.2-1.8 0-2.5-.3-.6-.5-.1-.5 1.3zM443.3 819.7c-1.8.7-1.6 4.8.2 6.3 3.3 2.7 6.4-2.7 3.3-5.8-1.3-1.3-1.6-1.3-3.5-.5zM906 830.5c0 .8 2.7 4.2 6 7.5 4.1 4.1 6 6.8 6 8.5 0 3.5-4.9 13.3-7 14-2.9.9-1.2 4.2 3.4 6.3 5 2.4 15.7 5.2 19.7 5.2 2.1 0 3.2-.7 4.4-3 .8-1.6 1.5-3.8 1.5-4.9 0-1.1.9-2.2 2-2.6 1.6-.5 1.9-1.2 1.4-2.7-.3-1.1-.8-3.2-1-4.7-1.4-10-1.5-10.2-6.2-13.2-5-3.2-9.3-3.7-11.2-1.4-.7.8-2.2 1.5-3.4 1.5-2.5-.1-7.6-4.3-7.6-6.4 0-1.7-4.6-5.6-6.6-5.6-.8 0-1.4.7-1.4 1.5zM455.5 840.9c-.3.5-.1 1.2.5 1.6.5.3 1-.1 1-.9 0-1.8-.6-2.1-1.5-.7zM536.7 845.7c-1 1-.8 8.1.2 8.7.8.6 2.1-3.9 2.1-7.5 0-1.9-1.1-2.5-2.3-1.2zM447 855.5c0 .8.7 1.5 1.5 1.5s1.5-.7 1.5-1.5-.7-1.5-1.5-1.5-1.5.7-1.5 1.5zM510.1 855.6c0 1.1.3 1.4.6.6.3-.7.2-1.6-.1-1.9-.3-.4-.6.2-.5 1.3zM439.7 857.8c-2.5 1.7-8.7 8-8.7 8.9 0 .3.5 1.3 1 2.3 1.6 3 6.9 1.8 10.2-2.2 2.1-2.5 2.7-4.2 2.4-6.8-.4-4.1-1.3-4.5-4.9-2.2zM510 860.9c0 1.2.5 2.1 1 2.1.6 0 1-.6 1-1.4 0-.8-.4-1.8-1-2.1-.5-.3-1 .3-1 1.4zM423 863c0 .5.5 1 1.1 1 .5 0 .7-.5.4-1-.3-.6-.8-1-1.1-1-.2 0-.4.4-.4 1zM737 870c0 .5.5 1 1 1 .6 0 1-.5 1-1 0-.6-.4-1-1-1-.5 0-1 .4-1 1z"/></svg>