<svg xmlns="http://www.w3.org/2000/svg" viewBox="0 0 695.27 164.42"><defs><style>.cls-1{fill:#f1323e}</style></defs><g id="Layer_2" data-name="Layer 2"><g id="Layer_1-2" data-name="Layer 1"><path class="cls-1" d="M447 127.45a18.24 18.24 0 0 0-18.42 18.35A18 18 0 1 0 447 127.45Zm-.43 25.33a7.1 7.1 0 0 1-7.06-7.46 6.94 6.94 0 0 1 7-7 7.29 7.29 0 0 1 7.45 7.16 7.44 7.44 0 0 1-7.44 7.3Z"/><path class="cls-1" d="M400.31 128.24c-3.16 0-5.53.36-5.45 4.49q.27 13 0 25.94c-.08 4.49 3 4 5.76 4.09s5.3-.24 5.11-4.19c-.21-4.32 0-8.65 0-13s-.17-8.66.06-13-2.42-4.29-5.48-4.33Z"/><path class="cls-1" d="M291.68 128.29c-2.32.1-5.5-.74-5.54 3.15-.08 6.81-.35 13.66.24 20.43.61 7.08 5.49 11.08 12.76 11.59 9 .64 14.57-2.33 16.43-9.53 1.06-4.11 1-8.52 1.39-12.79h-.39c0-2.82-.16-5.66 0-8.47.25-3.77-1.86-4.46-4.95-4.39s-5.8-.14-5.63 4.22.05 9 0 13.46c0 3.54.12 7.68-4.87 7.61-4.64-.06-4.55-4-4.59-7.39-.06-4.82-.06-9.64-.05-14.46.06-3.52-2.42-3.54-4.8-3.43Z"/><path class="cls-1" d="M344.16 128.27c-2.89-.15-4.22 1.13-4.12 4.14.14 4.32 0 8.63 0 13 0 19 1 20 17.69 16.75 8.37-1.64 13.75-8.05 13.81-16.47s-5-15.08-13.54-16.55c-4.5-.83-9.21-.64-13.84-.87ZM359 140.91c1.4 2.2 1.45 6.17.46 8.75-1.32 3.44-5 3.67-8.76 2.94v-15.39c3.3 1.36 7.05 1.79 8.3 3.7Z"/><path class="cls-1" d="M5.87 104.37c4.66-.24 9.33 0 14-.05 6.59 0 6.85-.24 6.86-6.66 0-20.66 0-41.31.07-62 0-7 1.61-8.48 8.56-8.5 8.06 0 9.62 1.29 9.66 8.4.06 12.49.13 25 0 37.47 0 3.82 1.43 5.51 5.29 5.41 4.82-.13 9.66 0 14.49 0 6.71 0 7-.29 7-7.1v-35c0-7.83 1.52-9.21 9.47-9.18h3c3.59.18 5.44 2.19 5.74 5.67.13 1.48.07 3 .07 4.49v60.46c0 6.12.42 6.43 6.61 6.46h13.49c6.23 0 6.55-.31 6.56-6.45 0-21.82-.09-43.64.09-65.46 0-4.74-1.57-6.82-6.36-6.41C96 27.25 90.14 22.26 91.27 7v-.5c.44-4.77-1.83-6.43-6.49-6.4Q45.56.28 6.33.11C1.54.08-.06 1.91 0 6.63.21 21.78.08 36.94.08 52.1c0 15.49.09 31-.06 46.46-.02 4.33 1.53 6.04 5.85 5.81Z"/><path class="cls-1" d="M432.37.11C425.21.28 418 0 410.89.21c-25.74.7-48.54 20.76-50.42 46-1.34 17.89-.45 36-.59 53.93 0 2.94 1.36 4.23 4.27 4.2h15.49c6.33 0 6.72-.4 6.73-6.89 0-15.16-.1-30.32.09-45.47.17-12.78 11.09-24.13 23.66-24.67 6.81-.29 13.65-.1 20.48-.08 4.33 0 6.35 2.4 6.43 6.58.06 3.33.08 6.66 0 10-.1 6.17-1.94 8.08-8.05 8.16-7.83.1-15.66.31-23.48 0-4.7-.17-6.25 1.77-6.08 6.17.19 4.82.17 9.66 0 14.49-.14 4.2 1.48 6 5.86 5.93 8.15-.18 16.32-.12 24.48.12 5.37.16 7.05 2 7.22 7.45.13 4.33.19 8.67 0 13-.14 3.92 1.59 5.36 5.39 5.24 5.16-.17 10.33-.24 15.48 0 4.41.22 5.88-1.59 5.81-5.86-.17-11.16-.06-22.32-.06-33.48V38.55C463.57 25 465.34 26 451.59 26h-1.5c-6.77-.46-11.41-5-11.85-11.84a68.69 68.69 0 0 1-.05-8c.24-4.26-1.47-6.16-5.82-6.05Z"/><path class="cls-1" d="M313.92 77.78c-5.5.13-11 .07-16.49 0-14.11-.12-24.09-8.19-26.78-22C270 52.24 268.3 51 265 51c-5.16.08-10.32.16-15.48 0-4.38-.15-5.82 1.65-5.54 6 1.21 18.69 15.81 37.41 34.33 44.16 11.8 4.3 24 2.93 36.09 3.11 7.86.12 7.86 0 7.91-7.64.11-14.87 3.33-18.07 18.28-18.13a15 15 0 0 1 1.5 0c4.33.48 5.91-1.45 5.84-5.77-.19-11.16-.07-22.31-.07-33.47 0-11.32-.06-22.64 0-34 0-3.55-1.34-5.18-5-5.17q-34 .07-67.94 0c-3.87 0-5.39 1.78-5.32 5.49.08 5 0 10 0 15 .08 5.82.78 6.51 6.76 6.53 13.32 0 26.64.12 40 0 3.61 0 5 1.09 5 4.85-.16 12.82 0 25.64-.08 38.46-.04 5.14-2.21 7.25-7.36 7.36Z"/><path class="cls-1" d="M233.33 132.86c0 3.78 1.17 5.69 5.19 5.32a34.5 34.5 0 0 1 4.82.31c0 6.8.2 13.1-.06 19.39-.19 4.31 2.09 4.89 5.56 4.94 3.64.06 5.65-.93 5.44-5.07-.25-4.65.19-9.34-.12-14-.29-4.28 1-6.27 5.54-5.65 3.65.49 4.48-1.71 4.5-4.89s-.91-5.05-4.51-5q-10.5.17-21 0c-3.28-.02-5.38.61-5.36 4.65Z"/><path class="cls-1" d="M499.23 154.5a33.33 33.33 0 0 1-5.09-1.13c-.43-.12-.74-.66-1.15-.93-3.69-2.34-5.39 1.26-7.53 2.88-.4.31.61 3.86 1.79 4.59 3 1.87 6.47 3 9.75 4.4l.36-.78c.83 0 1.66 0 2.49-.12 5.9-.59 10.21-4.34 11.21-9.74.88-4.67-1.55-8.6-7.08-11.34a42.46 42.46 0 0 1-4.54-2.06 20.33 20.33 0 0 1-3.1-3.12c1.59.06 3.73-.51 4.66.3 4.2 3.69 6.86.17 8.65-2.26 2.45-3.32-1.53-4.62-3.55-5.64a19.59 19.59 0 0 0-8.1-2c-6.36-.15-11.38 3.68-12.37 8.83-1 5.31 1.66 9.42 8 12.23a21.09 21.09 0 0 1 2.77 1.12 22.79 22.79 0 0 1 3.75 2.86c.18.14-.67 1.93-.92 1.91Z"/><path class="cls-1" d="M548.37.12q-33 .18-66 0C477.6.06 476 1.89 476 6.61c.2 15.33.07 30.66.09 46 0 15.16.13 30.33-.08 45.49-.07 4.8 1.64 6.63 6.43 6.3 4.31-.31 8.66 0 13-.06 7.13 0 7.3-.16 7.31-7.26 0-21.5.11-43 0-64.49 0-4.09 1.35-5.56 5.5-5.49 11.82.21 23.66.05 35.49.07 8.76 0 9.7 1 9.71 9.84 0 20.49.07 41-.05 61.48 0 4.25 1.46 6.12 5.84 5.9 4.65-.24 9.33 0 14-.06 6.55 0 7-.45 7-7.17v-63c0-7.87-.28-8.12-8.16-8.16-14.2-.08-17.67-3.56-17.66-17.71a19.06 19.06 0 0 1 0-2c.52-4.54-1.54-6.2-6.05-6.17Z"/><path class="cls-1" d="M689.15 52c-10.83.2-21.66.07-32.5.07-14 0-14 0-14.15 14 0 3.45 0 7.57-3.77 8.37a15.29 15.29 0 0 1-10.26-1.62c-8.79-5.35-12.58-17.44-9.55-27.82a24.47 24.47 0 0 1 22.84-17.76c7.66-.15 15.33 0 23 0v-.06h25c3.72 0 5.56-1.57 5.5-5.39-.08-5 0-10 0-15-.15-5.86-.83-6.57-6.79-6.59-15.33-.05-30.68-.48-46 .1-22 .82-38.06 11.51-47.08 31.55-14.17 31.5 7.61 68.6 42 72.19 5.15.54 6.13-.32 6.2-5.67.07-4.33 0-8.66.07-13s2.19-6.59 6.39-6.75 8.33-.15 12.49 0c3.74.12 5.83 2 5.77 6-.06 4.83.12 9.66 0 14.49-.09 3.86 1.62 5.4 5.44 5.27 5.16-.17 10.34-.24 15.49 0 4.28.21 6.07-1.41 6-5.74q-.16-20.49 0-41c.06-4.39-1.89-5.71-6.09-5.64Z"/><path class="cls-1" d="M200.31 154.52a45.47 45.47 0 0 1-5.46-1.49c-.44-.15-.92-.95-1.15-.86a40.61 40.61 0 0 0-7.11 3.17c-.32.2.45 3.58 1.5 4.24 3.12 1.95 6.64 3.27 10 4.84.15-.3.29-.6.43-.9.83 0 1.67 0 2.49-.12 5.89-.61 10.24-4.39 11.17-9.71.83-4.71-1.55-8.6-7-11.35a52.19 52.19 0 0 1-5-2.26c-1-.67-1.69-1.94-2.52-2.94 1.45 0 2.9 0 4.33.08.42 0 .79.58 1.19.87 3.7 2.65 5.43-1 7.4-2.74.5-.44-.87-3.4-1.81-4.94-.53-.85-1.92-1.24-3-1.68-7.41-3-16.07-.28-18.49 5.84s.89 11.3 9.44 14.84a19.73 19.73 0 0 1 4.6 3.25c.12.09-.78 1.9-1.01 1.86Z"/><path class="cls-1" d="M181.33.29C151.4 0 127.14 23.74 127 53.33a53.22 53.22 0 0 0 53.51 53.72c30 .12 53.95-23.43 54-53.2A53.37 53.37 0 0 0 181.33.29ZM181.24 79c-13.72.14-25.64-11.59-25.67-25.28a25.19 25.19 0 0 1 50.38-.3c.14 13.86-11.09 25.49-24.71 25.58Z"/></g></g></svg>