<svg xmlns="http://www.w3.org/2000/svg"
     viewBox="0 0 1190.55 841.89">
    <clipPath id="a">
        <path d="M0 0h1190.55v841.89H0z"/>
    </clipPath>
    <g clip-path="url(#a)">
        <path d="m695.401 292.665-90.196 241.839-90.195-241.839h-78.874l129.633 347.579h78.873l129.632-347.579h-78.873Z"/>
        <clipPath id="b">
            <path d="M0 0h1190.55v841.89H0V0Z"/>
        </clipPath>
        <g clip-path="url(#b)">
            <path d="m244.467 537.386-57.576 41.776c22.365 33.143 67.272 68.012 127.565 68.012 67.771 0 120.755-41.549 120.755-106.169 0-42.236-24.601-74.445-75.207-97.642-6.97-3.195-35.697-15.967-41.207-18.294-26.63-11.248-39.576-23.873-39.576-39.006 0-15.701 12.235-30.87 37.278-30.87 17.523 0 33.58 8.242 48.979 25.164l54.734-39.714c-21.837-33.55-62.421-54.389-105.952-54.389-57.597 0-108.22 37.108-108.22 99.491 0 43.388 24.648 76.98 75.092 98.545 14.766 6.312 25.118 10.704 36.759 15.674 16.64 7.104 43.535 18.314 43.535 42.1 0 23.769-23.535 36.06-48.97 36.06-22.945 0-47.127-14.511-67.989-40.738M921.087 576.692c-16.824 0-30.955-10.159-38.458-24.572-5.691-10.932-5.913-28.319-5.913-43.107V364.667h80.385l26.854-72.002H876.716v-99.253h-73.598v326.826c.084 15.147.875 29.004 6.611 47.188 16.009 46.403 59.418 79.748 111.358 79.748 29.701 0 60.153-11.413 82.533-32.377l-46.099-52.684c-9.727 8.51-23.168 14.579-36.434 14.579"/>
        </g>
    </g>
</svg>